<?xml version="1.0" encoding="UTF-8" standalone="no"?>
<!-- Created with Inkscape (http://www.inkscape.org/) -->

<svg
   width="192.30299mm"
   height="34.532001mm"
   viewBox="0 0 192.303 34.532001"
   version="1.1"
   id="svg1"
   inkscape:version="1.4.4 (dcaf3e7d9e, 2026-05-05)"
   sodipodi:docname="lr_10x.svg"
   xml:space="preserve"
   inkscape:export-filename="lr_conversion.png"
   inkscape:export-xdpi="150"
   inkscape:export-ydpi="150"
   xmlns:inkscape="http://www.inkscape.org/namespaces/inkscape"
   xmlns:sodipodi="http://sodipodi.sourceforge.net/DTD/sodipodi-0.dtd"
   xmlns="http://www.w3.org/2000/svg"
   xmlns:svg="http://www.w3.org/2000/svg"><sodipodi:namedview
     id="namedview1"
     pagecolor="#ffffff"
     bordercolor="#000000"
     borderopacity="0.25"
     inkscape:showpageshadow="2"
     inkscape:pageopacity="0.0"
     inkscape:pagecheckerboard="0"
     inkscape:deskcolor="#d1d1d1"
     inkscape:document-units="mm"
     inkscape:zoom="1.2094621"
     inkscape:cx="363.79809"
     inkscape:cy="205.04983"
     inkscape:window-width="1536"
     inkscape:window-height="847"
     inkscape:window-x="0"
     inkscape:window-y="0"
     inkscape:window-maximized="1"
     inkscape:current-layer="layer1"
     inkscape:export-bgcolor="#ffffffff" /><defs
     id="defs1"><rect
       x="213.31796"
       y="587.03784"
       width="120.71482"
       height="75.240059"
       id="rect5" /></defs><g
     inkscape:label="Layer 1"
     inkscape:groupmode="layer"
     id="layer1"
     transform="translate(-12.818222,-119.4087)"><text
       xml:space="preserve"
       transform="matrix(0.26458333,0,0,0.26458333,0.99974839,0.47075202)"
       id="text5"
       style="font-weight:500;font-stretch:expanded;font-size:66.404px;line-height:1.25;font-family:Inconsolata;-inkscape-font-specification:'Inconsolata, Medium Expanded';text-align:center;letter-spacing:-1.99px;text-orientation:upright;white-space:pre;shape-inside:url(#rect5);display:inline;fill:#97889f;fill-opacity:1;stroke:#4b275c;stroke-width:26.2677;stroke-linecap:round;stroke-linejoin:round;stroke-miterlimit:1.5;stroke-dasharray:none;paint-order:fill markers stroke"><tspan
         x="213.31836"
         y="723.70104"
         id="tspan4"><tspan
           dx="0 39.842426 39.842426 39.842434 39.842419 39.842434 39.842434 39.842419 39.842419 39.842449 39.842419 39.842419"
           style="stroke:none"
           id="tspan1">Forward read</tspan></tspan></text><g
       id="g9"
       transform="matrix(0.58136209,0,0,0.58136209,36.465661,69.629126)" /><path
       d="m 45.832267,152.35158 h -0.357295 v -3.65102 q 0,-0.33327 0.114094,-0.56146 0.117097,-0.22819 0.330273,-0.34529 0.216179,-0.11709 0.513424,-0.11709 0.09308,0 0.192159,0.012 0.09908,0.009 0.192159,0.039 l -0.02702,0.30325 q -0.07506,-0.021 -0.153126,-0.027 -0.07506,-0.009 -0.177147,-0.009 -0.195161,0 -0.336277,0.0841 -0.141117,0.0811 -0.216179,0.23719 -0.07506,0.15613 -0.07506,0.38432 z m 0.77464,-3.24869 v 0.29425 h -1.669379 v -0.29425 z m 0.224188,1.67539 v -0.0991 q 0,-0.3543 0.102084,-0.65454 0.102085,-0.30025 0.291241,-0.51943 0.192159,-0.21918 0.459379,-0.33928 0.267221,-0.12311 0.594492,-0.12311 0.330272,0 0.597493,0.12311 0.267221,0.1201 0.45938,0.33928 0.192158,0.21918 0.294243,0.51943 0.102084,0.30024 0.102084,0.65454 v 0.0991 q 0,0.35429 -0.102084,0.65454 -0.102085,0.29724 -0.294243,0.51643 -0.189157,0.21918 -0.456377,0.34228 -0.267221,0.1201 -0.594491,0.1201 -0.330273,0 -0.597494,-0.1201 -0.267221,-0.1231 -0.45938,-0.34228 -0.192158,-0.21919 -0.294243,-0.51643 -0.102084,-0.30025 -0.102084,-0.65454 z m 0.357295,-0.0991 v 0.0991 q 0,0.26722 0.07206,0.50742 0.07206,0.23719 0.210173,0.42335 0.138114,0.18315 0.342283,0.28824 0.204169,0.10508 0.47139,0.10508 0.264218,0 0.465384,-0.10508 0.204169,-0.10509 0.342283,-0.28824 0.138114,-0.18616 0.207171,-0.42335 0.07206,-0.2402 0.07206,-0.50742 v -0.0991 q 0,-0.26422 -0.07206,-0.50142 -0.06906,-0.23719 -0.210174,-0.42335 -0.138114,-0.18615 -0.342283,-0.29424 -0.204168,-0.10809 -0.468386,-0.10809 -0.264219,0 -0.468387,0.10809 -0.201167,0.10809 -0.342283,0.29424 -0.138114,0.18616 -0.210174,0.42335 -0.06906,0.2372 -0.06906,0.50142 z m 3.418827,-1.03886 v 2.71124 h -0.357295 v -3.24869 h 0.348288 z m 1.14995,-0.56147 -0.009,0.33028 q -0.06005,-0.009 -0.117097,-0.015 -0.05705,-0.006 -0.123102,-0.006 -0.234193,0 -0.411339,0.0871 -0.174144,0.0841 -0.294243,0.2372 -0.1201,0.15012 -0.183152,0.35429 -0.06305,0.20117 -0.07206,0.43236 l -0.132109,0.051 q 0,-0.31826 0.06605,-0.59149 0.06605,-0.27322 0.201166,-0.47739 0.138114,-0.20717 0.345286,-0.32127 0.210173,-0.1171 0.492406,-0.1171 0.06906,0 0.135112,0.012 0.06906,0.009 0.102084,0.024 z m 1.290069,2.51308 0.783647,-2.48906 h 0.252209 l -0.150124,0.66956 -0.819677,2.57913 h -0.252209 z m -0.813672,-2.48906 0.687568,2.50407 0.147121,0.74462 h -0.261215 l -0.942779,-3.24869 z m 2.825334,2.49507 0.669553,-2.49507 h 0.369305 l -0.942779,3.24869 h -0.258213 z m -0.924764,-2.49507 0.771637,2.46804 0.195162,0.78065 h -0.252209 l -0.837692,-2.58214 -0.141116,-0.66655 z m 4.400638,2.66621 v -1.67539 q 0,-0.23119 -0.09608,-0.39933 -0.09608,-0.16814 -0.282233,-0.25821 -0.186154,-0.0901 -0.45938,-0.0901 -0.252208,0 -0.450372,0.0901 -0.195161,0.0871 -0.309255,0.2372 -0.111092,0.14712 -0.111092,0.32727 l -0.360298,-0.003 q 0,-0.18315 0.09007,-0.35429 0.09007,-0.17114 0.25521,-0.30625 0.165137,-0.13511 0.393325,-0.21318 0.231191,-0.0811 0.50742,-0.0811 0.348287,0 0.612506,0.1171 0.26722,0.1171 0.417344,0.35129 0.150124,0.23419 0.150124,0.58849 v 1.57029 q 0,0.16814 0.02402,0.34829 0.02702,0.18015 0.07506,0.29725 v 0.036 h -0.381315 q -0.03603,-0.10809 -0.05705,-0.27023 -0.01802,-0.16513 -0.01802,-0.31225 z m 0.08407,-1.30908 0.006,0.27622 h -0.705583 q -0.276229,0 -0.49541,0.0511 -0.216178,0.048 -0.366302,0.14411 -0.150124,0.0931 -0.231191,0.22519 -0.07806,0.13211 -0.07806,0.30025 0,0.17414 0.08707,0.31826 0.09007,0.14412 0.252209,0.23119 0.165136,0.0841 0.390322,0.0841 0.300248,0 0.528437,-0.11109 0.231191,-0.11109 0.381315,-0.29124 0.150124,-0.18015 0.201166,-0.39333 l 0.156129,0.20718 q -0.03903,0.15012 -0.144119,0.30925 -0.102085,0.15613 -0.267221,0.29424 -0.165136,0.13512 -0.390322,0.22219 -0.222184,0.0841 -0.504417,0.0841 -0.318263,0 -0.555459,-0.1201 -0.234194,-0.1201 -0.366303,-0.32727 -0.129106,-0.21018 -0.129106,-0.47439 0,-0.2402 0.102084,-0.42936 0.102084,-0.19216 0.294243,-0.32427 0.195161,-0.13511 0.468387,-0.20417 0.276228,-0.0721 0.618511,-0.0721 z m 1.368133,-0.81968 v 2.71124 H 59.62968 v -3.24869 h 0.348287 z m 1.14995,-0.56147 -0.009,0.33028 q -0.06005,-0.009 -0.117096,-0.015 -0.05705,-0.006 -0.123102,-0.006 -0.234194,0 -0.41134,0.0871 -0.174144,0.0841 -0.294243,0.2372 -0.120099,0.15012 -0.183151,0.35429 -0.06305,0.20117 -0.07206,0.43236 l -0.132109,0.051 q 0,-0.31826 0.06606,-0.59149 0.06605,-0.27322 0.201166,-0.47739 0.138114,-0.20717 0.345285,-0.32127 0.210174,-0.1171 0.492407,-0.1171 0.06906,0 0.135111,0.012 0.06906,0.009 0.102085,0.024 z m 2.391978,2.64219 v -3.98129 h 0.360298 v 4.61181 h -0.336278 z m -2.254863,-0.9608 v -0.063 q 0,-0.37831 0.08707,-0.68156 0.08707,-0.30625 0.249206,-0.52243 0.165137,-0.21918 0.396328,-0.33328 0.23119,-0.1171 0.522431,-0.1171 0.285236,0 0.504417,0.0931 0.219181,0.0931 0.37531,0.26722 0.159131,0.17415 0.255211,0.41434 0.09908,0.2402 0.144119,0.53445 v 0.80166 q -0.03603,0.27623 -0.132109,0.50742 -0.09608,0.22819 -0.255211,0.39933 -0.159132,0.16814 -0.384318,0.26121 -0.222183,0.0901 -0.513424,0.0901 -0.288238,0 -0.519429,-0.1201 -0.231191,-0.1201 -0.393325,-0.33928 -0.162134,-0.22219 -0.249206,-0.52544 -0.08707,-0.30325 -0.08707,-0.66655 z m 0.360298,-0.063 v 0.063 q 0,0.28524 0.05705,0.52844 0.05705,0.2432 0.174144,0.42335 0.117097,0.18015 0.297245,0.28223 0.180149,0.10209 0.426353,0.10209 0.309255,0 0.519429,-0.1171 0.210173,-0.1201 0.336278,-0.31526 0.126104,-0.19816 0.183151,-0.43236 v -0.93377 q -0.03603,-0.15913 -0.105087,-0.32427 -0.06906,-0.16513 -0.189156,-0.30325 -0.117097,-0.14111 -0.300248,-0.22518 -0.180149,-0.0871 -0.438362,-0.0871 -0.249206,0 -0.429355,0.10209 -0.180149,0.10208 -0.300248,0.28523 -0.117097,0.18015 -0.174144,0.42335 -0.05705,0.24321 -0.05705,0.52844 z m 4.603809,-1.05687 v 2.71124 h -0.357295 v -3.24869 h 0.348287 z m 1.14995,-0.56147 -0.009,0.33028 q -0.06005,-0.009 -0.117096,-0.015 -0.05705,-0.006 -0.123102,-0.006 -0.234194,0 -0.41134,0.0871 -0.174144,0.0841 -0.294243,0.2372 -0.120099,0.15012 -0.183151,0.35429 -0.06305,0.20117 -0.07206,0.43236 l -0.132109,0.051 q 0,-0.31826 0.06606,-0.59149 0.06605,-0.27322 0.201166,-0.47739 0.138114,-0.20717 0.345285,-0.32127 0.210174,-0.1171 0.492407,-0.1171 0.06906,0 0.135111,0.012 0.06906,0.009 0.102085,0.024 z m 1.536272,3.33276 q -0.318263,0 -0.585484,-0.1171 -0.264218,-0.1171 -0.462381,-0.33027 -0.195162,-0.21318 -0.303251,-0.50442 -0.105087,-0.29424 -0.105087,-0.64253 v -0.12911 q 0,-0.37531 0.111092,-0.67856 0.111092,-0.30325 0.306253,-0.51943 0.195161,-0.21617 0.444367,-0.33027 0.252208,-0.1171 0.528437,-0.1171 0.309255,0 0.549454,0.1111 0.240198,0.10809 0.402332,0.30925 0.165136,0.19817 0.249206,0.47139 0.08407,0.27022 0.08407,0.59749 v 0.21919 H 67.684345 V 150.445 h 2.101736 v -0.042 q -0.006,-0.27323 -0.111092,-0.51042 -0.102084,-0.2402 -0.306253,-0.39033 -0.204168,-0.15012 -0.510421,-0.15012 -0.228189,0 -0.420348,0.0961 -0.189156,0.0961 -0.32727,0.27623 -0.135112,0.17714 -0.210174,0.42335 -0.07206,0.2432 -0.07206,0.54044 v 0.12911 q 0,0.27022 0.07806,0.50442 0.08107,0.23119 0.228189,0.40833 0.150124,0.17715 0.354293,0.27623 0.204168,0.0991 0.450372,0.0991 0.288238,0 0.510421,-0.10508 0.222184,-0.10809 0.39933,-0.33928 l 0.225186,0.17414 q -0.105087,0.15613 -0.264218,0.28824 -0.156129,0.13211 -0.37531,0.21017 -0.219181,0.0781 -0.510422,0.0781 z m 3.674039,-0.64253 v -1.67539 q 0,-0.23119 -0.09608,-0.39933 -0.09608,-0.16814 -0.282234,-0.25821 -0.186153,-0.0901 -0.459379,-0.0901 -0.252208,0 -0.450372,0.0901 -0.195161,0.0871 -0.309256,0.2372 -0.111091,0.14712 -0.111091,0.32727 l -0.360298,-0.003 q 0,-0.18315 0.09007,-0.35429 0.09007,-0.17114 0.255211,-0.30625 0.165137,-0.13511 0.393325,-0.21318 0.231191,-0.0811 0.507419,-0.0811 0.348288,0 0.612506,0.1171 0.267221,0.1171 0.417345,0.35129 0.150124,0.23419 0.150124,0.58849 v 1.57029 q 0,0.16814 0.02402,0.34829 0.02702,0.18015 0.07506,0.29725 v 0.036 H 72.67347 q -0.03603,-0.10809 -0.05705,-0.27023 -0.01801,-0.16513 -0.01801,-0.31225 z m 0.08407,-1.30908 0.006,0.27622 H 71.9829 q -0.276229,0 -0.49541,0.0511 -0.216178,0.048 -0.366302,0.14411 -0.150124,0.0931 -0.231191,0.22519 -0.07806,0.13211 -0.07806,0.30025 0,0.17414 0.08707,0.31826 0.09007,0.14412 0.252208,0.23119 0.165137,0.0841 0.390323,0.0841 0.300248,0 0.528436,-0.11109 0.231191,-0.11109 0.381315,-0.29124 0.150124,-0.18015 0.201167,-0.39333 l 0.156129,0.20718 q -0.03903,0.15012 -0.144119,0.30925 -0.102085,0.15613 -0.267221,0.29424 -0.165137,0.13512 -0.390323,0.22219 -0.222183,0.0841 -0.504416,0.0841 -0.318263,0 -0.555459,-0.1201 -0.234194,-0.1201 -0.366303,-0.32727 -0.129106,-0.21018 -0.129106,-0.47439 0,-0.2402 0.102084,-0.42936 0.102084,-0.19216 0.294243,-0.32427 0.195161,-0.13511 0.468387,-0.20417 0.276228,-0.0721 0.618511,-0.0721 z m 3.121582,1.26104 v -3.98129 h 0.360298 v 4.61181 h -0.336278 z m -2.254863,-0.9608 v -0.063 q 0,-0.37831 0.08707,-0.68156 0.08707,-0.30625 0.249206,-0.52243 0.165137,-0.21918 0.396328,-0.33328 0.231191,-0.1171 0.522431,-0.1171 0.285236,0 0.504417,0.0931 0.219181,0.0931 0.37531,0.26722 0.159131,0.17415 0.255211,0.41434 0.09908,0.2402 0.144119,0.53445 v 0.80166 q -0.03603,0.27623 -0.132109,0.50742 -0.09608,0.22819 -0.255211,0.39933 -0.159132,0.16814 -0.384318,0.26121 -0.222183,0.0901 -0.513424,0.0901 -0.288238,0 -0.519429,-0.1201 -0.231191,-0.1201 -0.393325,-0.33928 -0.162134,-0.22219 -0.249206,-0.52544 -0.08707,-0.30325 -0.08707,-0.66655 z m 0.360298,-0.063 v 0.063 q 0,0.28524 0.05705,0.52844 0.05705,0.2432 0.174144,0.42335 0.117097,0.18015 0.297246,0.28223 0.180148,0.10209 0.426352,0.10209 0.309255,0 0.519429,-0.1171 0.210173,-0.1201 0.336278,-0.31526 0.126104,-0.19816 0.183151,-0.43236 v -0.93377 q -0.03603,-0.15913 -0.105087,-0.32427 -0.06906,-0.16513 -0.189156,-0.30325 -0.117097,-0.14111 -0.300248,-0.22518 -0.180149,-0.0871 -0.438362,-0.0871 -0.249206,0 -0.429355,0.10209 -0.180149,0.10208 -0.300248,0.28523 -0.117097,0.18015 -0.174144,0.42335 -0.05705,0.24321 -0.05705,0.52844 z"
       id="text6"
       style="font-weight:300;font-size:6.14908px;line-height:1.25;font-family:Roboto;-inkscape-font-specification:'Roboto, Light';text-align:center;letter-spacing:-0.226184px;text-orientation:upright;text-anchor:middle;fill:#4b4b4b;stroke-width:2.9856;stroke-linecap:round;stroke-linejoin:round;stroke-miterlimit:1.5;paint-order:fill markers stroke"
       aria-label="forward read" /><path
       d="m 106.1758,121.15996 v 4.38963 h -0.35729 v -3.93625 l -1.18898,0.44136 v -0.33928 l 1.48622,-0.55546 z m 4.14843,1.82852 v 0.7356 q 0,0.4804 -0.0901,0.8377 -0.0901,0.35429 -0.26422,0.58848 -0.17114,0.23119 -0.42035,0.34529 -0.2462,0.11409 -0.56446,0.11409 -0.25221,0 -0.46238,-0.0721 -0.21018,-0.0721 -0.37531,-0.21918 -0.16214,-0.15012 -0.27623,-0.37531 -0.1141,-0.22519 -0.17415,-0.52844 -0.06,-0.30625 -0.06,-0.69057 v -0.7356 q 0,-0.4834 0.0901,-0.83469 0.0931,-0.35129 0.26422,-0.58249 0.17414,-0.23119 0.42335,-0.34228 0.2492,-0.11409 0.56446,-0.11409 0.25221,0 0.46238,0.0751 0.21318,0.0721 0.37531,0.21618 0.16514,0.14412 0.27623,0.3693 0.1141,0.22219 0.17114,0.52544 0.0601,0.30325 0.0601,0.68757 z m -0.35729,0.77764 v -0.82268 q 0,-0.29725 -0.042,-0.54045 -0.039,-0.2432 -0.11709,-0.42635 -0.0781,-0.18315 -0.19817,-0.30625 -0.11709,-0.12311 -0.27622,-0.18315 -0.15613,-0.0631 -0.3543,-0.0631 -0.2432,0 -0.42935,0.0991 -0.18315,0.0961 -0.30626,0.28824 -0.1231,0.18916 -0.18615,0.47439 -0.0601,0.28524 -0.0601,0.65755 v 0.82268 q 0,0.29424 0.039,0.53744 0.039,0.2402 0.1201,0.42635 0.0811,0.18616 0.19817,0.31526 0.1201,0.12611 0.27622,0.19216 0.15914,0.0631 0.3543,0.0631 0.2492,0 0.43235,-0.0991 0.18316,-0.10208 0.30626,-0.29724 0.1231,-0.19817 0.18315,-0.4834 0.06,-0.28824 0.06,-0.65454 z m 1.14595,-2.58814 1.23101,1.84653 1.23402,-1.84653 h 0.43837 l -1.4472,2.15278 1.49223,2.21883 h -0.44136 l -1.27606,-1.90657 -1.27605,1.90657 h -0.43836 l 1.49223,-2.21883 -1.44719,-2.15278 z"
       id="text6-8"
       style="font-weight:300;font-size:6.14908px;line-height:1.25;font-family:Roboto;-inkscape-font-specification:'Roboto, Light';text-align:center;letter-spacing:-0.226184px;text-orientation:upright;text-anchor:middle;fill:#4b4b4b;stroke-width:2.9856;stroke-linecap:round;stroke-linejoin:round;stroke-miterlimit:1.5;paint-order:fill markers stroke"
       aria-label="10X" /><path
       d="m 142.94902,149.64034 v 2.71124 h -0.35729 v -3.24869 h 0.34829 z m 1.14995,-0.56147 -0.009,0.33028 q -0.06,-0.009 -0.1171,-0.015 -0.0571,-0.006 -0.1231,-0.006 -0.2342,0 -0.41134,0.0871 -0.17415,0.0841 -0.29425,0.2372 -0.12009,0.15012 -0.18315,0.35429 -0.0631,0.20117 -0.0721,0.43236 l -0.13211,0.051 q 0,-0.31826 0.0661,-0.59149 0.066,-0.27322 0.20117,-0.47739 0.13811,-0.20717 0.34528,-0.32127 0.21017,-0.1171 0.49241,-0.1171 0.069,0 0.13511,0.012 0.0691,0.009 0.10208,0.024 z m 1.53628,3.33276 q -0.31827,0 -0.58549,-0.1171 -0.26422,-0.1171 -0.46238,-0.33027 -0.19516,-0.21318 -0.30325,-0.50442 -0.10509,-0.29424 -0.10509,-0.64253 v -0.12911 q 0,-0.37531 0.11109,-0.67856 0.1111,-0.30325 0.30626,-0.51943 0.19516,-0.21617 0.44436,-0.33027 0.25221,-0.1171 0.52844,-0.1171 0.30926,0 0.54945,0.1111 0.2402,0.10809 0.40234,0.30925 0.16513,0.19817 0.2492,0.47139 0.0841,0.27022 0.0841,0.59749 v 0.21919 h -2.45903 V 150.445 h 2.10174 v -0.042 q -0.006,-0.27323 -0.11109,-0.51042 -0.10209,-0.2402 -0.30626,-0.39033 -0.20417,-0.15012 -0.51042,-0.15012 -0.22819,0 -0.42035,0.0961 -0.18915,0.0961 -0.32727,0.27623 -0.13511,0.17714 -0.21017,0.42335 -0.0721,0.2432 -0.0721,0.54044 v 0.12911 q 0,0.27022 0.0781,0.50442 0.0811,0.23119 0.22819,0.40833 0.15013,0.17715 0.3543,0.27623 0.20416,0.0991 0.45037,0.0991 0.28824,0 0.51042,-0.10508 0.22218,-0.10809 0.39933,-0.33928 l 0.22519,0.17414 q -0.10509,0.15613 -0.26422,0.28824 -0.15613,0.13211 -0.37531,0.21017 -0.21918,0.0781 -0.51042,0.0781 z m 2.61716,-0.40534 1.04186,-2.9034 h 0.36931 l -1.21601,3.24869 h -0.26121 z m -0.94278,-2.9034 1.05387,2.91241 0.0571,0.33628 h -0.26422 l -1.21901,-3.24869 z m 3.93225,3.30874 q -0.31826,0 -0.58548,-0.1171 -0.26422,-0.1171 -0.46238,-0.33027 -0.19516,-0.21318 -0.30325,-0.50442 -0.10509,-0.29424 -0.10509,-0.64253 v -0.12911 q 0,-0.37531 0.11109,-0.67856 0.11109,-0.30325 0.30625,-0.51943 0.19517,-0.21617 0.44437,-0.33027 0.25221,-0.1171 0.52844,-0.1171 0.30925,0 0.54945,0.1111 0.2402,0.10809 0.40233,0.30925 0.16514,0.19817 0.24921,0.47139 0.0841,0.27022 0.0841,0.59749 v 0.21919 h -2.45903 V 150.445 h 2.10173 v -0.042 q -0.006,-0.27323 -0.11109,-0.51042 -0.10208,-0.2402 -0.30625,-0.39033 -0.20417,-0.15012 -0.51042,-0.15012 -0.22819,0 -0.42035,0.0961 -0.18916,0.0961 -0.32727,0.27623 -0.13511,0.17714 -0.21017,0.42335 -0.0721,0.2432 -0.0721,0.54044 v 0.12911 q 0,0.27022 0.0781,0.50442 0.0811,0.23119 0.22819,0.40833 0.15012,0.17715 0.35429,0.27623 0.20417,0.0991 0.45038,0.0991 0.28823,0 0.51042,-0.10508 0.22218,-0.10809 0.39933,-0.33928 l 0.22518,0.17414 q -0.10508,0.15613 -0.26422,0.28824 -0.15612,0.13211 -0.37531,0.21017 -0.21918,0.0781 -0.51042,0.0781 z m 2.0557,-2.77129 v 2.71124 h -0.35729 v -3.24869 h 0.34829 z m 1.14995,-0.56147 -0.009,0.33028 q -0.06,-0.009 -0.1171,-0.015 -0.0571,-0.006 -0.1231,-0.006 -0.2342,0 -0.41134,0.0871 -0.17415,0.0841 -0.29425,0.2372 -0.12009,0.15012 -0.18315,0.35429 -0.063,0.20117 -0.0721,0.43236 l -0.13211,0.051 q 0,-0.31826 0.0661,-0.59149 0.066,-0.27322 0.20117,-0.47739 0.13811,-0.20717 0.34528,-0.32127 0.21017,-0.1171 0.49241,-0.1171 0.0691,0 0.13511,0.012 0.0691,0.009 0.10208,0.024 z m 2.28389,2.44402 q 0,-0.13211 -0.0661,-0.26121 -0.0661,-0.12911 -0.25521,-0.2372 -0.18616,-0.10809 -0.54946,-0.18315 -0.27022,-0.06 -0.4834,-0.13511 -0.21017,-0.0751 -0.35429,-0.18015 -0.14412,-0.10509 -0.21918,-0.25221 -0.0751,-0.14712 -0.0751,-0.34829 0,-0.18015 0.0781,-0.33928 0.0811,-0.16213 0.22819,-0.28223 0.15013,-0.1231 0.3603,-0.19216 0.21318,-0.0691 0.47739,-0.0691 0.37531,0 0.64253,0.12911 0.27023,0.12611 0.41134,0.34529 0.14412,0.21918 0.14412,0.49541 h -0.35729 q 0,-0.16814 -0.0991,-0.31827 -0.0961,-0.15012 -0.28524,-0.2462 -0.18615,-0.0961 -0.45638,-0.0961 -0.27923,0 -0.45337,0.0841 -0.17414,0.0841 -0.25521,0.21318 -0.0781,0.1291 -0.0781,0.26722 0,0.10809 0.033,0.19816 0.036,0.0871 0.12611,0.16213 0.0931,0.0751 0.26421,0.14112 0.17115,0.066 0.44437,0.12911 0.39333,0.0871 0.64253,0.21317 0.25221,0.1231 0.37231,0.30626 0.1201,0.18014 0.1201,0.43836 0,0.20116 -0.0841,0.3693 -0.0841,0.16514 -0.2432,0.28524 -0.15613,0.1201 -0.37831,0.18615 -0.21919,0.0661 -0.49241,0.0661 -0.41134,0 -0.69658,-0.13511 -0.28223,-0.13812 -0.42935,-0.3603 -0.14412,-0.22519 -0.14412,-0.4774 h 0.35729 q 0.018,0.25221 0.15914,0.39933 0.14111,0.14412 0.34528,0.20417 0.20717,0.0601 0.40834,0.0601 0.27623,0 0.46238,-0.0811 0.18615,-0.0811 0.28223,-0.21317 0.0961,-0.13211 0.0961,-0.28524 z m 2.19982,0.88874 q -0.31826,0 -0.58548,-0.1171 -0.26422,-0.1171 -0.46238,-0.33027 -0.19516,-0.21318 -0.30325,-0.50442 -0.10509,-0.29424 -0.10509,-0.64253 v -0.12911 q 0,-0.37531 0.11109,-0.67856 0.11109,-0.30325 0.30626,-0.51943 0.19516,-0.21617 0.44436,-0.33027 0.25221,-0.1171 0.52844,-0.1171 0.30925,0 0.54945,0.1111 0.2402,0.10809 0.40234,0.30925 0.16513,0.19817 0.2492,0.47139 0.0841,0.27022 0.0841,0.59749 v 0.21919 h -2.45903 V 150.445 h 2.10174 v -0.042 q -0.006,-0.27323 -0.1111,-0.51042 -0.10208,-0.2402 -0.30625,-0.39033 -0.20417,-0.15012 -0.51042,-0.15012 -0.22819,0 -0.42035,0.0961 -0.18915,0.0961 -0.32727,0.27623 -0.13511,0.17714 -0.21017,0.42335 -0.0721,0.2432 -0.0721,0.54044 v 0.12911 q 0,0.27022 0.0781,0.50442 0.0811,0.23119 0.22819,0.40833 0.15013,0.17715 0.35429,0.27623 0.20417,0.0991 0.45038,0.0991 0.28823,0 0.51042,-0.10508 0.22218,-0.10809 0.39933,-0.33928 l 0.22518,0.17414 q -0.10508,0.15613 -0.26421,0.28824 -0.15613,0.13211 -0.37531,0.21017 -0.21919,0.0781 -0.51043,0.0781 z m 3.32776,-2.77129 v 2.71124 h -0.3573 v -3.24869 h 0.34829 z m 1.14995,-0.56147 -0.009,0.33028 q -0.06,-0.009 -0.1171,-0.015 -0.057,-0.006 -0.1231,-0.006 -0.23419,0 -0.41134,0.0871 -0.17414,0.0841 -0.29424,0.2372 -0.1201,0.15012 -0.18315,0.35429 -0.063,0.20117 -0.0721,0.43236 l -0.13211,0.051 q 0,-0.31826 0.066,-0.59149 0.0661,-0.27322 0.20117,-0.47739 0.13811,-0.20717 0.34529,-0.32127 0.21017,-0.1171 0.4924,-0.1171 0.0691,0 0.13511,0.012 0.0691,0.009 0.10209,0.024 z m 1.53627,3.33276 q -0.31826,0 -0.58548,-0.1171 -0.26422,-0.1171 -0.46239,-0.33027 -0.19516,-0.21318 -0.30325,-0.50442 -0.10508,-0.29424 -0.10508,-0.64253 v -0.12911 q 0,-0.37531 0.11109,-0.67856 0.11109,-0.30325 0.30625,-0.51943 0.19516,-0.21617 0.44437,-0.33027 0.25221,-0.1171 0.52844,-0.1171 0.30925,0 0.54945,0.1111 0.2402,0.10809 0.40233,0.30925 0.16514,0.19817 0.24921,0.47139 0.0841,0.27022 0.0841,0.59749 v 0.21919 H 163.7052 V 150.445 h 2.10173 v -0.042 q -0.006,-0.27323 -0.11109,-0.51042 -0.10208,-0.2402 -0.30625,-0.39033 -0.20417,-0.15012 -0.51042,-0.15012 -0.22819,0 -0.42035,0.0961 -0.18916,0.0961 -0.32727,0.27623 -0.13511,0.17714 -0.21018,0.42335 -0.072,0.2432 -0.072,0.54044 v 0.12911 q 0,0.27022 0.0781,0.50442 0.0811,0.23119 0.22819,0.40833 0.15012,0.17715 0.35429,0.27623 0.20417,0.0991 0.45037,0.0991 0.28824,0 0.51042,-0.10508 0.22219,-0.10809 0.39933,-0.33928 l 0.22519,0.17414 q -0.10509,0.15613 -0.26422,0.28824 -0.15613,0.13211 -0.37531,0.21017 -0.21918,0.0781 -0.51042,0.0781 z m 3.67404,-0.64253 v -1.67539 q 0,-0.23119 -0.0961,-0.39933 -0.0961,-0.16814 -0.28223,-0.25821 -0.18616,-0.0901 -0.45938,-0.0901 -0.25221,0 -0.45037,0.0901 -0.19517,0.0871 -0.30926,0.2372 -0.11109,0.14712 -0.11109,0.32727 l -0.3603,-0.003 q 0,-0.18315 0.0901,-0.35429 0.0901,-0.17114 0.25522,-0.30625 0.16513,-0.13511 0.39332,-0.21318 0.23119,-0.0811 0.50742,-0.0811 0.34829,0 0.61251,0.1171 0.26722,0.1171 0.41734,0.35129 0.15012,0.23419 0.15012,0.58849 v 1.57029 q 0,0.16814 0.024,0.34829 0.027,0.18015 0.0751,0.29725 v 0.036 h -0.38132 q -0.036,-0.10809 -0.0571,-0.27023 -0.018,-0.16513 -0.018,-0.31225 z m 0.0841,-1.30908 0.006,0.27622 h -0.70558 q -0.27623,0 -0.49541,0.0511 -0.21618,0.048 -0.3663,0.14411 -0.15013,0.0931 -0.23119,0.22519 -0.0781,0.13211 -0.0781,0.30025 0,0.17414 0.0871,0.31826 0.0901,0.14412 0.2522,0.23119 0.16514,0.0841 0.39033,0.0841 0.30024,0 0.52843,-0.11109 0.23119,-0.11109 0.38132,-0.29124 0.15012,-0.18015 0.20116,-0.39333 l 0.15613,0.20718 q -0.039,0.15012 -0.14412,0.30925 -0.10208,0.15613 -0.26722,0.29424 -0.16513,0.13512 -0.39032,0.22219 -0.22218,0.0841 -0.50442,0.0841 -0.31826,0 -0.55545,-0.1201 -0.2342,-0.1201 -0.36631,-0.32727 -0.1291,-0.21018 -0.1291,-0.47439 0,-0.2402 0.10208,-0.42936 0.10208,-0.19216 0.29424,-0.32427 0.19516,-0.13511 0.46839,-0.20417 0.27623,-0.0721 0.61851,-0.0721 z m 3.12158,1.26104 v -3.98129 h 0.3603 v 4.61181 h -0.33628 z m -2.25486,-0.9608 v -0.063 q 0,-0.37831 0.0871,-0.68156 0.0871,-0.30625 0.24921,-0.52243 0.16513,-0.21918 0.39632,-0.33328 0.23119,-0.1171 0.52243,-0.1171 0.28524,0 0.50442,0.0931 0.21918,0.0931 0.37531,0.26722 0.15913,0.17415 0.25521,0.41434 0.0991,0.2402 0.14412,0.53445 v 0.80166 q -0.036,0.27623 -0.13211,0.50742 -0.0961,0.22819 -0.25521,0.39933 -0.15913,0.16814 -0.38432,0.26121 -0.22218,0.0901 -0.51342,0.0901 -0.28824,0 -0.51943,-0.1201 -0.23119,-0.1201 -0.39332,-0.33928 -0.16214,-0.22219 -0.24921,-0.52544 -0.0871,-0.30325 -0.0871,-0.66655 z m 0.3603,-0.063 v 0.063 q 0,0.28524 0.057,0.52844 0.0571,0.2432 0.17415,0.42335 0.11709,0.18015 0.29724,0.28223 0.18015,0.10209 0.42635,0.10209 0.30926,0 0.51943,-0.1171 0.21018,-0.1201 0.33628,-0.31526 0.12611,-0.19816 0.18315,-0.43236 v -0.93377 q -0.036,-0.15913 -0.10508,-0.32427 -0.0691,-0.16513 -0.18916,-0.30325 -0.1171,-0.14111 -0.30025,-0.22518 -0.18015,-0.0871 -0.43836,-0.0871 -0.24921,0 -0.42936,0.10209 -0.18014,0.10208 -0.30024,0.28523 -0.1171,0.18015 -0.17415,0.42335 -0.057,0.24321 -0.057,0.52844 z"
       id="text6-7"
       style="font-weight:300;font-size:6.14908px;line-height:1.25;font-family:Roboto;-inkscape-font-specification:'Roboto, Light';text-align:center;letter-spacing:-0.226184px;text-orientation:upright;text-anchor:middle;fill:#4b4b4b;stroke-width:2.9856;stroke-linecap:round;stroke-linejoin:round;stroke-miterlimit:1.5;paint-order:fill markers stroke"
       aria-label="reverse read" /><path
       style="fill:none;fill-opacity:1;stroke:#c9c9c9;stroke-width:0.434999;stroke-linecap:butt;stroke-linejoin:round;stroke-miterlimit:1.5;stroke-dasharray:none;stroke-dashoffset:0;stroke-opacity:1;paint-order:fill markers stroke"
       d="m 79.96381,149.94168 h 27.10262 v -2.32031"
       id="path14"
       sodipodi:nodetypes="ccc" /><path
       style="fill:none;fill-opacity:1;stroke:#c9c9c9;stroke-width:0.434999;stroke-linecap:butt;stroke-linejoin:round;stroke-miterlimit:1.5;stroke-dasharray:none;stroke-dashoffset:0;stroke-opacity:1;paint-order:fill markers stroke"
       d="M 41.138074,149.94168 H 14.035469 v -2.32031"
       id="path14-9"
       sodipodi:nodetypes="ccc" /><path
       style="fill:none;fill-opacity:1;stroke:#c9c9c9;stroke-width:0.434999;stroke-linecap:butt;stroke-linejoin:round;stroke-miterlimit:1.5;stroke-dasharray:none;stroke-dashoffset:0;stroke-opacity:1;paint-order:fill markers stroke"
       d="m 176.80135,149.94168 h 27.10262 v -2.32031"
       id="path14-3"
       sodipodi:nodetypes="ccc" /><path
       style="fill:none;fill-opacity:1;stroke:#c9c9c9;stroke-width:0.434999;stroke-linecap:butt;stroke-linejoin:round;stroke-miterlimit:1.5;stroke-dasharray:none;stroke-dashoffset:0;stroke-opacity:1;paint-order:fill markers stroke"
       d="m 137.97558,149.94168 h -27.10262 v -2.32031"
       id="path14-9-7"
       sodipodi:nodetypes="ccc" /><g
       id="g1"
       transform="translate(68.187132,-7.9771168)"><g
         id="path1"
         transform="translate(-65.028002,10.204094)"><path
           style="color:#000000;fill:#d19b2f;stroke-linecap:round;stroke-linejoin:round;stroke-miterlimit:1.5;-inkscape-stroke:none;paint-order:fill markers stroke"
           d="M 15.969565,138.47581 H 99.317563"
           id="path2" /><path
           style="color:#000000;fill:#b0d7c3;fill-opacity:1;stroke-linecap:round;stroke-linejoin:round;stroke-miterlimit:1.5;-inkscape-stroke:none;paint-order:fill markers stroke"
           d="m 15.96875,135 a 3.4749999,3.4749999 0 0 0 -3.474609,3.47656 3.4749999,3.4749999 0 0 0 3.474609,3.47461 H 99.318359 A 3.4749999,3.4749999 0 0 0 102.79297,138.47656 3.4749999,3.4749999 0 0 0 99.318359,135 Z"
           id="path3" /><path
           style="color:#000000;fill:#89a7c1;fill-opacity:1;stroke-linecap:round;stroke-linejoin:round;stroke-miterlimit:1.5;-inkscape-stroke:none;paint-order:fill markers stroke"
           d="m 15.96875,135 c -1.919646,2.2e-4 -3.475471,1.55691 -3.474609,3.47656 2.15e-4,1.91888 1.555724,3.47439 3.474609,3.47461 H 33.172526 V 135 Z"
           id="path3-2"
           sodipodi:nodetypes="cccccc" /></g><g
         id="path1-5"
         transform="translate(-67.144669,10.204094)"><path
           style="color:#000000;fill:#d19b2f;stroke-linecap:round;stroke-linejoin:round;stroke-miterlimit:1.5;-inkscape-stroke:none;paint-order:fill markers stroke"
           d="m 114.58506,138.37561 h 83.348"
           id="path4" /><path
           style="color:#000000;fill:#b0d7c3;fill-opacity:1;stroke-linecap:round;stroke-linejoin:round;stroke-miterlimit:1.5;-inkscape-stroke:none;paint-order:fill markers stroke"
           d="m 114.58594,134.90039 a 3.4749999,3.4749999 0 0 0 -3.47656,3.47461 3.4749999,3.4749999 0 0 0 3.47656,3.47656 h 83.34765 a 3.4749999,3.4749999 0 0 0 3.47461,-3.47656 3.4749999,3.4749999 0 0 0 -3.47461,-3.47461 z"
           id="path5" /></g><path
         d="m -48.096798,139.37266 q 0.405737,0 0.683209,0.12303 0.280089,0.12041 0.455472,0.33244 0.178001,0.21203 0.272236,0.4895 0.09685,0.27747 0.133501,0.59159 0.03665,0.31412 0.03665,0.63609 0,0.65965 -0.06282,1.0968 -0.06021,0.43453 -0.225118,0.64918 -0.164913,0.21727 -0.481649,0.21727 -0.162295,0 -0.282707,-0.0785 -0.117795,-0.0785 -0.193707,-0.19895 -0.07329,-0.11779 -0.107324,-0.24344 -0.03403,-0.12826 -0.03141,-0.2225 h -0.02094 q -0.04973,0.12041 -0.136118,0.23821 -0.08638,0.11517 -0.227736,0.19109 -0.141353,0.0785 -0.350766,0.0785 -0.285324,0 -0.460707,-0.15706 -0.172766,-0.15444 -0.251295,-0.42406 -0.07853,-0.27224 -0.07853,-0.61777 0,-0.68321 0.269618,-1.01565 0.272237,-0.33506 0.756503,-0.33506 0.183236,0 0.350766,0.0393 0.16753,0.0393 0.387413,0.15706 v 1.54704 q 0,0.2827 0.04974,0.43191 0.04973,0.14659 0.1335,0.20156 0.08376,0.055 0.185854,0.055 0.164912,0 0.232971,-0.21465 0.06806,-0.21464 0.08115,-0.5785 0.01309,-0.36385 0.01309,-0.81147 0,-0.37433 -0.04188,-0.69892 -0.04188,-0.3272 -0.159677,-0.57326 -0.117794,-0.24606 -0.340295,-0.3848 -0.222501,-0.13873 -0.583737,-0.13873 -0.256531,0 -0.554944,0.0942 -0.298412,0.0942 -0.633472,0.38741 l -0.251295,-0.29317 q 0.350766,-0.30627 0.717237,-0.43715 0.36909,-0.1335 0.717238,-0.1335 z m -0.282707,1.6753 q -0.356001,0 -0.489501,0.26176 -0.130883,0.25915 -0.130883,0.76436 0,0.3848 0.089,0.62824 0.089,0.24082 0.327207,0.24082 0.183236,0 0.287942,-0.0838 0.107324,-0.0838 0.162295,-0.19109 0.05759,-0.10994 0.089,-0.18586 v -1.35594 q -0.151824,-0.0785 -0.33506,-0.0785 z m 3.249986,1.68315 q 0.319354,0 0.50259,-0.11779 0.183236,-0.1178 0.183236,-0.31936 0,-0.12303 -0.04712,-0.21465 -0.0445,-0.0916 -0.185853,-0.16491 -0.141354,-0.0759 -0.434531,-0.1492 -0.285325,-0.0707 -0.497355,-0.1623 -0.209413,-0.0942 -0.327207,-0.24344 -0.115177,-0.14921 -0.115177,-0.38741 0,-0.34815 0.29056,-0.54971 0.29056,-0.20156 0.756503,-0.20156 0.332442,0 0.578502,0.089 0.248677,0.089 0.421442,0.21465 l -0.193706,0.29841 q -0.154442,-0.10732 -0.345531,-0.17538 -0.188471,-0.0707 -0.455472,-0.0707 -0.32459,0 -0.460708,0.10209 -0.136118,0.0995 -0.136118,0.25915 0,0.12303 0.06544,0.20417 0.06806,0.0785 0.227736,0.14136 0.159677,0.0628 0.439766,0.13873 0.269619,0.0733 0.471178,0.17277 0.20156,0.0995 0.311501,0.26176 0.11256,0.15968 0.11256,0.41621 0,0.29318 -0.16753,0.47641 -0.16753,0.18062 -0.434531,0.26439 -0.264384,0.0811 -0.560179,0.0811 -0.374325,0 -0.638708,-0.10733 -0.261766,-0.10994 -0.439766,-0.26438 l 0.251295,-0.29056 q 0.162294,0.1335 0.371707,0.21726 0.21203,0.0812 0.455472,0.0812 z m 2.39663,-0.9188 q 0.01832,0.47904 0.251295,0.69892 0.235589,0.21726 0.554943,0.21726 0.21203,0 0.382178,-0.0628 0.170147,-0.0628 0.353383,-0.18585 l 0.206795,0.29056 q -0.191089,0.15182 -0.439766,0.2382 -0.248677,0.0864 -0.507825,0.0864 -0.40312,0 -0.685826,-0.18062 -0.28009,-0.18062 -0.429296,-0.50259 -0.146589,-0.32459 -0.146589,-0.75127 0,-0.41883 0.146589,-0.74341 0.149206,-0.32459 0.418825,-0.51045 0.272236,-0.18585 0.638708,-0.18585 0.520914,0 0.819327,0.36124 0.30103,0.36123 0.30103,0.98947 0,0.0707 -0.0052,0.1335 -0.0026,0.0628 -0.0052,0.10732 z m 0.748649,-1.23029 q -0.306265,0 -0.51306,0.21726 -0.206795,0.21727 -0.232972,0.67274 h 1.437094 q -0.0079,-0.44239 -0.193707,-0.66489 -0.185853,-0.22511 -0.497355,-0.22511 z m 2.802367,-0.36124 q 0.248677,0 0.437148,0.0916 0.191089,0.0916 0.332443,0.267 l 0.03665,-0.30103 h 0.374325 v 3.86628 l -0.439767,-0.055 v -1.40307 q -0.151824,0.21203 -0.350766,0.3115 -0.198942,0.0969 -0.42406,0.0969 -0.371707,0 -0.594208,-0.17801 -0.222501,-0.178 -0.321972,-0.49997 -0.09947,-0.32459 -0.09947,-0.7565 0,-0.41359 0.120412,-0.73818 0.120413,-0.32721 0.353384,-0.51306 0.235589,-0.18847 0.575885,-0.18847 z m 0.109941,0.35338 q -0.688444,0 -0.688444,1.08633 0,1.068 0.636091,1.068 0.227736,0 0.397884,-0.12564 0.172765,-0.12827 0.285324,-0.29842 v -1.37688 q -0.107324,-0.16753 -0.272236,-0.25915 -0.164912,-0.0942 -0.358619,-0.0942 z m 1.705569,3.41081 v -0.3848 h 2.617656 v 0.3848 z m 4.297048,-4.99711 q 0.146589,0 0.232972,0.089 0.089,0.089 0.089,0.21727 0,0.1335 -0.089,0.22512 -0.08638,0.089 -0.232972,0.089 -0.138736,0 -0.227736,-0.089 -0.089,-0.0916 -0.089,-0.22512 0,-0.12827 0.089,-0.21727 0.089,-0.089 0.227736,-0.089 z m 0.350766,1.29051 v 2.40824 h 0.777444 v 0.34815 h -2.067949 v -0.34815 h 0.850739 v -2.06009 h -0.824562 v -0.34815 z m 3.242132,-1.16486 0.439766,0.055 v 3.86628 h -0.384795 l -0.04188,-0.36385 q -0.154441,0.21988 -0.356001,0.32197 -0.198942,0.10209 -0.426678,0.10209 -0.358619,0 -0.59159,-0.18062 -0.232972,-0.18062 -0.345531,-0.50259 -0.112559,-0.32459 -0.112559,-0.75127 0,-0.41359 0.128265,-0.73818 0.128265,-0.32721 0.369089,-0.51306 0.243443,-0.18847 0.583738,-0.18847 0.45809,0 0.738179,0.32459 z m -0.623002,1.46065 q -0.345531,0 -0.531384,0.26962 -0.185854,0.26962 -0.185854,0.81671 0,1.07847 0.662267,1.07847 0.232971,0 0.400501,-0.13088 0.16753,-0.1335 0.277472,-0.30365 v -1.37688 q -0.112559,-0.16753 -0.272236,-0.25915 -0.159677,-0.0942 -0.350766,-0.0942 z m 7.133444,2.10198 v 0.35862 h -2.081037 v -0.35862 h 0.887386 v -2.76948 l -0.827179,0.50259 -0.191089,-0.31412 1.073239,-0.66488 h 0.384795 v 3.24589 z m 1.422862,-2.31401 q 0,-0.17538 0.120412,-0.29841 0.12303,-0.12303 0.301031,-0.12303 0.183236,0 0.303648,0.12303 0.12303,0.12303 0.12303,0.29841 0,0.17539 -0.12303,0.30103 -0.120412,0.12565 -0.303648,0.12565 -0.178001,0 -0.301031,-0.12565 -0.120412,-0.12564 -0.120412,-0.30103 z m 0,1.88733 q 0,-0.17015 0.120412,-0.29579 0.12303,-0.12565 0.301031,-0.12565 0.183236,0 0.303648,0.12565 0.12303,0.12564 0.12303,0.29579 0,0.178 -0.12303,0.30365 -0.120412,0.12303 -0.303648,0.12303 -0.178001,0 -0.301031,-0.12303 -0.120412,-0.12565 -0.120412,-0.30365 z m 3.912253,0.7853 -1.269563,-3.16998 q 0.0026,0.0785 0.01832,0.29841 0.01571,0.21727 0.02879,0.50259 0.01309,0.28271 0.01309,0.5628 v 1.80618 h -0.421443 v -3.60451 h 0.615149 l 1.290505,3.18307 q -0.0026,-0.0759 -0.01832,-0.27747 -0.01571,-0.20418 -0.02879,-0.48951 -0.01309,-0.28794 -0.01309,-0.61253 v -1.80356 h 0.421443 v 3.60451 z m 2.064189,-2.67263 q 0,-0.17538 0.120413,-0.29841 0.123029,-0.12303 0.30103,-0.12303 0.183236,0 0.303648,0.12303 0.12303,0.12303 0.12303,0.29841 0,0.17539 -0.12303,0.30103 -0.120412,0.12565 -0.303648,0.12565 -0.178001,0 -0.30103,-0.12565 -0.120413,-0.12564 -0.120413,-0.30103 z m 0,1.88733 q 0,-0.17015 0.120413,-0.29579 0.123029,-0.12565 0.30103,-0.12565 0.183236,0 0.303648,0.12565 0.12303,0.12564 0.12303,0.29579 0,0.178 -0.12303,0.30365 -0.120412,0.12303 -0.303648,0.12303 -0.178001,0 -0.30103,-0.12303 -0.120413,-0.12565 -0.120413,-0.30365 z m 3.414895,-2.8768 q 0.58112,0 0.879532,0.48165 0.301031,0.48165 0.301031,1.37688 0,0.89786 -0.301031,1.38213 -0.298412,0.48165 -0.879532,0.48165 -0.58112,0 -0.88215,-0.48165 -0.298413,-0.48427 -0.298413,-1.38213 0,-0.89523 0.298413,-1.37688 0.30103,-0.48165 0.88215,-0.48165 z m 0,0.35338 q -0.332443,0 -0.523532,0.35339 -0.191088,0.35076 -0.191088,1.15176 0,0.59945 0.09162,0.94236 l 1.102033,-2.21454 q -0.164912,-0.23297 -0.479031,-0.23297 z m 0.717238,1.50515 q 0,-0.60467 -0.09424,-0.94497 l -1.096798,2.22239 q 0.164912,0.23035 0.473796,0.23035 0.33506,0 0.526149,-0.35338 0.191089,-0.35338 0.191089,-1.15439 z m 1.844304,-0.86906 q 0,-0.17538 0.1204122,-0.29841 0.1230298,-0.12303 0.3010305,-0.12303 0.1832359,0 0.3036481,0.12303 0.1230299,0.12303 0.1230299,0.29841 0,0.17539 -0.1230299,0.30103 -0.1204122,0.12565 -0.3036481,0.12565 -0.1780007,0 -0.3010305,-0.12565 -0.1204122,-0.12564 -0.1204122,-0.30103 z m 0,1.88733 q 0,-0.17015 0.1204122,-0.29579 0.1230298,-0.12565 0.3010305,-0.12565 0.1832359,0 0.3036481,0.12565 0.1230299,0.12564 0.1230299,0.29579 0,0.178 -0.1230299,0.30365 -0.1204122,0.12303 -0.3036481,0.12303 -0.1780007,0 -0.3010305,-0.12303 -0.1204122,-0.12565 -0.1204122,-0.30365 z m 4.1138125,-0.1335 h -1.4266228 l -0.2879422,0.9188 h -0.4476193 l 1.1727101,-3.60451 h 0.5811198 l 1.1727101,3.60451 h -0.4764135 z m -1.3088283,-0.37694 h 1.1910337 l -0.5915903,-1.9266 z m 3.8153997,-1.91874 v 3.21448 h -0.4528546 v -3.21448 H -4.548297 v -0.39003 h 2.7197451 l -0.047118,0.39003 z m 2.84163144,3.27469 q -0.64132584,0 -1.02350374,-0.46333 -0.3795601,-0.46594 -0.3795601,-1.40045 0,-0.46594 0.1230298,-0.81409 0.1256475,-0.34815 0.3402954,-0.58112 0.21464779,-0.23297 0.48426641,-0.34815 0.26961862,-0.11517 0.5601785,-0.11517 0.35338362,0 0.58635505,0.10209 0.23297143,0.0995 0.44500164,0.29317 l -0.27485396,0.28533 q -0.32197175,-0.30103 -0.75388508,-0.30103 -0.26176565,0 -0.49735474,0.13873 -0.23297143,0.13874 -0.37956019,0.46071 -0.14658873,0.32197 -0.14658873,0.87953 0,0.7853 0.24344202,1.13345 0.24344206,0.34815 0.71462023,0.34815 0.36647191,0 0.68582601,-0.17277 v -1.09941 h -0.70938492 l -0.0549708,-0.37695 H 1.0497268 v 1.71719 q -0.24344208,0.1335 -0.52091367,0.22512 -0.27485393,0.089 -0.65703179,0.089 z M 3.4882391,142.11596 H 2.0616163 l -0.2879422,0.9188 H 1.3260548 l 1.1727102,-3.60451 h 0.5811197 l 1.1727101,3.60451 H 3.7761813 Z m -1.3088282,-0.37694 h 1.1910337 l -0.5915904,-1.9266 z m 3.9017823,-2.36636 q 0.3533836,0 0.5915904,0.089 0.2382067,0.089 0.4528546,0.26176 l -0.2539127,0.2958 q -0.1701477,-0.14397 -0.3612366,-0.20418 -0.1884713,-0.0628 -0.3952662,-0.0628 -0.2957951,0 -0.5470902,0.14135 -0.251295,0.13874 -0.4057367,0.46333 -0.1518241,0.32197 -0.1518241,0.87429 0,0.53662 0.1439711,0.86121 0.1465888,0.32459 0.3952661,0.46856 0.2486774,0.14397 0.5549432,0.14397 0.3010305,0 0.4973547,-0.0916 0.1989419,-0.0916 0.3402954,-0.20942 l 0.2355891,0.29842 q -0.1649124,0.15967 -0.4292957,0.27747 -0.2643833,0.11518 -0.6491788,0.11518 -0.4397663,0 -0.7931499,-0.21203 -0.3533837,-0.21465 -0.5601785,-0.63086 -0.2067949,-0.41621 -0.2067949,-1.02089 0,-0.60729 0.2094125,-1.02088 0.2120302,-0.41621 0.5627962,-0.62562 0.350766,-0.21203 0.769591,-0.21203 z"
         id="text6-0-3-8"
         style="font-size:5.10443px;line-height:1.25;font-family:'Fira Code';-inkscape-font-specification:'Fira Code, Normal';letter-spacing:-0.15297px;text-orientation:upright;fill:#4b4b4b;stroke-width:2.01918;stroke-linecap:round;stroke-linejoin:round;stroke-miterlimit:1.5;paint-order:fill markers stroke"
         aria-label="@seq_id 1:N:0:ATGAC " /><path
         d="m 47.803173,139.37266 q 0.405737,0 0.683209,0.12303 0.280089,0.12041 0.455472,0.33244 0.178001,0.21203 0.272236,0.4895 0.09685,0.27747 0.133501,0.59159 0.03665,0.31412 0.03665,0.63609 0,0.65965 -0.06282,1.0968 -0.06021,0.43453 -0.225118,0.64918 -0.164913,0.21727 -0.481649,0.21727 -0.162295,0 -0.282707,-0.0785 -0.117795,-0.0785 -0.193707,-0.19895 -0.07329,-0.11779 -0.107324,-0.24344 -0.03403,-0.12826 -0.03141,-0.2225 h -0.02094 q -0.04973,0.12041 -0.136118,0.23821 -0.08638,0.11517 -0.227736,0.19109 -0.141353,0.0785 -0.350766,0.0785 -0.285324,0 -0.460707,-0.15706 -0.172766,-0.15444 -0.251295,-0.42406 -0.07853,-0.27224 -0.07853,-0.61777 0,-0.68321 0.269618,-1.01565 0.272237,-0.33506 0.756503,-0.33506 0.183236,0 0.350766,0.0393 0.16753,0.0393 0.387413,0.15706 v 1.54704 q 0,0.2827 0.04974,0.43191 0.04974,0.14659 0.1335,0.20156 0.08376,0.055 0.185854,0.055 0.164912,0 0.232971,-0.21465 0.06806,-0.21464 0.08115,-0.5785 0.01309,-0.36385 0.01309,-0.81147 0,-0.37433 -0.04188,-0.69892 -0.04188,-0.3272 -0.159677,-0.57326 -0.117794,-0.24606 -0.340295,-0.3848 -0.222501,-0.13873 -0.583737,-0.13873 -0.256531,0 -0.554944,0.0942 -0.298412,0.0942 -0.633472,0.38741 l -0.251295,-0.29317 q 0.350766,-0.30627 0.717237,-0.43715 0.36909,-0.1335 0.717238,-0.1335 z m -0.282707,1.6753 q -0.356001,0 -0.489501,0.26176 -0.130883,0.25915 -0.130883,0.76436 0,0.3848 0.089,0.62824 0.089,0.24082 0.327207,0.24082 0.183236,0 0.287942,-0.0838 0.107324,-0.0838 0.162295,-0.19109 0.05759,-0.10994 0.089,-0.18586 v -1.35594 q -0.151824,-0.0785 -0.33506,-0.0785 z m 3.249986,1.68315 q 0.319354,0 0.50259,-0.11779 0.183236,-0.1178 0.183236,-0.31936 0,-0.12303 -0.04712,-0.21465 -0.0445,-0.0916 -0.185853,-0.16491 -0.141354,-0.0759 -0.434531,-0.1492 -0.285325,-0.0707 -0.497355,-0.1623 -0.209413,-0.0942 -0.327207,-0.24344 -0.115177,-0.14921 -0.115177,-0.38741 0,-0.34815 0.29056,-0.54971 0.29056,-0.20156 0.756503,-0.20156 0.332442,0 0.578502,0.089 0.248677,0.089 0.421442,0.21465 l -0.193706,0.29841 q -0.154442,-0.10732 -0.345531,-0.17538 -0.188471,-0.0707 -0.455472,-0.0707 -0.32459,0 -0.460708,0.10209 -0.136118,0.0995 -0.136118,0.25915 0,0.12303 0.06544,0.20417 0.06806,0.0785 0.227736,0.14136 0.159677,0.0628 0.439766,0.13873 0.269619,0.0733 0.471178,0.17277 0.20156,0.0995 0.311501,0.26176 0.11256,0.15968 0.11256,0.41621 0,0.29318 -0.16753,0.47641 -0.16753,0.18062 -0.434531,0.26439 -0.264384,0.0811 -0.560179,0.0811 -0.374325,0 -0.638708,-0.10733 -0.261766,-0.10994 -0.439766,-0.26438 l 0.251295,-0.29056 q 0.162294,0.1335 0.371707,0.21726 0.21203,0.0812 0.455472,0.0812 z m 2.39663,-0.9188 q 0.01832,0.47904 0.251295,0.69892 0.235589,0.21726 0.554943,0.21726 0.21203,0 0.382178,-0.0628 0.170147,-0.0628 0.353383,-0.18585 l 0.206795,0.29056 q -0.191089,0.15182 -0.439766,0.2382 -0.248677,0.0864 -0.507825,0.0864 -0.40312,0 -0.685826,-0.18062 -0.28009,-0.18062 -0.429296,-0.50259 -0.146589,-0.32459 -0.146589,-0.75127 0,-0.41883 0.146589,-0.74341 0.149206,-0.32459 0.418825,-0.51045 0.272236,-0.18585 0.638708,-0.18585 0.520914,0 0.819327,0.36124 0.30103,0.36123 0.30103,0.98947 0,0.0707 -0.0052,0.1335 -0.0026,0.0628 -0.0052,0.10732 z m 0.748649,-1.23029 q -0.306265,0 -0.51306,0.21726 -0.206795,0.21727 -0.232972,0.67274 h 1.437094 q -0.0079,-0.44239 -0.193707,-0.66489 -0.185853,-0.22511 -0.497355,-0.22511 z m 2.802367,-0.36124 q 0.248677,0 0.437148,0.0916 0.191089,0.0916 0.332443,0.267 l 0.03665,-0.30103 h 0.374325 v 3.86628 l -0.439767,-0.055 v -1.40307 q -0.151824,0.21203 -0.350766,0.3115 -0.198942,0.0969 -0.42406,0.0969 -0.371707,0 -0.594208,-0.17801 -0.222501,-0.178 -0.321972,-0.49997 -0.09947,-0.32459 -0.09947,-0.7565 0,-0.41359 0.120412,-0.73818 0.120413,-0.32721 0.353384,-0.51306 0.235589,-0.18847 0.575885,-0.18847 z m 0.109941,0.35338 q -0.688444,0 -0.688444,1.08633 0,1.068 0.636091,1.068 0.227736,0 0.397884,-0.12564 0.172765,-0.12827 0.285324,-0.29842 v -1.37688 q -0.107324,-0.16753 -0.272236,-0.25915 -0.164912,-0.0942 -0.358619,-0.0942 z m 1.705569,3.41081 v -0.3848 h 2.617656 v 0.3848 z m 4.297048,-4.99711 q 0.146589,0 0.232972,0.089 0.089,0.089 0.089,0.21727 0,0.1335 -0.089,0.22512 -0.08638,0.089 -0.232972,0.089 -0.138736,0 -0.227736,-0.089 -0.089,-0.0916 -0.089,-0.22512 0,-0.12827 0.089,-0.21727 0.089,-0.089 0.227736,-0.089 z m 0.350766,1.29051 v 2.40824 h 0.777444 v 0.34815 h -2.067949 v -0.34815 h 0.850739 v -2.06009 h -0.824562 v -0.34815 z m 3.242132,-1.16486 0.439766,0.055 v 3.86628 h -0.384795 l -0.04188,-0.36385 q -0.154441,0.21988 -0.356001,0.32197 -0.198942,0.10209 -0.426678,0.10209 -0.358619,0 -0.59159,-0.18062 -0.232972,-0.18062 -0.345531,-0.50259 -0.112559,-0.32459 -0.112559,-0.75127 0,-0.41359 0.128265,-0.73818 0.128265,-0.32721 0.36909,-0.51306 0.243442,-0.18847 0.583737,-0.18847 0.45809,0 0.738179,0.32459 z m -0.623002,1.46065 q -0.345531,0 -0.531384,0.26962 -0.185854,0.26962 -0.185854,0.81671 0,1.07847 0.662267,1.07847 0.232971,0 0.400501,-0.13088 0.16753,-0.1335 0.277472,-0.30365 v -1.37688 q -0.112559,-0.16753 -0.272236,-0.25915 -0.159677,-0.0942 -0.350766,-0.0942 z m 5.835087,-1.2015 q 0.340295,0 0.583737,0.1335 0.243442,0.13088 0.371707,0.35862 0.130883,0.22773 0.130883,0.51306 0,0.24868 -0.08638,0.48688 -0.08638,0.23559 -0.277472,0.49736 -0.188471,0.25915 -0.497355,0.57588 -0.308883,0.31674 -0.753885,0.72247 h 1.698859 l -0.05497,0.37433 H 70.6069 v -0.35862 q 0.510443,-0.4895 0.832415,-0.82718 0.324589,-0.33768 0.50259,-0.58112 0.178,-0.24606 0.246059,-0.45024 0.07068,-0.20417 0.07068,-0.42406 0,-0.30364 -0.170148,-0.47903 -0.170147,-0.17538 -0.473795,-0.17538 -0.267001,0 -0.437149,0.0916 -0.170148,0.0916 -0.340295,0.29318 l -0.303649,-0.23559 q 0.214648,-0.26177 0.473796,-0.38742 0.261766,-0.12826 0.628238,-0.12826 z m 2.721219,0.98947 q 0,-0.17538 0.120412,-0.29841 0.12303,-0.12303 0.301031,-0.12303 0.183236,0 0.303648,0.12303 0.12303,0.12303 0.12303,0.29841 0,0.17539 -0.12303,0.30103 -0.120412,0.12565 -0.303648,0.12565 -0.178001,0 -0.301031,-0.12565 -0.120412,-0.12564 -0.120412,-0.30103 z m 0,1.88733 q 0,-0.17015 0.120412,-0.29579 0.12303,-0.12565 0.301031,-0.12565 0.183236,0 0.303648,0.12565 0.12303,0.12564 0.12303,0.29579 0,0.178 -0.12303,0.30365 -0.120412,0.12303 -0.303648,0.12303 -0.178001,0 -0.301031,-0.12303 -0.120412,-0.12565 -0.120412,-0.30365 z m 3.912253,0.7853 -1.269563,-3.16998 q 0.0026,0.0785 0.01832,0.29841 0.01571,0.21727 0.02879,0.50259 0.01309,0.28271 0.01309,0.5628 v 1.80618 h -0.421443 v -3.60451 h 0.615149 l 1.290505,3.18307 q -0.0026,-0.0759 -0.01832,-0.27747 -0.01571,-0.20418 -0.02879,-0.48951 -0.01309,-0.28794 -0.01309,-0.61253 v -1.80356 h 0.421443 v 3.60451 z m 2.064189,-2.67263 q 0,-0.17538 0.120413,-0.29841 0.123029,-0.12303 0.30103,-0.12303 0.183236,0 0.303648,0.12303 0.12303,0.12303 0.12303,0.29841 0,0.17539 -0.12303,0.30103 -0.120412,0.12565 -0.303648,0.12565 -0.178001,0 -0.30103,-0.12565 -0.120413,-0.12564 -0.120413,-0.30103 z m 0,1.88733 q 0,-0.17015 0.120413,-0.29579 0.123029,-0.12565 0.30103,-0.12565 0.183236,0 0.303648,0.12565 0.12303,0.12564 0.12303,0.29579 0,0.178 -0.12303,0.30365 -0.120412,0.12303 -0.303648,0.12303 -0.178001,0 -0.30103,-0.12303 -0.120413,-0.12565 -0.120413,-0.30365 z m 3.414895,-2.8768 q 0.58112,0 0.879532,0.48165 0.301031,0.48165 0.301031,1.37688 0,0.89786 -0.301031,1.38213 -0.298412,0.48165 -0.879532,0.48165 -0.58112,0 -0.88215,-0.48165 -0.298413,-0.48427 -0.298413,-1.38213 0,-0.89523 0.298413,-1.37688 0.30103,-0.48165 0.88215,-0.48165 z m 0,0.35338 q -0.332443,0 -0.523532,0.35339 -0.191088,0.35076 -0.191088,1.15176 0,0.59945 0.09162,0.94236 l 1.102033,-2.21454 q -0.164912,-0.23297 -0.479031,-0.23297 z m 0.717238,1.50515 q 0,-0.60467 -0.09424,-0.94497 l -1.096798,2.22239 q 0.164912,0.23035 0.473796,0.23035 0.33506,0 0.526149,-0.35338 0.191089,-0.35338 0.191089,-1.15439 z m 1.844304,-0.86906 q 0,-0.17538 0.120412,-0.29841 0.12303,-0.12303 0.301031,-0.12303 0.183236,0 0.303648,0.12303 0.12303,0.12303 0.12303,0.29841 0,0.17539 -0.12303,0.30103 -0.120412,0.12565 -0.303648,0.12565 -0.178001,0 -0.301031,-0.12565 -0.120412,-0.12564 -0.120412,-0.30103 z m 0,1.88733 q 0,-0.17015 0.120412,-0.29579 0.12303,-0.12565 0.301031,-0.12565 0.183236,0 0.303648,0.12565 0.12303,0.12564 0.12303,0.29579 0,0.178 -0.12303,0.30365 -0.120412,0.12303 -0.303648,0.12303 -0.178001,0 -0.301031,-0.12303 -0.120412,-0.12565 -0.120412,-0.30365 z m 4.113812,-0.1335 h -1.426622 l -0.287943,0.9188 h -0.447619 l 1.17271,-3.60451 h 0.58112 l 1.17271,3.60451 h -0.476413 z m -1.308828,-0.37694 h 1.191034 l -0.59159,-1.9266 z m 3.8154,-1.91874 v 3.21448 h -0.452855 v -3.21448 h -1.125592 v -0.39003 h 2.719745 l -0.04712,0.39003 z m 2.841631,3.27469 q -0.641325,0 -1.023503,-0.46333 -0.379561,-0.46594 -0.379561,-1.40045 0,-0.46594 0.12303,-0.81409 0.125648,-0.34815 0.340296,-0.58112 0.214647,-0.23297 0.484266,-0.34815 0.269619,-0.11517 0.560179,-0.11517 0.353383,0 0.586355,0.10209 0.232971,0.0995 0.445001,0.29317 l -0.274854,0.28533 q -0.321971,-0.30103 -0.753885,-0.30103 -0.261765,0 -0.497354,0.13873 -0.232972,0.13874 -0.379561,0.46071 -0.146588,0.32197 -0.146588,0.87953 0,0.7853 0.243442,1.13345 0.243442,0.34815 0.71462,0.34815 0.366472,0 0.685826,-0.17277 v -1.09941 h -0.709385 l -0.05497,-0.37695 h 1.214593 v 1.71719 q -0.243442,0.1335 -0.520914,0.22512 -0.274854,0.089 -0.657032,0.089 z m 3.616458,-0.97901 h -1.426623 l -0.287942,0.9188 h -0.447619 l 1.17271,-3.60451 h 0.58112 l 1.172714,3.60451 h -0.476418 z m -1.308828,-0.37694 h 1.191034 l -0.591591,-1.9266 z m 3.901778,-2.36636 q 0.35339,0 0.59159,0.089 0.23821,0.089 0.45286,0.26176 l -0.25391,0.2958 q -0.17015,-0.14397 -0.36124,-0.20418 -0.18847,-0.0628 -0.39527,-0.0628 -0.29579,0 -0.54709,0.14135 -0.25129,0.13874 -0.40573,0.46333 -0.15183,0.32197 -0.15183,0.87429 0,0.53662 0.14397,0.86121 0.14659,0.32459 0.39527,0.46856 0.24868,0.14397 0.55494,0.14397 0.30103,0 0.49736,-0.0916 0.19894,-0.0916 0.34029,-0.20942 l 0.23559,0.29842 q -0.16491,0.15967 -0.42929,0.27747 -0.26439,0.11518 -0.64918,0.11518 -0.43977,0 -0.79315,-0.21203 -0.35339,-0.21465 -0.56018,-0.63086 -0.2068,-0.41621 -0.2068,-1.02089 0,-0.60729 0.20942,-1.02088 0.21203,-0.41621 0.56279,-0.62562 0.35077,-0.21203 0.76959,-0.21203 z"
         id="text6-0-3-8-6"
         style="font-size:5.10443px;line-height:1.25;font-family:'Fira Code';-inkscape-font-specification:'Fira Code, Normal';letter-spacing:-0.15297px;text-orientation:upright;fill:#4b4b4b;stroke-width:2.01918;stroke-linecap:round;stroke-linejoin:round;stroke-miterlimit:1.5;paint-order:fill markers stroke"
         aria-label="@seq_id 2:N:0:ATGAC " /><path
         d="m -50.137896,146.70289 h 0.298107 v 3.29408 l -0.01987,0.52169 h -0.278233 z m 2.168731,2.44696 v 0.0522 q 0,0.30059 -0.06956,0.5515 -0.06956,0.25091 -0.201223,0.43474 -0.131664,0.18135 -0.32295,0.28072 -0.188801,0.0994 -0.43474,0.0994 -0.24097,0 -0.427287,-0.0745 -0.186317,-0.077 -0.317981,-0.21613 -0.131664,-0.1416 -0.21116,-0.3304 -0.07949,-0.19129 -0.11179,-0.41984 v -0.66328 q 0.03726,-0.24346 0.119243,-0.4422 0.08198,-0.19874 0.21116,-0.34282 0.131664,-0.14409 0.313012,-0.2211 0.183833,-0.077 0.419835,-0.077 0.245939,0 0.437224,0.0969 0.19377,0.0944 0.325434,0.27575 0.131664,0.17886 0.201223,0.43225 0.06956,0.25091 0.06956,0.56392 z m -0.300592,0.0522 v -0.0522 q 0,-0.236 -0.04472,-0.43722 -0.04472,-0.20123 -0.141601,-0.35028 -0.0944,-0.15154 -0.243454,-0.236 -0.149054,-0.0845 -0.357729,-0.0845 -0.213644,0 -0.365182,0.072 -0.149053,0.0696 -0.248423,0.18632 -0.09688,0.11427 -0.154022,0.2509 -0.05714,0.13664 -0.08446,0.2683 v 0.77259 q 0.04223,0.18632 0.146569,0.35028 0.104338,0.16396 0.280718,0.26581 0.17638,0.0994 0.429771,0.0994 0.203707,0 0.350277,-0.0845 0.149053,-0.0845 0.243454,-0.23352 0.09688,-0.14905 0.141601,-0.35028 0.0472,-0.20122 0.0472,-0.43722 z m 2.510416,0.8347 v -1.3862 q 0,-0.19128 -0.0795,-0.3304 -0.0795,-0.13912 -0.233518,-0.21364 -0.154022,-0.0745 -0.380087,-0.0745 -0.208675,0 -0.372634,0.0745 -0.161475,0.072 -0.255876,0.19625 -0.09192,0.12173 -0.09192,0.27078 l -0.298108,-0.002 q 0,-0.15154 0.07453,-0.29314 0.07453,-0.1416 0.21116,-0.25339 0.136632,-0.11179 0.325434,-0.17638 0.191285,-0.0671 0.419834,-0.0671 0.288171,0 0.506783,0.0969 0.221096,0.0969 0.345308,0.29065 0.124211,0.19377 0.124211,0.48691 v 1.29925 q 0,0.13912 0.01987,0.28817 0.02236,0.14906 0.06211,0.24594 v 0.0298 h -0.315497 q -0.02981,-0.0894 -0.0472,-0.22358 -0.0149,-0.13663 -0.0149,-0.25836 z m 0.06956,-1.08312 0.005,0.22855 h -0.583794 q -0.228549,0 -0.409898,0.0422 -0.178864,0.0397 -0.303076,0.11924 -0.124211,0.077 -0.191285,0.18632 -0.06459,0.1093 -0.06459,0.24842 0,0.14409 0.07204,0.26333 0.07453,0.11924 0.208675,0.19129 0.136632,0.0695 0.322949,0.0695 0.248423,0 0.437225,-0.0919 0.191285,-0.0919 0.315497,-0.24097 0.124211,-0.14906 0.166443,-0.32544 l 0.12918,0.17141 q -0.03229,0.12422 -0.119243,0.25588 -0.08446,0.12918 -0.221096,0.24345 -0.136633,0.1118 -0.32295,0.18384 -0.183833,0.0696 -0.417351,0.0696 -0.263328,0 -0.459582,-0.0994 -0.19377,-0.0994 -0.303076,-0.27078 -0.106821,-0.1739 -0.106821,-0.39251 0,-0.19874 0.08446,-0.35525 0.08446,-0.15899 0.243455,-0.26829 0.161475,-0.11179 0.387539,-0.16893 0.228549,-0.0596 0.511751,-0.0596 z m 1.236007,-0.6782 v 2.24326 h -0.295623 v -2.68793 h 0.28817 z m 0.951459,-0.46455 -0.0075,0.27327 q -0.04969,-0.007 -0.09689,-0.0124 -0.0472,-0.005 -0.101854,-0.005 -0.193769,0 -0.340339,0.072 -0.144085,0.0696 -0.243454,0.19625 -0.09937,0.12422 -0.151538,0.29314 -0.05217,0.16645 -0.05962,0.35773 l -0.109306,0.0422 q 0,-0.26332 0.05465,-0.48939 0.05465,-0.22606 0.166444,-0.39499 0.114274,-0.17141 0.285686,-0.26581 0.173896,-0.0969 0.407413,-0.0969 0.05714,0 0.111791,0.01 0.05714,0.007 0.08446,0.0199 z m 1.327923,2.50162 q 0.188802,0 0.352761,-0.0696 0.166443,-0.072 0.273265,-0.21116 0.109306,-0.1416 0.124211,-0.34531 h 0.283202 q -0.01242,0.25588 -0.156506,0.4571 -0.141601,0.19874 -0.372634,0.31302 -0.228549,0.11179 -0.504299,0.11179 -0.280718,0 -0.496845,-0.10186 -0.213644,-0.10185 -0.357729,-0.2832 -0.144086,-0.18383 -0.218612,-0.42729 -0.07204,-0.24594 -0.07204,-0.52914 v -0.10433 q 0,-0.28321 0.07204,-0.52666 0.07453,-0.24594 0.218612,-0.42729 0.144085,-0.18383 0.357729,-0.28568 0.213643,-0.10186 0.494361,-0.10186 0.288171,0 0.51672,0.11676 0.231033,0.11676 0.367665,0.3304 0.139117,0.21365 0.151538,0.50679 h -0.283202 q -0.01242,-0.21613 -0.114274,-0.37264 -0.101854,-0.15651 -0.268297,-0.24097 -0.166443,-0.0845 -0.37015,-0.0845 -0.228549,0 -0.390024,0.0894 -0.161475,0.087 -0.263328,0.24097 -0.09937,0.15154 -0.14657,0.34779 -0.0472,0.19377 -0.0472,0.40742 v 0.10433 q 0,0.21613 0.04472,0.41238 0.0472,0.19377 0.14657,0.34531 0.101853,0.15154 0.263328,0.24097 0.163959,0.087 0.394992,0.087 z m 1.38506,-1.09554 v -0.082 q 0,-0.29314 0.08446,-0.54157 0.08446,-0.24842 0.24097,-0.42977 0.158991,-0.18135 0.380087,-0.28071 0.221096,-0.10186 0.491877,-0.10186 0.273265,0 0.494362,0.10186 0.221096,0.0994 0.380087,0.28071 0.15899,0.18135 0.243454,0.42977 0.08446,0.24843 0.08446,0.54157 v 0.082 q 0,0.29313 -0.08446,0.54156 -0.08446,0.24594 -0.243454,0.42728 -0.156507,0.18135 -0.377603,0.28321 -0.221097,0.0994 -0.491877,0.0994 -0.273266,0 -0.494362,-0.0994 -0.221096,-0.10186 -0.380087,-0.28321 -0.15899,-0.18134 -0.243454,-0.42728 -0.08446,-0.24843 -0.08446,-0.54156 z m 0.295623,-0.082 v 0.082 q 0,0.22109 0.05962,0.41983 0.05962,0.19625 0.173896,0.35028 0.114274,0.15153 0.283202,0.23848 0.168927,0.087 0.390024,0.087 0.218612,0 0.385055,-0.087 0.168928,-0.087 0.283202,-0.23848 0.114275,-0.15403 0.171412,-0.35028 0.05962,-0.19874 0.05962,-0.41983 v -0.082 q 0,-0.21862 -0.05962,-0.41487 -0.05714,-0.19625 -0.173896,-0.35028 -0.114275,-0.15402 -0.283202,-0.24345 -0.168928,-0.0894 -0.38754,-0.0894 -0.218612,0 -0.38754,0.0894 -0.166443,0.0894 -0.283202,0.24345 -0.114274,0.15403 -0.173896,0.35028 -0.05714,0.19625 -0.05714,0.41487 z m 4.383525,0.86202 v -3.29408 h 0.298107 v 3.81577 h -0.278234 z m -1.865656,-0.79495 v -0.0522 q 0,-0.31301 0.07204,-0.56392 0.07204,-0.25339 0.206191,-0.43225 0.136632,-0.18135 0.327918,-0.27575 0.191285,-0.0969 0.432256,-0.0969 0.236001,0 0.41735,0.077 0.181349,0.077 0.310528,0.2211 0.131665,0.14408 0.21116,0.34282 0.08198,0.19874 0.119243,0.4422 v 0.66328 q -0.02981,0.22855 -0.109306,0.41984 -0.0795,0.1888 -0.21116,0.3304 -0.131664,0.13912 -0.317981,0.21613 -0.183833,0.0745 -0.424803,0.0745 -0.238486,0 -0.429771,-0.0994 -0.191286,-0.0994 -0.325434,-0.28072 -0.134149,-0.18383 -0.206191,-0.43474 -0.07204,-0.25091 -0.07204,-0.5515 z m 0.298107,-0.0522 v 0.0522 q 0,0.236 0.0472,0.43722 0.0472,0.20123 0.144085,0.35028 0.09689,0.14905 0.245939,0.23352 0.149053,0.0845 0.35276,0.0845 0.255876,0 0.429772,-0.0969 0.173896,-0.0994 0.278233,-0.26085 0.104338,-0.16396 0.151538,-0.35773 v -0.77259 q -0.02981,-0.13166 -0.08695,-0.2683 -0.05714,-0.13663 -0.156506,-0.2509 -0.09689,-0.11676 -0.248423,-0.18632 -0.149054,-0.072 -0.362697,-0.072 -0.206191,0 -0.355245,0.0845 -0.149054,0.0845 -0.248423,0.236 -0.09689,0.14905 -0.144085,0.35028 -0.0472,0.20122 -0.0472,0.43722 z m 3.603476,1.4185 q -0.263328,0 -0.484424,-0.0969 -0.218612,-0.0969 -0.382572,-0.27326 -0.161474,-0.17638 -0.250907,-0.41735 -0.08695,-0.24346 -0.08695,-0.53163 v -0.10682 q 0,-0.31053 0.09192,-0.56144 0.09192,-0.2509 0.253391,-0.42977 0.161475,-0.17886 0.367666,-0.27326 0.208675,-0.0969 0.437224,-0.0969 0.255876,0 0.454614,0.0919 0.198738,0.0894 0.332887,0.25587 0.136632,0.16396 0.206191,0.39003 0.06956,0.22358 0.06956,0.49436 v 0.18135 h -2.034583 v -0.25339 h 1.73896 v -0.0348 q -0.005,-0.22607 -0.09192,-0.42232 -0.08446,-0.19874 -0.253391,-0.32295 -0.168927,-0.12421 -0.422319,-0.12421 -0.188801,0 -0.347792,0.0795 -0.156506,0.0795 -0.270781,0.22855 -0.11179,0.14657 -0.173896,0.35028 -0.05962,0.20122 -0.05962,0.44716 v 0.10682 q 0,0.22358 0.06459,0.41735 0.06707,0.19129 0.188801,0.33786 0.124212,0.14657 0.293139,0.22855 0.168928,0.082 0.372634,0.082 0.238486,0 0.422319,-0.0869 0.183833,-0.0894 0.330403,-0.28072 l 0.186317,0.14408 q -0.08695,0.12918 -0.218612,0.23849 -0.12918,0.10931 -0.310529,0.1739 -0.181349,0.0646 -0.422319,0.0646 z"
         id="text6-0"
         style="font-weight:300;font-size:5.0877px;line-height:1.25;font-family:Roboto;-inkscape-font-specification:'Roboto, Light';text-align:center;letter-spacing:-0.0831189px;text-orientation:upright;text-anchor:middle;fill:#ffffff;stroke-width:1.09716;stroke-linecap:round;stroke-linejoin:round;stroke-miterlimit:1.5;paint-order:fill markers stroke"
         aria-label="barcode" /><path
         d="m -28.915531,147.14143 -1.252051,3.40091 h -0.317982 l 1.366326,-3.61703 h 0.221096 z m 1.137777,3.40091 -1.254536,-3.40091 -0.01739,-0.21612 h 0.221096 l 1.36881,3.61703 z m -0.223581,-1.27689 v 0.26333 h -1.920309 v -0.26333 z m 1.886874,-2.34014 v 3.61703 h -0.303076 v -3.61703 z m 1.23963,0 v 0.26332 h -2.779852 v -0.26332 z m 1.494366,0.21612 -1.252051,3.40091 h -0.317981 l 1.366326,-3.61703 h 0.221096 z m 1.137777,3.40091 -1.254535,-3.40091 -0.01739,-0.21612 h 0.221096 l 1.36881,3.61703 z m -0.22358,-1.27689 v 0.26333 h -1.920309 v -0.26333 z m 3.220904,0.14905 h 0.30556 q -0.03726,0.36519 -0.201222,0.631 -0.16396,0.26333 -0.447162,0.40493 -0.283202,0.1416 -0.683162,0.1416 -0.308045,0 -0.558952,-0.11676 -0.248423,-0.11676 -0.427287,-0.3304 -0.178865,-0.21613 -0.275749,-0.51672 -0.09689,-0.30059 -0.09689,-0.66826 v -0.45213 q 0,-0.36767 0.09689,-0.66577 0.09688,-0.30059 0.278233,-0.51672 0.181349,-0.21613 0.43474,-0.33289 0.253391,-0.11676 0.571373,-0.11676 0.385055,0 0.665773,0.1416 0.280718,0.13912 0.442193,0.40245 0.163959,0.26333 0.201222,0.63596 h -0.30556 q -0.03478,-0.29314 -0.154022,-0.49685 -0.119243,-0.2037 -0.330403,-0.31052 -0.208675,-0.10931 -0.519203,-0.10931 -0.253392,0 -0.45213,0.0969 -0.198738,0.0969 -0.337855,0.27823 -0.139117,0.17886 -0.213644,0.42977 -0.07204,0.25091 -0.07204,0.55895 v 0.4571 q 0,0.29811 0.06956,0.54901 0.06956,0.25091 0.203707,0.43474 0.136632,0.18384 0.332886,0.28569 0.196255,0.10185 0.447162,0.10185 0.320465,0 0.534109,-0.10185 0.216128,-0.10434 0.335371,-0.30804 0.119243,-0.20371 0.156506,-0.50679 z m 3.57615,-0.59124 v 1.28683 q -0.06211,0.0919 -0.213644,0.2037 -0.151538,0.11179 -0.407413,0.19626 -0.255876,0.082 -0.635963,0.082 -0.317981,0 -0.583793,-0.11428 -0.265813,-0.11427 -0.462067,-0.3304 -0.19377,-0.21861 -0.300592,-0.52417 -0.104337,-0.30556 -0.104337,-0.68565 v -0.43722 q 0,-0.37264 0.09689,-0.67074 0.09689,-0.3006 0.280718,-0.51424 0.183833,-0.21364 0.442192,-0.32543 0.260844,-0.11428 0.583794,-0.11428 0.402445,0 0.678194,0.13912 0.27575,0.13912 0.429772,0.38257 0.156506,0.24097 0.19377,0.54653 h -0.30556 q -0.03478,-0.21613 -0.144086,-0.39748 -0.109306,-0.18383 -0.317981,-0.29562 -0.206191,-0.11179 -0.534109,-0.11179 -0.263328,0 -0.469519,0.0969 -0.203707,0.0969 -0.342824,0.27574 -0.139117,0.17887 -0.211159,0.42978 -0.07204,0.24842 -0.07204,0.55398 v 0.44219 q 0,0.31798 0.0795,0.57386 0.08198,0.25587 0.233517,0.43971 0.151538,0.18383 0.362697,0.2832 0.21116,0.0969 0.46952,0.0969 0.275749,0 0.469519,-0.0522 0.19377,-0.0522 0.310528,-0.12421 0.119243,-0.0745 0.171412,-0.13911 v -0.93159 h -0.971333 v -0.26084 z m 1.976307,-1.68183 -1.252051,3.40091 h -0.317982 l 1.366326,-3.61703 h 0.221096 z m 1.137776,3.40091 -1.254535,-3.40091 -0.01739,-0.21612 h 0.221097 l 1.36881,3.61703 z m -0.22358,-1.27689 v 0.26333 h -1.920309 v -0.26333 z m 3.5761488,-0.44219 v 1.28683 q -0.062106,0.0919 -0.2136436,0.2037 -0.1515379,0.11179 -0.4074135,0.19626 -0.2558757,0.082 -0.6359627,0.082 -0.317981,0 -0.583793,-0.11428 -0.265813,-0.11427 -0.462067,-0.3304 -0.19377,-0.21861 -0.300592,-0.52417 -0.104337,-0.30556 -0.104337,-0.68565 v -0.43722 q 0,-0.37264 0.09689,-0.67074 0.09688,-0.3006 0.280718,-0.51424 0.183832,-0.21364 0.442192,-0.32543 0.260844,-0.11428 0.583794,-0.11428 0.402445,0 0.6781943,0.13912 0.2757493,0.13912 0.4297715,0.38257 0.1565064,0.24097 0.1937698,0.54653 h -0.3055601 q -0.034779,-0.21613 -0.1440852,-0.39748 -0.1093061,-0.18383 -0.3179813,-0.29562 -0.206191,-0.11179 -0.534109,-0.11179 -0.263328,0 -0.469519,0.0969 -0.203707,0.0969 -0.342824,0.27574 -0.139117,0.17887 -0.211159,0.42978 -0.07204,0.24842 -0.07204,0.55398 v 0.44219 q 0,0.31798 0.0795,0.57386 0.08198,0.25587 0.233518,0.43971 0.151538,0.18383 0.362697,0.2832 0.21116,0.0969 0.469519,0.0969 0.27575,0 0.4695196,-0.0522 0.1937699,-0.0522 0.3105286,-0.12421 0.119243,-0.0745 0.1714118,-0.13911 v -0.93159 h -0.971333 v -0.26084 z m 2.0011491,-1.89795 v 3.61703 H -7.504489 v -3.61703 z m 1.23963,0 v 0.26332 h -2.7798516 v -0.26332 z m 1.4943664,0.21612 -1.2520512,3.40091 h -0.3179812 l 1.3663256,-3.61703 h 0.2210964 z m 1.1377766,3.40091 -1.2545354,-3.40091 -0.01739,-0.21612 h 0.2210964 l 1.3688099,3.61703 z m -0.2235806,-1.27689 v 0.26333 h -1.9203086 v -0.26333 z m 3.22090444,0.14905 h 0.3055601 q -0.03726343,0.36519 -0.2012225,0.631 -0.16395908,0.26333 -0.44716113,0.40493 -0.28320204,0.1416 -0.68316281,0.1416 -0.3080443,0 -0.5589514,-0.11676 -0.2484229,-0.11676 -0.4272873,-0.3304 -0.1788645,-0.21613 -0.2757494,-0.51672 -0.096885,-0.30059 -0.096885,-0.66826 v -0.45213 q 0,-0.36767 0.096885,-0.66577 0.096885,-0.30059 0.2782336,-0.51672 0.1813487,-0.21613 0.43474,-0.33289 0.2533913,-0.11676 0.5713725,-0.11676 0.38505545,0 0.66577327,0.1416 0.28071782,0.13912 0.44219267,0.40245 0.16395907,0.26333 0.2012225,0.63596 h -0.3055601 q -0.0347792,-0.29314 -0.15402216,-0.49685 -0.11924297,-0.2037 -0.33040239,-0.31052 -0.20867519,-0.10931 -0.51920379,-0.10931 -0.2533913,0 -0.4521295,0.0969 -0.1987383,0.0969 -0.3378551,0.27823 -0.1391168,0.17886 -0.2136437,0.42977 -0.072043,0.25091 -0.072043,0.55895 v 0.4571 q 0,0.29811 0.069558,0.54901 0.069558,0.25091 0.2037067,0.43474 0.1366326,0.18384 0.3328867,0.28569 0.196254,0.10185 0.4471611,0.10185 0.3204655,0 0.53410911,-0.10185 0.21612787,-0.10434 0.33537084,-0.30804 0.11924296,-0.20371 0.15650639,-0.50679 z M 1.822855,147.14143 0.57080389,150.54234 H 0.25282265 l 1.36632565,-3.61703 h 0.2210963 z m 1.1377767,3.40091 -1.2545354,-3.40091 -0.01739,-0.21612 H 1.909803 l 1.3688099,3.61703 z m -0.2235806,-1.27689 v 0.26333 H 0.81674251 v -0.26333 z m 3.576151,-0.44219 v 1.28683 q -0.062106,0.0919 -0.2136437,0.2037 -0.1515379,0.11179 -0.4074134,0.19626 -0.2558756,0.082 -0.6359625,0.082 -0.3179813,0 -0.5837937,-0.11428 -0.2658125,-0.11427 -0.4620665,-0.3304 -0.1937698,-0.21861 -0.3005917,-0.52417 -0.1043375,-0.30556 -0.1043375,-0.68565 v -0.43722 q 0,-0.37264 0.096885,-0.67074 0.096885,-0.3006 0.2807178,-0.51424 0.1838329,-0.21364 0.4421926,-0.32543 0.260844,-0.11428 0.5837937,-0.11428 0.402445,0 0.6781944,0.13912 0.2757494,0.13912 0.4297715,0.38257 0.1565064,0.24097 0.1937698,0.54653 H 6.0051577 q -0.034779,-0.21613 -0.1440852,-0.39748 -0.1093061,-0.18383 -0.3179812,-0.29562 -0.206191,-0.11179 -0.5341092,-0.11179 -0.2633282,0 -0.4695191,0.0969 -0.2037068,0.0969 -0.3428236,0.27574 -0.1391168,0.17887 -0.2111594,0.42978 -0.072043,0.24842 -0.072043,0.55398 v 0.44219 q 0,0.31798 0.079495,0.57386 0.08198,0.25587 0.2335175,0.43971 0.1515379,0.18383 0.3626973,0.2832 0.2111594,0.0969 0.4695192,0.0969 0.2757494,0 0.4695192,-0.0522 0.1937698,-0.0522 0.3105285,-0.12421 0.119243,-0.0745 0.1714118,-0.13911 V 149.0841 H 5.0387929 v -0.26084 z m 1.9763029,-1.68183 -1.2520511,3.40091 H 6.7194727 l 1.3663256,-3.61703 h 0.2210963 z m 1.1377767,3.40091 -1.2545354,-3.40091 -0.01739,-0.21612 H 8.376453 l 1.3688099,3.61703 z m -0.2235806,-1.27689 v 0.26333 H 7.2833925 v -0.26333 z m 1.8868759,-2.34014 v 3.61703 h -0.303076 v -3.61703 z m 1.23963,0 v 0.26332 H 9.5503555 v -0.26332 z m 3.042039,1.89795 v 1.28683 q -0.06211,0.0919 -0.213644,0.2037 -0.151538,0.11179 -0.407413,0.19626 -0.255876,0.082 -0.635963,0.082 -0.317981,0 -0.583793,-0.11428 -0.265813,-0.11427 -0.462067,-0.3304 -0.19377,-0.21861 -0.300591,-0.52417 -0.104338,-0.30556 -0.104338,-0.68565 v -0.43722 q 0,-0.37264 0.09689,-0.67074 0.09689,-0.3006 0.280718,-0.51424 0.183833,-0.21364 0.442192,-0.32543 0.260844,-0.11428 0.583794,-0.11428 0.402445,0 0.678194,0.13912 0.27575,0.13912 0.429772,0.38257 0.156506,0.24097 0.19377,0.54653 h -0.30556 q -0.03478,-0.21613 -0.144086,-0.39748 -0.109306,-0.18383 -0.317981,-0.29562 -0.206191,-0.11179 -0.534109,-0.11179 -0.263328,0 -0.469519,0.0969 -0.203707,0.0969 -0.342824,0.27574 -0.139116,0.17887 -0.211159,0.42978 -0.07204,0.24842 -0.07204,0.55398 v 0.44219 q 0,0.31798 0.0795,0.57386 0.08198,0.25587 0.233517,0.43971 0.151538,0.18383 0.362697,0.2832 0.21116,0.0969 0.46952,0.0969 0.275749,0 0.469519,-0.0522 0.19377,-0.0522 0.310528,-0.12421 0.119243,-0.0745 0.171412,-0.13911 v -0.93159 h -0.971333 v -0.26084 z m 3.397285,0 v 1.28683 q -0.0621,0.0919 -0.213643,0.2037 -0.151538,0.11179 -0.407414,0.19626 -0.255875,0.082 -0.635962,0.082 -0.317981,0 -0.583794,-0.11428 -0.265812,-0.11427 -0.462066,-0.3304 -0.19377,-0.21861 -0.300592,-0.52417 -0.104338,-0.30556 -0.104338,-0.68565 v -0.43722 q 0,-0.37264 0.09689,-0.67074 0.09689,-0.3006 0.280718,-0.51424 0.183833,-0.21364 0.442193,-0.32543 0.260844,-0.11428 0.583793,-0.11428 0.402445,0 0.678195,0.13912 0.275749,0.13912 0.429771,0.38257 0.156507,0.24097 0.19377,0.54653 h -0.30556 q -0.03478,-0.21613 -0.144085,-0.39748 -0.109306,-0.18383 -0.317981,-0.29562 -0.206191,-0.11179 -0.53411,-0.11179 -0.263328,0 -0.469519,0.0969 -0.203706,0.0969 -0.342823,0.27574 -0.139117,0.17887 -0.21116,0.42978 -0.07204,0.24842 -0.07204,0.55398 v 0.44219 q 0,0.31798 0.0795,0.57386 0.08198,0.25587 0.233518,0.43971 0.151537,0.18383 0.362697,0.2832 0.211159,0.0969 0.469519,0.0969 0.275749,0 0.469519,-0.0522 0.19377,-0.0522 0.310529,-0.12421 0.119243,-0.0745 0.171412,-0.13911 v -0.93159 h -0.971334 v -0.26084 z m 1.976307,-1.68183 -1.252051,3.40091 h -0.317981 l 1.366325,-3.61703 h 0.221097 z m 1.137777,3.40091 -1.254536,-3.40091 -0.01739,-0.21612 h 0.221096 l 1.36881,3.61703 z m -0.223581,-1.27689 v 0.26333 h -1.920308 v -0.26333 z m 3.576149,-0.44219 v 1.28683 q -0.0621,0.0919 -0.213643,0.2037 -0.151538,0.11179 -0.407414,0.19626 -0.255875,0.082 -0.635962,0.082 -0.317982,0 -0.583794,-0.11428 -0.265812,-0.11427 -0.462066,-0.3304 -0.19377,-0.21861 -0.300592,-0.52417 -0.104338,-0.30556 -0.104338,-0.68565 v -0.43722 q 0,-0.37264 0.09689,-0.67074 0.09689,-0.3006 0.280718,-0.51424 0.183833,-0.21364 0.442193,-0.32543 0.260844,-0.11428 0.583793,-0.11428 0.402445,0 0.678195,0.13912 0.275749,0.13912 0.429771,0.38257 0.156507,0.24097 0.19377,0.54653 h -0.30556 q -0.03478,-0.21613 -0.144085,-0.39748 -0.109306,-0.18383 -0.317981,-0.29562 -0.206191,-0.11179 -0.53411,-0.11179 -0.263328,0 -0.469519,0.0969 -0.203707,0.0969 -0.342823,0.27574 -0.139117,0.17887 -0.21116,0.42978 -0.07204,0.24842 -0.07204,0.55398 v 0.44219 q 0,0.31798 0.0795,0.57386 0.08198,0.25587 0.233517,0.43971 0.151538,0.18383 0.362698,0.2832 0.211159,0.0969 0.469519,0.0969 0.275749,0 0.469519,-0.0522 0.19377,-0.0522 0.310529,-0.12421 0.119243,-0.0745 0.171411,-0.13911 v -0.93159 h -0.971333 v -0.26084 z m 3.397286,0 v 1.28683 q -0.06211,0.0919 -0.213644,0.2037 -0.151538,0.11179 -0.407413,0.19626 -0.255876,0.082 -0.635963,0.082 -0.317981,0 -0.583793,-0.11428 -0.265813,-0.11427 -0.462067,-0.3304 -0.19377,-0.21861 -0.300592,-0.52417 -0.104337,-0.30556 -0.104337,-0.68565 v -0.43722 q 0,-0.37264 0.09689,-0.67074 0.09689,-0.3006 0.280718,-0.51424 0.183832,-0.21364 0.442192,-0.32543 0.260844,-0.11428 0.583794,-0.11428 0.402445,0 0.678194,0.13912 0.27575,0.13912 0.429772,0.38257 0.156506,0.24097 0.19377,0.54653 h -0.305561 q -0.03478,-0.21613 -0.144085,-0.39748 -0.109306,-0.18383 -0.317981,-0.29562 -0.206191,-0.11179 -0.534109,-0.11179 -0.263328,0 -0.469519,0.0969 -0.203707,0.0969 -0.342824,0.27574 -0.139117,0.17887 -0.211159,0.42978 -0.07204,0.24842 -0.07204,0.55398 v 0.44219 q 0,0.31798 0.0795,0.57386 0.08198,0.25587 0.233518,0.43971 0.151538,0.18383 0.362697,0.2832 0.21116,0.0969 0.469519,0.0969 0.27575,0 0.46952,-0.0522 0.193769,-0.0522 0.310528,-0.12421 0.119243,-0.0745 0.171412,-0.13911 V 149.0841 H 27.35906 v -0.26084 z m 1.976307,-1.68183 -1.252052,3.40091 h -0.317981 l 1.366326,-3.61703 h 0.221096 z m 1.137776,3.40091 -1.254535,-3.40091 -0.01739,-0.21612 h 0.221097 l 1.368809,3.61703 z m -0.22358,-1.27689 v 0.26333 h -1.920309 v -0.26333 z m 1.886876,-2.34014 v 3.61703 h -0.303076 v -3.61703 z m 1.23963,0 v 0.26332 h -2.779852 v -0.26332 z"
         id="text6-0-6"
         style="font-weight:300;font-size:5.0877px;line-height:1.25;font-family:Roboto;-inkscape-font-specification:'Roboto, Light';text-align:center;letter-spacing:-0.0831189px;text-orientation:upright;text-anchor:middle;fill:#8ab9a1;stroke-width:1.09716;stroke-linecap:round;stroke-linejoin:round;stroke-miterlimit:1.5;paint-order:fill markers stroke"
         aria-label="ATACGAGTACAGATGGAGGAT" /></g></g></svg>
