<?xml version="1.0" encoding="UTF-8" standalone="no"?>
<!-- Created with Inkscape (http://www.inkscape.org/) -->

<svg
   width="192.30299mm"
   height="34.532001mm"
   viewBox="0 0 192.303 34.532001"
   version="1.1"
   id="svg1"
   inkscape:version="1.4.4 (dcaf3e7d9e, 2026-05-05)"
   sodipodi:docname="lr_haplotagging.svg"
   xml:space="preserve"
   inkscape:export-filename="lr_conversion.png"
   inkscape:export-xdpi="150"
   inkscape:export-ydpi="150"
   xmlns:inkscape="http://www.inkscape.org/namespaces/inkscape"
   xmlns:sodipodi="http://sodipodi.sourceforge.net/DTD/sodipodi-0.dtd"
   xmlns="http://www.w3.org/2000/svg"
   xmlns:svg="http://www.w3.org/2000/svg"><sodipodi:namedview
     id="namedview1"
     pagecolor="#ffffff"
     bordercolor="#000000"
     borderopacity="0.25"
     inkscape:showpageshadow="2"
     inkscape:pageopacity="0.0"
     inkscape:pagecheckerboard="0"
     inkscape:deskcolor="#d1d1d1"
     inkscape:document-units="mm"
     inkscape:zoom="1.2094621"
     inkscape:cx="105.83217"
     inkscape:cy="178.59179"
     inkscape:window-width="1536"
     inkscape:window-height="847"
     inkscape:window-x="0"
     inkscape:window-y="0"
     inkscape:window-maximized="1"
     inkscape:current-layer="layer1"
     inkscape:export-bgcolor="#ffffffff" /><defs
     id="defs1"><rect
       x="213.31796"
       y="587.03784"
       width="120.71482"
       height="75.240059"
       id="rect5" /></defs><g
     inkscape:label="Layer 1"
     inkscape:groupmode="layer"
     id="layer1"
     transform="translate(-12.818222,-119.4087)"><g
       id="path1-2"
       transform="translate(3.1164151,2.2512908)"><path
         style="color:#000000;fill:#b0d7c3;fill-opacity:1;stroke-linecap:round;stroke-linejoin:round;stroke-miterlimit:1.5;-inkscape-stroke:none;paint-order:fill markers stroke"
         d="m 15.96875,135 c -1.919646,2.2e-4 -3.475471,1.55691 -3.474609,3.47656 2.16e-4,1.91888 1.555725,3.47439 3.474609,3.47461 h 83.349609 c 1.918881,-2.1e-4 3.474391,-1.55572 3.474611,-3.47461 8.6e-4,-1.91965 -1.55496,-3.47635 -3.474611,-3.47656 z"
         id="path3-8"
         sodipodi:nodetypes="ccccccc" /></g><g
       id="path1-5-7"
       transform="translate(0.99974843,2.3509008)"><path
         style="color:#000000;fill:#d19b2f;stroke-linecap:round;stroke-linejoin:round;stroke-miterlimit:1.5;-inkscape-stroke:none;paint-order:fill markers stroke"
         d="m 114.58506,138.37561 h 83.348"
         id="path4-3" /><path
         style="color:#000000;fill:#b0d7c3;fill-opacity:1;stroke-linecap:round;stroke-linejoin:round;stroke-miterlimit:1.5;-inkscape-stroke:none;paint-order:fill markers stroke"
         d="m 114.58594,134.90039 a 3.4749999,3.4749999 0 0 0 -3.47656,3.47461 3.4749999,3.4749999 0 0 0 3.47656,3.47656 h 83.34765 a 3.4749999,3.4749999 0 0 0 3.47461,-3.47656 3.4749999,3.4749999 0 0 0 -3.47461,-3.47461 z"
         id="path5-6" /></g><text
       xml:space="preserve"
       transform="matrix(0.26458333,0,0,0.26458333,0.99974839,0.47075202)"
       id="text5"
       style="font-weight:500;font-stretch:expanded;font-size:66.404px;line-height:1.25;font-family:Inconsolata;-inkscape-font-specification:'Inconsolata, Medium Expanded';text-align:center;letter-spacing:-1.99px;text-orientation:upright;white-space:pre;shape-inside:url(#rect5);display:inline;fill:#97889f;fill-opacity:1;stroke:#4b275c;stroke-width:26.2677;stroke-linecap:round;stroke-linejoin:round;stroke-miterlimit:1.5;stroke-dasharray:none;paint-order:fill markers stroke"><tspan
         x="213.31836"
         y="723.70104"
         id="tspan4"><tspan
           dx="0 39.842426 39.842426 39.842434 39.842419 39.842434 39.842434 39.842419 39.842419 39.842449 39.842419 39.842419"
           style="stroke:none"
           id="tspan3">Forward read</tspan></tspan></text><path
       d="m 17.544817,131.5126 q 0.405737,0 0.683209,0.12303 0.280089,0.12041 0.455472,0.33244 0.178,0.21203 0.272236,0.4895 0.09685,0.27747 0.133501,0.59159 0.03665,0.31412 0.03665,0.63609 0,0.65965 -0.06282,1.0968 -0.06021,0.43453 -0.225118,0.64918 -0.164913,0.21726 -0.481649,0.21726 -0.162295,0 -0.282707,-0.0785 -0.117795,-0.0785 -0.193707,-0.19894 -0.07329,-0.11779 -0.107324,-0.24344 -0.03403,-0.12827 -0.03141,-0.2225 H 17.7202 q -0.04973,0.12041 -0.136118,0.23821 -0.08638,0.11517 -0.227736,0.19108 -0.141353,0.0785 -0.350766,0.0785 -0.285325,0 -0.460708,-0.15705 -0.172765,-0.15445 -0.251295,-0.42407 -0.07853,-0.27223 -0.07853,-0.61776 0,-0.68321 0.269618,-1.01565 0.272237,-0.33506 0.756503,-0.33506 0.183236,0 0.350766,0.0393 0.16753,0.0393 0.387413,0.15706 v 1.54704 q 0,0.2827 0.04974,0.43191 0.04973,0.14659 0.1335,0.20156 0.08376,0.055 0.185854,0.055 0.164912,0 0.232971,-0.21465 0.06806,-0.21465 0.08115,-0.5785 0.01309,-0.36385 0.01309,-0.81147 0,-0.37433 -0.04188,-0.69892 -0.04188,-0.3272 -0.159677,-0.57326 -0.117794,-0.24606 -0.340295,-0.3848 -0.222501,-0.13874 -0.583737,-0.13874 -0.256531,0 -0.554944,0.0942 -0.298412,0.0942 -0.633472,0.38741 l -0.251296,-0.29317 q 0.350766,-0.30627 0.717238,-0.43715 0.36909,-0.1335 0.717238,-0.1335 z m -0.282707,1.6753 q -0.356001,0 -0.489501,0.26176 -0.130883,0.25915 -0.130883,0.76436 0,0.38479 0.089,0.62824 0.089,0.24082 0.327207,0.24082 0.183236,0 0.287942,-0.0838 0.107324,-0.0838 0.162295,-0.19108 0.05759,-0.10995 0.089,-0.18586 v -1.35594 q -0.151824,-0.0785 -0.33506,-0.0785 z m 3.249986,1.68315 q 0.319354,0 0.50259,-0.11779 0.183236,-0.1178 0.183236,-0.31936 0,-0.12303 -0.04712,-0.21465 -0.0445,-0.0916 -0.185853,-0.16491 -0.141354,-0.0759 -0.434531,-0.14921 -0.285325,-0.0707 -0.497355,-0.16229 -0.209413,-0.0942 -0.327207,-0.24344 -0.115177,-0.14921 -0.115177,-0.38742 0,-0.34814 0.29056,-0.5497 0.29056,-0.20156 0.756502,-0.20156 0.332443,0 0.578503,0.089 0.248677,0.089 0.421442,0.21465 l -0.193706,0.29841 q -0.154442,-0.10733 -0.345531,-0.17538 -0.188471,-0.0707 -0.455472,-0.0707 -0.32459,0 -0.460708,0.10209 -0.136118,0.0995 -0.136118,0.25915 0,0.12302 0.06544,0.20417 0.06806,0.0785 0.227736,0.14136 0.159677,0.0628 0.439766,0.13873 0.269619,0.0733 0.471178,0.17277 0.20156,0.0995 0.311501,0.26176 0.112559,0.15968 0.112559,0.41621 0,0.29318 -0.16753,0.47641 -0.16753,0.18062 -0.434531,0.26439 -0.264383,0.0811 -0.560178,0.0811 -0.374325,0 -0.638708,-0.10732 -0.261766,-0.10994 -0.439767,-0.26438 l 0.251296,-0.29056 q 0.162294,0.1335 0.371707,0.21726 0.21203,0.0812 0.455472,0.0812 z m 2.39663,-0.9188 q 0.01832,0.47903 0.251295,0.69892 0.235589,0.21726 0.554943,0.21726 0.21203,0 0.382178,-0.0628 0.170147,-0.0628 0.353383,-0.18586 l 0.206795,0.29056 q -0.191089,0.15183 -0.439766,0.23821 -0.248678,0.0864 -0.507826,0.0864 -0.403119,0 -0.685826,-0.18061 -0.280089,-0.18062 -0.429295,-0.50259 -0.146589,-0.32459 -0.146589,-0.75127 0,-0.41883 0.146589,-0.74342 0.149206,-0.32459 0.418825,-0.51044 0.272236,-0.18585 0.638708,-0.18585 0.520914,0 0.819327,0.36123 0.30103,0.36124 0.30103,0.98948 0,0.0707 -0.0052,0.1335 -0.0026,0.0628 -0.0052,0.10732 z m 0.748649,-1.2303 q -0.306265,0 -0.51306,0.21727 -0.206795,0.21726 -0.232972,0.67274 h 1.437094 q -0.0079,-0.44239 -0.193707,-0.66489 -0.185854,-0.22512 -0.497355,-0.22512 z m 2.802366,-0.36123 q 0.248678,0 0.437149,0.0916 0.191089,0.0916 0.332442,0.267 l 0.03665,-0.30103 h 0.374325 v 3.86627 l -0.439767,-0.055 v -1.40306 q -0.151824,0.21203 -0.350766,0.3115 -0.198942,0.0969 -0.42406,0.0969 -0.371707,0 -0.594208,-0.178 -0.222501,-0.178 -0.321972,-0.49997 -0.09947,-0.32459 -0.09947,-0.7565 0,-0.41359 0.120412,-0.73818 0.120413,-0.32721 0.353384,-0.51306 0.235589,-0.18847 0.575884,-0.18847 z m 0.109942,0.35338 q -0.688444,0 -0.688444,1.08633 0,1.068 0.636091,1.068 0.227736,0 0.397884,-0.12565 0.172765,-0.12826 0.285324,-0.29841 v -1.37689 q -0.107324,-0.16753 -0.272236,-0.25914 -0.164912,-0.0942 -0.358619,-0.0942 z m 1.705569,3.41081 v -0.3848 h 2.617656 v 0.3848 z M 32.5723,131.1278 q 0.146589,0 0.232971,0.089 0.089,0.089 0.089,0.21727 0,0.1335 -0.089,0.22512 -0.08638,0.089 -0.232971,0.089 -0.138736,0 -0.227736,-0.089 -0.089,-0.0916 -0.089,-0.22512 0,-0.12827 0.089,-0.21727 0.089,-0.089 0.227736,-0.089 z m 0.350766,1.29051 v 2.40824 h 0.777444 v 0.34815 h -2.067949 v -0.34815 H 32.4833 v -2.0601 h -0.824562 v -0.34814 z m 3.242132,-1.16486 0.439766,0.055 v 3.86628 h -0.384795 l -0.04188,-0.36386 q -0.154442,0.21989 -0.356001,0.32198 -0.198942,0.10208 -0.426678,0.10208 -0.358619,0 -0.59159,-0.18061 -0.232972,-0.18062 -0.345531,-0.50259 -0.112559,-0.32459 -0.112559,-0.75127 0,-0.41359 0.128265,-0.73818 0.128265,-0.32721 0.369089,-0.51306 0.243442,-0.18847 0.583738,-0.18847 0.45809,0 0.738179,0.32459 z m -0.623002,1.46065 q -0.345531,0 -0.531385,0.26962 -0.185853,0.26962 -0.185853,0.81671 0,1.07847 0.662267,1.07847 0.232971,0 0.400501,-0.13088 0.16753,-0.1335 0.277472,-0.30365 v -1.37689 q -0.112559,-0.16753 -0.272236,-0.25914 -0.159677,-0.0942 -0.350766,-0.0942 z m 2.066805,2.99984 -0.356001,-0.15706 2.240714,-4.62017 0.350765,0.17277 z m 5.066639,-0.89786 v 0.35862 h -2.081037 v -0.35862 h 0.887386 v -2.76948 l -0.82718,0.50259 -0.191088,-0.31412 1.073239,-0.66489 h 0.384795 v 3.2459 z m 6.091618,-0.67012 q 0,0.29579 -0.117795,0.49474 -0.115177,0.19632 -0.311501,0.31411 -0.193707,0.1178 -0.434531,0.17015 -0.238207,0.0497 -0.486884,0.0497 h -0.968533 v -3.60452 H 47.3354 q 0.235589,0 0.463325,0.0445 0.227736,0.0419 0.410972,0.14658 0.183236,0.10209 0.29056,0.27748 0.109941,0.17538 0.109941,0.43976 0,0.23297 -0.09685,0.39527 -0.09424,0.15967 -0.248677,0.25653 -0.151825,0.0968 -0.32459,0.13612 0.198942,0.034 0.387413,0.12564 0.191089,0.089 0.314119,0.26962 0.125648,0.18062 0.125648,0.48427 z m -0.623003,-1.64389 q 0,-0.30627 -0.191089,-0.43453 -0.188471,-0.13088 -0.515678,-0.13088 h -0.536619 v 1.16747 h 0.581119 q 0.319354,0 0.489502,-0.14135 0.172765,-0.14397 0.172765,-0.46071 z m 0.143971,1.65959 q 0,-0.27223 -0.107323,-0.41882 -0.104707,-0.14921 -0.28009,-0.2068 -0.175383,-0.0576 -0.384795,-0.0576 h -0.615149 v 1.32191 h 0.594208 q 0.178,0 0.361236,-0.0471 0.183236,-0.0497 0.306266,-0.18586 0.125647,-0.13873 0.125647,-0.40574 z m 0.90195,-2.59148 h 0.520914 l 0.790532,1.38475 0.79315,-1.38475 h 0.49212 l -1.023504,1.6596 1.146533,1.94492 h -0.520913 l -0.897856,-1.62818 -0.908327,1.62818 h -0.489502 l 1.130828,-1.92136 z m 3.872985,0.93189 q 0,-0.17538 0.120412,-0.29841 0.12303,-0.12303 0.30103,-0.12303 0.183236,0 0.303649,0.12303 0.123029,0.12303 0.123029,0.29841 0,0.17538 -0.123029,0.30103 -0.120413,0.12565 -0.303649,0.12565 -0.178,0 -0.30103,-0.12565 -0.120412,-0.12565 -0.120412,-0.30103 z m 0,1.88733 q 0,-0.17015 0.120412,-0.29579 0.12303,-0.12565 0.30103,-0.12565 0.183236,0 0.303649,0.12565 0.123029,0.12564 0.123029,0.29579 0,0.178 -0.123029,0.30365 -0.120413,0.12303 -0.303649,0.12303 -0.178,0 -0.30103,-0.12303 -0.120412,-0.12565 -0.120412,-0.30365 z m 2.718601,0.39265 h 1.887331 l -0.05497,0.39265 H 55.28179 v -0.36909 l 1.905654,-2.84801 h -1.717183 v -0.38742 h 2.204067 v 0.37171 z m 3.257839,-2.27998 q 0,-0.17538 0.120412,-0.29841 0.12303,-0.12303 0.301031,-0.12303 0.183236,0 0.303648,0.12303 0.12303,0.12303 0.12303,0.29841 0,0.17538 -0.12303,0.30103 -0.120412,0.12565 -0.303648,0.12565 -0.178001,0 -0.301031,-0.12565 -0.120412,-0.12565 -0.120412,-0.30103 z m 0,1.88733 q 0,-0.17015 0.120412,-0.29579 0.12303,-0.12565 0.301031,-0.12565 0.183236,0 0.303648,0.12565 0.12303,0.12564 0.12303,0.29579 0,0.178 -0.12303,0.30365 -0.120412,0.12303 -0.303648,0.12303 -0.178001,0 -0.301031,-0.12303 -0.120412,-0.12565 -0.120412,-0.30365 z"
       id="text6-0-3"
       style="font-size:5.10443px;line-height:1.25;font-family:'Fira Code';-inkscape-font-specification:'Fira Code, Normal';letter-spacing:-0.15297px;text-orientation:upright;fill:#4b4b4b;stroke-width:2.01918;stroke-linecap:round;stroke-linejoin:round;stroke-miterlimit:1.5;paint-order:fill markers stroke"
       aria-label="@seq_id/1 BX:Z: " /><g
       id="g9"
       transform="matrix(0.58136209,0,0,0.58136209,36.465661,69.629126)" /><path
       d="m 18.719848,139.13532 -1.252051,3.4009 h -0.317981 l 1.366326,-3.61703 h 0.221096 z m 1.137777,3.4009 -1.254535,-3.4009 -0.01739,-0.21613 h 0.221096 l 1.36881,3.61703 z m -0.223581,-1.27689 v 0.26333 h -1.920308 v -0.26333 z m 1.886875,-2.34014 v 3.61703 h -0.303076 v -3.61703 z m 1.23963,0 v 0.26333 h -2.779852 v -0.26333 z m 1.494366,0.21613 -1.252051,3.4009 h -0.317981 l 1.366325,-3.61703 h 0.221097 z m 1.137777,3.4009 -1.254536,-3.4009 -0.01739,-0.21613 h 0.221096 l 1.36881,3.61703 z m -0.223581,-1.27689 v 0.26333 h -1.920309 v -0.26333 z m 3.220904,0.14905 h 0.305561 q -0.03726,0.36519 -0.201223,0.631 -0.163959,0.26333 -0.447161,0.40493 -0.283202,0.1416 -0.683163,0.1416 -0.308044,0 -0.558951,-0.11676 -0.248423,-0.11676 -0.427288,-0.3304 -0.178864,-0.21613 -0.275749,-0.51672 -0.09689,-0.30059 -0.09689,-0.66826 v -0.45213 q 0,-0.36766 0.09689,-0.66577 0.09689,-0.30059 0.278234,-0.51672 0.181348,-0.21613 0.43474,-0.33289 0.253391,-0.11676 0.571372,-0.11676 0.385056,0 0.665773,0.1416 0.280718,0.13912 0.442193,0.40245 0.163959,0.26333 0.201223,0.63596 h -0.305561 q -0.03478,-0.29314 -0.154022,-0.49684 -0.119243,-0.20371 -0.330402,-0.31053 -0.208675,-0.10931 -0.519204,-0.10931 -0.253391,0 -0.452129,0.0969 -0.198739,0.0969 -0.337855,0.27823 -0.139117,0.17886 -0.213644,0.42977 -0.07204,0.25091 -0.07204,0.55895 v 0.4571 q 0,0.29811 0.06956,0.54902 0.06956,0.2509 0.203706,0.43474 0.136633,0.18383 0.332887,0.28568 0.196254,0.10185 0.447161,0.10185 0.320466,0 0.534109,-0.10185 0.216128,-0.10434 0.335371,-0.30804 0.119243,-0.20371 0.156506,-0.50679 z m 3.57615,-0.59124 v 1.28683 q -0.0621,0.0919 -0.213643,0.20371 -0.151538,0.11179 -0.407414,0.19625 -0.255875,0.082 -0.635962,0.082 -0.317981,0 -0.583794,-0.11428 -0.265812,-0.11427 -0.462066,-0.3304 -0.19377,-0.21861 -0.300592,-0.52417 -0.104338,-0.30556 -0.104338,-0.68565 v -0.43722 q 0,-0.37264 0.09689,-0.67074 0.09689,-0.30059 0.280718,-0.51424 0.183833,-0.21364 0.442193,-0.32543 0.260844,-0.11428 0.583793,-0.11428 0.402446,0 0.678195,0.13912 0.275749,0.13912 0.429771,0.38257 0.156507,0.24097 0.19377,0.54653 h -0.30556 q -0.03478,-0.21613 -0.144085,-0.39748 -0.109306,-0.18383 -0.317981,-0.29562 -0.206191,-0.11179 -0.53411,-0.11179 -0.263328,0 -0.469519,0.0969 -0.203706,0.0969 -0.342823,0.27575 -0.139117,0.17886 -0.21116,0.42977 -0.07204,0.24842 -0.07204,0.55398 v 0.44219 q 0,0.31798 0.0795,0.57386 0.08198,0.25588 0.233518,0.43971 0.151537,0.18383 0.362697,0.2832 0.211159,0.0969 0.469519,0.0969 0.275749,0 0.469519,-0.0522 0.19377,-0.0522 0.310529,-0.12422 0.119243,-0.0745 0.171412,-0.13911 v -0.93159 h -0.971334 v -0.26084 z m 1.976307,-1.68182 -1.252051,3.4009 H 32.37244 l 1.366325,-3.61703 h 0.221097 z m 1.137777,3.4009 -1.254536,-3.4009 -0.01739,-0.21613 h 0.221096 l 1.36881,3.61703 z m -0.223581,-1.27689 v 0.26333 H 32.93636 v -0.26333 z m 3.576149,-0.44219 v 1.28683 q -0.06211,0.0919 -0.213643,0.20371 -0.151538,0.11179 -0.407414,0.19625 -0.255875,0.082 -0.635962,0.082 -0.317981,0 -0.583794,-0.11428 -0.265812,-0.11427 -0.462066,-0.3304 -0.19377,-0.21861 -0.300592,-0.52417 -0.104338,-0.30556 -0.104338,-0.68565 v -0.43722 q 0,-0.37264 0.09689,-0.67074 0.09689,-0.30059 0.280718,-0.51424 0.183833,-0.21364 0.442193,-0.32543 0.260844,-0.11428 0.583793,-0.11428 0.402445,0 0.678195,0.13912 0.275749,0.13912 0.429771,0.38257 0.156507,0.24097 0.19377,0.54653 h -0.30556 q -0.03478,-0.21613 -0.144085,-0.39748 -0.109306,-0.18383 -0.317981,-0.29562 -0.206191,-0.11179 -0.53411,-0.11179 -0.263328,0 -0.469519,0.0969 -0.203707,0.0969 -0.342823,0.27575 -0.139117,0.17886 -0.21116,0.42977 -0.07204,0.24842 -0.07204,0.55398 v 0.44219 q 0,0.31798 0.07949,0.57386 0.08198,0.25588 0.233517,0.43971 0.151538,0.18383 0.362698,0.2832 0.211159,0.0969 0.469519,0.0969 0.275749,0 0.469519,-0.0522 0.19377,-0.0522 0.310529,-0.12422 0.119243,-0.0745 0.171411,-0.13911 v -0.93159 h -0.971333 v -0.26084 z m 2.001149,-1.89795 v 3.61703 h -0.303075 v -3.61703 z m 1.23963,0 v 0.26333 h -2.779851 v -0.26333 z m 1.494367,0.21613 -1.252051,3.4009 H 41.59793 l 1.366326,-3.61703 h 0.221096 z m 1.137776,3.4009 -1.254535,-3.4009 -0.01739,-0.21613 h 0.221097 l 1.36881,3.61703 z m -0.22358,-1.27689 v 0.26333 H 42.16185 v -0.26333 z m 3.220904,0.14905 h 0.30556 q -0.03726,0.36519 -0.201222,0.631 -0.163959,0.26333 -0.447161,0.40493 -0.283202,0.1416 -0.683163,0.1416 -0.308044,0 -0.558952,-0.11676 -0.248422,-0.11676 -0.427287,-0.3304 -0.178864,-0.21613 -0.275749,-0.51672 -0.09689,-0.30059 -0.09689,-0.66826 v -0.45213 q 0,-0.36766 0.09689,-0.66577 0.09688,-0.30059 0.278233,-0.51672 0.181349,-0.21613 0.43474,-0.33289 0.253392,-0.11676 0.571373,-0.11676 0.385055,0 0.665773,0.1416 0.280718,0.13912 0.442193,0.40245 0.163959,0.26333 0.201222,0.63596 h -0.30556 q -0.03478,-0.29314 -0.154022,-0.49684 -0.119243,-0.20371 -0.330402,-0.31053 -0.208675,-0.10931 -0.519204,-0.10931 -0.253391,0 -0.45213,0.0969 -0.198738,0.0969 -0.337855,0.27823 -0.139116,0.17886 -0.213643,0.42977 -0.07204,0.25091 -0.07204,0.55895 v 0.4571 q 0,0.29811 0.06956,0.54902 0.06956,0.2509 0.203707,0.43474 0.136633,0.18383 0.332887,0.28568 0.196254,0.10185 0.447161,0.10185 0.320465,0 0.534109,-0.10185 0.216128,-0.10434 0.335371,-0.30804 0.119243,-0.20371 0.156506,-0.50679 z m 2.155172,-2.27306 -1.252052,3.4009 h -0.317981 l 1.366326,-3.61703 h 0.221096 z m 1.137776,3.4009 -1.254535,-3.4009 -0.01739,-0.21613 h 0.221097 l 1.368809,3.61703 z m -0.22358,-1.27689 v 0.26333 h -1.920309 v -0.26333 z m 3.576151,-0.44219 v 1.28683 q -0.06211,0.0919 -0.213644,0.20371 -0.151538,0.11179 -0.407414,0.19625 -0.255875,0.082 -0.635962,0.082 -0.317981,0 -0.583794,-0.11428 -0.265812,-0.11427 -0.462066,-0.3304 -0.19377,-0.21861 -0.300592,-0.52417 -0.104337,-0.30556 -0.104337,-0.68565 v -0.43722 q 0,-0.37264 0.09688,-0.67074 0.09689,-0.30059 0.280718,-0.51424 0.183833,-0.21364 0.442193,-0.32543 0.260844,-0.11428 0.583794,-0.11428 0.402445,0 0.678194,0.13912 0.275749,0.13912 0.429772,0.38257 0.156506,0.24097 0.193769,0.54653 h -0.30556 q -0.03478,-0.21613 -0.144085,-0.39748 -0.109306,-0.18383 -0.317981,-0.29562 -0.206191,-0.11179 -0.534109,-0.11179 -0.263329,0 -0.46952,0.0969 -0.203706,0.0969 -0.342823,0.27575 -0.139117,0.17886 -0.211159,0.42977 -0.07204,0.24842 -0.07204,0.55398 v 0.44219 q 0,0.31798 0.0795,0.57386 0.08198,0.25588 0.233518,0.43971 0.151538,0.18383 0.362697,0.2832 0.211159,0.0969 0.469519,0.0969 0.27575,0 0.469519,-0.0522 0.19377,-0.0522 0.310529,-0.12422 0.119243,-0.0745 0.171412,-0.13911 v -0.93159 h -0.971334 v -0.26084 z m 1.976303,-1.68182 -1.252052,3.4009 h -0.317981 l 1.366326,-3.61703 h 0.221096 z m 1.137776,3.4009 -1.254535,-3.4009 -0.01739,-0.21613 h 0.221097 l 1.368809,3.61703 z m -0.22358,-1.27689 v 0.26333 h -1.920309 v -0.26333 z m 1.886876,-2.34014 v 3.61703 h -0.303076 v -3.61703 z m 1.23963,0 v 0.26333 h -2.779852 v -0.26333 z m 3.042038,1.89795 v 1.28683 q -0.0621,0.0919 -0.213643,0.20371 -0.151538,0.11179 -0.407414,0.19625 -0.255875,0.082 -0.635962,0.082 -0.317981,0 -0.583794,-0.11428 -0.265812,-0.11427 -0.462066,-0.3304 -0.19377,-0.21861 -0.300592,-0.52417 -0.104338,-0.30556 -0.104338,-0.68565 v -0.43722 q 0,-0.37264 0.09689,-0.67074 0.09689,-0.30059 0.280718,-0.51424 0.183833,-0.21364 0.442193,-0.32543 0.260844,-0.11428 0.583794,-0.11428 0.402445,0 0.678194,0.13912 0.275749,0.13912 0.429771,0.38257 0.156507,0.24097 0.19377,0.54653 h -0.30556 q -0.03478,-0.21613 -0.144085,-0.39748 -0.109306,-0.18383 -0.317981,-0.29562 -0.206191,-0.11179 -0.534109,-0.11179 -0.263329,0 -0.46952,0.0969 -0.203706,0.0969 -0.342823,0.27575 -0.139117,0.17886 -0.21116,0.42977 -0.07204,0.24842 -0.07204,0.55398 v 0.44219 q 0,0.31798 0.0795,0.57386 0.08198,0.25588 0.233518,0.43971 0.151537,0.18383 0.362697,0.2832 0.211159,0.0969 0.469519,0.0969 0.275749,0 0.469519,-0.0522 0.19377,-0.0522 0.310529,-0.12422 0.119243,-0.0745 0.171412,-0.13911 v -0.93159 h -0.971334 v -0.26084 z m 3.397286,0 v 1.28683 q -0.06211,0.0919 -0.213644,0.20371 -0.151538,0.11179 -0.407413,0.19625 -0.255876,0.082 -0.635963,0.082 -0.317981,0 -0.583793,-0.11428 -0.265813,-0.11427 -0.462067,-0.3304 -0.19377,-0.21861 -0.300591,-0.52417 -0.104338,-0.30556 -0.104338,-0.68565 v -0.43722 q 0,-0.37264 0.09689,-0.67074 0.09689,-0.30059 0.280718,-0.51424 0.183833,-0.21364 0.442192,-0.32543 0.260844,-0.11428 0.583794,-0.11428 0.402445,0 0.678194,0.13912 0.27575,0.13912 0.429772,0.38257 0.156506,0.24097 0.19377,0.54653 h -0.30556 q -0.03478,-0.21613 -0.144086,-0.39748 -0.109306,-0.18383 -0.317981,-0.29562 -0.206191,-0.11179 -0.534109,-0.11179 -0.263328,0 -0.469519,0.0969 -0.203707,0.0969 -0.342824,0.27575 -0.139117,0.17886 -0.211159,0.42977 -0.07204,0.24842 -0.07204,0.55398 v 0.44219 q 0,0.31798 0.0795,0.57386 0.08198,0.25588 0.233517,0.43971 0.151538,0.18383 0.362697,0.2832 0.21116,0.0969 0.46952,0.0969 0.275749,0 0.469519,-0.0522 0.19377,-0.0522 0.310528,-0.12422 0.119243,-0.0745 0.171412,-0.13911 v -0.93159 h -0.971333 v -0.26084 z m 1.976307,-1.68182 -1.252051,3.4009 h -0.317982 l 1.366326,-3.61703 h 0.221096 z m 1.137776,3.4009 -1.254535,-3.4009 -0.01739,-0.21613 h 0.221097 l 1.36881,3.61703 z m -0.22358,-1.27689 v 0.26333 h -1.920309 v -0.26333 z m 3.576149,-0.44219 v 1.28683 q -0.06211,0.0919 -0.213644,0.20371 -0.151538,0.11179 -0.407413,0.19625 -0.255876,0.082 -0.635963,0.082 -0.317981,0 -0.583793,-0.11428 -0.265813,-0.11427 -0.462067,-0.3304 -0.19377,-0.21861 -0.300592,-0.52417 -0.104337,-0.30556 -0.104337,-0.68565 v -0.43722 q 0,-0.37264 0.09689,-0.67074 0.09689,-0.30059 0.280718,-0.51424 0.183832,-0.21364 0.442192,-0.32543 0.260844,-0.11428 0.583794,-0.11428 0.402445,0 0.678194,0.13912 0.27575,0.13912 0.429772,0.38257 0.156506,0.24097 0.19377,0.54653 h -0.30556 q -0.03478,-0.21613 -0.144086,-0.39748 -0.109306,-0.18383 -0.317981,-0.29562 -0.206191,-0.11179 -0.534109,-0.11179 -0.263328,0 -0.469519,0.0969 -0.203707,0.0969 -0.342824,0.27575 -0.139117,0.17886 -0.211159,0.42977 -0.07204,0.24842 -0.07204,0.55398 v 0.44219 q 0,0.31798 0.07949,0.57386 0.08198,0.25588 0.233518,0.43971 0.151538,0.18383 0.362697,0.2832 0.21116,0.0969 0.469519,0.0969 0.27575,0 0.46952,-0.0522 0.193769,-0.0522 0.310528,-0.12422 0.119243,-0.0745 0.171412,-0.13911 v -0.93159 h -0.971333 v -0.26084 z m 3.397285,0 v 1.28683 q -0.06211,0.0919 -0.213643,0.20371 -0.151538,0.11179 -0.407414,0.19625 -0.255875,0.082 -0.635962,0.082 -0.317982,0 -0.583794,-0.11428 -0.265812,-0.11427 -0.462066,-0.3304 -0.19377,-0.21861 -0.300592,-0.52417 -0.104338,-0.30556 -0.104338,-0.68565 v -0.43722 q 0,-0.37264 0.09689,-0.67074 0.09689,-0.30059 0.280718,-0.51424 0.183833,-0.21364 0.442193,-0.32543 0.260844,-0.11428 0.583793,-0.11428 0.402445,0 0.678195,0.13912 0.275749,0.13912 0.429771,0.38257 0.156507,0.24097 0.19377,0.54653 h -0.30556 q -0.03478,-0.21613 -0.144085,-0.39748 -0.109306,-0.18383 -0.317982,-0.29562 -0.20619,-0.11179 -0.534109,-0.11179 -0.263328,0 -0.469519,0.0969 -0.203707,0.0969 -0.342823,0.27575 -0.139117,0.17886 -0.21116,0.42977 -0.07204,0.24842 -0.07204,0.55398 v 0.44219 q 0,0.31798 0.07949,0.57386 0.08198,0.25588 0.233517,0.43971 0.151538,0.18383 0.362698,0.2832 0.211159,0.0969 0.469519,0.0969 0.275749,0 0.469519,-0.0522 0.19377,-0.0522 0.310529,-0.12422 0.119243,-0.0745 0.171411,-0.13911 v -0.93159 h -0.971333 v -0.26084 z m 1.976307,-1.68182 -1.252051,3.4009 h -0.317981 l 1.366325,-3.61703 h 0.221097 z m 1.137777,3.4009 -1.254536,-3.4009 -0.01739,-0.21613 h 0.221096 l 1.36881,3.61703 z m -0.223581,-1.27689 v 0.26333 h -1.920308 v -0.26333 z m 1.886876,-2.34014 v 3.61703 h -0.303076 v -3.61703 z m 1.23963,0 v 0.26333 h -2.779851 v -0.26333 z m 2.686798,2.48919 h 0.30556 q -0.03726,0.36519 -0.201222,0.631 -0.163959,0.26333 -0.447161,0.40493 -0.283202,0.1416 -0.683163,0.1416 -0.308045,0 -0.558952,-0.11676 -0.248422,-0.11676 -0.427287,-0.3304 -0.178864,-0.21613 -0.275749,-0.51672 -0.09689,-0.30059 -0.09689,-0.66826 v -0.45213 q 0,-0.36766 0.09689,-0.66577 0.09689,-0.30059 0.278233,-0.51672 0.181349,-0.21613 0.43474,-0.33289 0.253392,-0.11676 0.571373,-0.11676 0.385055,0 0.665773,0.1416 0.280718,0.13912 0.442193,0.40245 0.163959,0.26333 0.201222,0.63596 h -0.30556 q -0.03478,-0.29314 -0.154022,-0.49684 -0.119243,-0.20371 -0.330402,-0.31053 -0.208676,-0.10931 -0.519204,-0.10931 -0.253391,0 -0.45213,0.0969 -0.198738,0.0969 -0.337855,0.27823 -0.139117,0.17886 -0.213643,0.42977 -0.07204,0.25091 -0.07204,0.55895 v 0.4571 q 0,0.29811 0.06956,0.54902 0.06956,0.2509 0.203707,0.43474 0.136633,0.18383 0.332887,0.28568 0.196254,0.10185 0.447161,0.10185 0.320465,0 0.534109,-0.10185 0.216128,-0.10434 0.335371,-0.30804 0.119243,-0.20371 0.156506,-0.50679 z m 2.155168,-2.27306 -1.252052,3.4009 H 85.55779 l 1.366326,-3.61703 h 0.221096 z m 1.137776,3.4009 -1.254535,-3.4009 -0.01739,-0.21613 h 0.221097 l 1.36881,3.61703 z m -0.22358,-1.27689 v 0.26333 H 86.12171 v -0.26333 z m 3.220904,0.14905 h 0.30556 q -0.03726,0.36519 -0.201222,0.631 -0.163959,0.26333 -0.447161,0.40493 -0.283202,0.1416 -0.683163,0.1416 -0.308045,0 -0.558952,-0.11676 -0.248423,-0.11676 -0.427287,-0.3304 -0.178864,-0.21613 -0.275749,-0.51672 -0.09689,-0.30059 -0.09689,-0.66826 v -0.45213 q 0,-0.36766 0.09689,-0.66577 0.09689,-0.30059 0.278233,-0.51672 0.181349,-0.21613 0.43474,-0.33289 0.253392,-0.11676 0.571373,-0.11676 0.385055,0 0.665773,0.1416 0.280718,0.13912 0.442193,0.40245 0.163959,0.26333 0.201222,0.63596 h -0.30556 q -0.03478,-0.29314 -0.154022,-0.49684 -0.119243,-0.20371 -0.330402,-0.31053 -0.208676,-0.10931 -0.519204,-0.10931 -0.253392,0 -0.45213,0.0969 -0.198738,0.0969 -0.337855,0.27823 -0.139117,0.17886 -0.213644,0.42977 -0.07204,0.25091 -0.07204,0.55895 v 0.4571 q 0,0.29811 0.06956,0.54902 0.06956,0.2509 0.203707,0.43474 0.136633,0.18383 0.332887,0.28568 0.196254,0.10185 0.447161,0.10185 0.320465,0 0.534109,-0.10185 0.216128,-0.10434 0.335371,-0.30804 0.119243,-0.20371 0.156506,-0.50679 z m 3.220909,0 h 0.30556 q -0.03726,0.36519 -0.201222,0.631 -0.163959,0.26333 -0.447161,0.40493 -0.283202,0.1416 -0.683163,0.1416 -0.308044,0 -0.558952,-0.11676 -0.248422,-0.11676 -0.427287,-0.3304 -0.178864,-0.21613 -0.275749,-0.51672 -0.09689,-0.30059 -0.09689,-0.66826 v -0.45213 q 0,-0.36766 0.09689,-0.66577 0.09689,-0.30059 0.278233,-0.51672 0.181349,-0.21613 0.43474,-0.33289 0.253392,-0.11676 0.571373,-0.11676 0.385055,0 0.665773,0.1416 0.280718,0.13912 0.442193,0.40245 0.163959,0.26333 0.201222,0.63596 h -0.30556 q -0.03478,-0.29314 -0.154022,-0.49684 -0.119243,-0.20371 -0.330402,-0.31053 -0.208676,-0.10931 -0.519204,-0.10931 -0.253391,0 -0.45213,0.0969 -0.198738,0.0969 -0.337855,0.27823 -0.139117,0.17886 -0.213643,0.42977 -0.07204,0.25091 -0.07204,0.55895 v 0.4571 q 0,0.29811 0.06956,0.54902 0.06956,0.2509 0.203707,0.43474 0.136633,0.18383 0.332887,0.28568 0.196254,0.10185 0.447161,0.10185 0.320465,0 0.534109,-0.10185 0.216128,-0.10434 0.335371,-0.30804 0.119243,-0.20371 0.156506,-0.50679 z m 2.155168,-2.27306 -1.252051,3.4009 h -0.317982 l 1.366326,-3.61703 h 0.221096 z m 1.137776,3.4009 -1.254535,-3.4009 -0.01739,-0.21613 h 0.221097 l 1.36881,3.61703 z m -0.22358,-1.27689 v 0.26333 h -1.920309 v -0.26333 z m 3.576144,-0.44219 v 1.28683 q -0.0621,0.0919 -0.21364,0.20371 -0.15154,0.11179 -0.40741,0.19625 -0.25588,0.082 -0.635965,0.082 -0.317981,0 -0.583793,-0.11428 -0.265813,-0.11427 -0.462067,-0.3304 -0.19377,-0.21861 -0.300592,-0.52417 -0.104337,-0.30556 -0.104337,-0.68565 v -0.43722 q 0,-0.37264 0.09689,-0.67074 0.09689,-0.30059 0.280718,-0.51424 0.183832,-0.21364 0.442192,-0.32543 0.260844,-0.11428 0.583794,-0.11428 0.402445,0 0.678195,0.13912 0.27575,0.13912 0.42977,0.38257 0.15651,0.24097 0.19377,0.54653 h -0.30556 q -0.0348,-0.21613 -0.14408,-0.39748 -0.10931,-0.18383 -0.31799,-0.29562 -0.20619,-0.11179 -0.534105,-0.11179 -0.263328,0 -0.469519,0.0969 -0.203707,0.0969 -0.342824,0.27575 -0.139117,0.17886 -0.211159,0.42977 -0.07204,0.24842 -0.07204,0.55398 v 0.44219 q 0,0.31798 0.0795,0.57386 0.08198,0.25588 0.233518,0.43971 0.151538,0.18383 0.362697,0.2832 0.21116,0.0969 0.469519,0.0969 0.275751,0 0.469521,-0.0522 0.19377,-0.0522 0.31053,-0.12422 0.11924,-0.0745 0.17141,-0.13911 v -0.93159 h -0.971334 v -0.26084 z m 2.00115,-1.89795 v 3.61703 h -0.30307 v -3.61703 z m 1.23963,0 v 0.26333 h -2.77985 v -0.26333 z"
       id="text6-0-6-3"
       style="font-weight:300;font-size:5.0877px;line-height:1.25;font-family:Roboto;-inkscape-font-specification:'Roboto, Light';text-align:center;letter-spacing:-0.0831189px;text-orientation:upright;text-anchor:middle;fill:#8ab9a1;stroke-width:1.09716;stroke-linecap:round;stroke-linejoin:round;stroke-miterlimit:1.5;paint-order:fill markers stroke"
       aria-label="ATACGAGTACAGATGGAGGATCACCAGT" /><g
       id="g14-2-2-7"
       transform="translate(-117.48982,-40.970172)"><rect
         style="fill:#9f8eb1;fill-opacity:1;stroke:none;stroke-width:0.977097;stroke-linecap:round;stroke-linejoin:round;stroke-miterlimit:1.5;stroke-dasharray:none;stroke-opacity:1;paint-order:fill markers stroke"
         id="rect11-2-2-7-6-0"
         width="12.114079"
         height="5.3414545"
         x="178.30327"
         y="171.68945"
         ry="1.4285548" /><path
         d="m 180.88115,173.22249 -0.91547,2.52038 h -0.37416 l 1.05411,-2.76539 h 0.24121 z m 0.76732,2.52038 -0.91737,-2.52038 -0.006,-0.24501 h 0.24121 l 1.05792,2.76539 z m -0.0475,-1.02372 v 0.30009 h -1.55363 v -0.30009 z m 2.37896,0.14435 h 0.36467 q -0.0285,0.2621 -0.15005,0.46912 -0.12155,0.20703 -0.34377,0.32858 -0.22222,0.11966 -0.5546,0.11966 -0.24311,0 -0.44254,-0.0912 -0.19752,-0.0912 -0.33997,-0.2583 -0.14245,-0.16904 -0.22032,-0.40455 -0.076,-0.23742 -0.076,-0.52801 v -0.2754 q 0,-0.2906 0.076,-0.52611 0.0779,-0.23741 0.22222,-0.40645 0.14624,-0.16904 0.35137,-0.26021 0.20512,-0.0912 0.46153,-0.0912 0.31339,0 0.52991,0.11775 0.21652,0.11776 0.33617,0.32669 0.12156,0.20702 0.15005,0.48052 h -0.36467 q -0.0266,-0.19373 -0.0988,-0.33238 -0.0722,-0.14055 -0.20513,-0.21652 -0.13295,-0.076 -0.34757,-0.076 -0.18423,0 -0.32478,0.0703 -0.13865,0.0703 -0.23362,0.19943 -0.0931,0.12915 -0.14054,0.30959 -0.0475,0.18043 -0.0475,0.40075 v 0.2792 q 0,0.20322 0.0418,0.38176 0.0437,0.17853 0.13105,0.31338 0.0874,0.13486 0.22222,0.21273 0.13485,0.076 0.31908,0.076 0.23362,0 0.37227,-0.0741 0.13865,-0.0741 0.20892,-0.21273 0.0722,-0.13865 0.10256,-0.33237 z m 1.78448,-0.41405 h -0.70084 l -0.004,-0.2944 h 0.63627 q 0.15764,0 0.27539,-0.0532 0.11776,-0.0532 0.18234,-0.15194 0.0665,-0.10066 0.0665,-0.23931 0,-0.15195 -0.0589,-0.24691 -0.057,-0.0969 -0.17664,-0.14055 -0.11776,-0.0456 -0.30009,-0.0456 h -0.5394 v 2.4653 h -0.36657 v -2.76539 h 0.90597 q 0.21272,0 0.37986,0.0437 0.16714,0.0418 0.283,0.13295 0.11775,0.0893 0.17853,0.22792 0.0608,0.13865 0.0608,0.33237 0,0.17094 -0.0874,0.30959 -0.0874,0.13675 -0.24311,0.22412 -0.15384,0.0874 -0.36087,0.11206 z m -0.0171,1.29342 h -0.8281 l 0.20702,-0.29819 h 0.62108 q 0.17473,0 0.29629,-0.0608 0.12345,-0.0608 0.18803,-0.17094 0.0646,-0.11206 0.0646,-0.26401 0,-0.15384 -0.0551,-0.2659 -0.0551,-0.11206 -0.17284,-0.17284 -0.11776,-0.0608 -0.30389,-0.0608 h -0.52231 l 0.004,-0.2944 h 0.71414 l 0.0779,0.10636 q 0.19943,0.0171 0.33808,0.11396 0.13865,0.095 0.21082,0.24311 0.0741,0.14815 0.0741,0.32669 0,0.2583 -0.11396,0.43684 -0.11205,0.17663 -0.31718,0.2697 -0.20512,0.0912 -0.48242,0.0912 z m 2.13964,0 h -0.57739 l 0.004,-0.29819 h 0.57359 q 0.2963,0 0.49382,-0.12345 0.19753,-0.12536 0.2963,-0.34947 0.10066,-0.22602 0.10066,-0.52801 v -0.16904 q 0,-0.23741 -0.057,-0.42165 -0.057,-0.18613 -0.16714,-0.31338 -0.11016,-0.12915 -0.2697,-0.19563 -0.15764,-0.0665 -0.36277,-0.0665 h -0.62297 v -0.30009 h 0.62297 q 0.2716,0 0.49572,0.0912 0.22412,0.0893 0.38556,0.26021 0.16334,0.16903 0.25071,0.41025 0.0874,0.23931 0.0874,0.5394 v 0.16524 q 0,0.30009 -0.0874,0.5413 -0.0874,0.23931 -0.25261,0.40835 -0.16334,0.16904 -0.39506,0.26021 -0.22981,0.0893 -0.51851,0.0893 z m -0.38176,-2.76539 v 2.76539 h -0.36656 v -2.76539 z"
         id="text6-0-7-5-3-4-0-1-9"
         style="font-size:3.88978px;line-height:1.25;font-family:Roboto;-inkscape-font-specification:'Roboto, Normal';text-align:center;letter-spacing:-0.0635482px;text-orientation:upright;text-anchor:middle;fill:#ffffff;stroke-width:0.838829;stroke-linecap:round;stroke-linejoin:round;stroke-miterlimit:1.5;paint-order:fill markers stroke"
         aria-label="ACBD" /></g><path
       d="m 45.832267,152.35158 h -0.357295 v -3.65102 q 0,-0.33327 0.114094,-0.56146 0.117097,-0.22819 0.330273,-0.34529 0.216179,-0.11709 0.513424,-0.11709 0.09308,0 0.192159,0.012 0.09908,0.009 0.192159,0.039 l -0.02702,0.30325 q -0.07506,-0.021 -0.153126,-0.027 -0.07506,-0.009 -0.177147,-0.009 -0.195161,0 -0.336277,0.0841 -0.141117,0.0811 -0.216179,0.23719 -0.07506,0.15613 -0.07506,0.38432 z m 0.77464,-3.24869 v 0.29425 h -1.669379 v -0.29425 z m 0.224188,1.67539 v -0.0991 q 0,-0.3543 0.102084,-0.65454 0.102085,-0.30025 0.291241,-0.51943 0.192159,-0.21918 0.459379,-0.33928 0.267221,-0.12311 0.594492,-0.12311 0.330272,0 0.597493,0.12311 0.267221,0.1201 0.45938,0.33928 0.192158,0.21918 0.294243,0.51943 0.102084,0.30024 0.102084,0.65454 v 0.0991 q 0,0.35429 -0.102084,0.65454 -0.102085,0.29724 -0.294243,0.51643 -0.189157,0.21918 -0.456377,0.34228 -0.267221,0.1201 -0.594491,0.1201 -0.330273,0 -0.597494,-0.1201 -0.267221,-0.1231 -0.45938,-0.34228 -0.192158,-0.21919 -0.294243,-0.51643 -0.102084,-0.30025 -0.102084,-0.65454 z m 0.357295,-0.0991 v 0.0991 q 0,0.26722 0.07206,0.50742 0.07206,0.23719 0.210173,0.42335 0.138114,0.18315 0.342283,0.28824 0.204169,0.10508 0.47139,0.10508 0.264218,0 0.465384,-0.10508 0.204169,-0.10509 0.342283,-0.28824 0.138114,-0.18616 0.207171,-0.42335 0.07206,-0.2402 0.07206,-0.50742 v -0.0991 q 0,-0.26422 -0.07206,-0.50142 -0.06906,-0.23719 -0.210174,-0.42335 -0.138114,-0.18615 -0.342283,-0.29424 -0.204168,-0.10809 -0.468386,-0.10809 -0.264219,0 -0.468387,0.10809 -0.201167,0.10809 -0.342283,0.29424 -0.138114,0.18616 -0.210174,0.42335 -0.06906,0.2372 -0.06906,0.50142 z m 3.418827,-1.03886 v 2.71124 h -0.357295 v -3.24869 h 0.348288 z m 1.14995,-0.56147 -0.009,0.33028 q -0.06005,-0.009 -0.117097,-0.015 -0.05705,-0.006 -0.123102,-0.006 -0.234193,0 -0.411339,0.0871 -0.174144,0.0841 -0.294243,0.2372 -0.1201,0.15012 -0.183152,0.35429 -0.06305,0.20117 -0.07206,0.43236 l -0.132109,0.051 q 0,-0.31826 0.06605,-0.59149 0.06605,-0.27322 0.201166,-0.47739 0.138114,-0.20717 0.345286,-0.32127 0.210173,-0.1171 0.492406,-0.1171 0.06906,0 0.135112,0.012 0.06906,0.009 0.102084,0.024 z m 1.290069,2.51308 0.783647,-2.48906 h 0.252209 l -0.150124,0.66956 -0.819677,2.57913 h -0.252209 z m -0.813672,-2.48906 0.687568,2.50407 0.147121,0.74462 h -0.261215 l -0.942779,-3.24869 z m 2.825334,2.49507 0.669553,-2.49507 h 0.369305 l -0.942779,3.24869 h -0.258213 z m -0.924764,-2.49507 0.771637,2.46804 0.195162,0.78065 h -0.252209 l -0.837692,-2.58214 -0.141116,-0.66655 z m 4.400638,2.66621 v -1.67539 q 0,-0.23119 -0.09608,-0.39933 -0.09608,-0.16814 -0.282233,-0.25821 -0.186154,-0.0901 -0.45938,-0.0901 -0.252208,0 -0.450372,0.0901 -0.195161,0.0871 -0.309255,0.2372 -0.111092,0.14712 -0.111092,0.32727 l -0.360298,-0.003 q 0,-0.18315 0.09007,-0.35429 0.09007,-0.17114 0.25521,-0.30625 0.165137,-0.13511 0.393325,-0.21318 0.231191,-0.0811 0.50742,-0.0811 0.348287,0 0.612506,0.1171 0.26722,0.1171 0.417344,0.35129 0.150124,0.23419 0.150124,0.58849 v 1.57029 q 0,0.16814 0.02402,0.34829 0.02702,0.18015 0.07506,0.29725 v 0.036 h -0.381315 q -0.03603,-0.10809 -0.05705,-0.27023 -0.01802,-0.16513 -0.01802,-0.31225 z m 0.08407,-1.30908 0.006,0.27622 h -0.705583 q -0.276229,0 -0.49541,0.0511 -0.216178,0.048 -0.366302,0.14411 -0.150124,0.0931 -0.231191,0.22519 -0.07806,0.13211 -0.07806,0.30025 0,0.17414 0.08707,0.31826 0.09007,0.14412 0.252209,0.23119 0.165136,0.0841 0.390322,0.0841 0.300248,0 0.528437,-0.11109 0.231191,-0.11109 0.381315,-0.29124 0.150124,-0.18015 0.201166,-0.39333 l 0.156129,0.20718 q -0.03903,0.15012 -0.144119,0.30925 -0.102085,0.15613 -0.267221,0.29424 -0.165136,0.13512 -0.390322,0.22219 -0.222184,0.0841 -0.504417,0.0841 -0.318263,0 -0.555459,-0.1201 -0.234194,-0.1201 -0.366303,-0.32727 -0.129106,-0.21018 -0.129106,-0.47439 0,-0.2402 0.102084,-0.42936 0.102084,-0.19216 0.294243,-0.32427 0.195161,-0.13511 0.468387,-0.20417 0.276228,-0.0721 0.618511,-0.0721 z m 1.368133,-0.81968 v 2.71124 H 59.62968 v -3.24869 h 0.348287 z m 1.14995,-0.56147 -0.009,0.33028 q -0.06005,-0.009 -0.117096,-0.015 -0.05705,-0.006 -0.123102,-0.006 -0.234194,0 -0.41134,0.0871 -0.174144,0.0841 -0.294243,0.2372 -0.120099,0.15012 -0.183151,0.35429 -0.06305,0.20117 -0.07206,0.43236 l -0.132109,0.051 q 0,-0.31826 0.06606,-0.59149 0.06605,-0.27322 0.201166,-0.47739 0.138114,-0.20717 0.345285,-0.32127 0.210174,-0.1171 0.492407,-0.1171 0.06906,0 0.135111,0.012 0.06906,0.009 0.102085,0.024 z m 2.391978,2.64219 v -3.98129 h 0.360298 v 4.61181 h -0.336278 z m -2.254863,-0.9608 v -0.063 q 0,-0.37831 0.08707,-0.68156 0.08707,-0.30625 0.249206,-0.52243 0.165137,-0.21918 0.396328,-0.33328 0.23119,-0.1171 0.522431,-0.1171 0.285236,0 0.504417,0.0931 0.219181,0.0931 0.37531,0.26722 0.159131,0.17415 0.255211,0.41434 0.09908,0.2402 0.144119,0.53445 v 0.80166 q -0.03603,0.27623 -0.132109,0.50742 -0.09608,0.22819 -0.255211,0.39933 -0.159132,0.16814 -0.384318,0.26121 -0.222183,0.0901 -0.513424,0.0901 -0.288238,0 -0.519429,-0.1201 -0.231191,-0.1201 -0.393325,-0.33928 -0.162134,-0.22219 -0.249206,-0.52544 -0.08707,-0.30325 -0.08707,-0.66655 z m 0.360298,-0.063 v 0.063 q 0,0.28524 0.05705,0.52844 0.05705,0.2432 0.174144,0.42335 0.117097,0.18015 0.297245,0.28223 0.180149,0.10209 0.426353,0.10209 0.309255,0 0.519429,-0.1171 0.210173,-0.1201 0.336278,-0.31526 0.126104,-0.19816 0.183151,-0.43236 v -0.93377 q -0.03603,-0.15913 -0.105087,-0.32427 -0.06906,-0.16513 -0.189156,-0.30325 -0.117097,-0.14111 -0.300248,-0.22518 -0.180149,-0.0871 -0.438362,-0.0871 -0.249206,0 -0.429355,0.10209 -0.180149,0.10208 -0.300248,0.28523 -0.117097,0.18015 -0.174144,0.42335 -0.05705,0.24321 -0.05705,0.52844 z m 4.603809,-1.05687 v 2.71124 h -0.357295 v -3.24869 h 0.348287 z m 1.14995,-0.56147 -0.009,0.33028 q -0.06005,-0.009 -0.117096,-0.015 -0.05705,-0.006 -0.123102,-0.006 -0.234194,0 -0.41134,0.0871 -0.174144,0.0841 -0.294243,0.2372 -0.120099,0.15012 -0.183151,0.35429 -0.06305,0.20117 -0.07206,0.43236 l -0.132109,0.051 q 0,-0.31826 0.06606,-0.59149 0.06605,-0.27322 0.201166,-0.47739 0.138114,-0.20717 0.345285,-0.32127 0.210174,-0.1171 0.492407,-0.1171 0.06906,0 0.135111,0.012 0.06906,0.009 0.102085,0.024 z m 1.536272,3.33276 q -0.318263,0 -0.585484,-0.1171 -0.264218,-0.1171 -0.462381,-0.33027 -0.195162,-0.21318 -0.303251,-0.50442 -0.105087,-0.29424 -0.105087,-0.64253 v -0.12911 q 0,-0.37531 0.111092,-0.67856 0.111092,-0.30325 0.306253,-0.51943 0.195161,-0.21617 0.444367,-0.33027 0.252208,-0.1171 0.528437,-0.1171 0.309255,0 0.549454,0.1111 0.240198,0.10809 0.402332,0.30925 0.165136,0.19817 0.249206,0.47139 0.08407,0.27022 0.08407,0.59749 v 0.21919 H 67.684345 V 150.445 h 2.101736 v -0.042 q -0.006,-0.27323 -0.111092,-0.51042 -0.102084,-0.2402 -0.306253,-0.39033 -0.204168,-0.15012 -0.510421,-0.15012 -0.228189,0 -0.420348,0.0961 -0.189156,0.0961 -0.32727,0.27623 -0.135112,0.17714 -0.210174,0.42335 -0.07206,0.2432 -0.07206,0.54044 v 0.12911 q 0,0.27022 0.07806,0.50442 0.08107,0.23119 0.228189,0.40833 0.150124,0.17715 0.354293,0.27623 0.204168,0.0991 0.450372,0.0991 0.288238,0 0.510421,-0.10508 0.222184,-0.10809 0.39933,-0.33928 l 0.225186,0.17414 q -0.105087,0.15613 -0.264218,0.28824 -0.156129,0.13211 -0.37531,0.21017 -0.219181,0.0781 -0.510422,0.0781 z m 3.674039,-0.64253 v -1.67539 q 0,-0.23119 -0.09608,-0.39933 -0.09608,-0.16814 -0.282234,-0.25821 -0.186153,-0.0901 -0.459379,-0.0901 -0.252208,0 -0.450372,0.0901 -0.195161,0.0871 -0.309256,0.2372 -0.111091,0.14712 -0.111091,0.32727 l -0.360298,-0.003 q 0,-0.18315 0.09007,-0.35429 0.09007,-0.17114 0.255211,-0.30625 0.165137,-0.13511 0.393325,-0.21318 0.231191,-0.0811 0.507419,-0.0811 0.348288,0 0.612506,0.1171 0.267221,0.1171 0.417345,0.35129 0.150124,0.23419 0.150124,0.58849 v 1.57029 q 0,0.16814 0.02402,0.34829 0.02702,0.18015 0.07506,0.29725 v 0.036 H 72.67347 q -0.03603,-0.10809 -0.05705,-0.27023 -0.01801,-0.16513 -0.01801,-0.31225 z m 0.08407,-1.30908 0.006,0.27622 H 71.9829 q -0.276229,0 -0.49541,0.0511 -0.216178,0.048 -0.366302,0.14411 -0.150124,0.0931 -0.231191,0.22519 -0.07806,0.13211 -0.07806,0.30025 0,0.17414 0.08707,0.31826 0.09007,0.14412 0.252208,0.23119 0.165137,0.0841 0.390323,0.0841 0.300248,0 0.528436,-0.11109 0.231191,-0.11109 0.381315,-0.29124 0.150124,-0.18015 0.201167,-0.39333 l 0.156129,0.20718 q -0.03903,0.15012 -0.144119,0.30925 -0.102085,0.15613 -0.267221,0.29424 -0.165137,0.13512 -0.390323,0.22219 -0.222183,0.0841 -0.504416,0.0841 -0.318263,0 -0.555459,-0.1201 -0.234194,-0.1201 -0.366303,-0.32727 -0.129106,-0.21018 -0.129106,-0.47439 0,-0.2402 0.102084,-0.42936 0.102084,-0.19216 0.294243,-0.32427 0.195161,-0.13511 0.468387,-0.20417 0.276228,-0.0721 0.618511,-0.0721 z m 3.121582,1.26104 v -3.98129 h 0.360298 v 4.61181 h -0.336278 z m -2.254863,-0.9608 v -0.063 q 0,-0.37831 0.08707,-0.68156 0.08707,-0.30625 0.249206,-0.52243 0.165137,-0.21918 0.396328,-0.33328 0.231191,-0.1171 0.522431,-0.1171 0.285236,0 0.504417,0.0931 0.219181,0.0931 0.37531,0.26722 0.159131,0.17415 0.255211,0.41434 0.09908,0.2402 0.144119,0.53445 v 0.80166 q -0.03603,0.27623 -0.132109,0.50742 -0.09608,0.22819 -0.255211,0.39933 -0.159132,0.16814 -0.384318,0.26121 -0.222183,0.0901 -0.513424,0.0901 -0.288238,0 -0.519429,-0.1201 -0.231191,-0.1201 -0.393325,-0.33928 -0.162134,-0.22219 -0.249206,-0.52544 -0.08707,-0.30325 -0.08707,-0.66655 z m 0.360298,-0.063 v 0.063 q 0,0.28524 0.05705,0.52844 0.05705,0.2432 0.174144,0.42335 0.117097,0.18015 0.297246,0.28223 0.180148,0.10209 0.426352,0.10209 0.309255,0 0.519429,-0.1171 0.210173,-0.1201 0.336278,-0.31526 0.126104,-0.19816 0.183151,-0.43236 v -0.93377 q -0.03603,-0.15913 -0.105087,-0.32427 -0.06906,-0.16513 -0.189156,-0.30325 -0.117097,-0.14111 -0.300248,-0.22518 -0.180149,-0.0871 -0.438362,-0.0871 -0.249206,0 -0.429355,0.10209 -0.180149,0.10208 -0.300248,0.28523 -0.117097,0.18015 -0.174144,0.42335 -0.05705,0.24321 -0.05705,0.52844 z"
       id="text6"
       style="font-weight:300;font-size:6.14908px;line-height:1.25;font-family:Roboto;-inkscape-font-specification:'Roboto, Light';text-align:center;letter-spacing:-0.226184px;text-orientation:upright;text-anchor:middle;fill:#4b4b4b;stroke-width:2.9856;stroke-linecap:round;stroke-linejoin:round;stroke-miterlimit:1.5;paint-order:fill markers stroke"
       aria-label="forward read" /><path
       d="m 95.814231,123.1386 v 0.31526 h -2.657195 v -0.31526 z m -2.570123,-1.96062 v 4.37161 h -0.369305 v -4.37161 z m 2.867369,0 v 4.37161 h -0.369305 v -4.37161 z m 2.782301,3.78913 v -1.67538 q 0,-0.2312 -0.09608,-0.39933 -0.09608,-0.16814 -0.282233,-0.25822 -0.186154,-0.0901 -0.45938,-0.0901 -0.252208,0 -0.450372,0.0901 -0.195161,0.0871 -0.309255,0.2372 -0.111092,0.14712 -0.111092,0.32727 l -0.360298,-0.003 q 0,-0.18315 0.09007,-0.3543 0.09007,-0.17114 0.255211,-0.30625 0.165136,-0.13511 0.393324,-0.21318 0.231191,-0.0811 0.50742,-0.0811 0.348287,0 0.612506,0.11709 0.26722,0.1171 0.417344,0.35129 0.150124,0.2342 0.150124,0.58849 v 1.5703 q 0,0.16814 0.02402,0.34829 0.02702,0.18014 0.07506,0.29724 v 0.036 H 98.96884 q -0.03603,-0.10809 -0.05705,-0.27022 -0.01802,-0.16514 -0.01802,-0.31226 z m 0.08407,-1.30908 0.006,0.27623 H 98.27827 q -0.276228,0 -0.495409,0.051 -0.216179,0.048 -0.366303,0.14412 -0.150124,0.0931 -0.231191,0.22518 -0.07806,0.13211 -0.07806,0.30025 0,0.17415 0.08707,0.31826 0.09007,0.14412 0.252209,0.2312 0.165136,0.0841 0.390322,0.0841 0.300248,0 0.528437,-0.1111 0.231191,-0.11109 0.381315,-0.29124 0.150124,-0.18015 0.201166,-0.39332 l 0.156129,0.20717 q -0.03903,0.15012 -0.144119,0.30925 -0.102085,0.15613 -0.267221,0.29425 -0.165136,0.13511 -0.390322,0.22218 -0.222184,0.0841 -0.504417,0.0841 -0.318263,0 -0.555459,-0.1201 -0.234193,-0.1201 -0.366303,-0.32727 -0.129106,-0.21017 -0.129106,-0.47439 0,-0.2402 0.102084,-0.42936 0.102084,-0.19215 0.294243,-0.32426 0.195161,-0.13511 0.468387,-0.20417 0.276228,-0.0721 0.618511,-0.0721 z m 1.365132,-0.73261 v 3.8732 h -0.360299 v -4.49771 h 0.336279 z m 2.25786,0.9698 v 0.0631 q 0,0.3633 -0.0841,0.66655 -0.0841,0.30325 -0.2432,0.52543 -0.15613,0.21918 -0.38732,0.33928 -0.23119,0.1201 -0.52543,0.1201 -0.29124,0 -0.51943,-0.0901 -0.22819,-0.0901 -0.39332,-0.25521 -0.16214,-0.16814 -0.26122,-0.39033 -0.0961,-0.22518 -0.13511,-0.4924 v -0.83169 q 0.045,-0.29424 0.14712,-0.53444 0.10208,-0.2402 0.26122,-0.41434 0.16213,-0.17415 0.38431,-0.26723 0.22219,-0.0931 0.50742,-0.0931 0.29725,0 0.52844,0.11709 0.23419,0.1141 0.39332,0.33328 0.16214,0.21618 0.2432,0.52243 0.0841,0.30325 0.0841,0.68156 z m -0.36029,0.0631 v -0.0631 q 0,-0.28523 -0.0601,-0.52843 -0.057,-0.2432 -0.17715,-0.42335 -0.1171,-0.18315 -0.30025,-0.28524 -0.18015,-0.10208 -0.42935,-0.10208 -0.25822,0 -0.44137,0.0871 -0.18015,0.0841 -0.30025,0.22519 -0.12009,0.13811 -0.18915,0.30325 -0.0691,0.16513 -0.10209,0.32426 v 0.9578 q 0.0571,0.22818 0.18316,0.42335 0.1261,0.19215 0.33627,0.30925 0.21318,0.1141 0.51943,0.1141 0.24621,0 0.42635,-0.10209 0.18015,-0.10208 0.29725,-0.28523 0.1201,-0.18316 0.17715,-0.42636 0.0601,-0.2432 0.0601,-0.52843 z m 1.3321,-3.0205 v 4.61181 h -0.3573 v -4.61181 z m 0.55746,3.03851 v -0.0991 q 0,-0.35429 0.10209,-0.65454 0.10208,-0.30025 0.29124,-0.51943 0.19216,-0.21918 0.45938,-0.33928 0.26722,-0.1231 0.59449,-0.1231 0.33027,0 0.59749,0.1231 0.26722,0.1201 0.45938,0.33928 0.19216,0.21918 0.29424,0.51943 0.10209,0.30025 0.10209,0.65454 v 0.0991 q 0,0.35429 -0.10209,0.65454 -0.10208,0.29725 -0.29424,0.51643 -0.18916,0.21918 -0.45638,0.34228 -0.26722,0.1201 -0.59449,0.1201 -0.33027,0 -0.59749,-0.1201 -0.26722,-0.1231 -0.45938,-0.34228 -0.19216,-0.21918 -0.29424,-0.51643 -0.10209,-0.30025 -0.10209,-0.65454 z m 0.3573,-0.0991 v 0.0991 q 0,0.26722 0.0721,0.50742 0.0721,0.2372 0.21017,0.42335 0.13811,0.18315 0.34228,0.28824 0.20417,0.10509 0.47139,0.10509 0.26422,0 0.46539,-0.10509 0.20417,-0.10509 0.34228,-0.28824 0.13811,-0.18615 0.20717,-0.42335 0.0721,-0.2402 0.0721,-0.50742 v -0.0991 q 0,-0.26422 -0.0721,-0.50141 -0.0691,-0.2372 -0.21017,-0.42335 -0.13812,-0.18616 -0.34229,-0.29425 -0.20416,-0.10809 -0.46838,-0.10809 -0.26422,0 -0.46839,0.10809 -0.20117,0.10809 -0.34228,0.29425 -0.13812,0.18615 -0.21018,0.42335 -0.0691,0.23719 -0.0691,0.50141 z m 4.28954,-1.5763 v 0.29424 h -1.62734 v -0.29424 z m -1.02985,-0.83469 h 0.3573 v 3.29372 q 0,0.22518 0.0601,0.33928 0.0601,0.11409 0.15613,0.15313 0.0961,0.039 0.20717,0.039 0.0811,0 0.15613,-0.009 0.0751,-0.012 0.13511,-0.024 l 0.015,0.30325 q -0.0661,0.021 -0.17114,0.033 -0.10509,0.015 -0.21017,0.015 -0.20717,0 -0.36631,-0.0751 -0.15913,-0.0781 -0.2492,-0.26422 -0.0901,-0.18916 -0.0901,-0.51342 z m 3.52992,3.50089 v -1.67538 q 0,-0.2312 -0.0961,-0.39933 -0.0961,-0.16814 -0.28223,-0.25822 -0.18615,-0.0901 -0.45938,-0.0901 -0.25221,0 -0.45037,0.0901 -0.19516,0.0871 -0.30926,0.2372 -0.11109,0.14712 -0.11109,0.32727 l -0.3603,-0.003 q 0,-0.18315 0.0901,-0.3543 0.0901,-0.17114 0.25521,-0.30625 0.16513,-0.13511 0.39332,-0.21318 0.23119,-0.0811 0.50742,-0.0811 0.34829,0 0.61251,0.11709 0.26722,0.1171 0.41734,0.35129 0.15013,0.2342 0.15013,0.58849 v 1.5703 q 0,0.16814 0.024,0.34829 0.027,0.18014 0.0751,0.29724 v 0.036 h -0.38132 q -0.036,-0.10809 -0.057,-0.27022 -0.018,-0.16514 -0.018,-0.31226 z m 0.0841,-1.30908 0.006,0.27623 h -0.70559 q -0.27622,0 -0.49541,0.051 -0.21617,0.048 -0.3663,0.14412 -0.15012,0.0931 -0.23119,0.22518 -0.0781,0.13211 -0.0781,0.30025 0,0.17415 0.0871,0.31826 0.0901,0.14412 0.25221,0.2312 0.16513,0.0841 0.39032,0.0841 0.30025,0 0.52844,-0.1111 0.23119,-0.11109 0.38131,-0.29124 0.15012,-0.18015 0.20117,-0.39332 l 0.15613,0.20717 q -0.039,0.15012 -0.14412,0.30925 -0.10209,0.15613 -0.26722,0.29425 -0.16514,0.13511 -0.39033,0.22218 -0.22218,0.0841 -0.50441,0.0841 -0.31827,0 -0.55546,-0.1201 -0.2342,-0.1201 -0.36631,-0.32727 -0.1291,-0.21017 -0.1291,-0.47439 0,-0.2402 0.10208,-0.42936 0.10209,-0.19215 0.29425,-0.32426 0.19516,-0.13511 0.46838,-0.20417 0.27623,-0.0721 0.61851,-0.0721 z m 3.14861,-1.35712 h 0.33327 v 3.19163 q 0,0.42335 -0.16213,0.7266 -0.15913,0.30325 -0.45338,0.46539 -0.29124,0.16213 -0.68757,0.16213 -0.20116,0 -0.41434,-0.0631 -0.21017,-0.06 -0.39933,-0.18615 -0.18615,-0.1231 -0.31826,-0.30626 l 0.20117,-0.21918 q 0.19816,0.2402 0.42334,0.35129 0.22519,0.1141 0.48641,0.1141 0.30925,0 0.52243,-0.1231 0.21618,-0.12311 0.32727,-0.3543 0.11409,-0.23119 0.11409,-0.55546 v -2.48905 z m -2.28189,1.65737 v -0.0631 q 0,-0.37831 0.0841,-0.68156 0.0871,-0.30625 0.24921,-0.52243 0.16213,-0.21918 0.39332,-0.33328 0.23419,-0.11709 0.52844,-0.11709 0.28223,0 0.50141,0.0931 0.21918,0.0931 0.37831,0.26723 0.15914,0.17414 0.25521,0.41434 0.0991,0.2402 0.14412,0.53444 v 0.80166 q -0.036,0.27623 -0.13211,0.50742 -0.0961,0.22819 -0.25521,0.39933 -0.15913,0.16814 -0.38431,0.26122 -0.22219,0.0901 -0.51343,0.0901 -0.29124,0 -0.52243,-0.1201 -0.23119,-0.1201 -0.39332,-0.33928 -0.16214,-0.22218 -0.24921,-0.52543 -0.0841,-0.30325 -0.0841,-0.66655 z m 0.3603,-0.0631 v 0.0631 q 0,0.28523 0.057,0.52843 0.0571,0.2432 0.17415,0.42335 0.1171,0.18015 0.29724,0.28224 0.18015,0.10208 0.42335,0.10208 0.30926,0 0.51943,-0.1171 0.21018,-0.1201 0.33328,-0.31526 0.1231,-0.19816 0.18015,-0.43235 v -0.93378 q -0.033,-0.15913 -0.10209,-0.32426 -0.066,-0.16514 -0.18615,-0.30325 -0.1171,-0.14112 -0.30025,-0.22519 -0.18015,-0.0871 -0.43836,-0.0871 -0.2462,0 -0.42936,0.10208 -0.18014,0.10209 -0.29724,0.28524 -0.1171,0.18015 -0.17415,0.42335 -0.057,0.2432 -0.057,0.52843 z m 5.10922,-1.59431 h 0.33328 v 3.19163 q 0,0.42335 -0.16214,0.7266 -0.15913,0.30325 -0.45337,0.46539 -0.29124,0.16213 -0.68757,0.16213 -0.20116,0 -0.41434,-0.0631 -0.21017,-0.06 -0.39933,-0.18615 -0.18615,-0.1231 -0.31826,-0.30626 l 0.20116,-0.21918 q 0.19817,0.2402 0.42335,0.35129 0.22519,0.1141 0.4864,0.1141 0.30926,0 0.52244,-0.1231 0.21617,-0.12311 0.32727,-0.3543 0.11409,-0.23119 0.11409,-0.55546 v -2.48905 z m -2.28188,1.65737 v -0.0631 q 0,-0.37831 0.0841,-0.68156 0.0871,-0.30625 0.2492,-0.52243 0.16214,-0.21918 0.39333,-0.33328 0.23419,-0.11709 0.52843,-0.11709 0.28224,0 0.50142,0.0931 0.21918,0.0931 0.37831,0.26723 0.15913,0.17414 0.25521,0.41434 0.0991,0.2402 0.14412,0.53444 v 0.80166 q -0.036,0.27623 -0.13211,0.50742 -0.0961,0.22819 -0.25521,0.39933 -0.15913,0.16814 -0.38432,0.26122 -0.22218,0.0901 -0.51342,0.0901 -0.29124,0 -0.52243,-0.1201 -0.23119,-0.1201 -0.39333,-0.33928 -0.16213,-0.22218 -0.2492,-0.52543 -0.0841,-0.30325 -0.0841,-0.66655 z m 0.3603,-0.0631 v 0.0631 q 0,0.28523 0.057,0.52843 0.0571,0.2432 0.17415,0.42335 0.11709,0.18015 0.29724,0.28224 0.18015,0.10208 0.42335,0.10208 0.30926,0 0.51943,-0.1171 0.21017,-0.1201 0.33328,-0.31526 0.1231,-0.19816 0.18014,-0.43235 v -0.93378 q -0.033,-0.15913 -0.10208,-0.32426 -0.066,-0.16514 -0.18615,-0.30325 -0.1171,-0.14112 -0.30025,-0.22519 -0.18015,-0.0871 -0.43836,-0.0871 -0.24621,0 -0.42936,0.10208 -0.18015,0.10209 -0.29724,0.28524 -0.1171,0.18015 -0.17415,0.42335 -0.057,0.2432 -0.057,0.52843 z m 3.37078,-1.59431 v 3.24868 h -0.35729 v -3.24868 z m -0.42035,-0.93678 q 0,-0.10508 0.0631,-0.17414 0.066,-0.0721 0.18315,-0.0721 0.11109,0 0.17714,0.0721 0.0691,0.0691 0.0691,0.17414 0,0.0961 -0.0691,0.16814 -0.0661,0.0691 -0.17714,0.0691 -0.1171,0 -0.18315,-0.0691 -0.0631,-0.0721 -0.0631,-0.16814 z m 1.53327,1.63035 v 2.55511 h -0.35729 v -3.24868 h 0.34228 z m -0.0811,0.7296 -0.15913,-0.0901 q 0.018,-0.28824 0.11709,-0.54045 0.0991,-0.25221 0.26722,-0.44436 0.17114,-0.19216 0.39933,-0.30025 0.23119,-0.10809 0.51042,-0.10809 0.24321,0 0.43536,0.0661 0.19216,0.0661 0.32727,0.21018 0.13512,0.14411 0.20417,0.3693 0.0721,0.22519 0.0721,0.54945 v 2.11375 h -0.36029 v -2.11675 q 0,-0.33628 -0.0931,-0.52543 -0.0931,-0.19216 -0.26422,-0.27323 -0.17114,-0.0811 -0.40533,-0.0811 -0.25822,0 -0.45338,0.11409 -0.19216,0.11109 -0.32427,0.29124 -0.1291,0.17715 -0.19816,0.38132 -0.0691,0.20116 -0.0751,0.38431 z m 5.01614,-1.42317 h 0.33328 v 3.19163 q 0,0.42335 -0.16213,0.7266 -0.15914,0.30325 -0.45338,0.46539 -0.29124,0.16213 -0.68757,0.16213 -0.20116,0 -0.41434,-0.0631 -0.21017,-0.06 -0.39933,-0.18615 -0.18615,-0.1231 -0.31826,-0.30626 l 0.20116,-0.21918 q 0.19817,0.2402 0.42335,0.35129 0.22519,0.1141 0.48641,0.1141 0.30925,0 0.52243,-0.1231 0.21618,-0.12311 0.32727,-0.3543 0.11409,-0.23119 0.11409,-0.55546 v -2.48905 z m -2.28188,1.65737 v -0.0631 q 0,-0.37831 0.0841,-0.68156 0.0871,-0.30625 0.2492,-0.52243 0.16214,-0.21918 0.39333,-0.33328 0.23419,-0.11709 0.52844,-0.11709 0.28223,0 0.50141,0.0931 0.21918,0.0931 0.37831,0.26723 0.15913,0.17414 0.25521,0.41434 0.0991,0.2402 0.14412,0.53444 v 0.80166 q -0.036,0.27623 -0.13211,0.50742 -0.0961,0.22819 -0.25521,0.39933 -0.15913,0.16814 -0.38431,0.26122 -0.22219,0.0901 -0.51343,0.0901 -0.29124,0 -0.52243,-0.1201 -0.23119,-0.1201 -0.39333,-0.33928 -0.16213,-0.22218 -0.2492,-0.52543 -0.0841,-0.30325 -0.0841,-0.66655 z m 0.3603,-0.0631 v 0.0631 q 0,0.28523 0.057,0.52843 0.0571,0.2432 0.17415,0.42335 0.11709,0.18015 0.29724,0.28224 0.18015,0.10208 0.42335,0.10208 0.30926,0 0.51943,-0.1171 0.21018,-0.1201 0.33328,-0.31526 0.1231,-0.19816 0.18015,-0.43235 v -0.93378 q -0.033,-0.15913 -0.10209,-0.32426 -0.0661,-0.16514 -0.18615,-0.30325 -0.1171,-0.14112 -0.30025,-0.22519 -0.18015,-0.0871 -0.43836,-0.0871 -0.24621,0 -0.42936,0.10208 -0.18015,0.10209 -0.29724,0.28524 -0.1171,0.18015 -0.17415,0.42335 -0.057,0.2432 -0.057,0.52843 z"
       id="text6-8"
       style="font-weight:300;font-size:6.14908px;line-height:1.25;font-family:Roboto;-inkscape-font-specification:'Roboto, Light';text-align:center;letter-spacing:-0.226184px;text-orientation:upright;text-anchor:middle;fill:#4b4b4b;stroke-width:2.9856;stroke-linecap:round;stroke-linejoin:round;stroke-miterlimit:1.5;paint-order:fill markers stroke"
       aria-label="Haplotagging" /><path
       d="m 142.94902,149.64034 v 2.71124 h -0.35729 v -3.24869 h 0.34829 z m 1.14995,-0.56147 -0.009,0.33028 q -0.06,-0.009 -0.1171,-0.015 -0.0571,-0.006 -0.1231,-0.006 -0.2342,0 -0.41134,0.0871 -0.17415,0.0841 -0.29425,0.2372 -0.12009,0.15012 -0.18315,0.35429 -0.0631,0.20117 -0.0721,0.43236 l -0.13211,0.051 q 0,-0.31826 0.0661,-0.59149 0.066,-0.27322 0.20117,-0.47739 0.13811,-0.20717 0.34528,-0.32127 0.21017,-0.1171 0.49241,-0.1171 0.069,0 0.13511,0.012 0.0691,0.009 0.10208,0.024 z m 1.53628,3.33276 q -0.31827,0 -0.58549,-0.1171 -0.26422,-0.1171 -0.46238,-0.33027 -0.19516,-0.21318 -0.30325,-0.50442 -0.10509,-0.29424 -0.10509,-0.64253 v -0.12911 q 0,-0.37531 0.11109,-0.67856 0.1111,-0.30325 0.30626,-0.51943 0.19516,-0.21617 0.44436,-0.33027 0.25221,-0.1171 0.52844,-0.1171 0.30926,0 0.54945,0.1111 0.2402,0.10809 0.40234,0.30925 0.16513,0.19817 0.2492,0.47139 0.0841,0.27022 0.0841,0.59749 v 0.21919 h -2.45903 V 150.445 h 2.10174 v -0.042 q -0.006,-0.27323 -0.11109,-0.51042 -0.10209,-0.2402 -0.30626,-0.39033 -0.20417,-0.15012 -0.51042,-0.15012 -0.22819,0 -0.42035,0.0961 -0.18915,0.0961 -0.32727,0.27623 -0.13511,0.17714 -0.21017,0.42335 -0.0721,0.2432 -0.0721,0.54044 v 0.12911 q 0,0.27022 0.0781,0.50442 0.0811,0.23119 0.22819,0.40833 0.15013,0.17715 0.3543,0.27623 0.20416,0.0991 0.45037,0.0991 0.28824,0 0.51042,-0.10508 0.22218,-0.10809 0.39933,-0.33928 l 0.22519,0.17414 q -0.10509,0.15613 -0.26422,0.28824 -0.15613,0.13211 -0.37531,0.21017 -0.21918,0.0781 -0.51042,0.0781 z m 2.61716,-0.40534 1.04186,-2.9034 h 0.36931 l -1.21601,3.24869 h -0.26121 z m -0.94278,-2.9034 1.05387,2.91241 0.0571,0.33628 h -0.26422 l -1.21901,-3.24869 z m 3.93225,3.30874 q -0.31826,0 -0.58548,-0.1171 -0.26422,-0.1171 -0.46238,-0.33027 -0.19516,-0.21318 -0.30325,-0.50442 -0.10509,-0.29424 -0.10509,-0.64253 v -0.12911 q 0,-0.37531 0.11109,-0.67856 0.11109,-0.30325 0.30625,-0.51943 0.19517,-0.21617 0.44437,-0.33027 0.25221,-0.1171 0.52844,-0.1171 0.30925,0 0.54945,0.1111 0.2402,0.10809 0.40233,0.30925 0.16514,0.19817 0.24921,0.47139 0.0841,0.27022 0.0841,0.59749 v 0.21919 h -2.45903 V 150.445 h 2.10173 v -0.042 q -0.006,-0.27323 -0.11109,-0.51042 -0.10208,-0.2402 -0.30625,-0.39033 -0.20417,-0.15012 -0.51042,-0.15012 -0.22819,0 -0.42035,0.0961 -0.18916,0.0961 -0.32727,0.27623 -0.13511,0.17714 -0.21017,0.42335 -0.0721,0.2432 -0.0721,0.54044 v 0.12911 q 0,0.27022 0.0781,0.50442 0.0811,0.23119 0.22819,0.40833 0.15012,0.17715 0.35429,0.27623 0.20417,0.0991 0.45038,0.0991 0.28823,0 0.51042,-0.10508 0.22218,-0.10809 0.39933,-0.33928 l 0.22518,0.17414 q -0.10508,0.15613 -0.26422,0.28824 -0.15612,0.13211 -0.37531,0.21017 -0.21918,0.0781 -0.51042,0.0781 z m 2.0557,-2.77129 v 2.71124 h -0.35729 v -3.24869 h 0.34829 z m 1.14995,-0.56147 -0.009,0.33028 q -0.06,-0.009 -0.1171,-0.015 -0.0571,-0.006 -0.1231,-0.006 -0.2342,0 -0.41134,0.0871 -0.17415,0.0841 -0.29425,0.2372 -0.12009,0.15012 -0.18315,0.35429 -0.063,0.20117 -0.0721,0.43236 l -0.13211,0.051 q 0,-0.31826 0.0661,-0.59149 0.066,-0.27322 0.20117,-0.47739 0.13811,-0.20717 0.34528,-0.32127 0.21017,-0.1171 0.49241,-0.1171 0.0691,0 0.13511,0.012 0.0691,0.009 0.10208,0.024 z m 2.28389,2.44402 q 0,-0.13211 -0.0661,-0.26121 -0.0661,-0.12911 -0.25521,-0.2372 -0.18616,-0.10809 -0.54946,-0.18315 -0.27022,-0.06 -0.4834,-0.13511 -0.21017,-0.0751 -0.35429,-0.18015 -0.14412,-0.10509 -0.21918,-0.25221 -0.0751,-0.14712 -0.0751,-0.34829 0,-0.18015 0.0781,-0.33928 0.0811,-0.16213 0.22819,-0.28223 0.15013,-0.1231 0.3603,-0.19216 0.21318,-0.0691 0.47739,-0.0691 0.37531,0 0.64253,0.12911 0.27023,0.12611 0.41134,0.34529 0.14412,0.21918 0.14412,0.49541 h -0.35729 q 0,-0.16814 -0.0991,-0.31827 -0.0961,-0.15012 -0.28524,-0.2462 -0.18615,-0.0961 -0.45638,-0.0961 -0.27923,0 -0.45337,0.0841 -0.17414,0.0841 -0.25521,0.21318 -0.0781,0.1291 -0.0781,0.26722 0,0.10809 0.033,0.19816 0.036,0.0871 0.12611,0.16213 0.0931,0.0751 0.26421,0.14112 0.17115,0.066 0.44437,0.12911 0.39333,0.0871 0.64253,0.21317 0.25221,0.1231 0.37231,0.30626 0.1201,0.18014 0.1201,0.43836 0,0.20116 -0.0841,0.3693 -0.0841,0.16514 -0.2432,0.28524 -0.15613,0.1201 -0.37831,0.18615 -0.21919,0.0661 -0.49241,0.0661 -0.41134,0 -0.69658,-0.13511 -0.28223,-0.13812 -0.42935,-0.3603 -0.14412,-0.22519 -0.14412,-0.4774 h 0.35729 q 0.018,0.25221 0.15914,0.39933 0.14111,0.14412 0.34528,0.20417 0.20717,0.0601 0.40834,0.0601 0.27623,0 0.46238,-0.0811 0.18615,-0.0811 0.28223,-0.21317 0.0961,-0.13211 0.0961,-0.28524 z m 2.19982,0.88874 q -0.31826,0 -0.58548,-0.1171 -0.26422,-0.1171 -0.46238,-0.33027 -0.19516,-0.21318 -0.30325,-0.50442 -0.10509,-0.29424 -0.10509,-0.64253 v -0.12911 q 0,-0.37531 0.11109,-0.67856 0.11109,-0.30325 0.30626,-0.51943 0.19516,-0.21617 0.44436,-0.33027 0.25221,-0.1171 0.52844,-0.1171 0.30925,0 0.54945,0.1111 0.2402,0.10809 0.40234,0.30925 0.16513,0.19817 0.2492,0.47139 0.0841,0.27022 0.0841,0.59749 v 0.21919 h -2.45903 V 150.445 h 2.10174 v -0.042 q -0.006,-0.27323 -0.1111,-0.51042 -0.10208,-0.2402 -0.30625,-0.39033 -0.20417,-0.15012 -0.51042,-0.15012 -0.22819,0 -0.42035,0.0961 -0.18915,0.0961 -0.32727,0.27623 -0.13511,0.17714 -0.21017,0.42335 -0.0721,0.2432 -0.0721,0.54044 v 0.12911 q 0,0.27022 0.0781,0.50442 0.0811,0.23119 0.22819,0.40833 0.15013,0.17715 0.35429,0.27623 0.20417,0.0991 0.45038,0.0991 0.28823,0 0.51042,-0.10508 0.22218,-0.10809 0.39933,-0.33928 l 0.22518,0.17414 q -0.10508,0.15613 -0.26421,0.28824 -0.15613,0.13211 -0.37531,0.21017 -0.21919,0.0781 -0.51043,0.0781 z m 3.32776,-2.77129 v 2.71124 h -0.3573 v -3.24869 h 0.34829 z m 1.14995,-0.56147 -0.009,0.33028 q -0.06,-0.009 -0.1171,-0.015 -0.057,-0.006 -0.1231,-0.006 -0.23419,0 -0.41134,0.0871 -0.17414,0.0841 -0.29424,0.2372 -0.1201,0.15012 -0.18315,0.35429 -0.063,0.20117 -0.0721,0.43236 l -0.13211,0.051 q 0,-0.31826 0.066,-0.59149 0.0661,-0.27322 0.20117,-0.47739 0.13811,-0.20717 0.34529,-0.32127 0.21017,-0.1171 0.4924,-0.1171 0.0691,0 0.13511,0.012 0.0691,0.009 0.10209,0.024 z m 1.53627,3.33276 q -0.31826,0 -0.58548,-0.1171 -0.26422,-0.1171 -0.46239,-0.33027 -0.19516,-0.21318 -0.30325,-0.50442 -0.10508,-0.29424 -0.10508,-0.64253 v -0.12911 q 0,-0.37531 0.11109,-0.67856 0.11109,-0.30325 0.30625,-0.51943 0.19516,-0.21617 0.44437,-0.33027 0.25221,-0.1171 0.52844,-0.1171 0.30925,0 0.54945,0.1111 0.2402,0.10809 0.40233,0.30925 0.16514,0.19817 0.24921,0.47139 0.0841,0.27022 0.0841,0.59749 v 0.21919 H 163.7052 V 150.445 h 2.10173 v -0.042 q -0.006,-0.27323 -0.11109,-0.51042 -0.10208,-0.2402 -0.30625,-0.39033 -0.20417,-0.15012 -0.51042,-0.15012 -0.22819,0 -0.42035,0.0961 -0.18916,0.0961 -0.32727,0.27623 -0.13511,0.17714 -0.21018,0.42335 -0.072,0.2432 -0.072,0.54044 v 0.12911 q 0,0.27022 0.0781,0.50442 0.0811,0.23119 0.22819,0.40833 0.15012,0.17715 0.35429,0.27623 0.20417,0.0991 0.45037,0.0991 0.28824,0 0.51042,-0.10508 0.22219,-0.10809 0.39933,-0.33928 l 0.22519,0.17414 q -0.10509,0.15613 -0.26422,0.28824 -0.15613,0.13211 -0.37531,0.21017 -0.21918,0.0781 -0.51042,0.0781 z m 3.67404,-0.64253 v -1.67539 q 0,-0.23119 -0.0961,-0.39933 -0.0961,-0.16814 -0.28223,-0.25821 -0.18616,-0.0901 -0.45938,-0.0901 -0.25221,0 -0.45037,0.0901 -0.19517,0.0871 -0.30926,0.2372 -0.11109,0.14712 -0.11109,0.32727 l -0.3603,-0.003 q 0,-0.18315 0.0901,-0.35429 0.0901,-0.17114 0.25522,-0.30625 0.16513,-0.13511 0.39332,-0.21318 0.23119,-0.0811 0.50742,-0.0811 0.34829,0 0.61251,0.1171 0.26722,0.1171 0.41734,0.35129 0.15012,0.23419 0.15012,0.58849 v 1.57029 q 0,0.16814 0.024,0.34829 0.027,0.18015 0.0751,0.29725 v 0.036 h -0.38132 q -0.036,-0.10809 -0.0571,-0.27023 -0.018,-0.16513 -0.018,-0.31225 z m 0.0841,-1.30908 0.006,0.27622 h -0.70558 q -0.27623,0 -0.49541,0.0511 -0.21618,0.048 -0.3663,0.14411 -0.15013,0.0931 -0.23119,0.22519 -0.0781,0.13211 -0.0781,0.30025 0,0.17414 0.0871,0.31826 0.0901,0.14412 0.2522,0.23119 0.16514,0.0841 0.39033,0.0841 0.30024,0 0.52843,-0.11109 0.23119,-0.11109 0.38132,-0.29124 0.15012,-0.18015 0.20116,-0.39333 l 0.15613,0.20718 q -0.039,0.15012 -0.14412,0.30925 -0.10208,0.15613 -0.26722,0.29424 -0.16513,0.13512 -0.39032,0.22219 -0.22218,0.0841 -0.50442,0.0841 -0.31826,0 -0.55545,-0.1201 -0.2342,-0.1201 -0.36631,-0.32727 -0.1291,-0.21018 -0.1291,-0.47439 0,-0.2402 0.10208,-0.42936 0.10208,-0.19216 0.29424,-0.32427 0.19516,-0.13511 0.46839,-0.20417 0.27623,-0.0721 0.61851,-0.0721 z m 3.12158,1.26104 v -3.98129 h 0.3603 v 4.61181 h -0.33628 z m -2.25486,-0.9608 v -0.063 q 0,-0.37831 0.0871,-0.68156 0.0871,-0.30625 0.24921,-0.52243 0.16513,-0.21918 0.39632,-0.33328 0.23119,-0.1171 0.52243,-0.1171 0.28524,0 0.50442,0.0931 0.21918,0.0931 0.37531,0.26722 0.15913,0.17415 0.25521,0.41434 0.0991,0.2402 0.14412,0.53445 v 0.80166 q -0.036,0.27623 -0.13211,0.50742 -0.0961,0.22819 -0.25521,0.39933 -0.15913,0.16814 -0.38432,0.26121 -0.22218,0.0901 -0.51342,0.0901 -0.28824,0 -0.51943,-0.1201 -0.23119,-0.1201 -0.39332,-0.33928 -0.16214,-0.22219 -0.24921,-0.52544 -0.0871,-0.30325 -0.0871,-0.66655 z m 0.3603,-0.063 v 0.063 q 0,0.28524 0.057,0.52844 0.0571,0.2432 0.17415,0.42335 0.11709,0.18015 0.29724,0.28223 0.18015,0.10209 0.42635,0.10209 0.30926,0 0.51943,-0.1171 0.21018,-0.1201 0.33628,-0.31526 0.12611,-0.19816 0.18315,-0.43236 v -0.93377 q -0.036,-0.15913 -0.10508,-0.32427 -0.0691,-0.16513 -0.18916,-0.30325 -0.1171,-0.14111 -0.30025,-0.22518 -0.18015,-0.0871 -0.43836,-0.0871 -0.24921,0 -0.42936,0.10209 -0.18014,0.10208 -0.30024,0.28523 -0.1171,0.18015 -0.17415,0.42335 -0.057,0.24321 -0.057,0.52844 z"
       id="text6-7"
       style="font-weight:300;font-size:6.14908px;line-height:1.25;font-family:Roboto;-inkscape-font-specification:'Roboto, Light';text-align:center;letter-spacing:-0.226184px;text-orientation:upright;text-anchor:middle;fill:#4b4b4b;stroke-width:2.9856;stroke-linecap:round;stroke-linejoin:round;stroke-miterlimit:1.5;paint-order:fill markers stroke"
       aria-label="reverse read" /><path
       style="fill:none;fill-opacity:1;stroke:#c9c9c9;stroke-width:0.434999;stroke-linecap:butt;stroke-linejoin:round;stroke-miterlimit:1.5;stroke-dasharray:none;stroke-dashoffset:0;stroke-opacity:1;paint-order:fill markers stroke"
       d="m 79.96381,149.94168 h 27.10262 v -2.32031"
       id="path14"
       sodipodi:nodetypes="ccc" /><path
       style="fill:none;fill-opacity:1;stroke:#c9c9c9;stroke-width:0.434999;stroke-linecap:butt;stroke-linejoin:round;stroke-miterlimit:1.5;stroke-dasharray:none;stroke-dashoffset:0;stroke-opacity:1;paint-order:fill markers stroke"
       d="M 41.138074,149.94168 H 14.035469 v -2.32031"
       id="path14-9"
       sodipodi:nodetypes="ccc" /><path
       style="fill:none;fill-opacity:1;stroke:#c9c9c9;stroke-width:0.434999;stroke-linecap:butt;stroke-linejoin:round;stroke-miterlimit:1.5;stroke-dasharray:none;stroke-dashoffset:0;stroke-opacity:1;paint-order:fill markers stroke"
       d="m 176.80135,149.94168 h 27.10262 v -2.32031"
       id="path14-3"
       sodipodi:nodetypes="ccc" /><path
       style="fill:none;fill-opacity:1;stroke:#c9c9c9;stroke-width:0.434999;stroke-linecap:butt;stroke-linejoin:round;stroke-miterlimit:1.5;stroke-dasharray:none;stroke-dashoffset:0;stroke-opacity:1;paint-order:fill markers stroke"
       d="m 137.97558,149.94168 h -27.10262 v -2.32031"
       id="path14-9-7"
       sodipodi:nodetypes="ccc" /><path
       d="m 114.59899,131.5126 q 0.40573,0 0.68321,0.12303 0.28009,0.12041 0.45547,0.33244 0.178,0.21203 0.27223,0.4895 0.0969,0.27747 0.13351,0.59159 0.0366,0.31412 0.0366,0.63609 0,0.65965 -0.0628,1.0968 -0.0602,0.43453 -0.22512,0.64918 -0.16491,0.21726 -0.48165,0.21726 -0.16229,0 -0.28271,-0.0785 -0.11779,-0.0785 -0.1937,-0.19894 -0.0733,-0.11779 -0.10733,-0.24344 -0.034,-0.12827 -0.0314,-0.2225 h -0.0209 q -0.0497,0.12041 -0.13612,0.23821 -0.0864,0.11517 -0.22773,0.19108 -0.14136,0.0785 -0.35077,0.0785 -0.28532,0 -0.46071,-0.15705 -0.17276,-0.15445 -0.25129,-0.42407 -0.0785,-0.27223 -0.0785,-0.61776 0,-0.68321 0.26962,-1.01565 0.27223,-0.33506 0.7565,-0.33506 0.18324,0 0.35077,0.0393 0.16753,0.0393 0.38741,0.15706 v 1.54704 q 0,0.2827 0.0497,0.43191 0.0497,0.14659 0.1335,0.20156 0.0838,0.055 0.18586,0.055 0.16491,0 0.23297,-0.21465 0.0681,-0.21465 0.0811,-0.5785 0.0131,-0.36385 0.0131,-0.81147 0,-0.37433 -0.0419,-0.69892 -0.0419,-0.3272 -0.15967,-0.57326 -0.1178,-0.24606 -0.3403,-0.3848 -0.2225,-0.13874 -0.58374,-0.13874 -0.25653,0 -0.55494,0.0942 -0.29841,0.0942 -0.63347,0.38741 l -0.2513,-0.29317 q 0.35077,-0.30627 0.71724,-0.43715 0.36909,-0.1335 0.71724,-0.1335 z m -0.28271,1.6753 q -0.356,0 -0.4895,0.26176 -0.13088,0.25915 -0.13088,0.76436 0,0.38479 0.089,0.62824 0.089,0.24082 0.3272,0.24082 0.18324,0 0.28795,-0.0838 0.10732,-0.0838 0.16229,-0.19108 0.0576,-0.10995 0.089,-0.18586 v -1.35594 q -0.15182,-0.0785 -0.33506,-0.0785 z m 3.24999,1.68315 q 0.31935,0 0.50259,-0.11779 0.18323,-0.1178 0.18323,-0.31936 0,-0.12303 -0.0471,-0.21465 -0.0445,-0.0916 -0.18585,-0.16491 -0.14135,-0.0759 -0.43453,-0.14921 -0.28532,-0.0707 -0.49735,-0.16229 -0.20942,-0.0942 -0.32721,-0.24344 -0.11518,-0.14921 -0.11518,-0.38742 0,-0.34814 0.29056,-0.5497 0.29056,-0.20156 0.7565,-0.20156 0.33245,0 0.57851,0.089 0.24867,0.089 0.42144,0.21465 l -0.19371,0.29841 q -0.15444,-0.10733 -0.34553,-0.17538 -0.18847,-0.0707 -0.45547,-0.0707 -0.32459,0 -0.46071,0.10209 -0.13612,0.0995 -0.13612,0.25915 0,0.12302 0.0654,0.20417 0.068,0.0785 0.22773,0.14136 0.15968,0.0628 0.43977,0.13873 0.26962,0.0733 0.47118,0.17277 0.20156,0.0995 0.3115,0.26176 0.11256,0.15968 0.11256,0.41621 0,0.29318 -0.16753,0.47641 -0.16753,0.18062 -0.43453,0.26439 -0.26439,0.0811 -0.56018,0.0811 -0.37433,0 -0.63871,-0.10732 -0.26177,-0.10994 -0.43977,-0.26438 l 0.2513,-0.29056 q 0.16229,0.1335 0.3717,0.21726 0.21203,0.0812 0.45548,0.0812 z m 2.39663,-0.9188 q 0.0183,0.47903 0.25129,0.69892 0.23559,0.21726 0.55494,0.21726 0.21203,0 0.38218,-0.0628 0.17015,-0.0628 0.35339,-0.18586 l 0.20679,0.29056 q -0.19109,0.15183 -0.43977,0.23821 -0.24867,0.0864 -0.50782,0.0864 -0.40312,0 -0.68583,-0.18061 -0.28009,-0.18062 -0.42929,-0.50259 -0.14659,-0.32459 -0.14659,-0.75127 0,-0.41883 0.14659,-0.74342 0.1492,-0.32459 0.41882,-0.51044 0.27224,-0.18585 0.63871,-0.18585 0.52091,0 0.81933,0.36123 0.30103,0.36124 0.30103,0.98948 0,0.0707 -0.005,0.1335 -0.003,0.0628 -0.005,0.10732 z m 0.74865,-1.2303 q -0.30627,0 -0.51306,0.21727 -0.2068,0.21726 -0.23298,0.67274 h 1.4371 q -0.008,-0.44239 -0.19371,-0.66489 -0.18585,-0.22512 -0.49735,-0.22512 z m 2.80236,-0.36123 q 0.24868,0 0.43715,0.0916 0.19109,0.0916 0.33244,0.267 l 0.0366,-0.30103 h 0.37433 v 3.86627 l -0.43977,-0.055 v -1.40306 q -0.15183,0.21203 -0.35077,0.3115 -0.19894,0.0969 -0.42406,0.0969 -0.3717,0 -0.59421,-0.178 -0.2225,-0.178 -0.32197,-0.49997 -0.0995,-0.32459 -0.0995,-0.7565 0,-0.41359 0.12041,-0.73818 0.12042,-0.32721 0.35339,-0.51306 0.23559,-0.18847 0.57588,-0.18847 z m 0.10994,0.35338 q -0.68844,0 -0.68844,1.08633 0,1.068 0.63609,1.068 0.22774,0 0.39788,-0.12565 0.17277,-0.12826 0.28533,-0.29841 v -1.37689 q -0.10733,-0.16753 -0.27224,-0.25914 -0.16491,-0.0942 -0.35862,-0.0942 z m 1.70557,3.41081 v -0.3848 h 2.61766 v 0.3848 z m 4.29705,-4.99711 q 0.14659,0 0.23297,0.089 0.089,0.089 0.089,0.21727 0,0.1335 -0.089,0.22512 -0.0864,0.089 -0.23297,0.089 -0.13874,0 -0.22774,-0.089 -0.089,-0.0916 -0.089,-0.22512 0,-0.12827 0.089,-0.21727 0.089,-0.089 0.22774,-0.089 z m 0.35077,1.29051 v 2.40824 h 0.77744 v 0.34815 h -2.06795 v -0.34815 h 0.85074 v -2.0601 h -0.82456 v -0.34814 z m 3.24213,-1.16486 0.43976,0.055 v 3.86628 h -0.38479 l -0.0419,-0.36386 q -0.15444,0.21989 -0.356,0.32198 -0.19895,0.10208 -0.42668,0.10208 -0.35862,0 -0.59159,-0.18061 -0.23297,-0.18062 -0.34553,-0.50259 -0.11256,-0.32459 -0.11256,-0.75127 0,-0.41359 0.12826,-0.73818 0.12827,-0.32721 0.36909,-0.51306 0.24344,-0.18847 0.58374,-0.18847 0.45809,0 0.73818,0.32459 z m -0.623,1.46065 q -0.34553,0 -0.53139,0.26962 -0.18585,0.26962 -0.18585,0.81671 0,1.07847 0.66227,1.07847 0.23297,0 0.4005,-0.13088 0.16753,-0.1335 0.27747,-0.30365 v -1.37689 q -0.11256,-0.16753 -0.27224,-0.25914 -0.15967,-0.0942 -0.35076,-0.0942 z m 2.0668,2.99984 -0.356,-0.15706 2.24071,-4.62017 0.35077,0.17277 z m 3.76828,-4.20134 q 0.3403,0 0.58374,0.1335 0.24344,0.13088 0.37171,0.35862 0.13088,0.22773 0.13088,0.51306 0,0.24867 -0.0864,0.48688 -0.0864,0.23559 -0.27747,0.49736 -0.18847,0.25914 -0.49736,0.57588 -0.30888,0.31674 -0.75388,0.72247 h 1.69886 l -0.055,0.37433 h -2.14386 v -0.35862 q 0.51045,-0.4895 0.83242,-0.82718 0.32459,-0.33768 0.50259,-0.58112 0.178,-0.24606 0.24606,-0.45024 0.0707,-0.20417 0.0707,-0.42406 0,-0.30365 -0.17015,-0.47903 -0.17015,-0.17538 -0.4738,-0.17538 -0.267,0 -0.43715,0.0916 -0.17014,0.0916 -0.34029,0.29317 l -0.30365,-0.23559 q 0.21465,-0.26176 0.4738,-0.38741 0.26176,-0.12826 0.62823,-0.12826 z m 7.38998,2.63336 q 0,0.29579 -0.1178,0.49474 -0.11517,0.19632 -0.3115,0.31411 -0.1937,0.1178 -0.43453,0.17015 -0.23821,0.0497 -0.48688,0.0497 h -0.96854 v -3.60452 h 0.88739 q 0.23559,0 0.46333,0.0445 0.22773,0.0419 0.41097,0.14658 0.18323,0.10209 0.29056,0.27748 0.10994,0.17538 0.10994,0.43976 0,0.23297 -0.0968,0.39527 -0.0942,0.15967 -0.24868,0.25653 -0.15183,0.0968 -0.32459,0.13612 0.19894,0.034 0.38741,0.12564 0.19109,0.089 0.31412,0.26962 0.12565,0.18062 0.12565,0.48427 z m -0.623,-1.64389 q 0,-0.30627 -0.19109,-0.43453 -0.18847,-0.13088 -0.51568,-0.13088 h -0.53662 v 1.16747 h 0.58112 q 0.31935,0 0.4895,-0.14135 0.17277,-0.14397 0.17277,-0.46071 z m 0.14397,1.65959 q 0,-0.27223 -0.10733,-0.41882 -0.1047,-0.14921 -0.28009,-0.2068 -0.17538,-0.0576 -0.38479,-0.0576 h -0.61515 v 1.32191 h 0.59421 q 0.178,0 0.36123,-0.0471 0.18324,-0.0497 0.30627,-0.18586 0.12565,-0.13873 0.12565,-0.40574 z m 0.90195,-2.59148 h 0.52091 l 0.79053,1.38475 0.79315,-1.38475 h 0.49212 l -1.0235,1.6596 1.14653,1.94492 h -0.52091 l -0.89786,-1.62818 -0.90832,1.62818 h -0.48951 l 1.13083,-1.92136 z m 3.87298,0.93189 q 0,-0.17538 0.12041,-0.29841 0.12303,-0.12303 0.30103,-0.12303 0.18324,0 0.30365,0.12303 0.12303,0.12303 0.12303,0.29841 0,0.17538 -0.12303,0.30103 -0.12041,0.12565 -0.30365,0.12565 -0.178,0 -0.30103,-0.12565 -0.12041,-0.12565 -0.12041,-0.30103 z m 0,1.88733 q 0,-0.17015 0.12041,-0.29579 0.12303,-0.12565 0.30103,-0.12565 0.18324,0 0.30365,0.12565 0.12303,0.12564 0.12303,0.29579 0,0.178 -0.12303,0.30365 -0.12041,0.12303 -0.30365,0.12303 -0.178,0 -0.30103,-0.12303 -0.12041,-0.12565 -0.12041,-0.30365 z m 2.7186,0.39265 h 1.88733 l -0.055,0.39265 h -2.33233 v -0.36909 l 1.90565,-2.84801 h -1.71718 v -0.38742 h 2.20407 v 0.37171 z m 3.25784,-2.27998 q 0,-0.17538 0.12041,-0.29841 0.12303,-0.12303 0.30103,-0.12303 0.18324,0 0.30365,0.12303 0.12303,0.12303 0.12303,0.29841 0,0.17538 -0.12303,0.30103 -0.12041,0.12565 -0.30365,0.12565 -0.178,0 -0.30103,-0.12565 -0.12041,-0.12565 -0.12041,-0.30103 z m 0,1.88733 q 0,-0.17015 0.12041,-0.29579 0.12303,-0.12565 0.30103,-0.12565 0.18324,0 0.30365,0.12565 0.12303,0.12564 0.12303,0.29579 0,0.178 -0.12303,0.30365 -0.12041,0.12303 -0.30365,0.12303 -0.178,0 -0.30103,-0.12303 -0.12041,-0.12565 -0.12041,-0.30365 z"
       id="text4"
       style="font-size:5.10443px;line-height:1.25;font-family:'Fira Code';-inkscape-font-specification:'Fira Code, Normal';letter-spacing:-0.15297px;text-orientation:upright;fill:#4b4b4b;stroke-width:2.01918;stroke-linecap:round;stroke-linejoin:round;stroke-miterlimit:1.5;paint-order:fill markers stroke"
       aria-label="@seq_id/2 BX:Z:" /><g
       id="g7"
       transform="translate(-20.435653,-40.970172)"><rect
         style="fill:#9f8eb1;fill-opacity:1;stroke:none;stroke-width:0.94441;stroke-linecap:round;stroke-linejoin:round;stroke-miterlimit:1.5;stroke-dasharray:none;stroke-opacity:1;paint-order:fill markers stroke"
         id="rect4"
         width="11.317125"
         height="5.3414545"
         x="178.30327"
         y="171.68945"
         ry="1.4285548" /><path
         d="m 180.38598,173.22249 -0.91546,2.52038 h -0.37417 l 1.05412,-2.76539 h 0.24121 z m 0.76732,2.52038 -0.91736,-2.52038 -0.006,-0.24501 h 0.24121 l 1.05792,2.76539 z m -0.0475,-1.02372 v 0.30009 h -1.55363 v -0.30009 z m 2.37896,0.14435 h 0.36467 q -0.0285,0.2621 -0.15005,0.46912 -0.12155,0.20703 -0.34377,0.32858 -0.22222,0.11966 -0.5546,0.11966 -0.24311,0 -0.44254,-0.0912 -0.19753,-0.0912 -0.33997,-0.2583 -0.14245,-0.16904 -0.22032,-0.40455 -0.076,-0.23742 -0.076,-0.52801 v -0.2754 q 0,-0.2906 0.076,-0.52611 0.0779,-0.23741 0.22221,-0.40645 0.14625,-0.16904 0.35138,-0.26021 0.20512,-0.0912 0.46153,-0.0912 0.31338,0 0.5299,0.11775 0.21653,0.11776 0.33618,0.32669 0.12156,0.20702 0.15005,0.48052 h -0.36467 q -0.0266,-0.19373 -0.0988,-0.33238 -0.0722,-0.14055 -0.20513,-0.21652 -0.13295,-0.076 -0.34757,-0.076 -0.18423,0 -0.32478,0.0703 -0.13865,0.0703 -0.23362,0.19943 -0.0931,0.12915 -0.14055,0.30959 -0.0475,0.18043 -0.0475,0.40075 v 0.2792 q 0,0.20322 0.0418,0.38176 0.0437,0.17853 0.13105,0.31338 0.0874,0.13486 0.22222,0.21273 0.13485,0.076 0.31908,0.076 0.23361,0 0.37226,-0.0741 0.13865,-0.0741 0.20893,-0.21273 0.0722,-0.13865 0.10256,-0.33237 z m 1.78448,-0.41405 h -0.70085 l -0.004,-0.2944 h 0.63627 q 0.15764,0 0.2754,-0.0532 0.11776,-0.0532 0.18234,-0.15194 0.0665,-0.10066 0.0665,-0.23931 0,-0.15195 -0.0589,-0.24691 -0.057,-0.0969 -0.17663,-0.14055 -0.11776,-0.0456 -0.30009,-0.0456 h -0.53941 v 2.4653 h -0.36656 v -2.76539 h 0.90597 q 0.21272,0 0.37986,0.0437 0.16714,0.0418 0.28299,0.13295 0.11776,0.0893 0.17854,0.22792 0.0608,0.13865 0.0608,0.33237 0,0.17094 -0.0874,0.30959 -0.0874,0.13675 -0.24311,0.22412 -0.15385,0.0874 -0.36087,0.11206 z m -0.0171,1.29342 h -0.82809 l 0.20702,-0.29819 h 0.62107 q 0.17474,0 0.2963,-0.0608 0.12345,-0.0608 0.18803,-0.17094 0.0646,-0.11206 0.0646,-0.26401 0,-0.15384 -0.0551,-0.2659 -0.0551,-0.11206 -0.17283,-0.17284 -0.11776,-0.0608 -0.30389,-0.0608 h -0.52231 l 0.004,-0.2944 h 0.71414 l 0.0779,0.10636 q 0.19942,0.0171 0.33807,0.11396 0.13865,0.095 0.21083,0.24311 0.0741,0.14815 0.0741,0.32669 0,0.2583 -0.11396,0.43684 -0.11206,0.17663 -0.31718,0.2697 -0.20513,0.0912 -0.48243,0.0912 z m 2.13965,0 h -0.57739 l 0.004,-0.29819 h 0.57359 q 0.29629,0 0.49382,-0.12345 0.19753,-0.12536 0.29629,-0.34947 0.10067,-0.22602 0.10067,-0.52801 v -0.16904 q 0,-0.23741 -0.057,-0.42165 -0.057,-0.18613 -0.16714,-0.31338 -0.11016,-0.12915 -0.2697,-0.19563 -0.15765,-0.0665 -0.36277,-0.0665 h -0.62297 v -0.30009 h 0.62297 q 0.2716,0 0.49572,0.0912 0.22412,0.0893 0.38556,0.26021 0.16334,0.16903 0.2507,0.41025 0.0874,0.23931 0.0874,0.5394 v 0.16524 q 0,0.30009 -0.0874,0.5413 -0.0874,0.23931 -0.2526,0.40835 -0.16334,0.16904 -0.39506,0.26021 -0.22981,0.0893 -0.51851,0.0893 z m -0.38176,-2.76539 v 2.76539 h -0.36657 v -2.76539 z"
         id="text7"
         style="font-size:3.88978px;line-height:1.25;font-family:Roboto;-inkscape-font-specification:'Roboto, Normal';text-align:center;letter-spacing:-0.0635482px;text-orientation:upright;text-anchor:middle;fill:#ffffff;stroke-width:0.838829;stroke-linecap:round;stroke-linejoin:round;stroke-miterlimit:1.5;paint-order:fill markers stroke"
         aria-label="ACBD" /></g></g></svg>
