<?xml version="1.0" encoding="UTF-8" standalone="no"?>
<!-- Created with Inkscape (http://www.inkscape.org/) -->

<svg
   width="192.30299mm"
   height="34.532001mm"
   viewBox="0 0 192.303 34.532001"
   version="1.1"
   id="svg1"
   inkscape:version="1.4.4 (dcaf3e7d9e, 2026-05-05)"
   sodipodi:docname="lr_stlfr.svg"
   xml:space="preserve"
   inkscape:export-filename="lr_conversion.png"
   inkscape:export-xdpi="150"
   inkscape:export-ydpi="150"
   xmlns:inkscape="http://www.inkscape.org/namespaces/inkscape"
   xmlns:sodipodi="http://sodipodi.sourceforge.net/DTD/sodipodi-0.dtd"
   xmlns="http://www.w3.org/2000/svg"
   xmlns:svg="http://www.w3.org/2000/svg"><sodipodi:namedview
     id="namedview1"
     pagecolor="#ffffff"
     bordercolor="#000000"
     borderopacity="0.25"
     inkscape:showpageshadow="2"
     inkscape:pageopacity="0.0"
     inkscape:pagecheckerboard="0"
     inkscape:deskcolor="#d1d1d1"
     inkscape:document-units="mm"
     inkscape:zoom="1.2094621"
     inkscape:cx="316.6697"
     inkscape:cy="193.47444"
     inkscape:window-width="1216"
     inkscape:window-height="805"
     inkscape:window-x="0"
     inkscape:window-y="0"
     inkscape:window-maximized="0"
     inkscape:current-layer="layer1"
     inkscape:export-bgcolor="#ffffffff" /><defs
     id="defs1"><rect
       x="213.31796"
       y="587.03784"
       width="120.71482"
       height="75.240059"
       id="rect5" /></defs><g
     inkscape:label="Layer 1"
     inkscape:groupmode="layer"
     id="layer1"
     transform="translate(-12.818222,-119.4087)"><g
       id="path1-2"
       transform="translate(3.1164151,2.2512908)"><path
         style="color:#000000;fill:#b0d7c3;fill-opacity:1;stroke-linecap:round;stroke-linejoin:round;stroke-miterlimit:1.5;-inkscape-stroke:none;paint-order:fill markers stroke"
         d="m 15.96875,135 c -1.919646,2.2e-4 -3.475471,1.55691 -3.474609,3.47656 2.16e-4,1.91888 1.555725,3.47439 3.474609,3.47461 h 83.349609 c 1.918881,-2.1e-4 3.474391,-1.55572 3.474611,-3.47461 8.6e-4,-1.91965 -1.55496,-3.47635 -3.474611,-3.47656 z"
         id="path3-8"
         sodipodi:nodetypes="ccccccc" /></g><g
       id="path1-5-7"
       transform="translate(0.99974843,2.3509008)"><path
         style="color:#000000;fill:#d19b2f;stroke-linecap:round;stroke-linejoin:round;stroke-miterlimit:1.5;-inkscape-stroke:none;paint-order:fill markers stroke"
         d="m 114.58506,138.37561 h 83.348"
         id="path4-3" /><path
         style="color:#000000;fill:#b0d7c3;fill-opacity:1;stroke-linecap:round;stroke-linejoin:round;stroke-miterlimit:1.5;-inkscape-stroke:none;paint-order:fill markers stroke"
         d="m 114.58594,134.90039 a 3.4749999,3.4749999 0 0 0 -3.47656,3.47461 3.4749999,3.4749999 0 0 0 3.47656,3.47656 h 83.34765 a 3.4749999,3.4749999 0 0 0 3.47461,-3.47656 3.4749999,3.4749999 0 0 0 -3.47461,-3.47461 z"
         id="path5-6" /></g><text
       xml:space="preserve"
       transform="matrix(0.26458333,0,0,0.26458333,0.99974839,0.47075202)"
       id="text5"
       style="font-weight:500;font-stretch:expanded;font-size:66.404px;line-height:1.25;font-family:Inconsolata;-inkscape-font-specification:'Inconsolata, Medium Expanded';text-align:center;letter-spacing:-1.99px;text-orientation:upright;white-space:pre;shape-inside:url(#rect5);display:inline;fill:#97889f;fill-opacity:1;stroke:#4b275c;stroke-width:26.2677;stroke-linecap:round;stroke-linejoin:round;stroke-miterlimit:1.5;stroke-dasharray:none;paint-order:fill markers stroke"><tspan
         x="213.31836"
         y="723.70104"
         id="tspan3"><tspan
           dx="0 39.842426 39.842426 39.842434 39.842419 39.842434 39.842434 39.842419 39.842419 39.842449 39.842419 39.842419"
           style="stroke:none"
           id="tspan2">Forward read</tspan></tspan></text><path
       d="m -7.5290089,131.5126 q 0.4057368,0 0.6832084,0.12303 0.2800892,0.12041 0.4554722,0.33244 0.1780006,0.21203 0.2722363,0.4895 0.096853,0.27747 0.1335005,0.59159 0.036647,0.31412 0.036647,0.63609 0,0.65965 -0.062824,1.0968 -0.060206,0.43453 -0.2251185,0.64918 -0.1649123,0.21726 -0.4816488,0.21726 -0.1622947,0 -0.2827069,-0.0785 -0.1177945,-0.0785 -0.1937066,-0.19894 -0.073294,-0.11779 -0.1073239,-0.24344 -0.03403,-0.12827 -0.031412,-0.2225 h -0.020941 q -0.049735,0.12041 -0.1361181,0.23821 -0.086383,0.11517 -0.2277362,0.19108 -0.1413534,0.0785 -0.3507659,0.0785 -0.2853246,0 -0.4607076,-0.15705 -0.1727653,-0.15445 -0.251295,-0.42407 -0.07853,-0.27223 -0.07853,-0.61776 0,-0.68321 0.2696186,-1.01565 0.2722363,-0.33506 0.7565028,-0.33506 0.1832359,0 0.3507659,0.0393 0.16753,0.0393 0.3874132,0.15706 v 1.54704 q 0,0.2827 0.049736,0.43191 0.049735,0.14659 0.1335005,0.20156 0.083765,0.055 0.1858536,0.055 0.1649123,0 0.2329714,-0.21465 0.068059,-0.21465 0.081147,-0.5785 0.013088,-0.36385 0.013088,-0.81147 0,-0.37433 -0.041882,-0.69892 -0.041882,-0.3272 -0.159677,-0.57326 -0.1177946,-0.24606 -0.3402954,-0.3848 -0.2225008,-0.13874 -0.5837374,-0.13874 -0.2565303,0 -0.5549432,0.0942 -0.2984128,0.0942 -0.6334728,0.38741 l -0.2512951,-0.29317 q 0.350766,-0.30627 0.7172379,-0.43715 0.3690896,-0.1335 0.7172379,-0.1335 z m -0.2827069,1.6753 q -0.3560013,0 -0.4895018,0.26176 -0.1308828,0.25915 -0.1308828,0.76436 0,0.38479 0.089,0.62824 0.089,0.24082 0.3272071,0.24082 0.183236,0 0.2879422,-0.0838 0.1073239,-0.0838 0.1622947,-0.19108 0.057588,-0.10995 0.089,-0.18586 v -1.35594 q -0.151824,-0.0785 -0.33506,-0.0785 z m 3.2499856,1.68315 q 0.3193541,0 0.5025901,-0.11779 0.1832359,-0.1178 0.1832359,-0.31936 0,-0.12303 -0.047118,-0.21465 -0.0445,-0.0916 -0.1858536,-0.16491 -0.1413534,-0.0759 -0.434531,-0.14921 -0.2853245,-0.0707 -0.4973547,-0.16229 -0.2094125,-0.0942 -0.3272071,-0.24344 -0.1151769,-0.14921 -0.1151769,-0.38742 0,-0.34814 0.2905599,-0.5497 0.2905599,-0.20156 0.7565028,-0.20156 0.3324423,0 0.578502,0.089 0.2486774,0.089 0.4214427,0.21465 l -0.1937065,0.29841 q -0.1544418,-0.10733 -0.3455307,-0.17538 -0.1884713,-0.0707 -0.4554722,-0.0707 -0.3245894,0 -0.4607076,0.10209 -0.1361181,0.0995 -0.1361181,0.25915 0,0.12302 0.065441,0.20417 0.068059,0.0785 0.2277361,0.14136 0.1596771,0.0628 0.4397663,0.13873 0.2696186,0.0733 0.4711782,0.17277 0.2015595,0.0995 0.3115011,0.26176 0.1125592,0.15968 0.1125592,0.41621 0,0.29318 -0.16753,0.47641 -0.16753,0.18062 -0.434531,0.26439 -0.2643833,0.0811 -0.5601785,0.0811 -0.3743248,0 -0.6387082,-0.10732 -0.2617656,-0.10994 -0.4397662,-0.26438 l 0.251295,-0.29056 q 0.1622947,0.1335 0.3717072,0.21726 0.2120302,0.0812 0.4554722,0.0812 z m 2.3966296,-0.9188 q 0.018324,0.47903 0.2512951,0.69892 0.2355891,0.21726 0.5549431,0.21726 0.2120302,0 0.3821779,-0.0628 0.17014767,-0.0628 0.35338363,-0.18586 l 0.20679486,0.29056 q -0.19108892,0.15183 -0.43976629,0.23821 -0.2486774,0.0864 -0.5078254,0.0864 -0.4031191,0 -0.685826,-0.18061 -0.2800892,-0.18062 -0.4292956,-0.50259 -0.1465888,-0.32459 -0.1465888,-0.75127 0,-0.41883 0.1465888,-0.74342 0.1492064,-0.32459 0.418825,-0.51044 0.2722363,-0.18585 0.6387082,-0.18585 0.52091364,0 0.81932648,0.36123 0.3010305,0.36124 0.3010305,0.98948 0,0.0707 -0.005235,0.1335 -0.002618,0.0628 -0.005235,0.10732 z m 0.7486498,-1.2303 q -0.3062658,0 -0.5130607,0.21727 -0.2067948,0.21726 -0.2329714,0.67274 h 1.43709342 q -0.007853,-0.44239 -0.19370658,-0.66489 -0.18585364,-0.22512 -0.49735474,-0.22512 z m 2.8023661,-0.36123 q 0.2486774,0 0.4371487,0.0916 0.1910889,0.0916 0.3324423,0.267 l 0.036647,-0.30103 h 0.3743249 v 3.86627 l -0.4397663,-0.055 v -1.40306 q -0.1518241,0.21203 -0.3507659,0.3115 -0.1989419,0.0969 -0.4240604,0.0969 -0.37170723,0 -0.59420803,-0.178 -0.22250081,-0.178 -0.32197175,-0.49997 -0.0994709,-0.32459 -0.0994709,-0.7565 0,-0.41359 0.1204122,-0.73818 0.1204122,-0.32721 0.35338363,-0.51306 0.2355891,-0.18847 0.5758844,-0.18847 z m 0.1099416,0.35338 q -0.68844366,0 -0.68844366,1.08633 0,1.068 0.63609056,1.068 0.2277361,0 0.3978838,-0.12565 0.1727653,-0.12826 0.2853245,-0.29841 v -1.37689 q -0.1073239,-0.16753 -0.2722363,-0.25914 -0.1649123,-0.0942 -0.3586189,-0.0942 z m 1.7055685,3.41081 v -0.3848 h 2.6176565 v 0.3848 z m 4.2970485,-4.99711 q 0.1465888,0 0.2329714,0.089 0.089,0.089 0.089,0.21727 0,0.1335 -0.089,0.22512 -0.086383,0.089 -0.2329714,0.089 -0.1387358,0 -0.2277361,-0.089 -0.089,-0.0916 -0.089,-0.22512 0,-0.12827 0.089,-0.21727 0.089,-0.089 0.2277361,-0.089 z m 0.350766,1.29051 v 2.40824 h 0.777444 v 0.34815 H 6.5587352 v -0.34815 h 0.8507384 v -2.0601 H 6.5849118 v -0.34814 z m 3.2421321,-1.16486 0.439766,0.055 v 3.86628 h -0.384795 l -0.04188,-0.36386 q -0.154442,0.21989 -0.356001,0.32198 -0.198942,0.10208 -0.426678,0.10208 -0.3586191,0 -0.5915906,-0.18061 -0.2329714,-0.18062 -0.3455306,-0.50259 -0.1125593,-0.32459 -0.1125593,-0.75127 0,-0.41359 0.1282652,-0.73818 0.1282652,-0.32721 0.3690896,-0.51306 0.2434417,-0.18847 0.5837377,-0.18847 0.45809,0 0.738179,0.32459 z m -0.623002,1.46065 q -0.345531,0 -0.5313847,0.26962 -0.1858536,0.26962 -0.1858536,0.81671 0,1.07847 0.6622673,1.07847 0.232971,0 0.400501,-0.13088 0.16753,-0.1335 0.277472,-0.30365 v -1.37689 q -0.112559,-0.16753 -0.272236,-0.25914 -0.159678,-0.0942 -0.350766,-0.0942 z m 3.83634,0.0733 -0.154441,1.15962 h 0.42406 v 0.34029 h -0.473796 l -0.109941,0.88739 h -0.376943 l 0.117795,-0.88739 h -0.761738 l -0.115177,0.88739 h -0.376943 l 0.117795,-0.88739 h -0.41359 v -0.34029 h 0.45809 l 0.159677,-1.15962 h -0.42406 v -0.34292 h 0.46856 l 0.115177,-0.8743 h 0.376943 l -0.125648,0.8743 h 0.769591 l 0.115177,-0.8743 h 0.376943 l -0.12303,0.8743 h 0.418825 v 0.34292 z m -1.290504,1.15962 h 0.761738 l 0.159677,-1.15962 h -0.766973 z m 19.528707,0.86906 v 0.35862 h -2.081037 v -0.35862 h 0.887386 v -2.76948 l -0.827179,0.50259 -0.191089,-0.31412 1.073239,-0.66489 h 0.384795 v 3.2459 z m 1.422862,-2.31401 q 0,-0.17538 0.120412,-0.29841 0.12303,-0.12303 0.301031,-0.12303 0.183236,0 0.303648,0.12303 0.12303,0.12303 0.12303,0.29841 0,0.17538 -0.12303,0.30103 -0.120412,0.12565 -0.303648,0.12565 -0.178001,0 -0.301031,-0.12565 -0.120412,-0.12565 -0.120412,-0.30103 z m 0,1.88733 q 0,-0.17015 0.120412,-0.29579 0.12303,-0.12565 0.301031,-0.12565 0.183236,0 0.303648,0.12565 0.12303,0.12564 0.12303,0.29579 0,0.178 -0.12303,0.30365 -0.120412,0.12303 -0.303648,0.12303 -0.178001,0 -0.301031,-0.12303 -0.120412,-0.12565 -0.120412,-0.30365 z m 3.912253,0.7853 -1.269563,-3.16998 q 0.0026,0.0785 0.01832,0.29841 0.01571,0.21726 0.02879,0.50259 0.01309,0.28271 0.01309,0.56279 v 1.80619 h -0.421443 v -3.60452 h 0.615149 l 1.290505,3.18308 q -0.0026,-0.0759 -0.01832,-0.27748 -0.01571,-0.20417 -0.02879,-0.4895 -0.01309,-0.28794 -0.01309,-0.61253 v -1.80357 h 0.421442 v 3.60452 z m 2.064187,-2.67263 q 0,-0.17538 0.120413,-0.29841 0.123029,-0.12303 0.30103,-0.12303 0.183236,0 0.303648,0.12303 0.12303,0.12303 0.12303,0.29841 0,0.17538 -0.12303,0.30103 -0.120412,0.12565 -0.303648,0.12565 -0.178001,0 -0.30103,-0.12565 -0.120413,-0.12565 -0.120413,-0.30103 z m 0,1.88733 q 0,-0.17015 0.120413,-0.29579 0.123029,-0.12565 0.30103,-0.12565 0.183236,0 0.303648,0.12565 0.12303,0.12564 0.12303,0.29579 0,0.178 -0.12303,0.30365 -0.120412,0.12303 -0.303648,0.12303 -0.178001,0 -0.30103,-0.12303 -0.120413,-0.12565 -0.120413,-0.30365 z m 3.414899,-2.8768 q 0.581119,0 0.879532,0.48165 0.301031,0.48164 0.301031,1.37688 0,0.89786 -0.301031,1.38213 -0.298413,0.48164 -0.879532,0.48164 -0.58112,0 -0.882151,-0.48164 -0.298412,-0.48427 -0.298412,-1.38213 0,-0.89524 0.298412,-1.37688 0.301031,-0.48165 0.882151,-0.48165 z m 0,0.35338 q -0.332443,0 -0.523532,0.35338 -0.191089,0.35077 -0.191089,1.15177 0,0.59945 0.09162,0.94236 l 1.102034,-2.21454 q -0.164913,-0.23297 -0.479031,-0.23297 z m 0.717238,1.50515 q 0,-0.60468 -0.09424,-0.94497 l -1.096798,2.22239 q 0.164912,0.23035 0.473796,0.23035 0.33506,0 0.526149,-0.35338 0.191089,-0.35338 0.191089,-1.15439 z m 1.844304,-0.86906 q 0,-0.17538 0.120412,-0.29841 0.12303,-0.12303 0.301031,-0.12303 0.183235,0 0.303648,0.12303 0.12303,0.12303 0.12303,0.29841 0,0.17538 -0.12303,0.30103 -0.120413,0.12565 -0.303648,0.12565 -0.178001,0 -0.301031,-0.12565 -0.120412,-0.12565 -0.120412,-0.30103 z m 0,1.88733 q 0,-0.17015 0.120412,-0.29579 0.12303,-0.12565 0.301031,-0.12565 0.183235,0 0.303648,0.12565 0.12303,0.12564 0.12303,0.29579 0,0.178 -0.12303,0.30365 -0.120413,0.12303 -0.303648,0.12303 -0.178001,0 -0.301031,-0.12303 -0.120412,-0.12565 -0.120412,-0.30365 z m 4.113812,-0.1335 h -1.426622 l -0.287943,0.9188 h -0.447619 l 1.17271,-3.60452 h 0.58112 l 1.17271,3.60452 h -0.476413 z m -1.308828,-0.37694 h 1.191034 l -0.591591,-1.9266 z m 3.8154,-1.91874 v 3.21448 h -0.452855 v -3.21448 h -1.125592 v -0.39004 h 2.719745 l -0.04712,0.39004 z m 3.469869,2.29568 h -1.426623 l -0.287942,0.9188 h -0.44762 l 1.172711,-3.60452 h 0.581119 l 1.17271,3.60452 h -0.476413 z m -1.308828,-0.37694 h 1.191033 l -0.59159,-1.9266 z m 3.668814,1.35594 q -0.641326,0 -1.023503,-0.46332 -0.379561,-0.46594 -0.379561,-1.40045 0,-0.46594 0.12303,-0.81409 0.125648,-0.34815 0.340296,-0.58112 0.214647,-0.23297 0.484266,-0.34815 0.269619,-0.11517 0.560178,-0.11517 0.353384,0 0.586356,0.10209 0.232971,0.0995 0.445001,0.29317 l -0.274854,0.28533 q -0.321972,-0.30103 -0.753885,-0.30103 -0.261766,0 -0.497355,0.13873 -0.232971,0.13874 -0.37956,0.46071 -0.146589,0.32197 -0.146589,0.87953 0,0.7853 0.243443,1.13345 0.243442,0.34815 0.71462,0.34815 0.366472,0 0.685826,-0.17277 v -1.09941 h -0.709385 l -0.05497,-0.37695 h 1.214593 v 1.71719 q -0.243442,0.1335 -0.520914,0.22511 -0.274854,0.089 -0.657032,0.089 z m 3.221192,-3.7223 q 0.353384,0 0.59159,0.089 0.238207,0.089 0.452855,0.26176 l -0.253913,0.2958 q -0.170148,-0.14397 -0.361236,-0.20418 -0.188472,-0.0628 -0.395267,-0.0628 -0.295795,0 -0.54709,0.14135 -0.251295,0.13874 -0.405737,0.46333 -0.151824,0.32197 -0.151824,0.87429 0,0.53662 0.143971,0.86121 0.146589,0.32459 0.395267,0.46856 0.248677,0.14397 0.554943,0.14397 0.30103,0 0.497355,-0.0916 0.198941,-0.0916 0.340295,-0.20942 l 0.235589,0.29842 q -0.164912,0.15967 -0.429296,0.27747 -0.264383,0.11517 -0.649179,0.11517 -0.439766,0 -0.793149,-0.21203 -0.353384,-0.21464 -0.560179,-0.63085 -0.206795,-0.41621 -0.206795,-1.02089 0,-0.60729 0.209413,-1.02088 0.21203,-0.41621 0.562796,-0.62562 0.350766,-0.21203 0.769591,-0.21203 z m 3.383479,2.7433 h -1.426623 l -0.287942,0.9188 h -0.44762 l 1.17271,-3.60452 h 0.58112 l 1.17271,3.60452 h -0.476413 z m -1.308829,-0.37694 h 1.191034 l -0.59159,-1.9266 z"
       id="text6-0-3"
       style="font-size:5.10443px;line-height:1.25;font-family:'Fira Code';-inkscape-font-specification:'Fira Code, Normal';text-align:center;letter-spacing:-0.15297px;text-orientation:upright;text-anchor:middle;white-space:pre;inline-size:79.7377;fill:#4b4b4b;stroke-width:2.01918;stroke-linecap:round;stroke-linejoin:round;stroke-miterlimit:1.5;paint-order:fill markers stroke"
       transform="translate(25.376295)"
       aria-label="@seq_id#     1:N:0:ATAGCA" /><g
       id="g9"
       transform="matrix(0.58136209,0,0,0.58136209,36.465661,69.629126)" /><path
       d="m 18.719848,139.13532 -1.252051,3.4009 h -0.317981 l 1.366326,-3.61703 h 0.221096 z m 1.137777,3.4009 -1.254535,-3.4009 -0.01739,-0.21613 h 0.221096 l 1.36881,3.61703 z m -0.223581,-1.27689 v 0.26333 h -1.920308 v -0.26333 z m 1.886875,-2.34014 v 3.61703 h -0.303076 v -3.61703 z m 1.23963,0 v 0.26333 h -2.779852 v -0.26333 z m 1.494366,0.21613 -1.252051,3.4009 h -0.317981 l 1.366325,-3.61703 h 0.221097 z m 1.137777,3.4009 -1.254536,-3.4009 -0.01739,-0.21613 h 0.221096 l 1.36881,3.61703 z m -0.223581,-1.27689 v 0.26333 h -1.920309 v -0.26333 z m 3.220904,0.14905 h 0.305561 q -0.03726,0.36519 -0.201223,0.631 -0.163959,0.26333 -0.447161,0.40493 -0.283202,0.1416 -0.683163,0.1416 -0.308044,0 -0.558951,-0.11676 -0.248423,-0.11676 -0.427288,-0.3304 -0.178864,-0.21613 -0.275749,-0.51672 -0.09689,-0.30059 -0.09689,-0.66826 v -0.45213 q 0,-0.36766 0.09689,-0.66577 0.09689,-0.30059 0.278234,-0.51672 0.181348,-0.21613 0.43474,-0.33289 0.253391,-0.11676 0.571372,-0.11676 0.385056,0 0.665773,0.1416 0.280718,0.13912 0.442193,0.40245 0.163959,0.26333 0.201223,0.63596 h -0.305561 q -0.03478,-0.29314 -0.154022,-0.49684 -0.119243,-0.20371 -0.330402,-0.31053 -0.208675,-0.10931 -0.519204,-0.10931 -0.253391,0 -0.452129,0.0969 -0.198739,0.0969 -0.337855,0.27823 -0.139117,0.17886 -0.213644,0.42977 -0.07204,0.25091 -0.07204,0.55895 v 0.4571 q 0,0.29811 0.06956,0.54902 0.06956,0.2509 0.203706,0.43474 0.136633,0.18383 0.332887,0.28568 0.196254,0.10185 0.447161,0.10185 0.320466,0 0.534109,-0.10185 0.216128,-0.10434 0.335371,-0.30804 0.119243,-0.20371 0.156506,-0.50679 z m 3.57615,-0.59124 v 1.28683 q -0.0621,0.0919 -0.213643,0.20371 -0.151538,0.11179 -0.407414,0.19625 -0.255875,0.082 -0.635962,0.082 -0.317981,0 -0.583794,-0.11428 -0.265812,-0.11427 -0.462066,-0.3304 -0.19377,-0.21861 -0.300592,-0.52417 -0.104338,-0.30556 -0.104338,-0.68565 v -0.43722 q 0,-0.37264 0.09689,-0.67074 0.09689,-0.30059 0.280718,-0.51424 0.183833,-0.21364 0.442193,-0.32543 0.260844,-0.11428 0.583793,-0.11428 0.402446,0 0.678195,0.13912 0.275749,0.13912 0.429771,0.38257 0.156507,0.24097 0.19377,0.54653 h -0.30556 q -0.03478,-0.21613 -0.144085,-0.39748 -0.109306,-0.18383 -0.317981,-0.29562 -0.206191,-0.11179 -0.53411,-0.11179 -0.263328,0 -0.469519,0.0969 -0.203706,0.0969 -0.342823,0.27575 -0.139117,0.17886 -0.21116,0.42977 -0.07204,0.24842 -0.07204,0.55398 v 0.44219 q 0,0.31798 0.0795,0.57386 0.08198,0.25588 0.233518,0.43971 0.151537,0.18383 0.362697,0.2832 0.211159,0.0969 0.469519,0.0969 0.275749,0 0.469519,-0.0522 0.19377,-0.0522 0.310529,-0.12422 0.119243,-0.0745 0.171412,-0.13911 v -0.93159 h -0.971334 v -0.26084 z m 1.976307,-1.68182 -1.252051,3.4009 H 32.37244 l 1.366325,-3.61703 h 0.221097 z m 1.137777,3.4009 -1.254536,-3.4009 -0.01739,-0.21613 h 0.221096 l 1.36881,3.61703 z m -0.223581,-1.27689 v 0.26333 H 32.93636 v -0.26333 z m 3.576149,-0.44219 v 1.28683 q -0.06211,0.0919 -0.213643,0.20371 -0.151538,0.11179 -0.407414,0.19625 -0.255875,0.082 -0.635962,0.082 -0.317981,0 -0.583794,-0.11428 -0.265812,-0.11427 -0.462066,-0.3304 -0.19377,-0.21861 -0.300592,-0.52417 -0.104338,-0.30556 -0.104338,-0.68565 v -0.43722 q 0,-0.37264 0.09689,-0.67074 0.09689,-0.30059 0.280718,-0.51424 0.183833,-0.21364 0.442193,-0.32543 0.260844,-0.11428 0.583793,-0.11428 0.402445,0 0.678195,0.13912 0.275749,0.13912 0.429771,0.38257 0.156507,0.24097 0.19377,0.54653 h -0.30556 q -0.03478,-0.21613 -0.144085,-0.39748 -0.109306,-0.18383 -0.317981,-0.29562 -0.206191,-0.11179 -0.53411,-0.11179 -0.263328,0 -0.469519,0.0969 -0.203707,0.0969 -0.342823,0.27575 -0.139117,0.17886 -0.21116,0.42977 -0.07204,0.24842 -0.07204,0.55398 v 0.44219 q 0,0.31798 0.07949,0.57386 0.08198,0.25588 0.233517,0.43971 0.151538,0.18383 0.362698,0.2832 0.211159,0.0969 0.469519,0.0969 0.275749,0 0.469519,-0.0522 0.19377,-0.0522 0.310529,-0.12422 0.119243,-0.0745 0.171411,-0.13911 v -0.93159 h -0.971333 v -0.26084 z m 2.001149,-1.89795 v 3.61703 h -0.303075 v -3.61703 z m 1.23963,0 v 0.26333 h -2.779851 v -0.26333 z m 1.494367,0.21613 -1.252051,3.4009 H 41.59793 l 1.366326,-3.61703 h 0.221096 z m 1.137776,3.4009 -1.254535,-3.4009 -0.01739,-0.21613 h 0.221097 l 1.36881,3.61703 z m -0.22358,-1.27689 v 0.26333 H 42.16185 v -0.26333 z m 3.220904,0.14905 h 0.30556 q -0.03726,0.36519 -0.201222,0.631 -0.163959,0.26333 -0.447161,0.40493 -0.283202,0.1416 -0.683163,0.1416 -0.308044,0 -0.558952,-0.11676 -0.248422,-0.11676 -0.427287,-0.3304 -0.178864,-0.21613 -0.275749,-0.51672 -0.09689,-0.30059 -0.09689,-0.66826 v -0.45213 q 0,-0.36766 0.09689,-0.66577 0.09688,-0.30059 0.278233,-0.51672 0.181349,-0.21613 0.43474,-0.33289 0.253392,-0.11676 0.571373,-0.11676 0.385055,0 0.665773,0.1416 0.280718,0.13912 0.442193,0.40245 0.163959,0.26333 0.201222,0.63596 h -0.30556 q -0.03478,-0.29314 -0.154022,-0.49684 -0.119243,-0.20371 -0.330402,-0.31053 -0.208675,-0.10931 -0.519204,-0.10931 -0.253391,0 -0.45213,0.0969 -0.198738,0.0969 -0.337855,0.27823 -0.139116,0.17886 -0.213643,0.42977 -0.07204,0.25091 -0.07204,0.55895 v 0.4571 q 0,0.29811 0.06956,0.54902 0.06956,0.2509 0.203707,0.43474 0.136633,0.18383 0.332887,0.28568 0.196254,0.10185 0.447161,0.10185 0.320465,0 0.534109,-0.10185 0.216128,-0.10434 0.335371,-0.30804 0.119243,-0.20371 0.156506,-0.50679 z m 2.155172,-2.27306 -1.252052,3.4009 h -0.317981 l 1.366326,-3.61703 h 0.221096 z m 1.137776,3.4009 -1.254535,-3.4009 -0.01739,-0.21613 h 0.221097 l 1.368809,3.61703 z m -0.22358,-1.27689 v 0.26333 h -1.920309 v -0.26333 z m 3.576151,-0.44219 v 1.28683 q -0.06211,0.0919 -0.213644,0.20371 -0.151538,0.11179 -0.407414,0.19625 -0.255875,0.082 -0.635962,0.082 -0.317981,0 -0.583794,-0.11428 -0.265812,-0.11427 -0.462066,-0.3304 -0.19377,-0.21861 -0.300592,-0.52417 -0.104337,-0.30556 -0.104337,-0.68565 v -0.43722 q 0,-0.37264 0.09688,-0.67074 0.09689,-0.30059 0.280718,-0.51424 0.183833,-0.21364 0.442193,-0.32543 0.260844,-0.11428 0.583794,-0.11428 0.402445,0 0.678194,0.13912 0.275749,0.13912 0.429772,0.38257 0.156506,0.24097 0.193769,0.54653 h -0.30556 q -0.03478,-0.21613 -0.144085,-0.39748 -0.109306,-0.18383 -0.317981,-0.29562 -0.206191,-0.11179 -0.534109,-0.11179 -0.263329,0 -0.46952,0.0969 -0.203706,0.0969 -0.342823,0.27575 -0.139117,0.17886 -0.211159,0.42977 -0.07204,0.24842 -0.07204,0.55398 v 0.44219 q 0,0.31798 0.0795,0.57386 0.08198,0.25588 0.233518,0.43971 0.151538,0.18383 0.362697,0.2832 0.211159,0.0969 0.469519,0.0969 0.27575,0 0.469519,-0.0522 0.19377,-0.0522 0.310529,-0.12422 0.119243,-0.0745 0.171412,-0.13911 v -0.93159 h -0.971334 v -0.26084 z m 1.976303,-1.68182 -1.252052,3.4009 h -0.317981 l 1.366326,-3.61703 h 0.221096 z m 1.137776,3.4009 -1.254535,-3.4009 -0.01739,-0.21613 h 0.221097 l 1.368809,3.61703 z m -0.22358,-1.27689 v 0.26333 h -1.920309 v -0.26333 z m 1.886876,-2.34014 v 3.61703 h -0.303076 v -3.61703 z m 1.23963,0 v 0.26333 h -2.779852 v -0.26333 z m 3.042038,1.89795 v 1.28683 q -0.0621,0.0919 -0.213643,0.20371 -0.151538,0.11179 -0.407414,0.19625 -0.255875,0.082 -0.635962,0.082 -0.317981,0 -0.583794,-0.11428 -0.265812,-0.11427 -0.462066,-0.3304 -0.19377,-0.21861 -0.300592,-0.52417 -0.104338,-0.30556 -0.104338,-0.68565 v -0.43722 q 0,-0.37264 0.09689,-0.67074 0.09689,-0.30059 0.280718,-0.51424 0.183833,-0.21364 0.442193,-0.32543 0.260844,-0.11428 0.583794,-0.11428 0.402445,0 0.678194,0.13912 0.275749,0.13912 0.429771,0.38257 0.156507,0.24097 0.19377,0.54653 h -0.30556 q -0.03478,-0.21613 -0.144085,-0.39748 -0.109306,-0.18383 -0.317981,-0.29562 -0.206191,-0.11179 -0.534109,-0.11179 -0.263329,0 -0.46952,0.0969 -0.203706,0.0969 -0.342823,0.27575 -0.139117,0.17886 -0.21116,0.42977 -0.07204,0.24842 -0.07204,0.55398 v 0.44219 q 0,0.31798 0.0795,0.57386 0.08198,0.25588 0.233518,0.43971 0.151537,0.18383 0.362697,0.2832 0.211159,0.0969 0.469519,0.0969 0.275749,0 0.469519,-0.0522 0.19377,-0.0522 0.310529,-0.12422 0.119243,-0.0745 0.171412,-0.13911 v -0.93159 h -0.971334 v -0.26084 z m 3.397286,0 v 1.28683 q -0.06211,0.0919 -0.213644,0.20371 -0.151538,0.11179 -0.407413,0.19625 -0.255876,0.082 -0.635963,0.082 -0.317981,0 -0.583793,-0.11428 -0.265813,-0.11427 -0.462067,-0.3304 -0.19377,-0.21861 -0.300591,-0.52417 -0.104338,-0.30556 -0.104338,-0.68565 v -0.43722 q 0,-0.37264 0.09689,-0.67074 0.09689,-0.30059 0.280718,-0.51424 0.183833,-0.21364 0.442192,-0.32543 0.260844,-0.11428 0.583794,-0.11428 0.402445,0 0.678194,0.13912 0.27575,0.13912 0.429772,0.38257 0.156506,0.24097 0.19377,0.54653 h -0.30556 q -0.03478,-0.21613 -0.144086,-0.39748 -0.109306,-0.18383 -0.317981,-0.29562 -0.206191,-0.11179 -0.534109,-0.11179 -0.263328,0 -0.469519,0.0969 -0.203707,0.0969 -0.342824,0.27575 -0.139117,0.17886 -0.211159,0.42977 -0.07204,0.24842 -0.07204,0.55398 v 0.44219 q 0,0.31798 0.0795,0.57386 0.08198,0.25588 0.233517,0.43971 0.151538,0.18383 0.362697,0.2832 0.21116,0.0969 0.46952,0.0969 0.275749,0 0.469519,-0.0522 0.19377,-0.0522 0.310528,-0.12422 0.119243,-0.0745 0.171412,-0.13911 v -0.93159 h -0.971333 v -0.26084 z m 1.976307,-1.68182 -1.252051,3.4009 h -0.317982 l 1.366326,-3.61703 h 0.221096 z m 1.137776,3.4009 -1.254535,-3.4009 -0.01739,-0.21613 h 0.221097 l 1.36881,3.61703 z m -0.22358,-1.27689 v 0.26333 h -1.920309 v -0.26333 z m 3.576149,-0.44219 v 1.28683 q -0.06211,0.0919 -0.213644,0.20371 -0.151538,0.11179 -0.407413,0.19625 -0.255876,0.082 -0.635963,0.082 -0.317981,0 -0.583793,-0.11428 -0.265813,-0.11427 -0.462067,-0.3304 -0.19377,-0.21861 -0.300592,-0.52417 -0.104337,-0.30556 -0.104337,-0.68565 v -0.43722 q 0,-0.37264 0.09689,-0.67074 0.09689,-0.30059 0.280718,-0.51424 0.183832,-0.21364 0.442192,-0.32543 0.260844,-0.11428 0.583794,-0.11428 0.402445,0 0.678194,0.13912 0.27575,0.13912 0.429772,0.38257 0.156506,0.24097 0.19377,0.54653 h -0.30556 q -0.03478,-0.21613 -0.144086,-0.39748 -0.109306,-0.18383 -0.317981,-0.29562 -0.206191,-0.11179 -0.534109,-0.11179 -0.263328,0 -0.469519,0.0969 -0.203707,0.0969 -0.342824,0.27575 -0.139117,0.17886 -0.211159,0.42977 -0.07204,0.24842 -0.07204,0.55398 v 0.44219 q 0,0.31798 0.07949,0.57386 0.08198,0.25588 0.233518,0.43971 0.151538,0.18383 0.362697,0.2832 0.21116,0.0969 0.469519,0.0969 0.27575,0 0.46952,-0.0522 0.193769,-0.0522 0.310528,-0.12422 0.119243,-0.0745 0.171412,-0.13911 v -0.93159 h -0.971333 v -0.26084 z m 3.397285,0 v 1.28683 q -0.06211,0.0919 -0.213643,0.20371 -0.151538,0.11179 -0.407414,0.19625 -0.255875,0.082 -0.635962,0.082 -0.317982,0 -0.583794,-0.11428 -0.265812,-0.11427 -0.462066,-0.3304 -0.19377,-0.21861 -0.300592,-0.52417 -0.104338,-0.30556 -0.104338,-0.68565 v -0.43722 q 0,-0.37264 0.09689,-0.67074 0.09689,-0.30059 0.280718,-0.51424 0.183833,-0.21364 0.442193,-0.32543 0.260844,-0.11428 0.583793,-0.11428 0.402445,0 0.678195,0.13912 0.275749,0.13912 0.429771,0.38257 0.156507,0.24097 0.19377,0.54653 h -0.30556 q -0.03478,-0.21613 -0.144085,-0.39748 -0.109306,-0.18383 -0.317982,-0.29562 -0.20619,-0.11179 -0.534109,-0.11179 -0.263328,0 -0.469519,0.0969 -0.203707,0.0969 -0.342823,0.27575 -0.139117,0.17886 -0.21116,0.42977 -0.07204,0.24842 -0.07204,0.55398 v 0.44219 q 0,0.31798 0.07949,0.57386 0.08198,0.25588 0.233517,0.43971 0.151538,0.18383 0.362698,0.2832 0.211159,0.0969 0.469519,0.0969 0.275749,0 0.469519,-0.0522 0.19377,-0.0522 0.310529,-0.12422 0.119243,-0.0745 0.171411,-0.13911 v -0.93159 h -0.971333 v -0.26084 z m 1.976307,-1.68182 -1.252051,3.4009 h -0.317981 l 1.366325,-3.61703 h 0.221097 z m 1.137777,3.4009 -1.254536,-3.4009 -0.01739,-0.21613 h 0.221096 l 1.36881,3.61703 z m -0.223581,-1.27689 v 0.26333 h -1.920308 v -0.26333 z m 1.886876,-2.34014 v 3.61703 h -0.303076 v -3.61703 z m 1.23963,0 v 0.26333 h -2.779851 v -0.26333 z m 2.686798,2.48919 h 0.30556 q -0.03726,0.36519 -0.201222,0.631 -0.163959,0.26333 -0.447161,0.40493 -0.283202,0.1416 -0.683163,0.1416 -0.308045,0 -0.558952,-0.11676 -0.248422,-0.11676 -0.427287,-0.3304 -0.178864,-0.21613 -0.275749,-0.51672 -0.09689,-0.30059 -0.09689,-0.66826 v -0.45213 q 0,-0.36766 0.09689,-0.66577 0.09689,-0.30059 0.278233,-0.51672 0.181349,-0.21613 0.43474,-0.33289 0.253392,-0.11676 0.571373,-0.11676 0.385055,0 0.665773,0.1416 0.280718,0.13912 0.442193,0.40245 0.163959,0.26333 0.201222,0.63596 h -0.30556 q -0.03478,-0.29314 -0.154022,-0.49684 -0.119243,-0.20371 -0.330402,-0.31053 -0.208676,-0.10931 -0.519204,-0.10931 -0.253391,0 -0.45213,0.0969 -0.198738,0.0969 -0.337855,0.27823 -0.139117,0.17886 -0.213643,0.42977 -0.07204,0.25091 -0.07204,0.55895 v 0.4571 q 0,0.29811 0.06956,0.54902 0.06956,0.2509 0.203707,0.43474 0.136633,0.18383 0.332887,0.28568 0.196254,0.10185 0.447161,0.10185 0.320465,0 0.534109,-0.10185 0.216128,-0.10434 0.335371,-0.30804 0.119243,-0.20371 0.156506,-0.50679 z m 2.155168,-2.27306 -1.252052,3.4009 H 85.55779 l 1.366326,-3.61703 h 0.221096 z m 1.137776,3.4009 -1.254535,-3.4009 -0.01739,-0.21613 h 0.221097 l 1.36881,3.61703 z m -0.22358,-1.27689 v 0.26333 H 86.12171 v -0.26333 z m 3.220904,0.14905 h 0.30556 q -0.03726,0.36519 -0.201222,0.631 -0.163959,0.26333 -0.447161,0.40493 -0.283202,0.1416 -0.683163,0.1416 -0.308045,0 -0.558952,-0.11676 -0.248423,-0.11676 -0.427287,-0.3304 -0.178864,-0.21613 -0.275749,-0.51672 -0.09689,-0.30059 -0.09689,-0.66826 v -0.45213 q 0,-0.36766 0.09689,-0.66577 0.09689,-0.30059 0.278233,-0.51672 0.181349,-0.21613 0.43474,-0.33289 0.253392,-0.11676 0.571373,-0.11676 0.385055,0 0.665773,0.1416 0.280718,0.13912 0.442193,0.40245 0.163959,0.26333 0.201222,0.63596 h -0.30556 q -0.03478,-0.29314 -0.154022,-0.49684 -0.119243,-0.20371 -0.330402,-0.31053 -0.208676,-0.10931 -0.519204,-0.10931 -0.253392,0 -0.45213,0.0969 -0.198738,0.0969 -0.337855,0.27823 -0.139117,0.17886 -0.213644,0.42977 -0.07204,0.25091 -0.07204,0.55895 v 0.4571 q 0,0.29811 0.06956,0.54902 0.06956,0.2509 0.203707,0.43474 0.136633,0.18383 0.332887,0.28568 0.196254,0.10185 0.447161,0.10185 0.320465,0 0.534109,-0.10185 0.216128,-0.10434 0.335371,-0.30804 0.119243,-0.20371 0.156506,-0.50679 z m 3.220909,0 h 0.30556 q -0.03726,0.36519 -0.201222,0.631 -0.163959,0.26333 -0.447161,0.40493 -0.283202,0.1416 -0.683163,0.1416 -0.308044,0 -0.558952,-0.11676 -0.248422,-0.11676 -0.427287,-0.3304 -0.178864,-0.21613 -0.275749,-0.51672 -0.09689,-0.30059 -0.09689,-0.66826 v -0.45213 q 0,-0.36766 0.09689,-0.66577 0.09689,-0.30059 0.278233,-0.51672 0.181349,-0.21613 0.43474,-0.33289 0.253392,-0.11676 0.571373,-0.11676 0.385055,0 0.665773,0.1416 0.280718,0.13912 0.442193,0.40245 0.163959,0.26333 0.201222,0.63596 h -0.30556 q -0.03478,-0.29314 -0.154022,-0.49684 -0.119243,-0.20371 -0.330402,-0.31053 -0.208676,-0.10931 -0.519204,-0.10931 -0.253391,0 -0.45213,0.0969 -0.198738,0.0969 -0.337855,0.27823 -0.139117,0.17886 -0.213643,0.42977 -0.07204,0.25091 -0.07204,0.55895 v 0.4571 q 0,0.29811 0.06956,0.54902 0.06956,0.2509 0.203707,0.43474 0.136633,0.18383 0.332887,0.28568 0.196254,0.10185 0.447161,0.10185 0.320465,0 0.534109,-0.10185 0.216128,-0.10434 0.335371,-0.30804 0.119243,-0.20371 0.156506,-0.50679 z m 2.155168,-2.27306 -1.252051,3.4009 h -0.317982 l 1.366326,-3.61703 h 0.221096 z m 1.137776,3.4009 -1.254535,-3.4009 -0.01739,-0.21613 h 0.221097 l 1.36881,3.61703 z m -0.22358,-1.27689 v 0.26333 h -1.920309 v -0.26333 z m 3.576144,-0.44219 v 1.28683 q -0.0621,0.0919 -0.21364,0.20371 -0.15154,0.11179 -0.40741,0.19625 -0.25588,0.082 -0.635965,0.082 -0.317981,0 -0.583793,-0.11428 -0.265813,-0.11427 -0.462067,-0.3304 -0.19377,-0.21861 -0.300592,-0.52417 -0.104337,-0.30556 -0.104337,-0.68565 v -0.43722 q 0,-0.37264 0.09689,-0.67074 0.09689,-0.30059 0.280718,-0.51424 0.183832,-0.21364 0.442192,-0.32543 0.260844,-0.11428 0.583794,-0.11428 0.402445,0 0.678195,0.13912 0.27575,0.13912 0.42977,0.38257 0.15651,0.24097 0.19377,0.54653 h -0.30556 q -0.0348,-0.21613 -0.14408,-0.39748 -0.10931,-0.18383 -0.31799,-0.29562 -0.20619,-0.11179 -0.534105,-0.11179 -0.263328,0 -0.469519,0.0969 -0.203707,0.0969 -0.342824,0.27575 -0.139117,0.17886 -0.211159,0.42977 -0.07204,0.24842 -0.07204,0.55398 v 0.44219 q 0,0.31798 0.0795,0.57386 0.08198,0.25588 0.233518,0.43971 0.151538,0.18383 0.362697,0.2832 0.21116,0.0969 0.469519,0.0969 0.275751,0 0.469521,-0.0522 0.19377,-0.0522 0.31053,-0.12422 0.11924,-0.0745 0.17141,-0.13911 v -0.93159 h -0.971334 v -0.26084 z m 2.00115,-1.89795 v 3.61703 h -0.30307 v -3.61703 z m 1.23963,0 v 0.26333 h -2.77985 v -0.26333 z"
       id="text6-0-6-3"
       style="font-weight:300;font-size:5.0877px;line-height:1.25;font-family:Roboto;-inkscape-font-specification:'Roboto, Light';text-align:center;letter-spacing:-0.0831189px;text-orientation:upright;text-anchor:middle;fill:#8ab9a1;stroke-width:1.09716;stroke-linecap:round;stroke-linejoin:round;stroke-miterlimit:1.5;paint-order:fill markers stroke"
       aria-label="ATACGAGTACAGATGGAGGATCACCAGT" /><g
       id="g14-2-2-7"
       transform="translate(-140.87804,-40.970172)"><rect
         style="fill:#9f8eb1;fill-opacity:1;stroke:none;stroke-width:0.950264;stroke-linecap:round;stroke-linejoin:round;stroke-miterlimit:1.5;stroke-dasharray:none;stroke-opacity:1;paint-order:fill markers stroke"
         id="rect11-2-2-7-6-0"
         width="11.457795"
         height="5.3414545"
         x="181.69406"
         y="171.68945"
         ry="1.4285548" /><path
         d="m 183.99362,172.96229 v 2.78058 h -0.35138 v -2.34184 l -0.70844,0.2583 v -0.31718 l 1.00474,-0.37986 z m 2.48722,2.78058 v 0.2887 h -1.74167 v -0.2887 z m 1.9839,-0.28869 v 0.28869 h -1.81004 v -0.2526 l 0.90597,-1.00854 q 0.16714,-0.18613 0.25831,-0.31528 0.0931,-0.13105 0.12915,-0.23362 0.038,-0.10446 0.038,-0.21272 0,-0.13675 -0.057,-0.24691 -0.0551,-0.11206 -0.16334,-0.17853 -0.10826,-0.0665 -0.26211,-0.0665 -0.18423,0 -0.30769,0.0722 -0.12155,0.0703 -0.18233,0.19752 -0.0608,0.12726 -0.0608,0.2925 h -0.35137 q 0,-0.23362 0.10256,-0.42735 0.10257,-0.19373 0.30389,-0.30768 0.20133,-0.11586 0.49572,-0.11586 0.26211,0 0.44824,0.0931 0.18613,0.0912 0.28489,0.25831 0.10067,0.16524 0.10067,0.38746 0,0.12155 -0.0418,0.24691 -0.0399,0.12345 -0.11206,0.24691 -0.0703,0.12345 -0.16524,0.24311 -0.0931,0.11966 -0.19942,0.23551 l -0.74073,0.80341 z m 1.83006,0.28869 v 0.2887 h -1.74166 v -0.2887 z m 0.68478,-1.55553 h 0.25071 q 0.18423,0 0.30389,-0.0608 0.12155,-0.0627 0.18043,-0.16903 0.0608,-0.10826 0.0608,-0.24312 0,-0.15954 -0.0532,-0.2678 -0.0532,-0.10826 -0.15954,-0.16334 -0.10636,-0.0551 -0.2697,-0.0551 -0.14815,0 -0.26211,0.0589 -0.11206,0.057 -0.17663,0.16334 -0.0627,0.10636 -0.0627,0.25071 h -0.35137 q 0,-0.21082 0.10636,-0.38366 0.10636,-0.17284 0.29819,-0.2754 0.19373,-0.10256 0.44824,-0.10256 0.2507,0 0.43874,0.0893 0.18803,0.0874 0.29249,0.26211 0.10446,0.17284 0.10446,0.43114 0,0.10446 -0.0494,0.22412 -0.0475,0.11776 -0.15005,0.22032 -0.10066,0.10256 -0.2621,0.16904 -0.16144,0.0646 -0.38746,0.0646 h -0.30009 z m 0,0.2887 v -0.21083 h 0.30009 q 0.264,0 0.43684,0.0627 0.17284,0.0627 0.2716,0.16714 0.10066,0.10446 0.14055,0.22982 0.0418,0.12345 0.0418,0.24691 0,0.19372 -0.0665,0.34377 -0.0646,0.15005 -0.18423,0.25451 -0.11776,0.10446 -0.2773,0.15764 -0.15954,0.0532 -0.34758,0.0532 -0.18043,0 -0.33997,-0.0513 -0.15764,-0.0513 -0.2792,-0.14815 -0.12156,-0.0988 -0.18993,-0.24121 -0.0684,-0.14435 -0.0684,-0.32858 h 0.35138 q 0,0.14435 0.0627,0.25261 0.0646,0.10826 0.18234,0.16904 0.11965,0.0589 0.28109,0.0589 0.16145,0 0.2773,-0.0551 0.11776,-0.057 0.18044,-0.17094 0.0646,-0.11396 0.0646,-0.2868 0,-0.17283 -0.0722,-0.28299 -0.0722,-0.11206 -0.20512,-0.16524 -0.13106,-0.0551 -0.30959,-0.0551 z"
         id="text6-0-7-5-3-4-0-1-9"
         style="font-size:3.88978px;line-height:1.25;font-family:Roboto;-inkscape-font-specification:'Roboto, Normal';text-align:center;letter-spacing:-0.0635482px;text-orientation:upright;text-anchor:middle;fill:#ffffff;stroke-width:0.838829;stroke-linecap:round;stroke-linejoin:round;stroke-miterlimit:1.5;paint-order:fill markers stroke"
         aria-label="1_2_3" /></g><path
       d="m 45.832267,152.35158 h -0.357295 v -3.65102 q 0,-0.33327 0.114094,-0.56146 0.117097,-0.22819 0.330273,-0.34529 0.216179,-0.11709 0.513424,-0.11709 0.09308,0 0.192159,0.012 0.09908,0.009 0.192159,0.039 l -0.02702,0.30325 q -0.07506,-0.021 -0.153126,-0.027 -0.07506,-0.009 -0.177147,-0.009 -0.195161,0 -0.336277,0.0841 -0.141117,0.0811 -0.216179,0.23719 -0.07506,0.15613 -0.07506,0.38432 z m 0.77464,-3.24869 v 0.29425 h -1.669379 v -0.29425 z m 0.224188,1.67539 v -0.0991 q 0,-0.3543 0.102084,-0.65454 0.102085,-0.30025 0.291241,-0.51943 0.192159,-0.21918 0.459379,-0.33928 0.267221,-0.12311 0.594492,-0.12311 0.330272,0 0.597493,0.12311 0.267221,0.1201 0.45938,0.33928 0.192158,0.21918 0.294243,0.51943 0.102084,0.30024 0.102084,0.65454 v 0.0991 q 0,0.35429 -0.102084,0.65454 -0.102085,0.29724 -0.294243,0.51643 -0.189157,0.21918 -0.456377,0.34228 -0.267221,0.1201 -0.594491,0.1201 -0.330273,0 -0.597494,-0.1201 -0.267221,-0.1231 -0.45938,-0.34228 -0.192158,-0.21919 -0.294243,-0.51643 -0.102084,-0.30025 -0.102084,-0.65454 z m 0.357295,-0.0991 v 0.0991 q 0,0.26722 0.07206,0.50742 0.07206,0.23719 0.210173,0.42335 0.138114,0.18315 0.342283,0.28824 0.204169,0.10508 0.47139,0.10508 0.264218,0 0.465384,-0.10508 0.204169,-0.10509 0.342283,-0.28824 0.138114,-0.18616 0.207171,-0.42335 0.07206,-0.2402 0.07206,-0.50742 v -0.0991 q 0,-0.26422 -0.07206,-0.50142 -0.06906,-0.23719 -0.210174,-0.42335 -0.138114,-0.18615 -0.342283,-0.29424 -0.204168,-0.10809 -0.468386,-0.10809 -0.264219,0 -0.468387,0.10809 -0.201167,0.10809 -0.342283,0.29424 -0.138114,0.18616 -0.210174,0.42335 -0.06906,0.2372 -0.06906,0.50142 z m 3.418827,-1.03886 v 2.71124 h -0.357295 v -3.24869 h 0.348288 z m 1.14995,-0.56147 -0.009,0.33028 q -0.06005,-0.009 -0.117097,-0.015 -0.05705,-0.006 -0.123102,-0.006 -0.234193,0 -0.411339,0.0871 -0.174144,0.0841 -0.294243,0.2372 -0.1201,0.15012 -0.183152,0.35429 -0.06305,0.20117 -0.07206,0.43236 l -0.132109,0.051 q 0,-0.31826 0.06605,-0.59149 0.06605,-0.27322 0.201166,-0.47739 0.138114,-0.20717 0.345286,-0.32127 0.210173,-0.1171 0.492406,-0.1171 0.06906,0 0.135112,0.012 0.06906,0.009 0.102084,0.024 z m 1.290069,2.51308 0.783647,-2.48906 h 0.252209 l -0.150124,0.66956 -0.819677,2.57913 h -0.252209 z m -0.813672,-2.48906 0.687568,2.50407 0.147121,0.74462 h -0.261215 l -0.942779,-3.24869 z m 2.825334,2.49507 0.669553,-2.49507 h 0.369305 l -0.942779,3.24869 h -0.258213 z m -0.924764,-2.49507 0.771637,2.46804 0.195162,0.78065 h -0.252209 l -0.837692,-2.58214 -0.141116,-0.66655 z m 4.400638,2.66621 v -1.67539 q 0,-0.23119 -0.09608,-0.39933 -0.09608,-0.16814 -0.282233,-0.25821 -0.186154,-0.0901 -0.45938,-0.0901 -0.252208,0 -0.450372,0.0901 -0.195161,0.0871 -0.309255,0.2372 -0.111092,0.14712 -0.111092,0.32727 l -0.360298,-0.003 q 0,-0.18315 0.09007,-0.35429 0.09007,-0.17114 0.25521,-0.30625 0.165137,-0.13511 0.393325,-0.21318 0.231191,-0.0811 0.50742,-0.0811 0.348287,0 0.612506,0.1171 0.26722,0.1171 0.417344,0.35129 0.150124,0.23419 0.150124,0.58849 v 1.57029 q 0,0.16814 0.02402,0.34829 0.02702,0.18015 0.07506,0.29725 v 0.036 h -0.381315 q -0.03603,-0.10809 -0.05705,-0.27023 -0.01802,-0.16513 -0.01802,-0.31225 z m 0.08407,-1.30908 0.006,0.27622 h -0.705583 q -0.276229,0 -0.49541,0.0511 -0.216178,0.048 -0.366302,0.14411 -0.150124,0.0931 -0.231191,0.22519 -0.07806,0.13211 -0.07806,0.30025 0,0.17414 0.08707,0.31826 0.09007,0.14412 0.252209,0.23119 0.165136,0.0841 0.390322,0.0841 0.300248,0 0.528437,-0.11109 0.231191,-0.11109 0.381315,-0.29124 0.150124,-0.18015 0.201166,-0.39333 l 0.156129,0.20718 q -0.03903,0.15012 -0.144119,0.30925 -0.102085,0.15613 -0.267221,0.29424 -0.165136,0.13512 -0.390322,0.22219 -0.222184,0.0841 -0.504417,0.0841 -0.318263,0 -0.555459,-0.1201 -0.234194,-0.1201 -0.366303,-0.32727 -0.129106,-0.21018 -0.129106,-0.47439 0,-0.2402 0.102084,-0.42936 0.102084,-0.19216 0.294243,-0.32427 0.195161,-0.13511 0.468387,-0.20417 0.276228,-0.0721 0.618511,-0.0721 z m 1.368133,-0.81968 v 2.71124 H 59.62968 v -3.24869 h 0.348287 z m 1.14995,-0.56147 -0.009,0.33028 q -0.06005,-0.009 -0.117096,-0.015 -0.05705,-0.006 -0.123102,-0.006 -0.234194,0 -0.41134,0.0871 -0.174144,0.0841 -0.294243,0.2372 -0.120099,0.15012 -0.183151,0.35429 -0.06305,0.20117 -0.07206,0.43236 l -0.132109,0.051 q 0,-0.31826 0.06606,-0.59149 0.06605,-0.27322 0.201166,-0.47739 0.138114,-0.20717 0.345285,-0.32127 0.210174,-0.1171 0.492407,-0.1171 0.06906,0 0.135111,0.012 0.06906,0.009 0.102085,0.024 z m 2.391978,2.64219 v -3.98129 h 0.360298 v 4.61181 h -0.336278 z m -2.254863,-0.9608 v -0.063 q 0,-0.37831 0.08707,-0.68156 0.08707,-0.30625 0.249206,-0.52243 0.165137,-0.21918 0.396328,-0.33328 0.23119,-0.1171 0.522431,-0.1171 0.285236,0 0.504417,0.0931 0.219181,0.0931 0.37531,0.26722 0.159131,0.17415 0.255211,0.41434 0.09908,0.2402 0.144119,0.53445 v 0.80166 q -0.03603,0.27623 -0.132109,0.50742 -0.09608,0.22819 -0.255211,0.39933 -0.159132,0.16814 -0.384318,0.26121 -0.222183,0.0901 -0.513424,0.0901 -0.288238,0 -0.519429,-0.1201 -0.231191,-0.1201 -0.393325,-0.33928 -0.162134,-0.22219 -0.249206,-0.52544 -0.08707,-0.30325 -0.08707,-0.66655 z m 0.360298,-0.063 v 0.063 q 0,0.28524 0.05705,0.52844 0.05705,0.2432 0.174144,0.42335 0.117097,0.18015 0.297245,0.28223 0.180149,0.10209 0.426353,0.10209 0.309255,0 0.519429,-0.1171 0.210173,-0.1201 0.336278,-0.31526 0.126104,-0.19816 0.183151,-0.43236 v -0.93377 q -0.03603,-0.15913 -0.105087,-0.32427 -0.06906,-0.16513 -0.189156,-0.30325 -0.117097,-0.14111 -0.300248,-0.22518 -0.180149,-0.0871 -0.438362,-0.0871 -0.249206,0 -0.429355,0.10209 -0.180149,0.10208 -0.300248,0.28523 -0.117097,0.18015 -0.174144,0.42335 -0.05705,0.24321 -0.05705,0.52844 z m 4.603809,-1.05687 v 2.71124 h -0.357295 v -3.24869 h 0.348287 z m 1.14995,-0.56147 -0.009,0.33028 q -0.06005,-0.009 -0.117096,-0.015 -0.05705,-0.006 -0.123102,-0.006 -0.234194,0 -0.41134,0.0871 -0.174144,0.0841 -0.294243,0.2372 -0.120099,0.15012 -0.183151,0.35429 -0.06305,0.20117 -0.07206,0.43236 l -0.132109,0.051 q 0,-0.31826 0.06606,-0.59149 0.06605,-0.27322 0.201166,-0.47739 0.138114,-0.20717 0.345285,-0.32127 0.210174,-0.1171 0.492407,-0.1171 0.06906,0 0.135111,0.012 0.06906,0.009 0.102085,0.024 z m 1.536272,3.33276 q -0.318263,0 -0.585484,-0.1171 -0.264218,-0.1171 -0.462381,-0.33027 -0.195162,-0.21318 -0.303251,-0.50442 -0.105087,-0.29424 -0.105087,-0.64253 v -0.12911 q 0,-0.37531 0.111092,-0.67856 0.111092,-0.30325 0.306253,-0.51943 0.195161,-0.21617 0.444367,-0.33027 0.252208,-0.1171 0.528437,-0.1171 0.309255,0 0.549454,0.1111 0.240198,0.10809 0.402332,0.30925 0.165136,0.19817 0.249206,0.47139 0.08407,0.27022 0.08407,0.59749 v 0.21919 H 67.684345 V 150.445 h 2.101736 v -0.042 q -0.006,-0.27323 -0.111092,-0.51042 -0.102084,-0.2402 -0.306253,-0.39033 -0.204168,-0.15012 -0.510421,-0.15012 -0.228189,0 -0.420348,0.0961 -0.189156,0.0961 -0.32727,0.27623 -0.135112,0.17714 -0.210174,0.42335 -0.07206,0.2432 -0.07206,0.54044 v 0.12911 q 0,0.27022 0.07806,0.50442 0.08107,0.23119 0.228189,0.40833 0.150124,0.17715 0.354293,0.27623 0.204168,0.0991 0.450372,0.0991 0.288238,0 0.510421,-0.10508 0.222184,-0.10809 0.39933,-0.33928 l 0.225186,0.17414 q -0.105087,0.15613 -0.264218,0.28824 -0.156129,0.13211 -0.37531,0.21017 -0.219181,0.0781 -0.510422,0.0781 z m 3.674039,-0.64253 v -1.67539 q 0,-0.23119 -0.09608,-0.39933 -0.09608,-0.16814 -0.282234,-0.25821 -0.186153,-0.0901 -0.459379,-0.0901 -0.252208,0 -0.450372,0.0901 -0.195161,0.0871 -0.309256,0.2372 -0.111091,0.14712 -0.111091,0.32727 l -0.360298,-0.003 q 0,-0.18315 0.09007,-0.35429 0.09007,-0.17114 0.255211,-0.30625 0.165137,-0.13511 0.393325,-0.21318 0.231191,-0.0811 0.507419,-0.0811 0.348288,0 0.612506,0.1171 0.267221,0.1171 0.417345,0.35129 0.150124,0.23419 0.150124,0.58849 v 1.57029 q 0,0.16814 0.02402,0.34829 0.02702,0.18015 0.07506,0.29725 v 0.036 H 72.67347 q -0.03603,-0.10809 -0.05705,-0.27023 -0.01801,-0.16513 -0.01801,-0.31225 z m 0.08407,-1.30908 0.006,0.27622 H 71.9829 q -0.276229,0 -0.49541,0.0511 -0.216178,0.048 -0.366302,0.14411 -0.150124,0.0931 -0.231191,0.22519 -0.07806,0.13211 -0.07806,0.30025 0,0.17414 0.08707,0.31826 0.09007,0.14412 0.252208,0.23119 0.165137,0.0841 0.390323,0.0841 0.300248,0 0.528436,-0.11109 0.231191,-0.11109 0.381315,-0.29124 0.150124,-0.18015 0.201167,-0.39333 l 0.156129,0.20718 q -0.03903,0.15012 -0.144119,0.30925 -0.102085,0.15613 -0.267221,0.29424 -0.165137,0.13512 -0.390323,0.22219 -0.222183,0.0841 -0.504416,0.0841 -0.318263,0 -0.555459,-0.1201 -0.234194,-0.1201 -0.366303,-0.32727 -0.129106,-0.21018 -0.129106,-0.47439 0,-0.2402 0.102084,-0.42936 0.102084,-0.19216 0.294243,-0.32427 0.195161,-0.13511 0.468387,-0.20417 0.276228,-0.0721 0.618511,-0.0721 z m 3.121582,1.26104 v -3.98129 h 0.360298 v 4.61181 h -0.336278 z m -2.254863,-0.9608 v -0.063 q 0,-0.37831 0.08707,-0.68156 0.08707,-0.30625 0.249206,-0.52243 0.165137,-0.21918 0.396328,-0.33328 0.231191,-0.1171 0.522431,-0.1171 0.285236,0 0.504417,0.0931 0.219181,0.0931 0.37531,0.26722 0.159131,0.17415 0.255211,0.41434 0.09908,0.2402 0.144119,0.53445 v 0.80166 q -0.03603,0.27623 -0.132109,0.50742 -0.09608,0.22819 -0.255211,0.39933 -0.159132,0.16814 -0.384318,0.26121 -0.222183,0.0901 -0.513424,0.0901 -0.288238,0 -0.519429,-0.1201 -0.231191,-0.1201 -0.393325,-0.33928 -0.162134,-0.22219 -0.249206,-0.52544 -0.08707,-0.30325 -0.08707,-0.66655 z m 0.360298,-0.063 v 0.063 q 0,0.28524 0.05705,0.52844 0.05705,0.2432 0.174144,0.42335 0.117097,0.18015 0.297246,0.28223 0.180148,0.10209 0.426352,0.10209 0.309255,0 0.519429,-0.1171 0.210173,-0.1201 0.336278,-0.31526 0.126104,-0.19816 0.183151,-0.43236 v -0.93377 q -0.03603,-0.15913 -0.105087,-0.32427 -0.06906,-0.16513 -0.189156,-0.30325 -0.117097,-0.14111 -0.300248,-0.22518 -0.180149,-0.0871 -0.438362,-0.0871 -0.249206,0 -0.429355,0.10209 -0.180149,0.10208 -0.300248,0.28523 -0.117097,0.18015 -0.174144,0.42335 -0.05705,0.24321 -0.05705,0.52844 z"
       id="text6"
       style="font-weight:300;font-size:6.14908px;line-height:1.25;font-family:Roboto;-inkscape-font-specification:'Roboto, Light';text-align:center;letter-spacing:-0.226184px;text-orientation:upright;text-anchor:middle;fill:#4b4b4b;stroke-width:2.9856;stroke-linecap:round;stroke-linejoin:round;stroke-miterlimit:1.5;paint-order:fill markers stroke"
       aria-label="forward read" /><path
       d="m 104.17715,124.72091 q 0,-0.13211 -0.0661,-0.26122 -0.0661,-0.12911 -0.25522,-0.2372 -0.18615,-0.10808 -0.54945,-0.18315 -0.27022,-0.06 -0.4834,-0.13511 -0.21017,-0.0751 -0.35429,-0.18015 -0.14412,-0.10508 -0.21918,-0.25221 -0.0751,-0.14712 -0.0751,-0.34828 0,-0.18015 0.0781,-0.33928 0.0811,-0.16214 0.22819,-0.28224 0.15012,-0.1231 0.3603,-0.19216 0.21317,-0.0691 0.47739,-0.0691 0.37531,0 0.64253,0.1291 0.27022,0.12611 0.41134,0.34529 0.14412,0.21918 0.14412,0.49541 h -0.3573 q 0,-0.16814 -0.0991,-0.31826 -0.0961,-0.15013 -0.28523,-0.24621 -0.18616,-0.0961 -0.45638,-0.0961 -0.27923,0 -0.45337,0.0841 -0.17415,0.0841 -0.25521,0.21318 -0.0781,0.12911 -0.0781,0.26722 0,0.10809 0.033,0.19816 0.036,0.0871 0.1261,0.16214 0.0931,0.0751 0.26422,0.14111 0.17114,0.0661 0.44437,0.12911 0.39332,0.0871 0.64253,0.21318 0.25221,0.1231 0.37231,0.30625 0.12009,0.18015 0.12009,0.43836 0,0.20117 -0.0841,0.36931 -0.0841,0.16513 -0.24321,0.28523 -0.15612,0.1201 -0.37831,0.18616 -0.21918,0.0661 -0.4924,0.0661 -0.41134,0 -0.69658,-0.13511 -0.28223,-0.13812 -0.42935,-0.3603 -0.14412,-0.22518 -0.14412,-0.47739 h 0.35729 q 0.018,0.25221 0.15913,0.39933 0.14112,0.14412 0.34529,0.20417 0.20717,0.06 0.40834,0.06 0.27622,0 0.46238,-0.0811 0.18615,-0.0811 0.28223,-0.21318 0.0961,-0.13211 0.0961,-0.28523 z m 2.1728,-2.42 v 0.29424 h -1.62735 v -0.29424 z m -1.02985,-0.83469 h 0.35729 v 3.29372 q 0,0.22518 0.0601,0.33928 0.06,0.11409 0.15613,0.15313 0.0961,0.039 0.20717,0.039 0.0811,0 0.15613,-0.009 0.0751,-0.012 0.13511,-0.024 l 0.015,0.30325 q -0.066,0.021 -0.17114,0.033 -0.10508,0.015 -0.21017,0.015 -0.20717,0 -0.3663,-0.0751 -0.15913,-0.0781 -0.24921,-0.26422 -0.0901,-0.18916 -0.0901,-0.51342 z m 4.16644,3.76811 v 0.31526 h -2.26687 v -0.31526 z m -2.15878,-4.05635 v 4.37161 h -0.36931 v -4.37161 z m 3.01649,0 v 4.37161 h -0.3693 v -4.37161 z m 2.03568,2.01166 v 0.31826 h -2.15878 v -0.31826 z m 0.30326,-2.01166 v 0.31826 h -2.46204 v -0.31826 z m 0.51542,0 h 1.42018 q 0.45337,0 0.78665,0.14712 0.33327,0.14712 0.51342,0.43536 0.18315,0.28524 0.18315,0.70258 0,0.30926 -0.13211,0.56147 -0.1291,0.2522 -0.35729,0.42334 -0.22819,0.16814 -0.52844,0.2312 l -0.1291,0.048 h -1.51626 l -0.006,-0.31526 h 1.27005 q 0.34228,0 0.57047,-0.13211 0.22819,-0.13211 0.34228,-0.34829 0.1171,-0.21918 0.1171,-0.46839 0,-0.29724 -0.12911,-0.51342 -0.1261,-0.21918 -0.37531,-0.33628 -0.2492,-0.1171 -0.6095,-0.1171 h -1.05087 v 4.05335 h -0.36931 z m 2.69923,4.37161 -1.13193,-1.95461 0.39633,-0.003 1.12893,1.91859 v 0.039 z"
       id="text6-8"
       style="font-weight:300;font-size:6.14908px;line-height:1.25;font-family:Roboto;-inkscape-font-specification:'Roboto, Light';text-align:center;letter-spacing:-0.226184px;text-orientation:upright;text-anchor:middle;fill:#4b4b4b;stroke-width:2.9856;stroke-linecap:round;stroke-linejoin:round;stroke-miterlimit:1.5;paint-order:fill markers stroke"
       aria-label="stLFR" /><path
       d="m 142.94902,149.64034 v 2.71124 h -0.35729 v -3.24869 h 0.34829 z m 1.14995,-0.56147 -0.009,0.33028 q -0.06,-0.009 -0.1171,-0.015 -0.0571,-0.006 -0.1231,-0.006 -0.2342,0 -0.41134,0.0871 -0.17415,0.0841 -0.29425,0.2372 -0.12009,0.15012 -0.18315,0.35429 -0.0631,0.20117 -0.0721,0.43236 l -0.13211,0.051 q 0,-0.31826 0.0661,-0.59149 0.066,-0.27322 0.20117,-0.47739 0.13811,-0.20717 0.34528,-0.32127 0.21017,-0.1171 0.49241,-0.1171 0.069,0 0.13511,0.012 0.0691,0.009 0.10208,0.024 z m 1.53628,3.33276 q -0.31827,0 -0.58549,-0.1171 -0.26422,-0.1171 -0.46238,-0.33027 -0.19516,-0.21318 -0.30325,-0.50442 -0.10509,-0.29424 -0.10509,-0.64253 v -0.12911 q 0,-0.37531 0.11109,-0.67856 0.1111,-0.30325 0.30626,-0.51943 0.19516,-0.21617 0.44436,-0.33027 0.25221,-0.1171 0.52844,-0.1171 0.30926,0 0.54945,0.1111 0.2402,0.10809 0.40234,0.30925 0.16513,0.19817 0.2492,0.47139 0.0841,0.27022 0.0841,0.59749 v 0.21919 h -2.45903 V 150.445 h 2.10174 v -0.042 q -0.006,-0.27323 -0.11109,-0.51042 -0.10209,-0.2402 -0.30626,-0.39033 -0.20417,-0.15012 -0.51042,-0.15012 -0.22819,0 -0.42035,0.0961 -0.18915,0.0961 -0.32727,0.27623 -0.13511,0.17714 -0.21017,0.42335 -0.0721,0.2432 -0.0721,0.54044 v 0.12911 q 0,0.27022 0.0781,0.50442 0.0811,0.23119 0.22819,0.40833 0.15013,0.17715 0.3543,0.27623 0.20416,0.0991 0.45037,0.0991 0.28824,0 0.51042,-0.10508 0.22218,-0.10809 0.39933,-0.33928 l 0.22519,0.17414 q -0.10509,0.15613 -0.26422,0.28824 -0.15613,0.13211 -0.37531,0.21017 -0.21918,0.0781 -0.51042,0.0781 z m 2.61716,-0.40534 1.04186,-2.9034 h 0.36931 l -1.21601,3.24869 h -0.26121 z m -0.94278,-2.9034 1.05387,2.91241 0.0571,0.33628 h -0.26422 l -1.21901,-3.24869 z m 3.93225,3.30874 q -0.31826,0 -0.58548,-0.1171 -0.26422,-0.1171 -0.46238,-0.33027 -0.19516,-0.21318 -0.30325,-0.50442 -0.10509,-0.29424 -0.10509,-0.64253 v -0.12911 q 0,-0.37531 0.11109,-0.67856 0.11109,-0.30325 0.30625,-0.51943 0.19517,-0.21617 0.44437,-0.33027 0.25221,-0.1171 0.52844,-0.1171 0.30925,0 0.54945,0.1111 0.2402,0.10809 0.40233,0.30925 0.16514,0.19817 0.24921,0.47139 0.0841,0.27022 0.0841,0.59749 v 0.21919 h -2.45903 V 150.445 h 2.10173 v -0.042 q -0.006,-0.27323 -0.11109,-0.51042 -0.10208,-0.2402 -0.30625,-0.39033 -0.20417,-0.15012 -0.51042,-0.15012 -0.22819,0 -0.42035,0.0961 -0.18916,0.0961 -0.32727,0.27623 -0.13511,0.17714 -0.21017,0.42335 -0.0721,0.2432 -0.0721,0.54044 v 0.12911 q 0,0.27022 0.0781,0.50442 0.0811,0.23119 0.22819,0.40833 0.15012,0.17715 0.35429,0.27623 0.20417,0.0991 0.45038,0.0991 0.28823,0 0.51042,-0.10508 0.22218,-0.10809 0.39933,-0.33928 l 0.22518,0.17414 q -0.10508,0.15613 -0.26422,0.28824 -0.15612,0.13211 -0.37531,0.21017 -0.21918,0.0781 -0.51042,0.0781 z m 2.0557,-2.77129 v 2.71124 h -0.35729 v -3.24869 h 0.34829 z m 1.14995,-0.56147 -0.009,0.33028 q -0.06,-0.009 -0.1171,-0.015 -0.0571,-0.006 -0.1231,-0.006 -0.2342,0 -0.41134,0.0871 -0.17415,0.0841 -0.29425,0.2372 -0.12009,0.15012 -0.18315,0.35429 -0.063,0.20117 -0.0721,0.43236 l -0.13211,0.051 q 0,-0.31826 0.0661,-0.59149 0.066,-0.27322 0.20117,-0.47739 0.13811,-0.20717 0.34528,-0.32127 0.21017,-0.1171 0.49241,-0.1171 0.0691,0 0.13511,0.012 0.0691,0.009 0.10208,0.024 z m 2.28389,2.44402 q 0,-0.13211 -0.0661,-0.26121 -0.0661,-0.12911 -0.25521,-0.2372 -0.18616,-0.10809 -0.54946,-0.18315 -0.27022,-0.06 -0.4834,-0.13511 -0.21017,-0.0751 -0.35429,-0.18015 -0.14412,-0.10509 -0.21918,-0.25221 -0.0751,-0.14712 -0.0751,-0.34829 0,-0.18015 0.0781,-0.33928 0.0811,-0.16213 0.22819,-0.28223 0.15013,-0.1231 0.3603,-0.19216 0.21318,-0.0691 0.47739,-0.0691 0.37531,0 0.64253,0.12911 0.27023,0.12611 0.41134,0.34529 0.14412,0.21918 0.14412,0.49541 h -0.35729 q 0,-0.16814 -0.0991,-0.31827 -0.0961,-0.15012 -0.28524,-0.2462 -0.18615,-0.0961 -0.45638,-0.0961 -0.27923,0 -0.45337,0.0841 -0.17414,0.0841 -0.25521,0.21318 -0.0781,0.1291 -0.0781,0.26722 0,0.10809 0.033,0.19816 0.036,0.0871 0.12611,0.16213 0.0931,0.0751 0.26421,0.14112 0.17115,0.066 0.44437,0.12911 0.39333,0.0871 0.64253,0.21317 0.25221,0.1231 0.37231,0.30626 0.1201,0.18014 0.1201,0.43836 0,0.20116 -0.0841,0.3693 -0.0841,0.16514 -0.2432,0.28524 -0.15613,0.1201 -0.37831,0.18615 -0.21919,0.0661 -0.49241,0.0661 -0.41134,0 -0.69658,-0.13511 -0.28223,-0.13812 -0.42935,-0.3603 -0.14412,-0.22519 -0.14412,-0.4774 h 0.35729 q 0.018,0.25221 0.15914,0.39933 0.14111,0.14412 0.34528,0.20417 0.20717,0.0601 0.40834,0.0601 0.27623,0 0.46238,-0.0811 0.18615,-0.0811 0.28223,-0.21317 0.0961,-0.13211 0.0961,-0.28524 z m 2.19982,0.88874 q -0.31826,0 -0.58548,-0.1171 -0.26422,-0.1171 -0.46238,-0.33027 -0.19516,-0.21318 -0.30325,-0.50442 -0.10509,-0.29424 -0.10509,-0.64253 v -0.12911 q 0,-0.37531 0.11109,-0.67856 0.11109,-0.30325 0.30626,-0.51943 0.19516,-0.21617 0.44436,-0.33027 0.25221,-0.1171 0.52844,-0.1171 0.30925,0 0.54945,0.1111 0.2402,0.10809 0.40234,0.30925 0.16513,0.19817 0.2492,0.47139 0.0841,0.27022 0.0841,0.59749 v 0.21919 h -2.45903 V 150.445 h 2.10174 v -0.042 q -0.006,-0.27323 -0.1111,-0.51042 -0.10208,-0.2402 -0.30625,-0.39033 -0.20417,-0.15012 -0.51042,-0.15012 -0.22819,0 -0.42035,0.0961 -0.18915,0.0961 -0.32727,0.27623 -0.13511,0.17714 -0.21017,0.42335 -0.0721,0.2432 -0.0721,0.54044 v 0.12911 q 0,0.27022 0.0781,0.50442 0.0811,0.23119 0.22819,0.40833 0.15013,0.17715 0.35429,0.27623 0.20417,0.0991 0.45038,0.0991 0.28823,0 0.51042,-0.10508 0.22218,-0.10809 0.39933,-0.33928 l 0.22518,0.17414 q -0.10508,0.15613 -0.26421,0.28824 -0.15613,0.13211 -0.37531,0.21017 -0.21919,0.0781 -0.51043,0.0781 z m 3.32776,-2.77129 v 2.71124 h -0.3573 v -3.24869 h 0.34829 z m 1.14995,-0.56147 -0.009,0.33028 q -0.06,-0.009 -0.1171,-0.015 -0.057,-0.006 -0.1231,-0.006 -0.23419,0 -0.41134,0.0871 -0.17414,0.0841 -0.29424,0.2372 -0.1201,0.15012 -0.18315,0.35429 -0.063,0.20117 -0.0721,0.43236 l -0.13211,0.051 q 0,-0.31826 0.066,-0.59149 0.0661,-0.27322 0.20117,-0.47739 0.13811,-0.20717 0.34529,-0.32127 0.21017,-0.1171 0.4924,-0.1171 0.0691,0 0.13511,0.012 0.0691,0.009 0.10209,0.024 z m 1.53627,3.33276 q -0.31826,0 -0.58548,-0.1171 -0.26422,-0.1171 -0.46239,-0.33027 -0.19516,-0.21318 -0.30325,-0.50442 -0.10508,-0.29424 -0.10508,-0.64253 v -0.12911 q 0,-0.37531 0.11109,-0.67856 0.11109,-0.30325 0.30625,-0.51943 0.19516,-0.21617 0.44437,-0.33027 0.25221,-0.1171 0.52844,-0.1171 0.30925,0 0.54945,0.1111 0.2402,0.10809 0.40233,0.30925 0.16514,0.19817 0.24921,0.47139 0.0841,0.27022 0.0841,0.59749 v 0.21919 H 163.7052 V 150.445 h 2.10173 v -0.042 q -0.006,-0.27323 -0.11109,-0.51042 -0.10208,-0.2402 -0.30625,-0.39033 -0.20417,-0.15012 -0.51042,-0.15012 -0.22819,0 -0.42035,0.0961 -0.18916,0.0961 -0.32727,0.27623 -0.13511,0.17714 -0.21018,0.42335 -0.072,0.2432 -0.072,0.54044 v 0.12911 q 0,0.27022 0.0781,0.50442 0.0811,0.23119 0.22819,0.40833 0.15012,0.17715 0.35429,0.27623 0.20417,0.0991 0.45037,0.0991 0.28824,0 0.51042,-0.10508 0.22219,-0.10809 0.39933,-0.33928 l 0.22519,0.17414 q -0.10509,0.15613 -0.26422,0.28824 -0.15613,0.13211 -0.37531,0.21017 -0.21918,0.0781 -0.51042,0.0781 z m 3.67404,-0.64253 v -1.67539 q 0,-0.23119 -0.0961,-0.39933 -0.0961,-0.16814 -0.28223,-0.25821 -0.18616,-0.0901 -0.45938,-0.0901 -0.25221,0 -0.45037,0.0901 -0.19517,0.0871 -0.30926,0.2372 -0.11109,0.14712 -0.11109,0.32727 l -0.3603,-0.003 q 0,-0.18315 0.0901,-0.35429 0.0901,-0.17114 0.25522,-0.30625 0.16513,-0.13511 0.39332,-0.21318 0.23119,-0.0811 0.50742,-0.0811 0.34829,0 0.61251,0.1171 0.26722,0.1171 0.41734,0.35129 0.15012,0.23419 0.15012,0.58849 v 1.57029 q 0,0.16814 0.024,0.34829 0.027,0.18015 0.0751,0.29725 v 0.036 h -0.38132 q -0.036,-0.10809 -0.0571,-0.27023 -0.018,-0.16513 -0.018,-0.31225 z m 0.0841,-1.30908 0.006,0.27622 h -0.70558 q -0.27623,0 -0.49541,0.0511 -0.21618,0.048 -0.3663,0.14411 -0.15013,0.0931 -0.23119,0.22519 -0.0781,0.13211 -0.0781,0.30025 0,0.17414 0.0871,0.31826 0.0901,0.14412 0.2522,0.23119 0.16514,0.0841 0.39033,0.0841 0.30024,0 0.52843,-0.11109 0.23119,-0.11109 0.38132,-0.29124 0.15012,-0.18015 0.20116,-0.39333 l 0.15613,0.20718 q -0.039,0.15012 -0.14412,0.30925 -0.10208,0.15613 -0.26722,0.29424 -0.16513,0.13512 -0.39032,0.22219 -0.22218,0.0841 -0.50442,0.0841 -0.31826,0 -0.55545,-0.1201 -0.2342,-0.1201 -0.36631,-0.32727 -0.1291,-0.21018 -0.1291,-0.47439 0,-0.2402 0.10208,-0.42936 0.10208,-0.19216 0.29424,-0.32427 0.19516,-0.13511 0.46839,-0.20417 0.27623,-0.0721 0.61851,-0.0721 z m 3.12158,1.26104 v -3.98129 h 0.3603 v 4.61181 h -0.33628 z m -2.25486,-0.9608 v -0.063 q 0,-0.37831 0.0871,-0.68156 0.0871,-0.30625 0.24921,-0.52243 0.16513,-0.21918 0.39632,-0.33328 0.23119,-0.1171 0.52243,-0.1171 0.28524,0 0.50442,0.0931 0.21918,0.0931 0.37531,0.26722 0.15913,0.17415 0.25521,0.41434 0.0991,0.2402 0.14412,0.53445 v 0.80166 q -0.036,0.27623 -0.13211,0.50742 -0.0961,0.22819 -0.25521,0.39933 -0.15913,0.16814 -0.38432,0.26121 -0.22218,0.0901 -0.51342,0.0901 -0.28824,0 -0.51943,-0.1201 -0.23119,-0.1201 -0.39332,-0.33928 -0.16214,-0.22219 -0.24921,-0.52544 -0.0871,-0.30325 -0.0871,-0.66655 z m 0.3603,-0.063 v 0.063 q 0,0.28524 0.057,0.52844 0.0571,0.2432 0.17415,0.42335 0.11709,0.18015 0.29724,0.28223 0.18015,0.10209 0.42635,0.10209 0.30926,0 0.51943,-0.1171 0.21018,-0.1201 0.33628,-0.31526 0.12611,-0.19816 0.18315,-0.43236 v -0.93377 q -0.036,-0.15913 -0.10508,-0.32427 -0.0691,-0.16513 -0.18916,-0.30325 -0.1171,-0.14111 -0.30025,-0.22518 -0.18015,-0.0871 -0.43836,-0.0871 -0.24921,0 -0.42936,0.10209 -0.18014,0.10208 -0.30024,0.28523 -0.1171,0.18015 -0.17415,0.42335 -0.057,0.24321 -0.057,0.52844 z"
       id="text6-7"
       style="font-weight:300;font-size:6.14908px;line-height:1.25;font-family:Roboto;-inkscape-font-specification:'Roboto, Light';text-align:center;letter-spacing:-0.226184px;text-orientation:upright;text-anchor:middle;fill:#4b4b4b;stroke-width:2.9856;stroke-linecap:round;stroke-linejoin:round;stroke-miterlimit:1.5;paint-order:fill markers stroke"
       aria-label="reverse read" /><path
       style="fill:none;fill-opacity:1;stroke:#c9c9c9;stroke-width:0.434999;stroke-linecap:butt;stroke-linejoin:round;stroke-miterlimit:1.5;stroke-dasharray:none;stroke-dashoffset:0;stroke-opacity:1;paint-order:fill markers stroke"
       d="m 79.96381,149.94168 h 27.10262 v -2.32031"
       id="path14"
       sodipodi:nodetypes="ccc" /><path
       style="fill:none;fill-opacity:1;stroke:#c9c9c9;stroke-width:0.434999;stroke-linecap:butt;stroke-linejoin:round;stroke-miterlimit:1.5;stroke-dasharray:none;stroke-dashoffset:0;stroke-opacity:1;paint-order:fill markers stroke"
       d="M 41.138074,149.94168 H 14.035469 v -2.32031"
       id="path14-9"
       sodipodi:nodetypes="ccc" /><path
       style="fill:none;fill-opacity:1;stroke:#c9c9c9;stroke-width:0.434999;stroke-linecap:butt;stroke-linejoin:round;stroke-miterlimit:1.5;stroke-dasharray:none;stroke-dashoffset:0;stroke-opacity:1;paint-order:fill markers stroke"
       d="m 176.80135,149.94168 h 27.10262 v -2.32031"
       id="path14-3"
       sodipodi:nodetypes="ccc" /><path
       style="fill:none;fill-opacity:1;stroke:#c9c9c9;stroke-width:0.434999;stroke-linecap:butt;stroke-linejoin:round;stroke-miterlimit:1.5;stroke-dasharray:none;stroke-dashoffset:0;stroke-opacity:1;paint-order:fill markers stroke"
       d="m 137.97558,149.94168 h -27.10262 v -2.32031"
       id="path14-9-7"
       sodipodi:nodetypes="ccc" /><path
       d="m -7.5290089,131.5126 q 0.4057368,0 0.6832084,0.12303 0.2800892,0.12041 0.4554722,0.33244 0.1780006,0.21203 0.2722363,0.4895 0.096853,0.27747 0.1335005,0.59159 0.036647,0.31412 0.036647,0.63609 0,0.65965 -0.062824,1.0968 -0.060206,0.43453 -0.2251185,0.64918 -0.1649123,0.21726 -0.4816488,0.21726 -0.1622947,0 -0.2827069,-0.0785 -0.1177945,-0.0785 -0.1937066,-0.19894 -0.073294,-0.11779 -0.1073239,-0.24344 -0.03403,-0.12827 -0.031412,-0.2225 h -0.020941 q -0.049735,0.12041 -0.1361181,0.23821 -0.086383,0.11517 -0.2277362,0.19108 -0.1413534,0.0785 -0.3507659,0.0785 -0.2853246,0 -0.4607076,-0.15705 -0.1727653,-0.15445 -0.251295,-0.42407 -0.07853,-0.27223 -0.07853,-0.61776 0,-0.68321 0.2696186,-1.01565 0.2722363,-0.33506 0.7565028,-0.33506 0.1832359,0 0.3507659,0.0393 0.16753,0.0393 0.3874132,0.15706 v 1.54704 q 0,0.2827 0.049736,0.43191 0.049735,0.14659 0.1335005,0.20156 0.083765,0.055 0.1858536,0.055 0.1649123,0 0.2329714,-0.21465 0.068059,-0.21465 0.081147,-0.5785 0.013088,-0.36385 0.013088,-0.81147 0,-0.37433 -0.041882,-0.69892 -0.041882,-0.3272 -0.159677,-0.57326 -0.1177946,-0.24606 -0.3402954,-0.3848 -0.2225008,-0.13874 -0.5837374,-0.13874 -0.2565303,0 -0.5549432,0.0942 -0.2984128,0.0942 -0.6334728,0.38741 l -0.2512951,-0.29317 q 0.350766,-0.30627 0.7172379,-0.43715 0.3690896,-0.1335 0.7172379,-0.1335 z m -0.2827069,1.6753 q -0.3560013,0 -0.4895018,0.26176 -0.1308828,0.25915 -0.1308828,0.76436 0,0.38479 0.089,0.62824 0.089,0.24082 0.3272071,0.24082 0.183236,0 0.2879422,-0.0838 0.1073239,-0.0838 0.1622947,-0.19108 0.057588,-0.10995 0.089,-0.18586 v -1.35594 q -0.151824,-0.0785 -0.33506,-0.0785 z m 3.2499856,1.68315 q 0.3193541,0 0.5025901,-0.11779 0.1832359,-0.1178 0.1832359,-0.31936 0,-0.12303 -0.047118,-0.21465 -0.0445,-0.0916 -0.1858536,-0.16491 -0.1413534,-0.0759 -0.434531,-0.14921 -0.2853245,-0.0707 -0.4973547,-0.16229 -0.2094125,-0.0942 -0.3272071,-0.24344 -0.1151769,-0.14921 -0.1151769,-0.38742 0,-0.34814 0.2905599,-0.5497 0.2905599,-0.20156 0.7565028,-0.20156 0.3324423,0 0.578502,0.089 0.2486774,0.089 0.4214427,0.21465 l -0.1937065,0.29841 q -0.1544418,-0.10733 -0.3455307,-0.17538 -0.1884713,-0.0707 -0.4554722,-0.0707 -0.3245894,0 -0.4607076,0.10209 -0.1361181,0.0995 -0.1361181,0.25915 0,0.12302 0.065441,0.20417 0.068059,0.0785 0.2277361,0.14136 0.1596771,0.0628 0.4397663,0.13873 0.2696186,0.0733 0.4711782,0.17277 0.2015595,0.0995 0.3115011,0.26176 0.1125592,0.15968 0.1125592,0.41621 0,0.29318 -0.16753,0.47641 -0.16753,0.18062 -0.434531,0.26439 -0.2643833,0.0811 -0.5601785,0.0811 -0.3743248,0 -0.6387082,-0.10732 -0.2617656,-0.10994 -0.4397662,-0.26438 l 0.251295,-0.29056 q 0.1622947,0.1335 0.3717072,0.21726 0.2120302,0.0812 0.4554722,0.0812 z m 2.3966296,-0.9188 q 0.018324,0.47903 0.2512951,0.69892 0.2355891,0.21726 0.5549431,0.21726 0.2120302,0 0.3821779,-0.0628 0.17014767,-0.0628 0.35338363,-0.18586 l 0.20679486,0.29056 q -0.19108892,0.15183 -0.43976629,0.23821 -0.2486774,0.0864 -0.5078254,0.0864 -0.4031191,0 -0.685826,-0.18061 -0.2800892,-0.18062 -0.4292956,-0.50259 -0.1465888,-0.32459 -0.1465888,-0.75127 0,-0.41883 0.1465888,-0.74342 0.1492064,-0.32459 0.418825,-0.51044 0.2722363,-0.18585 0.6387082,-0.18585 0.52091364,0 0.81932648,0.36123 0.3010305,0.36124 0.3010305,0.98948 0,0.0707 -0.005235,0.1335 -0.002618,0.0628 -0.005235,0.10732 z m 0.7486498,-1.2303 q -0.3062658,0 -0.5130607,0.21727 -0.2067948,0.21726 -0.2329714,0.67274 h 1.43709342 q -0.007853,-0.44239 -0.19370658,-0.66489 -0.18585364,-0.22512 -0.49735474,-0.22512 z m 2.8023661,-0.36123 q 0.2486774,0 0.4371487,0.0916 0.1910889,0.0916 0.3324423,0.267 l 0.036647,-0.30103 h 0.3743249 v 3.86627 l -0.4397663,-0.055 v -1.40306 q -0.1518241,0.21203 -0.3507659,0.3115 -0.1989419,0.0969 -0.4240604,0.0969 -0.37170723,0 -0.59420803,-0.178 -0.22250081,-0.178 -0.32197175,-0.49997 -0.0994709,-0.32459 -0.0994709,-0.7565 0,-0.41359 0.1204122,-0.73818 0.1204122,-0.32721 0.35338363,-0.51306 0.2355891,-0.18847 0.5758844,-0.18847 z m 0.1099416,0.35338 q -0.68844366,0 -0.68844366,1.08633 0,1.068 0.63609056,1.068 0.2277361,0 0.3978838,-0.12565 0.1727653,-0.12826 0.2853245,-0.29841 v -1.37689 q -0.1073239,-0.16753 -0.2722363,-0.25914 -0.1649123,-0.0942 -0.3586189,-0.0942 z m 1.7055685,3.41081 v -0.3848 h 2.6176565 v 0.3848 z m 4.2970485,-4.99711 q 0.1465888,0 0.2329714,0.089 0.089,0.089 0.089,0.21727 0,0.1335 -0.089,0.22512 -0.086383,0.089 -0.2329714,0.089 -0.1387358,0 -0.2277361,-0.089 -0.089,-0.0916 -0.089,-0.22512 0,-0.12827 0.089,-0.21727 0.089,-0.089 0.2277361,-0.089 z m 0.350766,1.29051 v 2.40824 h 0.777444 v 0.34815 H 6.5587352 v -0.34815 h 0.8507384 v -2.0601 H 6.5849118 v -0.34814 z m 3.2421321,-1.16486 0.439766,0.055 v 3.86628 h -0.384795 l -0.04188,-0.36386 q -0.154442,0.21989 -0.356001,0.32198 -0.198942,0.10208 -0.426678,0.10208 -0.3586191,0 -0.5915906,-0.18061 -0.2329714,-0.18062 -0.3455306,-0.50259 -0.1125593,-0.32459 -0.1125593,-0.75127 0,-0.41359 0.1282652,-0.73818 0.1282652,-0.32721 0.3690896,-0.51306 0.2434417,-0.18847 0.5837377,-0.18847 0.45809,0 0.738179,0.32459 z m -0.623002,1.46065 q -0.345531,0 -0.5313847,0.26962 -0.1858536,0.26962 -0.1858536,0.81671 0,1.07847 0.6622673,1.07847 0.232971,0 0.400501,-0.13088 0.16753,-0.1335 0.277472,-0.30365 v -1.37689 q -0.112559,-0.16753 -0.272236,-0.25914 -0.159678,-0.0942 -0.350766,-0.0942 z m 3.83634,0.0733 -0.154441,1.15962 h 0.42406 v 0.34029 h -0.473796 l -0.109941,0.88739 h -0.376943 l 0.117795,-0.88739 h -0.761738 l -0.115177,0.88739 h -0.376943 l 0.117795,-0.88739 h -0.41359 v -0.34029 h 0.45809 l 0.159677,-1.15962 h -0.42406 v -0.34292 h 0.46856 l 0.115177,-0.8743 h 0.376943 l -0.125648,0.8743 h 0.769591 l 0.115177,-0.8743 h 0.376943 l -0.12303,0.8743 h 0.418825 v 0.34292 z m -1.290504,1.15962 h 0.761738 l 0.159677,-1.15962 h -0.766973 z m 18.23035,-2.43442 q 0.340295,0 0.583737,0.1335 0.243442,0.13088 0.371707,0.35862 0.130883,0.22773 0.130883,0.51306 0,0.24867 -0.08638,0.48688 -0.08638,0.23559 -0.277471,0.49736 -0.188471,0.25914 -0.497355,0.57588 -0.308883,0.31674 -0.753885,0.72247 h 1.698859 l -0.05497,0.37433 h -2.14386 v -0.35862 q 0.510443,-0.4895 0.832414,-0.82718 0.32459,-0.33768 0.502591,-0.58112 0.178,-0.24606 0.246059,-0.45024 0.07068,-0.20417 0.07068,-0.42406 0,-0.30365 -0.170148,-0.47903 -0.170147,-0.17538 -0.473796,-0.17538 -0.267001,0 -0.437148,0.0916 -0.170148,0.0916 -0.340296,0.29317 l -0.303648,-0.23559 q 0.214648,-0.26176 0.473796,-0.38741 0.261766,-0.12826 0.628238,-0.12826 z m 2.721219,0.98947 q 0,-0.17538 0.120412,-0.29841 0.12303,-0.12303 0.301031,-0.12303 0.183236,0 0.303648,0.12303 0.12303,0.12303 0.12303,0.29841 0,0.17538 -0.12303,0.30103 -0.120412,0.12565 -0.303648,0.12565 -0.178001,0 -0.301031,-0.12565 -0.120412,-0.12565 -0.120412,-0.30103 z m 0,1.88733 q 0,-0.17015 0.120412,-0.29579 0.12303,-0.12565 0.301031,-0.12565 0.183236,0 0.303648,0.12565 0.12303,0.12564 0.12303,0.29579 0,0.178 -0.12303,0.30365 -0.120412,0.12303 -0.303648,0.12303 -0.178001,0 -0.301031,-0.12303 -0.120412,-0.12565 -0.120412,-0.30365 z m 3.912253,0.7853 -1.269563,-3.16998 q 0.0026,0.0785 0.01832,0.29841 0.01571,0.21726 0.02879,0.50259 0.01309,0.28271 0.01309,0.56279 v 1.80619 h -0.421443 v -3.60452 h 0.615149 l 1.290505,3.18308 q -0.0026,-0.0759 -0.01832,-0.27748 -0.01571,-0.20417 -0.02879,-0.4895 -0.01309,-0.28794 -0.01309,-0.61253 v -1.80357 h 0.421442 v 3.60452 z m 2.064187,-2.67263 q 0,-0.17538 0.120413,-0.29841 0.123029,-0.12303 0.30103,-0.12303 0.183236,0 0.303648,0.12303 0.12303,0.12303 0.12303,0.29841 0,0.17538 -0.12303,0.30103 -0.120412,0.12565 -0.303648,0.12565 -0.178001,0 -0.30103,-0.12565 -0.120413,-0.12565 -0.120413,-0.30103 z m 0,1.88733 q 0,-0.17015 0.120413,-0.29579 0.123029,-0.12565 0.30103,-0.12565 0.183236,0 0.303648,0.12565 0.12303,0.12564 0.12303,0.29579 0,0.178 -0.12303,0.30365 -0.120412,0.12303 -0.303648,0.12303 -0.178001,0 -0.30103,-0.12303 -0.120413,-0.12565 -0.120413,-0.30365 z m 3.414899,-2.8768 q 0.581119,0 0.879532,0.48165 0.301031,0.48164 0.301031,1.37688 0,0.89786 -0.301031,1.38213 -0.298413,0.48164 -0.879532,0.48164 -0.58112,0 -0.882151,-0.48164 -0.298412,-0.48427 -0.298412,-1.38213 0,-0.89524 0.298412,-1.37688 0.301031,-0.48165 0.882151,-0.48165 z m 0,0.35338 q -0.332443,0 -0.523532,0.35338 -0.191089,0.35077 -0.191089,1.15177 0,0.59945 0.09162,0.94236 l 1.102034,-2.21454 q -0.164913,-0.23297 -0.479031,-0.23297 z m 0.717238,1.50515 q 0,-0.60468 -0.09424,-0.94497 l -1.096798,2.22239 q 0.164912,0.23035 0.473796,0.23035 0.33506,0 0.526149,-0.35338 0.191089,-0.35338 0.191089,-1.15439 z m 1.844304,-0.86906 q 0,-0.17538 0.120412,-0.29841 0.12303,-0.12303 0.301031,-0.12303 0.183235,0 0.303648,0.12303 0.12303,0.12303 0.12303,0.29841 0,0.17538 -0.12303,0.30103 -0.120413,0.12565 -0.303648,0.12565 -0.178001,0 -0.301031,-0.12565 -0.120412,-0.12565 -0.120412,-0.30103 z m 0,1.88733 q 0,-0.17015 0.120412,-0.29579 0.12303,-0.12565 0.301031,-0.12565 0.183235,0 0.303648,0.12565 0.12303,0.12564 0.12303,0.29579 0,0.178 -0.12303,0.30365 -0.120413,0.12303 -0.303648,0.12303 -0.178001,0 -0.301031,-0.12303 -0.120412,-0.12565 -0.120412,-0.30365 z m 4.113812,-0.1335 h -1.426622 l -0.287943,0.9188 h -0.447619 l 1.17271,-3.60452 h 0.58112 l 1.17271,3.60452 h -0.476413 z m -1.308828,-0.37694 h 1.191034 l -0.591591,-1.9266 z m 3.8154,-1.91874 v 3.21448 h -0.452855 v -3.21448 h -1.125592 v -0.39004 h 2.719745 l -0.04712,0.39004 z m 3.469869,2.29568 h -1.426623 l -0.287942,0.9188 h -0.44762 l 1.172711,-3.60452 h 0.581119 l 1.17271,3.60452 h -0.476413 z m -1.308828,-0.37694 h 1.191033 l -0.59159,-1.9266 z m 3.668814,1.35594 q -0.641326,0 -1.023503,-0.46332 -0.379561,-0.46594 -0.379561,-1.40045 0,-0.46594 0.12303,-0.81409 0.125648,-0.34815 0.340296,-0.58112 0.214647,-0.23297 0.484266,-0.34815 0.269619,-0.11517 0.560178,-0.11517 0.353384,0 0.586356,0.10209 0.232971,0.0995 0.445001,0.29317 l -0.274854,0.28533 q -0.321972,-0.30103 -0.753885,-0.30103 -0.261766,0 -0.497355,0.13873 -0.232971,0.13874 -0.37956,0.46071 -0.146589,0.32197 -0.146589,0.87953 0,0.7853 0.243443,1.13345 0.243442,0.34815 0.71462,0.34815 0.366472,0 0.685826,-0.17277 v -1.09941 h -0.709385 l -0.05497,-0.37695 h 1.214593 v 1.71719 q -0.243442,0.1335 -0.520914,0.22511 -0.274854,0.089 -0.657032,0.089 z m 3.221192,-3.7223 q 0.353384,0 0.59159,0.089 0.238207,0.089 0.452855,0.26176 l -0.253913,0.2958 q -0.170148,-0.14397 -0.361236,-0.20418 -0.188472,-0.0628 -0.395267,-0.0628 -0.295795,0 -0.54709,0.14135 -0.251295,0.13874 -0.405737,0.46333 -0.151824,0.32197 -0.151824,0.87429 0,0.53662 0.143971,0.86121 0.146589,0.32459 0.395267,0.46856 0.248677,0.14397 0.554943,0.14397 0.30103,0 0.497355,-0.0916 0.198941,-0.0916 0.340295,-0.20942 l 0.235589,0.29842 q -0.164912,0.15967 -0.429296,0.27747 -0.264383,0.11517 -0.649179,0.11517 -0.439766,0 -0.793149,-0.21203 -0.353384,-0.21464 -0.560179,-0.63085 -0.206795,-0.41621 -0.206795,-1.02089 0,-0.60729 0.209413,-1.02088 0.21203,-0.41621 0.562796,-0.62562 0.350766,-0.21203 0.769591,-0.21203 z m 3.383479,2.7433 h -1.426623 l -0.287942,0.9188 h -0.44762 l 1.17271,-3.60452 h 0.58112 l 1.17271,3.60452 h -0.476413 z m -1.308829,-0.37694 h 1.191034 l -0.59159,-1.9266 z"
       id="text2"
       style="font-size:5.10443px;line-height:1.25;font-family:'Fira Code';-inkscape-font-specification:'Fira Code, Normal';text-align:center;letter-spacing:-0.15297px;text-orientation:upright;text-anchor:middle;white-space:pre;inline-size:79.7377;fill:#4b4b4b;stroke-width:2.01918;stroke-linecap:round;stroke-linejoin:round;stroke-miterlimit:1.5;paint-order:fill markers stroke"
       transform="translate(122.21379)"
       aria-label="@seq_id#     2:N:0:ATAGCA" /><g
       id="g7"
       transform="translate(-44.040518,-40.970172)"><rect
         style="fill:#9f8eb1;fill-opacity:1;stroke:none;stroke-width:0.950264;stroke-linecap:round;stroke-linejoin:round;stroke-miterlimit:1.5;stroke-dasharray:none;stroke-opacity:1;paint-order:fill markers stroke"
         id="rect2"
         width="11.457795"
         height="5.3414545"
         x="181.69406"
         y="171.68945"
         ry="1.4285548" /><path
         d="m 183.99362,172.96229 v 2.78058 h -0.35138 v -2.34184 l -0.70844,0.2583 v -0.31718 l 1.00474,-0.37986 z m 2.48722,2.78058 v 0.2887 h -1.74167 v -0.2887 z m 1.9839,-0.28869 v 0.28869 h -1.81004 v -0.2526 l 0.90597,-1.00854 q 0.16714,-0.18613 0.25831,-0.31528 0.0931,-0.13105 0.12915,-0.23362 0.038,-0.10446 0.038,-0.21272 0,-0.13675 -0.057,-0.24691 -0.0551,-0.11206 -0.16334,-0.17853 -0.10826,-0.0665 -0.26211,-0.0665 -0.18423,0 -0.30769,0.0722 -0.12155,0.0703 -0.18233,0.19752 -0.0608,0.12726 -0.0608,0.2925 h -0.35137 q 0,-0.23362 0.10256,-0.42735 0.10257,-0.19373 0.30389,-0.30768 0.20133,-0.11586 0.49572,-0.11586 0.26211,0 0.44824,0.0931 0.18613,0.0912 0.28489,0.25831 0.10067,0.16524 0.10067,0.38746 0,0.12155 -0.0418,0.24691 -0.0399,0.12345 -0.11206,0.24691 -0.0703,0.12345 -0.16524,0.24311 -0.0931,0.11966 -0.19942,0.23551 l -0.74073,0.80341 z m 1.83006,0.28869 v 0.2887 h -1.74166 v -0.2887 z m 0.68478,-1.55553 h 0.25071 q 0.18423,0 0.30389,-0.0608 0.12155,-0.0627 0.18043,-0.16903 0.0608,-0.10826 0.0608,-0.24312 0,-0.15954 -0.0532,-0.2678 -0.0532,-0.10826 -0.15954,-0.16334 -0.10636,-0.0551 -0.2697,-0.0551 -0.14815,0 -0.26211,0.0589 -0.11206,0.057 -0.17663,0.16334 -0.0627,0.10636 -0.0627,0.25071 h -0.35137 q 0,-0.21082 0.10636,-0.38366 0.10636,-0.17284 0.29819,-0.2754 0.19373,-0.10256 0.44824,-0.10256 0.2507,0 0.43874,0.0893 0.18803,0.0874 0.29249,0.26211 0.10446,0.17284 0.10446,0.43114 0,0.10446 -0.0494,0.22412 -0.0475,0.11776 -0.15005,0.22032 -0.10066,0.10256 -0.2621,0.16904 -0.16144,0.0646 -0.38746,0.0646 h -0.30009 z m 0,0.2887 v -0.21083 h 0.30009 q 0.264,0 0.43684,0.0627 0.17284,0.0627 0.2716,0.16714 0.10066,0.10446 0.14055,0.22982 0.0418,0.12345 0.0418,0.24691 0,0.19372 -0.0665,0.34377 -0.0646,0.15005 -0.18423,0.25451 -0.11776,0.10446 -0.2773,0.15764 -0.15954,0.0532 -0.34758,0.0532 -0.18043,0 -0.33997,-0.0513 -0.15764,-0.0513 -0.2792,-0.14815 -0.12156,-0.0988 -0.18993,-0.24121 -0.0684,-0.14435 -0.0684,-0.32858 h 0.35138 q 0,0.14435 0.0627,0.25261 0.0646,0.10826 0.18234,0.16904 0.11965,0.0589 0.28109,0.0589 0.16145,0 0.2773,-0.0551 0.11776,-0.057 0.18044,-0.17094 0.0646,-0.11396 0.0646,-0.2868 0,-0.17283 -0.0722,-0.28299 -0.0722,-0.11206 -0.20512,-0.16524 -0.13106,-0.0551 -0.30959,-0.0551 z"
         id="text7"
         style="font-size:3.88978px;line-height:1.25;font-family:Roboto;-inkscape-font-specification:'Roboto, Normal';text-align:center;letter-spacing:-0.0635482px;text-orientation:upright;text-anchor:middle;fill:#ffffff;stroke-width:0.838829;stroke-linecap:round;stroke-linejoin:round;stroke-miterlimit:1.5;paint-order:fill markers stroke"
         aria-label="1_2_3" /></g></g></svg>
