<?xml version="1.0" encoding="UTF-8" standalone="no"?>
<!-- Created with Inkscape (http://www.inkscape.org/) -->

<svg
   width="212.27901mm"
   height="34.238998mm"
   viewBox="0 0 212.27901 34.238998"
   version="1.1"
   id="svg1"
   inkscape:version="1.4.4 (dcaf3e7d9e, 2026-05-05)"
   sodipodi:docname="molecule_coverage.svg"
   xmlns:inkscape="http://www.inkscape.org/namespaces/inkscape"
   xmlns:sodipodi="http://sodipodi.sourceforge.net/DTD/sodipodi-0.dtd"
   xmlns="http://www.w3.org/2000/svg"
   xmlns:svg="http://www.w3.org/2000/svg">
  <sodipodi:namedview
     id="namedview1"
     pagecolor="#ffffff"
     bordercolor="#000000"
     borderopacity="0.25"
     inkscape:showpageshadow="2"
     inkscape:pageopacity="0.0"
     inkscape:pagecheckerboard="0"
     inkscape:deskcolor="#d1d1d1"
     inkscape:document-units="mm"
     inkscape:zoom="1.2988637"
     inkscape:cx="309.5013"
     inkscape:cy="-87.769025"
     inkscape:window-width="1536"
     inkscape:window-height="847"
     inkscape:window-x="0"
     inkscape:window-y="0"
     inkscape:window-maximized="1"
     inkscape:current-layer="layer1" />
  <defs
     id="defs1">
    <rect
       x="229.73856"
       y="741.47845"
       width="148.07793"
       height="38.108292"
       id="rect10" />
  </defs>
  <g
     inkscape:label="Layer 1"
     inkscape:groupmode="layer"
     id="layer1"
     transform="translate(49.047325,-312.50759)">
    <path
       style="font-variation-settings:'wght' 600;fill:none;stroke:#d6d6d6;stroke-width:0.455;stroke-linecap:round;stroke-dasharray:0.455, 1.365;stroke-dashoffset:0;stroke-opacity:1;paint-order:markers fill stroke"
       d="M 22.622304,317.08898 H 159.96275"
       id="path1" />
    <text
       xml:space="preserve"
       transform="scale(0.26458333)"
       id="text10"
       style="font-size:37.8932px;font-family:'Montserrat Alternates';-inkscape-font-specification:'Montserrat Alternates, Normal';text-align:center;writing-mode:lr-tb;direction:ltr;white-space:pre;shape-inside:url(#rect10);display:inline;fill:none;stroke:#000000;stroke-width:14.9594;stroke-linecap:square;stroke-linejoin:bevel;stroke-opacity:1;paint-order:fill markers stroke"><tspan
         x="229.73828"
         y="814.41333"
         id="tspan2"><tspan
           dx="0 16.862463 25.653696 13.982643 22.887497 15.763512 19.969734 25.691566 11.709 9.9279938"
           id="tspan1">Interval 1</tspan></tspan></text>
    <path
       style="fill:none;stroke:#679bbd;stroke-width:3.95801;stroke-linecap:round;stroke-linejoin:round;stroke-opacity:1;paint-order:fill markers stroke;fill-opacity:1"
       d="M 22.663418,329.28044 H 159.36891"
       id="path12-5"
       sodipodi:nodetypes="cc" />
    <path
       style="fill:none;stroke:#a77cc8;stroke-width:3.95801;stroke-linecap:round;stroke-linejoin:round;stroke-opacity:1;paint-order:fill markers stroke"
       d="m 22.663418,317.08898 h 10.20546"
       id="path5"
       sodipodi:nodetypes="cc" />
    <path
       style="fill:none;stroke:#a77cc8;stroke-width:3.95801;stroke-linecap:round;stroke-linejoin:round;stroke-opacity:1;paint-order:fill markers stroke"
       d="m 149.73305,317.08898 h 9.63586"
       id="path6"
       sodipodi:nodetypes="cc" />
    <path
       style="fill:none;stroke:#a77cc8;stroke-width:3.95801;stroke-linecap:round;stroke-linejoin:round;stroke-opacity:1;paint-order:fill markers stroke"
       d="m 58.285523,317.08898 h 9.676296"
       id="path7"
       sodipodi:nodetypes="cc" />
    <path
       style="font-size:6.55505px;font-family:'URW Gothic';-inkscape-font-specification:'URW Gothic, Normal';text-align:center;text-anchor:middle;fill:#a77cc8;stroke-width:3.958;stroke-linecap:round;stroke-linejoin:round;paint-order:fill markers stroke"
       d="m -22.205004,319.46848 h 0.485074 v -4.84419 h -0.485074 z m 1.311015,0 h 0.485074 v -3.58562 h -0.485074 z m 0,-4.01825 h 0.485074 v -0.82594 h -0.485074 z m 1.311015,4.01825 h 0.485074 v -1.97307 c 0,-0.39986 0.05244,-0.60962 0.190096,-0.81283 0.190097,-0.27531 0.524404,-0.43919 0.904597,-0.43919 0.353973,0 0.67517,0.14421 0.871822,0.38675 0.170431,0.22287 0.235981,0.48507 0.235981,0.95704 v 1.8813 h 0.485074 v -1.8813 c 0,-0.60307 -0.08522,-0.92427 -0.314642,-1.23235 -0.281867,-0.36053 -0.714501,-0.55718 -1.219239,-0.55718 -0.471964,0 -0.852157,0.17698 -1.153689,0.55062 v -0.46541 h -0.485074 z m 3.998585,0 h 0.485073 v -0.74073 l 0.563735,-0.69483 1.193019,1.43556 h 0.603064 l -1.487996,-1.78298 1.396225,-1.80264 h -0.596509 l -1.671538,2.17628 v -3.43485 h -0.485073 z m 6.7058186,-1.63221 c 0,-0.49163 -0.065551,-0.79316 -0.2425368,-1.10781 -0.3211975,-0.57684 -0.9439268,-0.93081 -1.6322078,-0.93081 -1.042253,0 -1.855079,0.81938 -1.855079,1.86163 0,1.06192 0.832492,1.89441 1.89441,1.89441 0.7800506,0 1.4814409,-0.50474 1.7436429,-1.26512 h -0.5047388 c -0.2032066,0.49163 -0.7079451,0.81938 -1.2520141,0.81938 -0.740721,0 -1.356896,-0.56374 -1.396226,-1.27168 z m -3.2316396,-0.43919 c 0.131101,-0.68828 0.67517,-1.15369 1.356895,-1.15369 0.694836,0 1.2192396,0.43263 1.3896709,1.15369 z m 7.5645246,-2.77279 h -0.4850737 v 1.82886 c -0.3539727,-0.42608 -0.8456015,-0.6555 -1.4093358,-0.6555 -1.0881382,0 -1.9075195,0.81282 -1.9075195,1.88785 0,1.06192 0.8456015,1.86819 1.9534049,1.86819 0.6030646,0 0.9963676,-0.21632 1.3634504,-0.73416 v 0.64895 h 0.4850737 z m -1.9075196,1.6191 c 0.7997161,0 1.442111,0.63584 1.442111,1.42245 0,0.79316 -0.6292848,1.44211 -1.3962256,1.44211 -0.8259363,0 -1.448666,-0.62273 -1.448666,-1.44867 0,-0.7866 0.6227297,-1.41589 1.4027806,-1.41589 z m 4.5492035,3.22509 h 0.4850737 v -2.09107 c -0.00655,-0.64895 0.3539727,-1.0488 1.01603274,-1.10124 v -0.47852 c -0.51784894,0.0262 -0.82593624,0.2032 -1.01603274,0.59651 v -0.5113 h -0.4850737 z m 5.3620343,-1.63221 c 0,-0.49163 -0.06555,-0.79316 -0.2425368,-1.10781 -0.3211975,-0.57684 -0.9439272,-0.93081 -1.6322075,-0.93081 -1.0422529,0 -1.85507909,0.81938 -1.85507909,1.86163 0,1.06192 0.83249133,1.89441 1.89440939,1.89441 0.780051,0 1.4814413,-0.50474 1.7436433,-1.26512 H 2.8615233 c -0.2032066,0.49163 -0.7079454,0.81938 -1.2520146,0.81938 -0.74072061,0 -1.3568953,-0.56374 -1.3962256,-1.27168 z m -3.2316396,-0.43919 c 0.131101,-0.68828 0.67517014,-1.15369 1.3568953,-1.15369 0.6948353,0 1.2192393,0.43263 1.3896706,1.15369 z m 7.5579671,-1.51422 H 7.2992866 v 0.63584 c -0.3605277,-0.49818 -0.793161,-0.72105 -1.4158907,-0.72105 -1.0750282,0 -1.8878544,0.81282 -1.8878544,1.88785 0,1.07503 0.8193812,1.86819 1.9271847,1.86819 0.6096196,0 0.9898125,-0.19665 1.3765604,-0.7145 v 0.62929 h 0.4850737 z m -1.8878543,0.36053 c 0.793161,0 1.4027806,0.61618 1.4027806,1.41589 0,0.81938 -0.6030646,1.44867 -1.3765604,1.44867 -0.8128262,0 -1.435556,-0.63584 -1.435556,-1.45522 0,-0.78005 0.6292848,-1.40934 1.4093358,-1.40934 z m 6.378067,-1.6191 h -0.485074 v 1.82886 c -0.353973,-0.42608 -0.845601,-0.6555 -1.409336,-0.6555 -1.088138,0 -1.9075192,0.81282 -1.9075192,1.88785 0,1.06192 0.8456014,1.86819 1.9534052,1.86819 0.603064,0 0.996367,-0.21632 1.36345,-0.73416 v 0.64895 h 0.485074 z m -1.90752,1.6191 c 0.799716,0 1.442111,0.63584 1.442111,1.42245 0,0.79316 -0.629285,1.44211 -1.396225,1.44211 -0.8259368,0 -1.4486665,-0.62273 -1.4486665,-1.44867 0,-0.7866 0.6227297,-1.41589 1.4027805,-1.41589 z m 2.438477,2.16972 c 0.0066,0.69484 0.458854,1.14058 1.153689,1.14058 0.64895,0 1.094693,-0.45885 1.094693,-1.11436 0,-0.43919 -0.203206,-0.74072 -0.622729,-0.9177 -0.550625,-0.22943 -0.576845,-0.23599 -0.675171,-0.28843 -0.222871,-0.11143 -0.327752,-0.2622 -0.327752,-0.47196 0,-0.28842 0.229427,-0.51785 0.517849,-0.51785 0.314642,0 0.498184,0.18354 0.524404,0.5244 h 0.491629 c -0.01966,-0.57684 -0.432634,-0.97014 -1.009478,-0.97014 -0.583399,0 -1.016033,0.42608 -1.016033,1.00948 0,0.2622 0.09177,0.47851 0.268757,0.64239 0.150766,0.13766 0.157321,0.14421 0.66206,0.34742 0.55718,0.22942 0.694836,0.36053 0.694836,0.68828 0,0.36053 -0.249092,0.62273 -0.603065,0.62273 -0.406413,0 -0.64895,-0.24909 -0.67517,-0.69484 z"
       id="text23-0"
       aria-label="linked reads" />
    <path
       style="font-size:6.55505px;font-family:'URW Gothic';-inkscape-font-specification:'URW Gothic, Normal';text-align:center;text-anchor:middle;fill:#679bbd;stroke-width:3.958;stroke-linecap:round;stroke-linejoin:round;paint-order:fill markers stroke"
       d="m -39.844631,331.65994 h 0.485073 v -3.58561 h -0.485073 z m 0,-4.01824 h 0.485073 v -0.82594 h -0.485073 z m 1.311015,4.01824 h 0.485073 v -1.97307 c 0,-0.39986 0.05244,-0.60962 0.190097,-0.81282 0.190096,-0.27532 0.524404,-0.43919 0.904597,-0.43919 0.353972,0 0.67517,0.14421 0.871821,0.38675 0.170432,0.22287 0.235982,0.48507 0.235982,0.95703 v 1.8813 h 0.485074 v -1.8813 c 0,-0.60306 -0.08522,-0.92426 -0.314643,-1.23235 -0.281867,-0.36052 -0.7145,-0.55718 -1.219239,-0.55718 -0.471963,0 -0.852156,0.17699 -1.153689,0.55063 v -0.46541 h -0.485073 z m 4.247676,0 h 0.485074 v -3.14642 h 0.891486 v -0.43919 h -0.891486 c -0.0066,-0.60306 0.229426,-0.81283 0.891486,-0.81938 v -0.43919 c -0.924262,0 -1.38967,0.42608 -1.37656,1.25857 h -0.557179 v 0.43919 h 0.557179 z m 5.244033,-1.6322 c 0,-0.49163 -0.06555,-0.79317 -0.242536,-1.10781 -0.321198,-0.57684 -0.943928,-0.93082 -1.632208,-0.93082 -1.042253,0 -1.855079,0.81939 -1.855079,1.86164 0,1.06192 0.832491,1.89441 1.894409,1.89441 0.780051,0 1.481442,-0.50474 1.743644,-1.26513 h -0.504739 c -0.203207,0.49163 -0.707945,0.81938 -1.252015,0.81938 -0.74072,0 -1.356895,-0.56373 -1.396225,-1.27167 z m -3.231639,-0.43919 c 0.131101,-0.68828 0.67517,-1.15369 1.356895,-1.15369 0.694835,0 1.219239,0.43263 1.389671,1.15369 z m 3.900252,2.07139 h 0.485074 v -2.09106 c -0.0066,-0.64895 0.353972,-1.04881 1.016032,-1.10125 v -0.47852 c -0.517849,0.0262 -0.825936,0.20321 -1.016032,0.59651 v -0.51129 h -0.485074 z m 2.005843,0 h 0.485074 v -2.09106 c -0.0066,-0.64895 0.353973,-1.04881 1.016033,-1.10125 v -0.47852 c -0.517849,0.0262 -0.825937,0.20321 -1.016033,0.59651 v -0.51129 h -0.485074 z m 5.362034,-1.6322 c 0,-0.49163 -0.06555,-0.79317 -0.242536,-1.10781 -0.321198,-0.57684 -0.943928,-0.93082 -1.632208,-0.93082 -1.042253,0 -1.855079,0.81939 -1.855079,1.86164 0,1.06192 0.832491,1.89441 1.894409,1.89441 0.780051,0 1.481442,-0.50474 1.743644,-1.26513 h -0.504739 c -0.203207,0.49163 -0.707946,0.81938 -1.252015,0.81938 -0.74072,0 -1.356895,-0.56373 -1.396225,-1.27167 z m -3.231639,-0.43919 c 0.131101,-0.68828 0.67517,-1.15369 1.356895,-1.15369 0.694835,0 1.219239,0.43263 1.389671,1.15369 z m 7.564525,-2.77279 h -0.485073 v 1.82886 c -0.353973,-0.42608 -0.845602,-0.65551 -1.409336,-0.65551 -1.088138,0 -1.90752,0.81283 -1.90752,1.88786 0,1.06192 0.845602,1.86819 1.953405,1.86819 0.603065,0 0.996368,-0.21632 1.363451,-0.73417 v 0.64895 h 0.485073 z m -1.907519,1.6191 c 0.799716,0 1.442111,0.63584 1.442111,1.42244 0,0.79316 -0.629285,1.44211 -1.396226,1.44211 -0.825936,0 -1.448666,-0.62272 -1.448666,-1.44866 0,-0.78661 0.62273,-1.41589 1.402781,-1.41589 z m 4.549204,3.22508 h 0.485074 v -2.09106 c 0,-0.7145 0.360528,-1.13402 0.963592,-1.13402 0.294977,0 0.57029,0.11799 0.747276,0.32775 0.157321,0.18354 0.222872,0.43263 0.222872,0.80627 v 2.09106 h 0.485073 v -2.07795 c 0,-0.34742 0.05244,-0.56373 0.170432,-0.74072 0.170431,-0.25565 0.471963,-0.40641 0.812826,-0.40641 0.3146422,0 0.5899543,0.12454 0.7538305,0.34086 0.131101,0.17699 0.1966515,0.44574 0.1966515,0.80627 v 2.07795 h 0.4850737 v -2.13039 c 0,-0.47196 -0.085216,-0.77349 -0.2884222,-1.0357 -0.2490919,-0.32119 -0.655505,-0.50474 -1.1209135,-0.50474 -0.557179,0 -0.943927,0.20977 -1.245459,0.68828 -0.281868,-0.48507 -0.629285,-0.68828 -1.173354,-0.68828 -0.452299,0 -0.727611,0.13766 -1.009478,0.49819 v -0.41297 h -0.485074 z m 7.8922774,-3.67083 c -1.0684731,0 -1.8812993,0.80628 -1.8812993,1.85508 0,1.10781 0.8062711,1.90097 1.9206296,1.90097 1.048808,0 1.8223039,-0.79316 1.8223039,-1.86819 0,-1.09469 -0.7800509,-1.88786 -1.8616342,-1.88786 z m 0,0.44575 c 0.7931611,0 1.3700055,0.60962 1.3700055,1.44866 0,0.82594 -0.5637343,1.41589 -1.3437853,1.41589 -0.8259363,0 -1.4158908,-0.5965 -1.4158908,-1.44211 0,-0.81282 0.5965096,-1.42244 1.3896706,-1.42244 z m 2.5499187,3.22508 h 0.4850737 v -4.84418 h -0.4850737 z m 4.9031834,-1.6322 c 0,-0.49163 -0.065551,-0.79317 -0.2425368,-1.10781 -0.32119748,-0.57684 -0.94392722,-0.93082 -1.63220746,-0.93082 -1.04225294,0 -1.85507914,0.81939 -1.85507914,1.86164 0,1.06192 0.8324914,1.89441 1.89440944,1.89441 0.78005094,0 1.48144128,-0.50474 1.74364326,-1.26513 H 0.71802397 c -0.20320654,0.49163 -0.70794538,0.81938 -1.25201453,0.81938 -0.74072064,0 -1.35689534,-0.56373 -1.39622564,-1.27167 z m -3.2316396,-0.43919 c 0.131101,-0.68828 0.6751702,-1.15369 1.35689534,-1.15369 0.69483529,0 1.21923929,0.43263 1.38967058,1.15369 z m 6.9221306,1.01603 c -0.3736378,0.49818 -0.7145004,0.69483 -1.2323494,0.69483 -0.7997161,0 -1.4355559,-0.62928 -1.4355559,-1.429 0,-0.80627 0.6227297,-1.43555 1.4224458,-1.43555 0.5309591,0 0.9701474,0.25565 1.2454595,0.72761 h 0.5440691 c -0.2884221,-0.72106 -0.9767024,-1.17336 -1.7829735,-1.17336 -1.0750282,0 -1.9206296,0.82594 -1.9206296,1.86819 0,1.06848 0.8521564,1.88786 1.9534048,1.88786 0.4457434,0 0.8587116,-0.13766 1.1930191,-0.40641 0.2294268,-0.18355 0.3670828,-0.36053 0.5637343,-0.73417 z m 4.3197659,-2.53025 H 8.8397167 v 1.84197 c 0,0.43919 -0.065551,0.7145 -0.2163167,0.93737 -0.2032065,0.28842 -0.5244039,0.44574 -0.9045968,0.44574 -0.3998581,0 -0.7341656,-0.16387 -0.8980419,-0.45229 C 6.7093255,330.66358 6.65033,330.37515 6.65033,330.00807 v -1.93374 H 6.1652563 v 1.93374 c 0,0.53751 0.085216,0.89804 0.2818672,1.1668 0.268757,0.37364 0.7013903,0.57029 1.2389044,0.57029 0.5571793,0 0.911152,-0.19665 1.1536888,-0.6424 v 0.55718 h 0.4850737 z m 0.8259356,3.58561 H 10.6358 v -4.84418 h -0.485074 z m 4.903184,-1.6322 c 0,-0.49163 -0.06555,-0.79317 -0.242537,-1.10781 -0.321198,-0.57684 -0.943927,-0.93082 -1.632208,-0.93082 -1.042253,0 -1.855079,0.81939 -1.855079,1.86164 0,1.06192 0.832492,1.89441 1.89441,1.89441 0.780051,0 1.481441,-0.50474 1.743643,-1.26513 H 14.4574 c -0.203207,0.49163 -0.707945,0.81938 -1.252014,0.81938 -0.740721,0 -1.356896,-0.56373 -1.396226,-1.27167 z m -3.23164,-0.43919 c 0.131101,-0.68828 0.67517,-1.15369 1.356895,-1.15369 0.694836,0 1.21924,0.43263 1.389671,1.15369 z"
       id="text25-1"
       aria-label="inferred molecule" />
    <path
       style="font-size:6.55505px;font-family:'URW Gothic';-inkscape-font-specification:'URW Gothic, Normal';text-align:center;text-anchor:middle;fill:#717171;stroke-width:3.958;stroke-linecap:round;stroke-linejoin:round;paint-order:fill markers stroke"
       d="m -46.930656,343.45444 h 0.485074 v -2.09106 c 0,-0.7145 0.360527,-1.13403 0.963592,-1.13403 0.294977,0 0.570289,0.11799 0.747276,0.32776 0.157321,0.18354 0.222871,0.43263 0.222871,0.80627 v 2.09106 h 0.485074 v -2.07795 c 0,-0.34742 0.05244,-0.56374 0.170431,-0.74072 0.170432,-0.25565 0.471964,-0.40642 0.812827,-0.40642 0.314642,0 0.589954,0.12455 0.75383,0.34087 0.131101,0.17698 0.196652,0.44574 0.196652,0.80627 v 2.07795 h 0.485073 v -2.13039 c 0,-0.47197 -0.08521,-0.7735 -0.288422,-1.0357 -0.249092,-0.3212 -0.655505,-0.50474 -1.120913,-0.50474 -0.557179,0 -0.943927,0.20976 -1.24546,0.68828 -0.281867,-0.48507 -0.629285,-0.68828 -1.173354,-0.68828 -0.452298,0 -0.72761,0.13766 -1.009477,0.49818 v -0.41297 h -0.485074 z m 7.892278,-3.67083 c -1.068473,0 -1.881299,0.80627 -1.881299,1.85508 0,1.1078 0.806271,1.90096 1.920629,1.90096 1.048808,0 1.822304,-0.79316 1.822304,-1.86819 0,-1.09469 -0.780051,-1.88785 -1.861634,-1.88785 z m 0,0.44574 c 0.793161,0 1.370006,0.60962 1.370006,1.44867 0,0.82594 -0.563735,1.41589 -1.343786,1.41589 -0.825936,0 -1.41589,-0.59651 -1.41589,-1.44211 0,-0.81283 0.596509,-1.42245 1.38967,-1.42245 z m 2.54992,3.22509 h 0.485073 v -4.84418 h -0.485073 z m 4.903181,-1.63221 c 0,-0.49163 -0.06555,-0.79316 -0.242537,-1.1078 -0.321197,-0.57685 -0.943927,-0.93082 -1.632207,-0.93082 -1.042253,0 -1.855079,0.81938 -1.855079,1.86163 0,1.06192 0.832491,1.89441 1.894409,1.89441 0.780051,0 1.481442,-0.50474 1.743644,-1.26512 h -0.504739 c -0.203207,0.49163 -0.707946,0.81938 -1.252015,0.81938 -0.74072,0 -1.356895,-0.56373 -1.396225,-1.27168 z m -3.231639,-0.43919 c 0.131101,-0.68828 0.67517,-1.15369 1.356895,-1.15369 0.694835,0 1.219239,0.43264 1.389671,1.15369 z m 6.92213,1.01603 c -0.373638,0.49819 -0.7145,0.69484 -1.232349,0.69484 -0.799716,0 -1.435556,-0.62929 -1.435556,-1.429 0,-0.80627 0.62273,-1.43556 1.422446,-1.43556 0.530959,0 0.970147,0.25565 1.245459,0.72761 h 0.544069 c -0.288422,-0.72105 -0.976702,-1.17335 -1.782973,-1.17335 -1.075028,0 -1.92063,0.82594 -1.92063,1.86819 0,1.06847 0.852157,1.88785 1.953405,1.88785 0.445743,0 0.858712,-0.13765 1.193019,-0.40641 0.229427,-0.18354 0.367083,-0.36053 0.563734,-0.73417 z m 4.319768,-2.53025 h -0.485074 v 1.84197 c 0,0.43919 -0.06555,0.7145 -0.216316,0.93738 -0.203207,0.28842 -0.524404,0.44574 -0.904597,0.44574 -0.399858,0 -0.734166,-0.16388 -0.898042,-0.4523 -0.111436,-0.18354 -0.170431,-0.47196 -0.170431,-0.83905 v -1.93374 h -0.485074 v 1.93374 c 0,0.53752 0.08522,0.89805 0.281867,1.1668 0.268757,0.37364 0.70139,0.57029 1.238905,0.57029 0.557179,0 0.911152,-0.19665 1.153688,-0.64239 v 0.55718 h 0.485074 z m 0.825936,3.58562 h 0.485074 v -4.84418 h -0.485074 z m 4.903181,-1.63221 c 0,-0.49163 -0.06555,-0.79316 -0.242536,-1.1078 -0.321198,-0.57685 -0.943928,-0.93082 -1.632208,-0.93082 -1.042253,0 -1.855079,0.81938 -1.855079,1.86163 0,1.06192 0.832491,1.89441 1.894409,1.89441 0.780051,0 1.481442,-0.50474 1.743644,-1.26512 h -0.504739 c -0.203207,0.49163 -0.707946,0.81938 -1.252015,0.81938 -0.74072,0 -1.356895,-0.56373 -1.396225,-1.27168 z m -3.231639,-0.43919 c 0.131101,-0.68828 0.67517,-1.15369 1.356895,-1.15369 0.694835,0 1.219239,0.43264 1.389671,1.15369 z m 8.737882,1.01603 c -0.373637,0.49819 -0.7145,0.69484 -1.232349,0.69484 -0.799716,0 -1.435556,-0.62929 -1.435556,-1.429 0,-0.80627 0.62273,-1.43556 1.422446,-1.43556 0.530959,0 0.970147,0.25565 1.245459,0.72761 h 0.54407 c -0.288423,-0.72105 -0.976703,-1.17335 -1.782974,-1.17335 -1.075028,0 -1.92063,0.82594 -1.92063,1.86819 0,1.06847 0.852157,1.88785 1.953405,1.88785 0.445744,0 0.858712,-0.13765 1.193019,-0.40641 0.229427,-0.18354 0.367083,-0.36053 0.563735,-0.73417 z m 2.9104425,-2.61546 c -1.0684735,0 -1.8812995,0.80627 -1.8812995,1.85508 0,1.1078 0.806271,1.90096 1.9206298,1.90096 1.048808,0 1.8223038,-0.79316 1.8223038,-1.86819 0,-1.09469 -0.7800509,-1.88785 -1.8616341,-1.88785 z m 0,0.44574 c 0.793161,0 1.3700054,0.60962 1.3700054,1.44867 0,0.82594 -0.5637343,1.41589 -1.3437852,1.41589 -0.8259367,0 -1.4158907,-0.59651 -1.4158907,-1.44211 0,-0.81283 0.596509,-1.42245 1.3896705,-1.42245 z m 3.5528473,3.22509 h 0.5112939 l 1.5076614,-3.58562 h -0.4916287 l -1.2847898,3.01533 -1.2585696,-3.01533 h -0.4916287 z m 5.93232683,-1.63221 c 0,-0.49163 -0.06555049,-0.79316 -0.24253684,-1.1078 -0.32119745,-0.57685 -0.94392719,-0.93082 -1.63220739,-0.93082 -1.042253,0 -1.8550792,0.81938 -1.8550792,1.86163 0,1.06192 0.8324914,1.89441 1.8944095,1.89441 0.7800509,0 1.48144124,-0.50474 1.74364324,-1.26512 h -0.50473885 c -0.20320654,0.49163 -0.70794539,0.81938 -1.25201449,0.81938 -0.7407207,0 -1.3568954,-0.56373 -1.3962257,-1.27168 z M -3.175681,341.38304 c 0.131101,-0.68828 0.6751702,-1.15369 1.3568954,-1.15369 0.6948353,0 1.21923924,0.43264 1.38967054,1.15369 z m 3.90025263,2.0714 H 1.2096453 v -2.09106 c -0.00656,-0.64895 0.3539727,-1.04881 1.0160328,-1.10125 v -0.47852 c -0.517849,0.0262 -0.8259363,0.20321 -1.0160328,0.59651 v -0.5113 H 0.72457163 Z M 6.1324864,339.86882 H 5.6474127 v 0.63584 c -0.3605277,-0.49818 -0.793161,-0.72105 -1.4158907,-0.72105 -1.0750282,0 -1.8878544,0.81283 -1.8878544,1.88785 0,1.07503 0.8193812,1.86819 1.9271847,1.86819 0.6096196,0 0.9898125,-0.19665 1.3765604,-0.7145 v 0.62929 h 0.4850737 z m -1.8878543,0.36053 c 0.793161,0 1.4027806,0.61618 1.4027806,1.41589 0,0.81938 -0.6030646,1.44867 -1.3765604,1.44867 -0.8128262,0 -1.435556,-0.63584 -1.435556,-1.45522 0,-0.78005 0.6292848,-1.40934 1.4093358,-1.40934 z m 6.3452909,-0.36053 H 10.10485 v 0.63584 c -0.3605281,-0.49818 -0.7997165,-0.72105 -1.4093361,-0.72105 -1.048808,0 -1.8288589,0.81283 -1.8288589,1.89441 0,1.04881 0.8128261,1.86163 1.8681892,1.86163 0.6489499,0 1.0881383,-0.2622 1.3700058,-0.81282 v 0.24253 c 0,0.35398 -0.03933,0.57685 -0.1442115,0.79972 -0.1900964,0.41297 -0.6161747,0.64895 -1.1733539,0.64895 -0.3998581,0 -0.7079454,-0.11799 -0.9635924,-0.36053 -0.1245459,-0.11143 -0.2032065,-0.22287 -0.3539727,-0.49163 H 6.997756 c 0.262202,0.83905 0.8980418,1.2979 1.8026387,1.2979 0.6227297,0 1.1471337,-0.23598 1.4552213,-0.64239 0.242537,-0.32775 0.334307,-0.70795 0.334307,-1.40934 z m -1.8616339,0.36053 c 0.7734959,0 1.3765609,0.60962 1.3765609,1.38967 0,0.83905 -0.5899549,1.47489 -1.3700058,1.47489 -0.786606,0 -1.3765605,-0.62273 -1.3765605,-1.45522 0,-0.81938 0.5768444,-1.40934 1.3700054,-1.40934 z m 6.3256249,1.59288 c 0,-0.49163 -0.06555,-0.79316 -0.242537,-1.1078 -0.321197,-0.57685 -0.943927,-0.93082 -1.632207,-0.93082 -1.042253,0 -1.855079,0.81938 -1.855079,1.86163 0,1.06192 0.832491,1.89441 1.894409,1.89441 0.780051,0 1.481441,-0.50474 1.743643,-1.26512 h -0.504739 c -0.203206,0.49163 -0.707945,0.81938 -1.252014,0.81938 -0.740721,0 -1.356895,-0.56373 -1.396226,-1.27168 z m -3.23164,-0.43919 c 0.131101,-0.68828 0.67517,-1.15369 1.356896,-1.15369 0.694835,0 1.219239,0.43264 1.38967,1.15369 z"
       id="text28-6"
       aria-label="molecule coverage" />
    <path
       d="m 23.526682,318.07852 h 0.257983 v -2.61164 h -0.70327 v 0.23678 h 0.445287 z m 1.070811,-0.95065 c 0,0.26152 0.04241,0.45942 0.127225,0.60432 0.151963,0.25798 0.417014,0.39227 0.766882,0.39227 0.314528,0 0.551307,-0.10955 0.699736,-0.32513 0.102487,-0.14842 0.155497,-0.38167 0.155497,-0.67146 v -0.74214 c 0,-0.29686 -0.03887,-0.45589 -0.151963,-0.61492 -0.155497,-0.22618 -0.41348,-0.34987 -0.724474,-0.34987 -0.293324,0 -0.533637,0.10249 -0.6856,0.29332 -0.130759,0.16257 -0.187303,0.36401 -0.187303,0.67147 z m 1.491356,-0.0424 c 0,0.22971 -0.02827,0.41348 -0.08482,0.5195 -0.09189,0.18024 -0.279188,0.28272 -0.523035,0.28272 -0.222643,0 -0.399344,-0.0848 -0.508899,-0.24738 -0.08128,-0.11309 -0.116623,-0.28625 -0.116623,-0.55484 v -0.63966 c 0,-0.24384 0.02827,-0.40641 0.09189,-0.51243 0.102487,-0.17317 0.296858,-0.27565 0.526569,-0.27565 0.208507,0 0.385208,0.0848 0.494763,0.23324 0.08835,0.12016 0.120156,0.26859 0.120156,0.55484 z m 0.466494,0.0424 c 0,0.26152 0.04241,0.45942 0.127225,0.60432 0.151963,0.25798 0.417014,0.39227 0.766882,0.39227 0.314528,0 0.551307,-0.10955 0.699736,-0.32513 0.102487,-0.14842 0.155497,-0.38167 0.155497,-0.67146 v -0.74214 c 0,-0.29686 -0.03887,-0.45589 -0.151963,-0.61492 -0.155497,-0.22618 -0.41348,-0.34987 -0.724474,-0.34987 -0.293324,0 -0.533637,0.10249 -0.6856,0.29332 -0.130759,0.16257 -0.187303,0.36401 -0.187303,0.67147 z m 1.491356,-0.0424 c 0,0.22971 -0.02827,0.41348 -0.08482,0.5195 -0.09189,0.18024 -0.279188,0.28272 -0.523035,0.28272 -0.222643,0 -0.399344,-0.0848 -0.508899,-0.24738 -0.08128,-0.11309 -0.116622,-0.28625 -0.116622,-0.55484 v -0.63966 c 0,-0.24384 0.02827,-0.40641 0.09188,-0.51243 0.102487,-0.17317 0.296858,-0.27565 0.526569,-0.27565 0.208507,0 0.385208,0.0848 0.494763,0.23324 0.08835,0.12016 0.120156,0.26859 0.120156,0.55484 z m 0.583117,0.99306 h 0.261517 v -0.3322 c 0.162565,0.24032 0.438219,0.37814 0.756281,0.37814 0.583113,0 1.021331,-0.43468 1.021331,-1.01426 0,-0.56898 -0.445286,-1.01073 -1.017797,-1.01073 -0.32513,0 -0.593716,0.13429 -0.759815,0.37814 v -1.01073 h -0.261517 z m 1.014264,-1.73874 c 0.434684,0 0.759814,0.32867 0.759814,0.76335 0,0.44529 -0.32513,0.78102 -0.763348,0.78102 -0.215576,0 -0.392277,-0.0742 -0.544239,-0.22971 -0.151963,-0.1555 -0.222644,-0.3322 -0.222644,-0.55131 0,-0.43115 0.335732,-0.76335 0.770417,-0.76335 z m 1.395934,-0.19437 v 2.61164 h 0.261518 v -1.01073 c 0.169633,0.24739 0.43115,0.37814 0.752746,0.37814 0.579579,0 1.024866,-0.44175 1.024866,-1.00719 0,-0.57958 -0.441753,-1.0178 -1.017798,-1.0178 -0.332198,0 -0.593715,0.13076 -0.759814,0.37814 v -0.3322 z m 1.01073,0.19437 c 0.438218,0 0.763348,0.3322 0.763348,0.77749 0,0.43468 -0.328664,0.76688 -0.759814,0.76688 -0.441753,0 -0.770416,-0.3322 -0.770416,-0.78102 0,-0.42761 0.335731,-0.76335 0.766882,-0.76335 z"
       id="text37"
       style="font-size:3.53402px;font-family:'URW Gothic';-inkscape-font-specification:'URW Gothic, Normal';text-align:center;text-anchor:middle;fill:#ffffff;stroke-width:0.199478;stroke-linecap:round;stroke-linejoin:round;paint-order:stroke markers fill"
       aria-label="100bp" />
    <path
       d="m 58.563719,318.07852 h 0.257983 v -2.61164 h -0.70327 v 0.23678 h 0.445287 z m 1.070811,-0.95065 c 0,0.26152 0.04241,0.45942 0.127225,0.60432 0.151962,0.25798 0.417014,0.39227 0.766882,0.39227 0.314528,0 0.551307,-0.10955 0.699736,-0.32513 0.102486,-0.14842 0.155497,-0.38167 0.155497,-0.67146 v -0.74214 c 0,-0.29686 -0.03887,-0.45589 -0.151963,-0.61492 -0.155497,-0.22618 -0.41348,-0.34987 -0.724474,-0.34987 -0.293324,0 -0.533637,0.10249 -0.6856,0.29332 -0.130759,0.16257 -0.187303,0.36401 -0.187303,0.67147 z m 1.491356,-0.0424 c 0,0.22971 -0.02827,0.41348 -0.08482,0.5195 -0.09188,0.18024 -0.279188,0.28272 -0.523035,0.28272 -0.222643,0 -0.399344,-0.0848 -0.508899,-0.24738 -0.08128,-0.11309 -0.116623,-0.28625 -0.116623,-0.55484 v -0.63966 c 0,-0.24384 0.02827,-0.40641 0.09188,-0.51243 0.102486,-0.17317 0.296857,-0.27565 0.526569,-0.27565 0.208507,0 0.385208,0.0848 0.494763,0.23324 0.08835,0.12016 0.120156,0.26859 0.120156,0.55484 z m 0.466494,0.0424 c 0,0.26152 0.04241,0.45942 0.127225,0.60432 0.151963,0.25798 0.417014,0.39227 0.766882,0.39227 0.314528,0 0.551307,-0.10955 0.699736,-0.32513 0.102487,-0.14842 0.155497,-0.38167 0.155497,-0.67146 v -0.74214 c 0,-0.29686 -0.03887,-0.45589 -0.151963,-0.61492 -0.155497,-0.22618 -0.41348,-0.34987 -0.724474,-0.34987 -0.293324,0 -0.533637,0.10249 -0.6856,0.29332 -0.130759,0.16257 -0.187303,0.36401 -0.187303,0.67147 z m 1.491356,-0.0424 c 0,0.22971 -0.02827,0.41348 -0.08482,0.5195 -0.09188,0.18024 -0.279188,0.28272 -0.523035,0.28272 -0.222643,0 -0.399344,-0.0848 -0.508899,-0.24738 -0.08128,-0.11309 -0.116623,-0.28625 -0.116623,-0.55484 v -0.63966 c 0,-0.24384 0.02827,-0.40641 0.09188,-0.51243 0.102487,-0.17317 0.296858,-0.27565 0.526569,-0.27565 0.208507,0 0.385208,0.0848 0.494763,0.23324 0.08835,0.12016 0.120156,0.26859 0.120156,0.55484 z m 0.583117,0.99306 h 0.261517 v -0.3322 c 0.162565,0.24032 0.438219,0.37814 0.756281,0.37814 0.583113,0 1.021331,-0.43468 1.021331,-1.01426 0,-0.56898 -0.445286,-1.01073 -1.017797,-1.01073 -0.32513,0 -0.593716,0.13429 -0.759815,0.37814 v -1.01073 h -0.261517 z m 1.014264,-1.73874 c 0.434684,0 0.759814,0.32867 0.759814,0.76335 0,0.44529 -0.32513,0.78102 -0.763348,0.78102 -0.215576,0 -0.392277,-0.0742 -0.54424,-0.22971 -0.151962,-0.1555 -0.222643,-0.3322 -0.222643,-0.55131 0,-0.43115 0.335732,-0.76335 0.770417,-0.76335 z m 1.395934,-0.19437 v 2.61164 h 0.261518 v -1.01073 c 0.169632,0.24739 0.43115,0.37814 0.752746,0.37814 0.579579,0 1.024866,-0.44175 1.024866,-1.00719 0,-0.57958 -0.441753,-1.0178 -1.017798,-1.0178 -0.332198,0 -0.593716,0.13076 -0.759814,0.37814 v -0.3322 z m 1.01073,0.19437 c 0.438218,0 0.763348,0.3322 0.763348,0.77749 0,0.43468 -0.328664,0.76688 -0.759814,0.76688 -0.441753,0 -0.770417,-0.3322 -0.770417,-0.78102 0,-0.42761 0.335732,-0.76335 0.766883,-0.76335 z"
       id="text38"
       style="font-size:3.53402px;font-family:'URW Gothic';-inkscape-font-specification:'URW Gothic, Normal';text-align:center;text-anchor:middle;fill:#ffffff;stroke-width:0.199478;stroke-linecap:round;stroke-linejoin:round;paint-order:stroke markers fill"
       aria-label="100bp" />
    <path
       d="m 150.23036,318.07852 h 0.25798 v -2.61164 h -0.70327 v 0.23678 h 0.44529 z m 1.07081,-0.95065 c 0,0.26152 0.0424,0.45942 0.12723,0.60432 0.15196,0.25798 0.41701,0.39227 0.76688,0.39227 0.31453,0 0.55131,-0.10955 0.69973,-0.32513 0.10249,-0.14842 0.1555,-0.38167 0.1555,-0.67146 v -0.74214 c 0,-0.29686 -0.0389,-0.45589 -0.15196,-0.61492 -0.1555,-0.22618 -0.41348,-0.34987 -0.72448,-0.34987 -0.29332,0 -0.53363,0.10249 -0.6856,0.29332 -0.13075,0.16257 -0.1873,0.36401 -0.1873,0.67147 z m 1.49136,-0.0424 c 0,0.22971 -0.0283,0.41348 -0.0848,0.5195 -0.0919,0.18024 -0.27919,0.28272 -0.52303,0.28272 -0.22265,0 -0.39935,-0.0848 -0.5089,-0.24738 -0.0813,-0.11309 -0.11663,-0.28625 -0.11663,-0.55484 v -0.63966 c 0,-0.24384 0.0283,-0.40641 0.0919,-0.51243 0.10249,-0.17317 0.29686,-0.27565 0.52657,-0.27565 0.20851,0 0.38521,0.0848 0.49476,0.23324 0.0883,0.12016 0.12016,0.26859 0.12016,0.55484 z m 0.46649,0.0424 c 0,0.26152 0.0424,0.45942 0.12723,0.60432 0.15196,0.25798 0.41701,0.39227 0.76688,0.39227 0.31453,0 0.55131,-0.10955 0.69973,-0.32513 0.10249,-0.14842 0.1555,-0.38167 0.1555,-0.67146 v -0.74214 c 0,-0.29686 -0.0389,-0.45589 -0.15196,-0.61492 -0.1555,-0.22618 -0.41348,-0.34987 -0.72448,-0.34987 -0.29332,0 -0.53363,0.10249 -0.6856,0.29332 -0.13075,0.16257 -0.1873,0.36401 -0.1873,0.67147 z m 1.49136,-0.0424 c 0,0.22971 -0.0283,0.41348 -0.0848,0.5195 -0.0919,0.18024 -0.27919,0.28272 -0.52303,0.28272 -0.22265,0 -0.39935,-0.0848 -0.5089,-0.24738 -0.0813,-0.11309 -0.11663,-0.28625 -0.11663,-0.55484 v -0.63966 c 0,-0.24384 0.0283,-0.40641 0.0919,-0.51243 0.10249,-0.17317 0.29686,-0.27565 0.52657,-0.27565 0.20851,0 0.38521,0.0848 0.49476,0.23324 0.0883,0.12016 0.12016,0.26859 0.12016,0.55484 z m 0.58311,0.99306 h 0.26152 v -0.3322 c 0.16257,0.24032 0.43822,0.37814 0.75628,0.37814 0.58312,0 1.02133,-0.43468 1.02133,-1.01426 0,-0.56898 -0.44528,-1.01073 -1.01779,-1.01073 -0.32513,0 -0.59372,0.13429 -0.75982,0.37814 v -1.01073 h -0.26152 z m 1.01427,-1.73874 c 0.43468,0 0.75981,0.32867 0.75981,0.76335 0,0.44529 -0.32513,0.78102 -0.76335,0.78102 -0.21557,0 -0.39227,-0.0742 -0.54424,-0.22971 -0.15196,-0.1555 -0.22264,-0.3322 -0.22264,-0.55131 0,-0.43115 0.33573,-0.76335 0.77042,-0.76335 z m 1.39593,-0.19437 v 2.61164 h 0.26152 v -1.01073 c 0.16963,0.24739 0.43115,0.37814 0.75275,0.37814 0.57958,0 1.02486,-0.44175 1.02486,-1.00719 0,-0.57958 -0.44175,-1.0178 -1.0178,-1.0178 -0.33219,0 -0.59371,0.13076 -0.75981,0.37814 v -0.3322 z m 1.01073,0.19437 c 0.43822,0 0.76335,0.3322 0.76335,0.77749 0,0.43468 -0.32866,0.76688 -0.75981,0.76688 -0.44176,0 -0.77042,-0.3322 -0.77042,-0.78102 0,-0.42761 0.33573,-0.76335 0.76688,-0.76335 z"
       id="text39"
       style="font-size:3.53402px;font-family:'URW Gothic';-inkscape-font-specification:'URW Gothic, Normal';text-align:center;text-anchor:middle;fill:#ffffff;stroke-width:0.199478;stroke-linecap:round;stroke-linejoin:round;paint-order:stroke markers fill"
       aria-label="100bp" />
    <path
       d="m 84.822782,330.26999 h 1.657456 v -0.23678 h -1.304054 l 0.837563,-0.80222 c 0.367538,-0.34987 0.480627,-0.54424 0.480627,-0.82343 0,-0.46296 -0.346334,-0.79515 -0.823427,-0.79515 -0.364004,0 -0.650259,0.19083 -0.770416,0.50889 -0.04594,0.1237 -0.05654,0.19791 -0.05654,0.38168 h 0.257983 c 0,-0.16257 0.0212,-0.26505 0.06715,-0.36047 0.09188,-0.18377 0.275654,-0.29332 0.498297,-0.29332 0.328664,0 0.565443,0.22617 0.565443,0.54423 0,0.1555 -0.05654,0.28979 -0.183769,0.43822 -0.07775,0.0919 -0.09895,0.11309 -0.310993,0.31806 l -0.915312,0.88351 z m 1.947248,-0.95065 c 0,0.26152 0.04241,0.45942 0.127225,0.60432 0.151963,0.25798 0.417015,0.39227 0.766883,0.39227 0.314527,0 0.551307,-0.10955 0.699735,-0.32513 0.102487,-0.14843 0.155497,-0.38167 0.155497,-0.67146 v -0.74215 c 0,-0.29685 -0.03887,-0.45589 -0.151963,-0.61492 -0.155496,-0.22617 -0.41348,-0.34986 -0.724474,-0.34986 -0.293323,0 -0.533637,0.10248 -0.685599,0.29332 -0.130759,0.16256 -0.187304,0.364 -0.187304,0.67146 z m 1.491357,-0.0424 c 0,0.22971 -0.02827,0.41348 -0.08482,0.5195 -0.09188,0.18024 -0.279187,0.28272 -0.523035,0.28272 -0.222643,0 -0.399344,-0.0848 -0.508898,-0.24738 -0.08128,-0.11309 -0.116623,-0.28626 -0.116623,-0.55484 v -0.63966 c 0,-0.24385 0.02827,-0.40641 0.09188,-0.51243 0.102487,-0.17317 0.296858,-0.27565 0.526569,-0.27565 0.208508,0 0.385209,0.0848 0.494763,0.23324 0.08835,0.12016 0.120157,0.26859 0.120157,0.55484 z m 0.466494,0.0424 c 0,0.26152 0.04241,0.45942 0.127224,0.60432 0.151963,0.25798 0.417015,0.39227 0.766883,0.39227 0.314527,0 0.551307,-0.10955 0.699736,-0.32513 0.102486,-0.14843 0.155496,-0.38167 0.155496,-0.67146 v -0.74215 c 0,-0.29685 -0.03887,-0.45589 -0.151962,-0.61492 -0.155497,-0.22617 -0.413481,-0.34986 -0.724475,-0.34986 -0.293323,0 -0.533637,0.10248 -0.685599,0.29332 -0.130759,0.16256 -0.187303,0.364 -0.187303,0.67146 z m 1.491356,-0.0424 c 0,0.22971 -0.02827,0.41348 -0.08482,0.5195 -0.09189,0.18024 -0.279188,0.28272 -0.523035,0.28272 -0.222644,0 -0.399345,-0.0848 -0.508899,-0.24738 -0.08128,-0.11309 -0.116623,-0.28626 -0.116623,-0.55484 v -0.63966 c 0,-0.24385 0.02827,-0.40641 0.09188,-0.51243 0.102486,-0.17317 0.296857,-0.27565 0.526569,-0.27565 0.208507,0 0.385208,0.0848 0.494762,0.23324 0.08835,0.12016 0.120157,0.26859 0.120157,0.55484 z m 0.466494,0.0424 c 0,0.26152 0.04241,0.45942 0.127225,0.60432 0.151962,0.25798 0.417014,0.39227 0.766882,0.39227 0.314528,0 0.551307,-0.10955 0.699736,-0.32513 0.102486,-0.14843 0.155497,-0.38167 0.155497,-0.67146 v -0.74215 c 0,-0.29685 -0.03887,-0.45589 -0.151963,-0.61492 -0.155497,-0.22617 -0.413481,-0.34986 -0.724474,-0.34986 -0.293324,0 -0.533637,0.10248 -0.6856,0.29332 -0.130759,0.16256 -0.187303,0.364 -0.187303,0.67146 z m 1.491356,-0.0424 c 0,0.22971 -0.02827,0.41348 -0.08482,0.5195 -0.09188,0.18024 -0.279188,0.28272 -0.523035,0.28272 -0.222643,0 -0.399344,-0.0848 -0.508899,-0.24738 -0.08128,-0.11309 -0.116623,-0.28626 -0.116623,-0.55484 v -0.63966 c 0,-0.24385 0.02827,-0.40641 0.09189,-0.51243 0.102486,-0.17317 0.296857,-0.27565 0.526569,-0.27565 0.208507,0 0.385208,0.0848 0.494763,0.23324 0.08835,0.12016 0.120156,0.26859 0.120156,0.55484 z m 0.583116,0.99306 h 0.261518 v -0.3322 c 0.162565,0.24031 0.438218,0.37814 0.75628,0.37814 0.583113,0 1.021332,-0.43468 1.021332,-1.01426 0,-0.56898 -0.445287,-1.01073 -1.017798,-1.01073 -0.32513,0 -0.593715,0.13429 -0.759814,0.37814 v -1.01073 h -0.261518 z m 1.014264,-1.73874 c 0.434685,0 0.759814,0.32867 0.759814,0.76335 0,0.44529 -0.325129,0.78102 -0.763348,0.78102 -0.215575,0 -0.392276,-0.0742 -0.544239,-0.22971 -0.151963,-0.1555 -0.222643,-0.3322 -0.222643,-0.55131 0,-0.43115 0.335732,-0.76335 0.770416,-0.76335 z m 1.395935,-0.19437 v 2.61164 h 0.261518 v -1.01073 c 0.169633,0.24738 0.43115,0.37814 0.752746,0.37814 0.579579,0 1.024866,-0.44175 1.024866,-1.00719 0,-0.57958 -0.441753,-1.0178 -1.017798,-1.0178 -0.332198,0 -0.593715,0.13076 -0.759814,0.37814 v -0.3322 z m 1.01073,0.19437 c 0.438218,0 0.763348,0.3322 0.763348,0.77749 0,0.43468 -0.328664,0.76688 -0.759814,0.76688 -0.441753,0 -0.770417,-0.3322 -0.770417,-0.78102 0,-0.42762 0.335732,-0.76335 0.766883,-0.76335 z"
       id="text40"
       style="font-size:3.53402px;font-family:'URW Gothic';-inkscape-font-specification:'URW Gothic, Normal';text-align:center;text-anchor:middle;fill:#ffffff;stroke-width:0.199478;stroke-linecap:round;stroke-linejoin:round;paint-order:stroke markers fill"
       aria-label="2000bp" />
    <g
       id="g49">
      <path
         style="font-size:6.55505px;font-family:'URW Gothic';-inkscape-font-specification:'URW Gothic, Normal';text-align:center;text-anchor:middle;fill:#679bbd;stroke-width:3.958;stroke-linecap:round;stroke-linejoin:round;paint-order:fill markers stroke"
         d="m 77.122637,344.15912 h 3.074318 v -0.43919 h -2.418813 l 1.553547,-1.488 c 0.681725,-0.64895 0.891487,-1.00947 0.891487,-1.52732 0,-0.85871 -0.642395,-1.47489 -1.527327,-1.47489 -0.67517,0 -1.206129,0.35397 -1.429001,0.94393 -0.08522,0.22943 -0.104881,0.36708 -0.104881,0.70794 h 0.478519 c 0,-0.30153 0.03933,-0.49163 0.124546,-0.66861 0.170431,-0.34086 0.511294,-0.54407 0.924262,-0.54407 0.60962,0 1.048808,0.41952 1.048808,1.00948 0,0.28842 -0.104881,0.53751 -0.340863,0.81282 -0.144211,0.17043 -0.183541,0.20976 -0.576844,0.58996 l -1.697758,1.63876 z m 3.611838,-1.76331 c 0,0.48507 0.07866,0.85216 0.235982,1.12091 0.281867,0.47852 0.773496,0.72761 1.422446,0.72761 0.583399,0 1.022588,-0.2032 1.2979,-0.60306 0.190096,-0.27531 0.288422,-0.70795 0.288422,-1.24546 v -1.37656 c 0,-0.55062 -0.07211,-0.8456 -0.281867,-1.14058 -0.288423,-0.41952 -0.766941,-0.64895 -1.343786,-0.64895 -0.544069,0 -0.989812,0.1901 -1.271679,0.54407 -0.242537,0.30153 -0.347418,0.67517 -0.347418,1.24546 z m 2.766231,-0.0787 c 0,0.42608 -0.05244,0.76694 -0.157321,0.96359 -0.170431,0.33431 -0.517849,0.52441 -0.970147,0.52441 -0.412969,0 -0.740721,-0.15733 -0.943928,-0.45886 -0.150766,-0.20976 -0.216316,-0.53096 -0.216316,-1.02914 v -1.18646 c 0,-0.4523 0.05244,-0.75384 0.170431,-0.95049 0.190097,-0.32119 0.550624,-0.51129 0.976703,-0.51129 0.386747,0 0.7145,0.15732 0.917706,0.43263 0.163877,0.22287 0.222872,0.49819 0.222872,1.02915 z m 0.865272,0.0787 c 0,0.48507 0.07866,0.85216 0.235982,1.12091 0.281867,0.47852 0.773496,0.72761 1.422446,0.72761 0.5834,0 1.022588,-0.2032 1.2979,-0.60306 0.190096,-0.27531 0.288422,-0.70795 0.288422,-1.24546 v -1.37656 c 0,-0.55062 -0.0721,-0.8456 -0.281867,-1.14058 -0.288422,-0.41952 -0.766941,-0.64895 -1.343785,-0.64895 -0.544069,0 -0.989813,0.1901 -1.27168,0.54407 -0.242537,0.30153 -0.347418,0.67517 -0.347418,1.24546 z m 2.766232,-0.0787 c 0,0.42608 -0.05244,0.76694 -0.157322,0.96359 -0.170431,0.33431 -0.517849,0.52441 -0.970147,0.52441 -0.412968,0 -0.740721,-0.15733 -0.943927,-0.45886 -0.150766,-0.20976 -0.216317,-0.53096 -0.216317,-1.02914 v -1.18646 c 0,-0.4523 0.05244,-0.75384 0.170431,-0.95049 0.190097,-0.32119 0.550625,-0.51129 0.976703,-0.51129 0.386748,0 0.7145,0.15732 0.917707,0.43263 0.163876,0.22287 0.222872,0.49819 0.222872,1.02915 z m 0.865272,0.0787 c 0,0.48507 0.07866,0.85216 0.235982,1.12091 0.281867,0.47852 0.773496,0.72761 1.422446,0.72761 0.583399,0 1.022587,-0.2032 1.2979,-0.60306 0.190096,-0.27531 0.288422,-0.70795 0.288422,-1.24546 v -1.37656 c 0,-0.55062 -0.07211,-0.8456 -0.281867,-1.14058 -0.288423,-0.41952 -0.766941,-0.64895 -1.343786,-0.64895 -0.544069,0 -0.989812,0.1901 -1.271679,0.54407 -0.242537,0.30153 -0.347418,0.67517 -0.347418,1.24546 z m 2.766231,-0.0787 c 0,0.42608 -0.05244,0.76694 -0.157321,0.96359 -0.170431,0.33431 -0.517849,0.52441 -0.970147,0.52441 -0.412969,0 -0.740721,-0.15733 -0.943928,-0.45886 -0.150766,-0.20976 -0.216316,-0.53096 -0.216316,-1.02914 v -1.18646 c 0,-0.4523 0.05244,-0.75384 0.170431,-0.95049 0.190096,-0.32119 0.550624,-0.51129 0.976702,-0.51129 0.386748,0 0.714501,0.15732 0.917707,0.43263 0.163877,0.22287 0.222872,0.49819 0.222872,1.02915 z"
         id="text41"
         aria-label="2000" />
      <path
         style="font-size:6.55505px;font-family:'URW Gothic';-inkscape-font-specification:'URW Gothic, Normal';text-align:center;text-anchor:middle;fill:#a77cc8;stroke-width:3.958;stroke-linecap:round;stroke-linejoin:round;paint-order:fill markers stroke"
         d="m 24.290685,344.15912 h 0.478519 v -4.84418 h -1.304455 v 0.43919 h 0.825936 z m 1.986186,-1.76331 c 0,0.48507 0.07866,0.85216 0.235982,1.12091 0.281867,0.47852 0.773496,0.72761 1.422446,0.72761 0.583399,0 1.022588,-0.2032 1.2979,-0.60306 0.190096,-0.27531 0.288422,-0.70795 0.288422,-1.24546 v -1.37656 c 0,-0.55062 -0.07211,-0.8456 -0.281867,-1.14058 -0.288422,-0.41952 -0.766941,-0.64895 -1.343785,-0.64895 -0.54407,0 -0.989813,0.1901 -1.27168,0.54407 -0.242537,0.30153 -0.347418,0.67517 -0.347418,1.24546 z m 2.766231,-0.0787 c 0,0.42608 -0.05244,0.76694 -0.157321,0.96359 -0.170431,0.33431 -0.517849,0.52441 -0.970147,0.52441 -0.412968,0 -0.740721,-0.15733 -0.943927,-0.45886 -0.150767,-0.20976 -0.216317,-0.53096 -0.216317,-1.02914 v -1.18646 c 0,-0.4523 0.05244,-0.75384 0.170431,-0.95049 0.190097,-0.32119 0.550624,-0.51129 0.976703,-0.51129 0.386748,0 0.7145,0.15732 0.917707,0.43263 0.163876,0.22287 0.222871,0.49819 0.222871,1.02915 z m 0.865273,0.0787 c 0,0.48507 0.07866,0.85216 0.235981,1.12091 0.281868,0.47852 0.773496,0.72761 1.422446,0.72761 0.5834,0 1.022588,-0.2032 1.2979,-0.60306 0.190097,-0.27531 0.288422,-0.70795 0.288422,-1.24546 v -1.37656 c 0,-0.55062 -0.07211,-0.8456 -0.281867,-1.14058 -0.288422,-0.41952 -0.766941,-0.64895 -1.343785,-0.64895 -0.544069,0 -0.989813,0.1901 -1.27168,0.54407 -0.242537,0.30153 -0.347417,0.67517 -0.347417,1.24546 z m 2.766231,-0.0787 c 0,0.42608 -0.05244,0.76694 -0.157322,0.96359 -0.170431,0.33431 -0.517848,0.52441 -0.970147,0.52441 -0.412968,0 -0.740721,-0.15733 -0.943927,-0.45886 -0.150766,-0.20976 -0.216317,-0.53096 -0.216317,-1.02914 v -1.18646 c 0,-0.4523 0.05244,-0.75384 0.170432,-0.95049 0.190096,-0.32119 0.550624,-0.51129 0.976702,-0.51129 0.386748,0 0.7145,0.15732 0.917707,0.43263 0.163876,0.22287 0.222872,0.49819 0.222872,1.02915 z"
         id="text42"
         aria-label="100" />
      <path
         style="font-size:6.55505px;font-family:'URW Gothic';-inkscape-font-specification:'URW Gothic, Normal';text-align:center;text-anchor:middle;fill:#a77cc8;stroke-width:3.958;stroke-linecap:round;stroke-linejoin:round;paint-order:fill markers stroke"
         d="M 41.232181,344.15912 H 41.7107 v -4.84418 h -1.304455 v 0.43919 h 0.825936 z m 1.986186,-1.76331 c 0,0.48507 0.07866,0.85216 0.235982,1.12091 0.281867,0.47852 0.773496,0.72761 1.422446,0.72761 0.583399,0 1.022588,-0.2032 1.2979,-0.60306 0.190096,-0.27531 0.288422,-0.70795 0.288422,-1.24546 v -1.37656 c 0,-0.55062 -0.07211,-0.8456 -0.281867,-1.14058 -0.288422,-0.41952 -0.766941,-0.64895 -1.343786,-0.64895 -0.544069,0 -0.989812,0.1901 -1.271679,0.54407 -0.242537,0.30153 -0.347418,0.67517 -0.347418,1.24546 z m 2.766231,-0.0787 c 0,0.42608 -0.05244,0.76694 -0.157321,0.96359 -0.170431,0.33431 -0.517849,0.52441 -0.970147,0.52441 -0.412969,0 -0.740721,-0.15733 -0.943928,-0.45886 -0.150766,-0.20976 -0.216316,-0.53096 -0.216316,-1.02914 v -1.18646 c 0,-0.4523 0.05244,-0.75384 0.170431,-0.95049 0.190097,-0.32119 0.550624,-0.51129 0.976703,-0.51129 0.386747,0 0.7145,0.15732 0.917707,0.43263 0.163876,0.22287 0.222871,0.49819 0.222871,1.02915 z m 0.865273,0.0787 c 0,0.48507 0.07866,0.85216 0.235981,1.12091 0.281867,0.47852 0.773496,0.72761 1.422446,0.72761 0.5834,0 1.022588,-0.2032 1.2979,-0.60306 0.190096,-0.27531 0.288422,-0.70795 0.288422,-1.24546 v -1.37656 c 0,-0.55062 -0.07211,-0.8456 -0.281867,-1.14058 -0.288422,-0.41952 -0.766941,-0.64895 -1.343785,-0.64895 -0.544069,0 -0.989813,0.1901 -1.27168,0.54407 -0.242537,0.30153 -0.347417,0.67517 -0.347417,1.24546 z m 2.766231,-0.0787 c 0,0.42608 -0.05244,0.76694 -0.157322,0.96359 -0.170431,0.33431 -0.517849,0.52441 -0.970147,0.52441 -0.412968,0 -0.740721,-0.15733 -0.943927,-0.45886 -0.150766,-0.20976 -0.216317,-0.53096 -0.216317,-1.02914 v -1.18646 c 0,-0.4523 0.05244,-0.75384 0.170431,-0.95049 0.190097,-0.32119 0.550625,-0.51129 0.976703,-0.51129 0.386748,0 0.7145,0.15732 0.917707,0.43263 0.163876,0.22287 0.222872,0.49819 0.222872,1.02915 z"
         id="text43"
         aria-label="100" />
      <path
         style="font-size:6.55505px;font-family:'URW Gothic';-inkscape-font-specification:'URW Gothic, Normal';text-align:center;text-anchor:middle;fill:#a77cc8;stroke-width:3.958;stroke-linecap:round;stroke-linejoin:round;paint-order:fill markers stroke"
         d="m 58.173675,344.15912 h 0.478519 v -4.84418 h -1.304455 v 0.43919 h 0.825936 z m 1.986186,-1.76331 c 0,0.48507 0.07866,0.85216 0.235982,1.12091 0.281867,0.47852 0.773496,0.72761 1.422446,0.72761 0.583399,0 1.022588,-0.2032 1.2979,-0.60306 0.190096,-0.27531 0.288422,-0.70795 0.288422,-1.24546 v -1.37656 c 0,-0.55062 -0.07211,-0.8456 -0.281867,-1.14058 -0.288422,-0.41952 -0.766941,-0.64895 -1.343786,-0.64895 -0.544069,0 -0.989812,0.1901 -1.271679,0.54407 -0.242537,0.30153 -0.347418,0.67517 -0.347418,1.24546 z m 2.766231,-0.0787 c 0,0.42608 -0.05244,0.76694 -0.157321,0.96359 -0.170431,0.33431 -0.517849,0.52441 -0.970147,0.52441 -0.412969,0 -0.740721,-0.15733 -0.943928,-0.45886 -0.150766,-0.20976 -0.216316,-0.53096 -0.216316,-1.02914 v -1.18646 c 0,-0.4523 0.05244,-0.75384 0.170431,-0.95049 0.190097,-0.32119 0.550624,-0.51129 0.976703,-0.51129 0.386747,0 0.7145,0.15732 0.917707,0.43263 0.163876,0.22287 0.222871,0.49819 0.222871,1.02915 z m 0.865273,0.0787 c 0,0.48507 0.07866,0.85216 0.235981,1.12091 0.281867,0.47852 0.773496,0.72761 1.422446,0.72761 0.5834,0 1.022588,-0.2032 1.2979,-0.60306 0.190096,-0.27531 0.288422,-0.70795 0.288422,-1.24546 v -1.37656 c 0,-0.55062 -0.0721,-0.8456 -0.281867,-1.14058 -0.288422,-0.41952 -0.766941,-0.64895 -1.343785,-0.64895 -0.544069,0 -0.989813,0.1901 -1.27168,0.54407 -0.242537,0.30153 -0.347417,0.67517 -0.347417,1.24546 z m 2.766231,-0.0787 c 0,0.42608 -0.05244,0.76694 -0.157322,0.96359 -0.170431,0.33431 -0.517849,0.52441 -0.970147,0.52441 -0.412968,0 -0.740721,-0.15733 -0.943927,-0.45886 -0.150766,-0.20976 -0.216317,-0.53096 -0.216317,-1.02914 v -1.18646 c 0,-0.4523 0.05244,-0.75384 0.170431,-0.95049 0.190097,-0.32119 0.550625,-0.51129 0.976703,-0.51129 0.386748,0 0.7145,0.15732 0.917707,0.43263 0.163876,0.22287 0.222872,0.49819 0.222872,1.02915 z"
         id="text44"
         aria-label="100" />
      <path
         style="font-size:6.55505px;font-family:'URW Gothic';-inkscape-font-specification:'URW Gothic, Normal';text-align:center;text-anchor:middle;fill:#717171;stroke-width:3.958;stroke-linecap:round;stroke-linejoin:round;paint-order:fill markers stroke"
         d="m 36.530595,341.48793 h -1.402781 v 0.48508 h 1.402781 v 1.429 h 0.504739 v -1.429 h 1.396225 v -0.48508 h -1.396225 v -1.41589 h -0.504739 z"
         id="text45"
         aria-label="+" />
      <path
         style="font-size:6.55505px;font-family:'URW Gothic';-inkscape-font-specification:'URW Gothic, Normal';text-align:center;text-anchor:middle;fill:#717171;stroke-width:3.958;stroke-linecap:round;stroke-linejoin:round;paint-order:fill markers stroke"
         d="m 53.472089,341.48793 h -1.402781 v 0.48508 h 1.402781 v 1.429 h 0.504739 v -1.429 h 1.396225 v -0.48508 h -1.396225 v -1.41589 h -0.504739 z"
         id="text46"
         aria-label="+" />
      <path
         style="font-size:6.55505px;font-family:'URW Gothic';-inkscape-font-specification:'URW Gothic, Normal';text-align:center;text-anchor:middle;fill:#717171;stroke-width:3.958;stroke-linecap:round;stroke-linejoin:round;paint-order:fill markers stroke"
         d="m 72.807797,344.57864 h 0.439189 l 1.900964,-5.68323 h -0.458853 z"
         id="text47"
         aria-label="/" />
      <path
         style="font-size:6.55505px;font-family:'URW Gothic';-inkscape-font-specification:'URW Gothic, Normal';text-align:center;text-anchor:middle;fill:#717171;stroke-width:3.958;stroke-linecap:round;stroke-linejoin:round;paint-order:fill markers stroke"
         d="m 21.490061,338.90524 c -0.380192,0.1311 -0.609619,0.26876 -0.878376,0.54407 -0.589955,0.58995 -0.943927,1.44211 -0.943927,2.2746 0,0.68172 0.209761,1.32412 0.629284,1.90096 0.353973,0.49819 0.694836,0.76039 1.193019,0.94393 v -0.42608 c -0.327752,-0.2032 -0.524404,-0.37363 -0.7145,-0.62273 -0.399858,-0.5244 -0.62273,-1.17335 -0.62273,-1.79608 0,-0.53751 0.163877,-1.08158 0.491629,-1.58632 0.222872,-0.36053 0.465409,-0.59651 0.845601,-0.81938 z"
         id="text48"
         aria-label="(" />
      <path
         style="font-size:6.55505px;font-family:'URW Gothic';-inkscape-font-specification:'URW Gothic, Normal';text-align:center;text-anchor:middle;fill:#717171;stroke-width:3.958;stroke-linecap:round;stroke-linejoin:round;paint-order:fill markers stroke"
         d="m 69.010804,344.5688 c 0.380193,-0.1311 0.60962,-0.27531 0.878377,-0.54407 0.589954,-0.59651 0.943927,-1.44866 0.943927,-2.2746 0,-0.68173 -0.209762,-1.32412 -0.629285,-1.90752 -0.353973,-0.49163 -0.694835,-0.76039 -1.193019,-0.93737 v 0.42608 c 0.327753,0.19665 0.524404,0.37363 0.7145,0.62273 0.399859,0.5244 0.62273,1.17335 0.62273,1.78952 0,0.54407 -0.163876,1.08159 -0.491629,1.59288 -0.222871,0.35397 -0.465408,0.58996 -0.845601,0.81283 z"
         id="text49"
         aria-label=")" />
    </g>
  </g>
</svg>
