<?xml version="1.0" encoding="utf-8"?>
<!DOCTYPE svg PUBLIC "-//W3C//DTD SVG 1.1//EN" "http://www.w3.org/Graphics/SVG/1.1/DTD/svg11.dtd">
<svg version="1.1" id="Layer_1" xmlns="http://www.w3.org/2000/svg" xmlns:xlink="http://www.w3.org/1999/xlink" x="0px" y="0px"
width="2277px" height="2277px" viewBox="0 0 2277 2277" enable-background="new 0 0 2277 2277" xml:space="preserve">
<rect x="0" y="0" width="2277" height="2277" fill="rgb(255,255,255)" /><g transform="translate(138,138)"><g transform="translate(552,0) scale(0.138,0.138)"><g transform="" style="fill: rgb(0, 0, 0);">
<path d="M38.5,211.5c0,42.907,0,123.188,0,171.55c0,23.857,0,39.95,0,39.95v17.5V470v30h423v-30v-29.5V423c0,0,0-16.216,0-39.95
	c0-51.332,0-137.84,0-171.55C461.5,94.699,366.8,0,250,0C133.191,0,38.5,94.699,38.5,211.5z"/>
</g></g><g transform="translate(690,0) scale(0.138,0.138)"><g transform="" style="fill: rgb(0, 0, 0);">
<path d="M38.5,211.5c0,42.907,0,123.188,0,171.55c0,23.857,0,39.95,0,39.95v17.5V470v30h423v-30v-29.5V423c0,0,0-16.216,0-39.95
	c0-51.332,0-137.84,0-171.55C461.5,94.699,366.8,0,250,0C133.191,0,38.5,94.699,38.5,211.5z"/>
</g></g><g transform="translate(759,0) scale(0.138,0.138)"><g transform="" style="fill: rgb(0, 0, 0);">
<path d="M38.5,211.5c0,42.907,0,123.188,0,171.55c0,23.857,0,39.95,0,39.95v17.5V470v30h423v-30v-29.5V423c0,0,0-16.216,0-39.95
	c0-51.332,0-137.84,0-171.55C461.5,94.699,366.8,0,250,0C133.191,0,38.5,94.699,38.5,211.5z"/>
</g></g><g transform="translate(1035,0) scale(0.138,0.138)"><g transform="" style="fill: rgb(0, 0, 0);">
<path d="M250,38.5c116.813,0,211.5,94.693,211.5,211.5c0,116.813-94.687,211.5-211.5,211.5c-116.807,0-211.5-94.687-211.5-211.5
	C38.5,133.193,133.193,38.5,250,38.5z"/>
</g></g><g transform="translate(1104,0) scale(0.138,0.138)"><g transform="" style="fill: rgb(0, 0, 0);">
<path d="M38.5,211.5c0,42.907,0,123.188,0,171.55c0,23.857,0,39.95,0,39.95v17.5V470v30h423v-30v-29.5V423c0,0,0-16.216,0-39.95
	c0-51.332,0-137.84,0-171.55C461.5,94.699,366.8,0,250,0C133.191,0,38.5,94.699,38.5,211.5z"/>
</g></g><g transform="translate(1242,0) scale(0.138,0.138)"><g transform="" style="fill: rgb(0, 0, 0);">
<path d="M250,38.5c116.813,0,211.5,94.693,211.5,211.5c0,116.813-94.687,211.5-211.5,211.5c-116.807,0-211.5-94.687-211.5-211.5
	C38.5,133.193,133.193,38.5,250,38.5z"/>
</g></g><g transform="translate(552,69) scale(0.138,0.138)"><g transform="" style="fill: rgb(0, 0, 0);">
<polygon points="38.5,250 38.5,500 461.5,500 461.5,250 461.5,0 38.5,0 "/>
</g></g><g transform="translate(690,69) scale(0.138,0.138)"><g transform="" style="fill: rgb(0, 0, 0);">
<path d="M461.5,288.5c0-42.907,0-123.188,0-171.55c0-23.857,0-39.95,0-39.95V59.5V30V0h-423v30v29.5V77c0,0,0,16.216,0,39.95
	c0,51.332,0,137.84,0,171.55C38.5,405.301,133.2,500,250,500C366.809,500,461.5,405.301,461.5,288.5z"/>
</g></g><g transform="translate(759,69) scale(0.138,0.138)"><g transform="" style="fill: rgb(0, 0, 0);">
<path d="M461.5,288.5c0-42.907,0-123.188,0-171.55c0-23.857,0-39.95,0-39.95V59.5V30V0h-423v30v29.5V77c0,0,0,16.216,0,39.95
	c0,51.332,0,137.84,0,171.55C38.5,405.301,133.2,500,250,500C366.809,500,461.5,405.301,461.5,288.5z"/>
</g></g><g transform="translate(828,69) scale(0.138,0.138)"><g transform="" style="fill: rgb(0, 0, 0);">
<path d="M38.5,211.5c0,42.907,0,123.188,0,171.55c0,23.857,0,39.95,0,39.95v17.5V470v30h423v-30v-29.5V423c0,0,0-16.216,0-39.95
	c0-51.332,0-137.84,0-171.55C461.5,94.699,366.8,0,250,0C133.191,0,38.5,94.699,38.5,211.5z"/>
</g></g><g transform="translate(1104,69) scale(0.138,0.138)"><g transform="" style="fill: rgb(0, 0, 0);">
<polygon points="38.5,250 38.5,500 461.5,500 461.5,250 461.5,0 38.5,0 "/>
</g></g><g transform="translate(1311,69) scale(0.138,0.138)"><g transform="" style="fill: rgb(0, 0, 0);">
<path d="M38.5,211.5c0,42.907,0,123.188,0,171.55c0,23.857,0,39.95,0,39.95v17.5V470v30h423v-30v-29.5V423c0,0,0-16.216,0-39.95
	c0-51.332,0-137.84,0-171.55C461.5,94.699,366.8,0,250,0C133.191,0,38.5,94.699,38.5,211.5z"/>
</g></g><g transform="translate(552,138) scale(0.138,0.138)"><g transform="" style="fill: rgb(0, 0, 0);">
<path d="M461.5,288.5c0-42.907,0-123.188,0-171.55c0-23.857,0-39.95,0-39.95V59.5V30V0h-423v30v29.5V77c0,0,0,16.216,0,39.95
	c0,51.332,0,137.84,0,171.55C38.5,405.301,133.2,500,250,500C366.809,500,461.5,405.301,461.5,288.5z"/>
</g></g><g transform="translate(621,138) scale(0.138,0.138)"><g transform="" style="fill: rgb(0, 0, 0);">
<path d="M38.5,211.5c0,42.907,0,123.188,0,171.55c0,23.857,0,39.95,0,39.95v17.5V470v30h423v-30v-29.5V423c0,0,0-16.216,0-39.95
	c0-51.332,0-137.84,0-171.55C461.5,94.699,366.8,0,250,0C133.191,0,38.5,94.699,38.5,211.5z"/>
</g></g><g transform="translate(828,138) scale(0.138,0.138)"><g transform="" style="fill: rgb(0, 0, 0);">
<path d="M461.5,288.5c0-42.907,0-123.188,0-171.55c0-23.857,0-39.95,0-39.95V59.5V30V0h-423v30v29.5V77c0,0,0,16.216,0,39.95
	c0,51.332,0,137.84,0,171.55C38.5,405.301,133.2,500,250,500C366.809,500,461.5,405.301,461.5,288.5z"/>
</g></g><g transform="translate(1035,138) scale(0.138,0.138)"><g transform="" style="fill: rgb(0, 0, 0);">
<path d="M250,38.5c116.813,0,211.5,94.693,211.5,211.5c0,116.813-94.687,211.5-211.5,211.5c-116.807,0-211.5-94.687-211.5-211.5
	C38.5,133.193,133.193,38.5,250,38.5z"/>
</g></g><g transform="translate(1104,138) scale(0.138,0.138)"><g transform="" style="fill: rgb(0, 0, 0);">
<polygon points="38.5,250 38.5,500 461.5,500 461.5,250 461.5,0 38.5,0 "/>
</g></g><g transform="translate(1311,138) scale(0.138,0.138)"><g transform="" style="fill: rgb(0, 0, 0);">
<polygon points="38.5,250 38.5,500 461.5,500 461.5,250 461.5,0 38.5,0 "/>
</g></g><g transform="translate(621,207) scale(0.138,0.138)"><g transform="" style="fill: rgb(0, 0, 0);">
<path d="M461.5,288.5c0-42.907,0-123.188,0-171.55c0-23.857,0-39.95,0-39.95V59.5V30V0h-423v30v29.5V77c0,0,0,16.216,0,39.95
	c0,51.332,0,137.84,0,171.55C38.5,405.301,133.2,500,250,500C366.809,500,461.5,405.301,461.5,288.5z"/>
</g></g><g transform="translate(759,207) scale(0.138,0.138)"><g transform="" style="fill: rgb(0, 0, 0);">
<path d="M250,38.5c116.813,0,211.5,94.693,211.5,211.5c0,116.813-94.687,211.5-211.5,211.5c-116.807,0-211.5-94.687-211.5-211.5
	C38.5,133.193,133.193,38.5,250,38.5z"/>
</g></g><g transform="translate(1104,207) scale(0.138,0.138)"><g transform="" style="fill: rgb(0, 0, 0);">
<polygon points="38.5,250 38.5,500 461.5,500 461.5,250 461.5,0 38.5,0 "/>
</g></g><g transform="translate(1173,207) scale(0.138,0.138)"><g transform="" style="fill: rgb(0, 0, 0);">
<path d="M38.5,211.5c0,42.907,0,123.188,0,171.55c0,23.857,0,39.95,0,39.95v17.5V470v30h423v-30v-29.5V423c0,0,0-16.216,0-39.95
	c0-51.332,0-137.84,0-171.55C461.5,94.699,366.8,0,250,0C133.191,0,38.5,94.699,38.5,211.5z"/>
</g></g><g transform="translate(1311,207) scale(0.138,0.138)"><g transform="" style="fill: rgb(0, 0, 0);">
<polygon points="38.5,250 38.5,500 461.5,500 461.5,250 461.5,0 38.5,0 "/>
</g></g><g transform="translate(1380,207) scale(0.138,0.138)"><g transform="" style="fill: rgb(0, 0, 0);">
<path d="M250,38.5c116.813,0,211.5,94.693,211.5,211.5c0,116.813-94.687,211.5-211.5,211.5c-116.807,0-211.5-94.687-211.5-211.5
	C38.5,133.193,133.193,38.5,250,38.5z"/>
</g></g><g transform="translate(552,276) scale(0.138,0.138)"><g transform="" style="fill: rgb(0, 0, 0);">
<path d="M250,38.5c116.813,0,211.5,94.693,211.5,211.5c0,116.813-94.687,211.5-211.5,211.5c-116.807,0-211.5-94.687-211.5-211.5
	C38.5,133.193,133.193,38.5,250,38.5z"/>
</g></g><g transform="translate(690,276) scale(0.138,0.138)"><g transform="" style="fill: rgb(0, 0, 0);">
<path d="M38.5,211.5c0,42.907,0,123.188,0,171.55c0,23.857,0,39.95,0,39.95v17.5V470v30h423v-30v-29.5V423c0,0,0-16.216,0-39.95
	c0-51.332,0-137.84,0-171.55C461.5,94.699,366.8,0,250,0C133.191,0,38.5,94.699,38.5,211.5z"/>
</g></g><g transform="translate(828,276) scale(0.138,0.138)"><g transform="" style="fill: rgb(0, 0, 0);">
<path d="M250,38.5c116.813,0,211.5,94.693,211.5,211.5c0,116.813-94.687,211.5-211.5,211.5c-116.807,0-211.5-94.687-211.5-211.5
	C38.5,133.193,133.193,38.5,250,38.5z"/>
</g></g><g transform="translate(966,276) scale(0.138,0.138)"><g transform="" style="fill: rgb(0, 0, 0);">
<path d="M250,38.5c116.813,0,211.5,94.693,211.5,211.5c0,116.813-94.687,211.5-211.5,211.5c-116.807,0-211.5-94.687-211.5-211.5
	C38.5,133.193,133.193,38.5,250,38.5z"/>
</g></g><g transform="translate(1035,276) scale(0.138,0.138)"><g transform="" style="fill: rgb(0, 0, 0);">
<path d="M38.5,211.5c0,42.907,0,123.188,0,171.55c0,23.857,0,39.95,0,39.95v17.5V470v30h423v-30v-29.5V423c0,0,0-16.216,0-39.95
	c0-51.332,0-137.84,0-171.55C461.5,94.699,366.8,0,250,0C133.191,0,38.5,94.699,38.5,211.5z"/>
</g></g><g transform="translate(1104,276) scale(0.138,0.138)"><g transform="" style="fill: rgb(0, 0, 0);">
<polygon points="38.5,250 38.5,500 461.5,500 461.5,250 461.5,0 38.5,0 "/>
</g></g><g transform="translate(1173,276) scale(0.138,0.138)"><g transform="" style="fill: rgb(0, 0, 0);">
<polygon points="38.5,250 38.5,500 461.5,500 461.5,250 461.5,0 38.5,0 "/>
</g></g><g transform="translate(1242,276) scale(0.138,0.138)"><g transform="" style="fill: rgb(0, 0, 0);">
<path d="M250,38.5c116.813,0,211.5,94.693,211.5,211.5c0,116.813-94.687,211.5-211.5,211.5c-116.807,0-211.5-94.687-211.5-211.5
	C38.5,133.193,133.193,38.5,250,38.5z"/>
</g></g><g transform="translate(1311,276) scale(0.138,0.138)"><g transform="" style="fill: rgb(0, 0, 0);">
<path d="M461.5,288.5c0-42.907,0-123.188,0-171.55c0-23.857,0-39.95,0-39.95V59.5V30V0h-423v30v29.5V77c0,0,0,16.216,0,39.95
	c0,51.332,0,137.84,0,171.55C38.5,405.301,133.2,500,250,500C366.809,500,461.5,405.301,461.5,288.5z"/>
</g></g><g transform="translate(690,345) scale(0.138,0.138)"><g transform="" style="fill: rgb(0, 0, 0);">
<polygon points="38.5,250 38.5,500 461.5,500 461.5,250 461.5,0 38.5,0 "/>
</g></g><g transform="translate(759,345) scale(0.138,0.138)"><g transform="" style="fill: rgb(0, 0, 0);">
<path d="M250,38.5c116.813,0,211.5,94.693,211.5,211.5c0,116.813-94.687,211.5-211.5,211.5c-116.807,0-211.5-94.687-211.5-211.5
	C38.5,133.193,133.193,38.5,250,38.5z"/>
</g></g><g transform="translate(1035,345) scale(0.138,0.138)"><g transform="" style="fill: rgb(0, 0, 0);">
<path d="M461.5,288.5c0-42.907,0-123.188,0-171.55c0-23.857,0-39.95,0-39.95V59.5V30V0h-423v30v29.5V77c0,0,0,16.216,0,39.95
	c0,51.332,0,137.84,0,171.55C38.5,405.301,133.2,500,250,500C366.809,500,461.5,405.301,461.5,288.5z"/>
</g></g><g transform="translate(1104,345) scale(0.138,0.138)"><g transform="" style="fill: rgb(0, 0, 0);">
<polygon points="38.5,250 38.5,500 461.5,500 461.5,250 461.5,0 38.5,0 "/>
</g></g><g transform="translate(1173,345) scale(0.138,0.138)"><g transform="" style="fill: rgb(0, 0, 0);">
<path d="M461.5,288.5c0-42.907,0-123.188,0-171.55c0-23.857,0-39.95,0-39.95V59.5V30V0h-423v30v29.5V77c0,0,0,16.216,0,39.95
	c0,51.332,0,137.84,0,171.55C38.5,405.301,133.2,500,250,500C366.809,500,461.5,405.301,461.5,288.5z"/>
</g></g><g transform="translate(552,414) scale(0.138,0.138)"><g transform="" style="fill: rgb(0, 0, 0);">
<path d="M250,38.5c116.813,0,211.5,94.693,211.5,211.5c0,116.813-94.687,211.5-211.5,211.5c-116.807,0-211.5-94.687-211.5-211.5
	C38.5,133.193,133.193,38.5,250,38.5z"/>
</g></g><g transform="translate(690,414) scale(0.138,0.138)"><g transform="" style="fill: rgb(0, 0, 0);">
<path d="M461.5,288.5c0-42.907,0-123.188,0-171.55c0-23.857,0-39.95,0-39.95V59.5V30V0h-423v30v29.5V77c0,0,0,16.216,0,39.95
	c0,51.332,0,137.84,0,171.55C38.5,405.301,133.2,500,250,500C366.809,500,461.5,405.301,461.5,288.5z"/>
</g></g><g transform="translate(828,414) scale(0.138,0.138)"><g transform="" style="fill: rgb(0, 0, 0);">
<path d="M38.5,211.5c0,42.907,0,123.188,0,171.55c0,23.857,0,39.95,0,39.95v17.5V470v30h423v-30v-29.5V423c0,0,0-16.216,0-39.95
	c0-51.332,0-137.84,0-171.55C461.5,94.699,366.8,0,250,0C133.191,0,38.5,94.699,38.5,211.5z"/>
</g></g><g transform="translate(966,414) scale(0.138,0.138)"><g transform="" style="fill: rgb(0, 0, 0);">
<path d="M250,38.5c116.813,0,211.5,94.693,211.5,211.5c0,116.813-94.687,211.5-211.5,211.5c-116.807,0-211.5-94.687-211.5-211.5
	C38.5,133.193,133.193,38.5,250,38.5z"/>
</g></g><g transform="translate(1104,414) scale(0.138,0.138)"><g transform="" style="fill: rgb(0, 0, 0);">
<polygon points="38.5,250 38.5,500 461.5,500 461.5,250 461.5,0 38.5,0 "/>
</g></g><g transform="translate(1242,414) scale(0.138,0.138)"><g transform="" style="fill: rgb(0, 0, 0);">
<path d="M250,38.5c116.813,0,211.5,94.693,211.5,211.5c0,116.813-94.687,211.5-211.5,211.5c-116.807,0-211.5-94.687-211.5-211.5
	C38.5,133.193,133.193,38.5,250,38.5z"/>
</g></g><g transform="translate(1380,414) scale(0.138,0.138)"><g transform="" style="fill: rgb(0, 0, 0);">
<path d="M250,38.5c116.813,0,211.5,94.693,211.5,211.5c0,116.813-94.687,211.5-211.5,211.5c-116.807,0-211.5-94.687-211.5-211.5
	C38.5,133.193,133.193,38.5,250,38.5z"/>
</g></g><g transform="translate(828,483) scale(0.138,0.138)"><g transform="" style="fill: rgb(0, 0, 0);">
<polygon points="38.5,250 38.5,500 461.5,500 461.5,250 461.5,0 38.5,0 "/>
</g></g><g transform="translate(897,483) scale(0.138,0.138)"><g transform="" style="fill: rgb(0, 0, 0);">
<path d="M38.5,211.5c0,42.907,0,123.188,0,171.55c0,23.857,0,39.95,0,39.95v17.5V470v30h423v-30v-29.5V423c0,0,0-16.216,0-39.95
	c0-51.332,0-137.84,0-171.55C461.5,94.699,366.8,0,250,0C133.191,0,38.5,94.699,38.5,211.5z"/>
</g></g><g transform="translate(1035,483) scale(0.138,0.138)"><g transform="" style="fill: rgb(0, 0, 0);">
<path d="M250,38.5c116.813,0,211.5,94.693,211.5,211.5c0,116.813-94.687,211.5-211.5,211.5c-116.807,0-211.5-94.687-211.5-211.5
	C38.5,133.193,133.193,38.5,250,38.5z"/>
</g></g><g transform="translate(1104,483) scale(0.138,0.138)"><g transform="" style="fill: rgb(0, 0, 0);">
<path d="M461.5,288.5c0-42.907,0-123.188,0-171.55c0-23.857,0-39.95,0-39.95V59.5V30V0h-423v30v29.5V77c0,0,0,16.216,0,39.95
	c0,51.332,0,137.84,0,171.55C38.5,405.301,133.2,500,250,500C366.809,500,461.5,405.301,461.5,288.5z"/>
</g></g><g transform="translate(1311,483) scale(0.138,0.138)"><g transform="" style="fill: rgb(0, 0, 0);">
<path d="M38.5,211.5c0,42.907,0,123.188,0,171.55c0,23.857,0,39.95,0,39.95v17.5V470v30h423v-30v-29.5V423c0,0,0-16.216,0-39.95
	c0-51.332,0-137.84,0-171.55C461.5,94.699,366.8,0,250,0C133.191,0,38.5,94.699,38.5,211.5z"/>
</g></g><g transform="translate(0,552) scale(0.138,0.138)"><g transform="" style="fill: rgb(0, 0, 0);">
<path d="M38.5,211.5c0,42.907,0,123.188,0,171.55c0,23.857,0,39.95,0,39.95v17.5V470v30h423v-30v-29.5V423c0,0,0-16.216,0-39.95
	c0-51.332,0-137.84,0-171.55C461.5,94.699,366.8,0,250,0C133.191,0,38.5,94.699,38.5,211.5z"/>
</g></g><g transform="translate(207,552) scale(0.138,0.138)"><g transform="" style="fill: rgb(0, 0, 0);">
<path d="M250,38.5c116.813,0,211.5,94.693,211.5,211.5c0,116.813-94.687,211.5-211.5,211.5c-116.807,0-211.5-94.687-211.5-211.5
	C38.5,133.193,133.193,38.5,250,38.5z"/>
</g></g><g transform="translate(276,552) scale(0.138,0.138)"><g transform="" style="fill: rgb(0, 0, 0);">
<path d="M38.5,211.5c0,42.907,0,123.188,0,171.55c0,23.857,0,39.95,0,39.95v17.5V470v30h423v-30v-29.5V423c0,0,0-16.216,0-39.95
	c0-51.332,0-137.84,0-171.55C461.5,94.699,366.8,0,250,0C133.191,0,38.5,94.699,38.5,211.5z"/>
</g></g><g transform="translate(345,552) scale(0.138,0.138)"><g transform="" style="fill: rgb(0, 0, 0);">
<path d="M38.5,211.5c0,42.907,0,123.188,0,171.55c0,23.857,0,39.95,0,39.95v17.5V470v30h423v-30v-29.5V423c0,0,0-16.216,0-39.95
	c0-51.332,0-137.84,0-171.55C461.5,94.699,366.8,0,250,0C133.191,0,38.5,94.699,38.5,211.5z"/>
</g></g><g transform="translate(414,552) scale(0.138,0.138)"><g transform="" style="fill: rgb(0, 0, 0);">
<path d="M250,38.5c116.813,0,211.5,94.693,211.5,211.5c0,116.813-94.687,211.5-211.5,211.5c-116.807,0-211.5-94.687-211.5-211.5
	C38.5,133.193,133.193,38.5,250,38.5z"/>
</g></g><g transform="translate(483,552) scale(0.138,0.138)"><g transform="" style="fill: rgb(0, 0, 0);">
<path d="M38.5,211.5c0,42.907,0,123.188,0,171.55c0,23.857,0,39.95,0,39.95v17.5V470v30h423v-30v-29.5V423c0,0,0-16.216,0-39.95
	c0-51.332,0-137.84,0-171.55C461.5,94.699,366.8,0,250,0C133.191,0,38.5,94.699,38.5,211.5z"/>
</g></g><g transform="translate(552,552) scale(0.138,0.138)"><g transform="" style="fill: rgb(0, 0, 0);">
<path d="M250,38.5c116.813,0,211.5,94.693,211.5,211.5c0,116.813-94.687,211.5-211.5,211.5c-116.807,0-211.5-94.687-211.5-211.5
	C38.5,133.193,133.193,38.5,250,38.5z"/>
</g></g><g transform="translate(690,552) scale(0.138,0.138)"><g transform="" style="fill: rgb(0, 0, 0);">
<path d="M250,38.5c116.813,0,211.5,94.693,211.5,211.5c0,116.813-94.687,211.5-211.5,211.5c-116.807,0-211.5-94.687-211.5-211.5
	C38.5,133.193,133.193,38.5,250,38.5z"/>
</g></g><g transform="translate(759,552) scale(0.138,0.138)"><g transform="" style="fill: rgb(0, 0, 0);">
<path d="M250,38.5c116.813,0,211.5,94.693,211.5,211.5c0,116.813-94.687,211.5-211.5,211.5c-116.807,0-211.5-94.687-211.5-211.5
	C38.5,133.193,133.193,38.5,250,38.5z"/>
</g></g><g transform="translate(828,552) scale(0.138,0.138)"><g transform="" style="fill: rgb(0, 0, 0);">
<polygon points="38.5,250 38.5,500 461.5,500 461.5,250 461.5,0 38.5,0 "/>
</g></g><g transform="translate(897,552) scale(0.138,0.138)"><g transform="" style="fill: rgb(0, 0, 0);">
<polygon points="38.5,250 38.5,500 461.5,500 461.5,250 461.5,0 38.5,0 "/>
</g></g><g transform="translate(1173,552) scale(0.138,0.138)"><g transform="" style="fill: rgb(0, 0, 0);">
<path d="M38.5,211.5c0,42.907,0,123.188,0,171.55c0,23.857,0,39.95,0,39.95v17.5V470v30h423v-30v-29.5V423c0,0,0-16.216,0-39.95
	c0-51.332,0-137.84,0-171.55C461.5,94.699,366.8,0,250,0C133.191,0,38.5,94.699,38.5,211.5z"/>
</g></g><g transform="translate(1311,552) scale(0.138,0.138)"><g transform="" style="fill: rgb(0, 0, 0);">
<polygon points="38.5,250 38.5,500 461.5,500 461.5,250 461.5,0 38.5,0 "/>
</g></g><g transform="translate(1449,552) scale(0.138,0.138)"><g transform="" style="fill: rgb(0, 0, 0);">
<path d="M38.5,211.5c0,42.907,0,123.188,0,171.55c0,23.857,0,39.95,0,39.95v17.5V470v30h423v-30v-29.5V423c0,0,0-16.216,0-39.95
	c0-51.332,0-137.84,0-171.55C461.5,94.699,366.8,0,250,0C133.191,0,38.5,94.699,38.5,211.5z"/>
</g></g><g transform="translate(1656,552) scale(0.138,0.138)"><g transform="" style="fill: rgb(0, 0, 0);">
<path d="M38.5,211.5c0,42.907,0,123.188,0,171.55c0,23.857,0,39.95,0,39.95v17.5V470v30h423v-30v-29.5V423c0,0,0-16.216,0-39.95
	c0-51.332,0-137.84,0-171.55C461.5,94.699,366.8,0,250,0C133.191,0,38.5,94.699,38.5,211.5z"/>
</g></g><g transform="translate(1794,552) scale(0.138,0.138)"><g transform="" style="fill: rgb(0, 0, 0);">
<path d="M38.5,211.5c0,42.907,0,123.188,0,171.55c0,23.857,0,39.95,0,39.95v17.5V470v30h423v-30v-29.5V423c0,0,0-16.216,0-39.95
	c0-51.332,0-137.84,0-171.55C461.5,94.699,366.8,0,250,0C133.191,0,38.5,94.699,38.5,211.5z"/>
</g></g><g transform="translate(1863,552) scale(0.138,0.138)"><g transform="" style="fill: rgb(0, 0, 0);">
<path d="M38.5,211.5c0,42.907,0,123.188,0,171.55c0,23.857,0,39.95,0,39.95v17.5V470v30h423v-30v-29.5V423c0,0,0-16.216,0-39.95
	c0-51.332,0-137.84,0-171.55C461.5,94.699,366.8,0,250,0C133.191,0,38.5,94.699,38.5,211.5z"/>
</g></g><g transform="translate(1932,552) scale(0.138,0.138)"><g transform="" style="fill: rgb(0, 0, 0);">
<path d="M250,38.5c116.813,0,211.5,94.693,211.5,211.5c0,116.813-94.687,211.5-211.5,211.5c-116.807,0-211.5-94.687-211.5-211.5
	C38.5,133.193,133.193,38.5,250,38.5z"/>
</g></g><g transform="translate(0,621) scale(0.138,0.138)"><g transform="" style="fill: rgb(0, 0, 0);">
<path d="M461.5,288.5c0-42.907,0-123.188,0-171.55c0-23.857,0-39.95,0-39.95V59.5V30V0h-423v30v29.5V77c0,0,0,16.216,0,39.95
	c0,51.332,0,137.84,0,171.55C38.5,405.301,133.2,500,250,500C366.809,500,461.5,405.301,461.5,288.5z"/>
</g></g><g transform="translate(69,621) scale(0.138,0.138)"><g transform="" style="fill: rgb(0, 0, 0);">
<path d="M250,38.5c116.813,0,211.5,94.693,211.5,211.5c0,116.813-94.687,211.5-211.5,211.5c-116.807,0-211.5-94.687-211.5-211.5
	C38.5,133.193,133.193,38.5,250,38.5z"/>
</g></g><g transform="translate(138,621) scale(0.138,0.138)"><g transform="" style="fill: rgb(0, 0, 0);">
<path d="M38.5,211.5c0,42.907,0,123.188,0,171.55c0,23.857,0,39.95,0,39.95v17.5V470v30h423v-30v-29.5V423c0,0,0-16.216,0-39.95
	c0-51.332,0-137.84,0-171.55C461.5,94.699,366.8,0,250,0C133.191,0,38.5,94.699,38.5,211.5z"/>
</g></g><g transform="translate(276,621) scale(0.138,0.138)"><g transform="" style="fill: rgb(0, 0, 0);">
<polygon points="38.5,250 38.5,500 461.5,500 461.5,250 461.5,0 38.5,0 "/>
</g></g><g transform="translate(345,621) scale(0.138,0.138)"><g transform="" style="fill: rgb(0, 0, 0);">
<polygon points="38.5,250 38.5,500 461.5,500 461.5,250 461.5,0 38.5,0 "/>
</g></g><g transform="translate(483,621) scale(0.138,0.138)"><g transform="" style="fill: rgb(0, 0, 0);">
<polygon points="38.5,250 38.5,500 461.5,500 461.5,250 461.5,0 38.5,0 "/>
</g></g><g transform="translate(828,621) scale(0.138,0.138)"><g transform="" style="fill: rgb(0, 0, 0);">
<polygon points="38.5,250 38.5,500 461.5,500 461.5,250 461.5,0 38.5,0 "/>
</g></g><g transform="translate(897,621) scale(0.138,0.138)"><g transform="" style="fill: rgb(0, 0, 0);">
<polygon points="38.5,250 38.5,500 461.5,500 461.5,250 461.5,0 38.5,0 "/>
</g></g><g transform="translate(1104,621) scale(0.138,0.138)"><g transform="" style="fill: rgb(0, 0, 0);">
<path d="M38.5,211.5c0,42.907,0,123.188,0,171.55c0,23.857,0,39.95,0,39.95v17.5V470v30h423v-30v-29.5V423c0,0,0-16.216,0-39.95
	c0-51.332,0-137.84,0-171.55C461.5,94.699,366.8,0,250,0C133.191,0,38.5,94.699,38.5,211.5z"/>
</g></g><g transform="translate(1173,621) scale(0.138,0.138)"><g transform="" style="fill: rgb(0, 0, 0);">
<path d="M461.5,288.5c0-42.907,0-123.188,0-171.55c0-23.857,0-39.95,0-39.95V59.5V30V0h-423v30v29.5V77c0,0,0,16.216,0,39.95
	c0,51.332,0,137.84,0,171.55C38.5,405.301,133.2,500,250,500C366.809,500,461.5,405.301,461.5,288.5z"/>
</g></g><g transform="translate(1242,621) scale(0.138,0.138)"><g transform="" style="fill: rgb(0, 0, 0);">
<path d="M250,38.5c116.813,0,211.5,94.693,211.5,211.5c0,116.813-94.687,211.5-211.5,211.5c-116.807,0-211.5-94.687-211.5-211.5
	C38.5,133.193,133.193,38.5,250,38.5z"/>
</g></g><g transform="translate(1311,621) scale(0.138,0.138)"><g transform="" style="fill: rgb(0, 0, 0);">
<path d="M461.5,288.5c0-42.907,0-123.188,0-171.55c0-23.857,0-39.95,0-39.95V59.5V30V0h-423v30v29.5V77c0,0,0,16.216,0,39.95
	c0,51.332,0,137.84,0,171.55C38.5,405.301,133.2,500,250,500C366.809,500,461.5,405.301,461.5,288.5z"/>
</g></g><g transform="translate(1449,621) scale(0.138,0.138)"><g transform="" style="fill: rgb(0, 0, 0);">
<path d="M461.5,288.5c0-42.907,0-123.188,0-171.55c0-23.857,0-39.95,0-39.95V59.5V30V0h-423v30v29.5V77c0,0,0,16.216,0,39.95
	c0,51.332,0,137.84,0,171.55C38.5,405.301,133.2,500,250,500C366.809,500,461.5,405.301,461.5,288.5z"/>
</g></g><g transform="translate(1587,621) scale(0.138,0.138)"><g transform="" style="fill: rgb(0, 0, 0);">
<path d="M38.5,211.5c0,42.907,0,123.188,0,171.55c0,23.857,0,39.95,0,39.95v17.5V470v30h423v-30v-29.5V423c0,0,0-16.216,0-39.95
	c0-51.332,0-137.84,0-171.55C461.5,94.699,366.8,0,250,0C133.191,0,38.5,94.699,38.5,211.5z"/>
</g></g><g transform="translate(1656,621) scale(0.138,0.138)"><g transform="" style="fill: rgb(0, 0, 0);">
<polygon points="38.5,250 38.5,500 461.5,500 461.5,250 461.5,0 38.5,0 "/>
</g></g><g transform="translate(1794,621) scale(0.138,0.138)"><g transform="" style="fill: rgb(0, 0, 0);">
<polygon points="38.5,250 38.5,500 461.5,500 461.5,250 461.5,0 38.5,0 "/>
</g></g><g transform="translate(1863,621) scale(0.138,0.138)"><g transform="" style="fill: rgb(0, 0, 0);">
<path d="M461.5,288.5c0-42.907,0-123.188,0-171.55c0-23.857,0-39.95,0-39.95V59.5V30V0h-423v30v29.5V77c0,0,0,16.216,0,39.95
	c0,51.332,0,137.84,0,171.55C38.5,405.301,133.2,500,250,500C366.809,500,461.5,405.301,461.5,288.5z"/>
</g></g><g transform="translate(138,690) scale(0.138,0.138)"><g transform="" style="fill: rgb(0, 0, 0);">
<path d="M461.5,288.5c0-42.907,0-123.188,0-171.55c0-23.857,0-39.95,0-39.95V59.5V30V0h-423v30v29.5V77c0,0,0,16.216,0,39.95
	c0,51.332,0,137.84,0,171.55C38.5,405.301,133.2,500,250,500C366.809,500,461.5,405.301,461.5,288.5z"/>
</g></g><g transform="translate(207,690) scale(0.138,0.138)"><g transform="" style="fill: rgb(0, 0, 0);">
<path d="M38.5,211.5c0,42.907,0,123.188,0,171.55c0,23.857,0,39.95,0,39.95v17.5V470v30h423v-30v-29.5V423c0,0,0-16.216,0-39.95
	c0-51.332,0-137.84,0-171.55C461.5,94.699,366.8,0,250,0C133.191,0,38.5,94.699,38.5,211.5z"/>
</g></g><g transform="translate(276,690) scale(0.138,0.138)"><g transform="" style="fill: rgb(0, 0, 0);">
<polygon points="38.5,250 38.5,500 461.5,500 461.5,250 461.5,0 38.5,0 "/>
</g></g><g transform="translate(345,690) scale(0.138,0.138)"><g transform="" style="fill: rgb(0, 0, 0);">
<polygon points="38.5,250 38.5,500 461.5,500 461.5,250 461.5,0 38.5,0 "/>
</g></g><g transform="translate(414,690) scale(0.138,0.138)"><g transform="" style="fill: rgb(0, 0, 0);">
<path d="M250,38.5c116.813,0,211.5,94.693,211.5,211.5c0,116.813-94.687,211.5-211.5,211.5c-116.807,0-211.5-94.687-211.5-211.5
	C38.5,133.193,133.193,38.5,250,38.5z"/>
</g></g><g transform="translate(483,690) scale(0.138,0.138)"><g transform="" style="fill: rgb(0, 0, 0);">
<path d="M461.5,288.5c0-42.907,0-123.188,0-171.55c0-23.857,0-39.95,0-39.95V59.5V30V0h-423v30v29.5V77c0,0,0,16.216,0,39.95
	c0,51.332,0,137.84,0,171.55C38.5,405.301,133.2,500,250,500C366.809,500,461.5,405.301,461.5,288.5z"/>
</g></g><g transform="translate(621,690) scale(0.138,0.138)"><g transform="" style="fill: rgb(0, 0, 0);">
<path d="M38.5,211.5c0,42.907,0,123.188,0,171.55c0,23.857,0,39.95,0,39.95v17.5V470v30h423v-30v-29.5V423c0,0,0-16.216,0-39.95
	c0-51.332,0-137.84,0-171.55C461.5,94.699,366.8,0,250,0C133.191,0,38.5,94.699,38.5,211.5z"/>
</g></g><g transform="translate(690,690) scale(0.138,0.138)"><g transform="" style="fill: rgb(0, 0, 0);">
<path d="M38.5,211.5c0,42.907,0,123.188,0,171.55c0,23.857,0,39.95,0,39.95v17.5V470v30h423v-30v-29.5V423c0,0,0-16.216,0-39.95
	c0-51.332,0-137.84,0-171.55C461.5,94.699,366.8,0,250,0C133.191,0,38.5,94.699,38.5,211.5z"/>
</g></g><g transform="translate(759,690) scale(0.138,0.138)"><g transform="" style="fill: rgb(0, 0, 0);">
<path d="M38.5,211.5c0,42.907,0,123.188,0,171.55c0,23.857,0,39.95,0,39.95v17.5V470v30h423v-30v-29.5V423c0,0,0-16.216,0-39.95
	c0-51.332,0-137.84,0-171.55C461.5,94.699,366.8,0,250,0C133.191,0,38.5,94.699,38.5,211.5z"/>
</g></g><g transform="translate(828,690) scale(0.138,0.138)"><g transform="" style="fill: rgb(0, 0, 0);">
<polygon points="38.5,250 38.5,500 461.5,500 461.5,250 461.5,0 38.5,0 "/>
</g></g><g transform="translate(897,690) scale(0.138,0.138)"><g transform="" style="fill: rgb(0, 0, 0);">
<polygon points="38.5,250 38.5,500 461.5,500 461.5,250 461.5,0 38.5,0 "/>
</g></g><g transform="translate(1035,690) scale(0.138,0.138)"><g transform="" style="fill: rgb(0, 0, 0);">
<path d="M250,38.5c116.813,0,211.5,94.693,211.5,211.5c0,116.813-94.687,211.5-211.5,211.5c-116.807,0-211.5-94.687-211.5-211.5
	C38.5,133.193,133.193,38.5,250,38.5z"/>
</g></g><g transform="translate(1104,690) scale(0.138,0.138)"><g transform="" style="fill: rgb(0, 0, 0);">
<polygon points="38.5,250 38.5,500 461.5,500 461.5,250 461.5,0 38.5,0 "/>
</g></g><g transform="translate(1380,690) scale(0.138,0.138)"><g transform="" style="fill: rgb(0, 0, 0);">
<path d="M250,38.5c116.813,0,211.5,94.693,211.5,211.5c0,116.813-94.687,211.5-211.5,211.5c-116.807,0-211.5-94.687-211.5-211.5
	C38.5,133.193,133.193,38.5,250,38.5z"/>
</g></g><g transform="translate(1587,690) scale(0.138,0.138)"><g transform="" style="fill: rgb(0, 0, 0);">
<polygon points="38.5,250 38.5,500 461.5,500 461.5,250 461.5,0 38.5,0 "/>
</g></g><g transform="translate(1656,690) scale(0.138,0.138)"><g transform="" style="fill: rgb(0, 0, 0);">
<path d="M461.5,288.5c0-42.907,0-123.188,0-171.55c0-23.857,0-39.95,0-39.95V59.5V30V0h-423v30v29.5V77c0,0,0,16.216,0,39.95
	c0,51.332,0,137.84,0,171.55C38.5,405.301,133.2,500,250,500C366.809,500,461.5,405.301,461.5,288.5z"/>
</g></g><g transform="translate(1794,690) scale(0.138,0.138)"><g transform="" style="fill: rgb(0, 0, 0);">
<path d="M461.5,288.5c0-42.907,0-123.188,0-171.55c0-23.857,0-39.95,0-39.95V59.5V30V0h-423v30v29.5V77c0,0,0,16.216,0,39.95
	c0,51.332,0,137.84,0,171.55C38.5,405.301,133.2,500,250,500C366.809,500,461.5,405.301,461.5,288.5z"/>
</g></g><g transform="translate(69,759) scale(0.138,0.138)"><g transform="" style="fill: rgb(0, 0, 0);">
<path d="M38.5,211.5c0,42.907,0,123.188,0,171.55c0,23.857,0,39.95,0,39.95v17.5V470v30h423v-30v-29.5V423c0,0,0-16.216,0-39.95
	c0-51.332,0-137.84,0-171.55C461.5,94.699,366.8,0,250,0C133.191,0,38.5,94.699,38.5,211.5z"/>
</g></g><g transform="translate(207,759) scale(0.138,0.138)"><g transform="" style="fill: rgb(0, 0, 0);">
<polygon points="38.5,250 38.5,500 461.5,500 461.5,250 461.5,0 38.5,0 "/>
</g></g><g transform="translate(276,759) scale(0.138,0.138)"><g transform="" style="fill: rgb(0, 0, 0);">
<polygon points="38.5,250 38.5,500 461.5,500 461.5,250 461.5,0 38.5,0 "/>
</g></g><g transform="translate(345,759) scale(0.138,0.138)"><g transform="" style="fill: rgb(0, 0, 0);">
<polygon points="38.5,250 38.5,500 461.5,500 461.5,250 461.5,0 38.5,0 "/>
</g></g><g transform="translate(552,759) scale(0.138,0.138)"><g transform="" style="fill: rgb(0, 0, 0);">
<path d="M38.5,211.5c0,42.907,0,123.188,0,171.55c0,23.857,0,39.95,0,39.95v17.5V470v30h423v-30v-29.5V423c0,0,0-16.216,0-39.95
	c0-51.332,0-137.84,0-171.55C461.5,94.699,366.8,0,250,0C133.191,0,38.5,94.699,38.5,211.5z"/>
</g></g><g transform="translate(621,759) scale(0.138,0.138)"><g transform="" style="fill: rgb(0, 0, 0);">
<path d="M461.5,288.5c0-42.907,0-123.188,0-171.55c0-23.857,0-39.95,0-39.95V59.5V30V0h-423v30v29.5V77c0,0,0,16.216,0,39.95
	c0,51.332,0,137.84,0,171.55C38.5,405.301,133.2,500,250,500C366.809,500,461.5,405.301,461.5,288.5z"/>
</g></g><g transform="translate(690,759) scale(0.138,0.138)"><g transform="" style="fill: rgb(0, 0, 0);">
<polygon points="38.5,250 38.5,500 461.5,500 461.5,250 461.5,0 38.5,0 "/>
</g></g><g transform="translate(759,759) scale(0.138,0.138)"><g transform="" style="fill: rgb(0, 0, 0);">
<path d="M461.5,288.5c0-42.907,0-123.188,0-171.55c0-23.857,0-39.95,0-39.95V59.5V30V0h-423v30v29.5V77c0,0,0,16.216,0,39.95
	c0,51.332,0,137.84,0,171.55C38.5,405.301,133.2,500,250,500C366.809,500,461.5,405.301,461.5,288.5z"/>
</g></g><g transform="translate(828,759) scale(0.138,0.138)"><g transform="" style="fill: rgb(0, 0, 0);">
<path d="M461.5,288.5c0-42.907,0-123.188,0-171.55c0-23.857,0-39.95,0-39.95V59.5V30V0h-423v30v29.5V77c0,0,0,16.216,0,39.95
	c0,51.332,0,137.84,0,171.55C38.5,405.301,133.2,500,250,500C366.809,500,461.5,405.301,461.5,288.5z"/>
</g></g><g transform="translate(897,759) scale(0.138,0.138)"><g transform="" style="fill: rgb(0, 0, 0);">
<polygon points="38.5,250 38.5,500 461.5,500 461.5,250 461.5,0 38.5,0 "/>
</g></g><g transform="translate(1104,759) scale(0.138,0.138)"><g transform="" style="fill: rgb(0, 0, 0);">
<polygon points="38.5,250 38.5,500 461.5,500 461.5,250 461.5,0 38.5,0 "/>
</g></g><g transform="translate(1173,759) scale(0.138,0.138)"><g transform="" style="fill: rgb(0, 0, 0);">
<path d="M250,38.5c116.813,0,211.5,94.693,211.5,211.5c0,116.813-94.687,211.5-211.5,211.5c-116.807,0-211.5-94.687-211.5-211.5
	C38.5,133.193,133.193,38.5,250,38.5z"/>
</g></g><g transform="translate(1242,759) scale(0.138,0.138)"><g transform="" style="fill: rgb(0, 0, 0);">
<path d="M250,38.5c116.813,0,211.5,94.693,211.5,211.5c0,116.813-94.687,211.5-211.5,211.5c-116.807,0-211.5-94.687-211.5-211.5
	C38.5,133.193,133.193,38.5,250,38.5z"/>
</g></g><g transform="translate(1449,759) scale(0.138,0.138)"><g transform="" style="fill: rgb(0, 0, 0);">
<path d="M250,38.5c116.813,0,211.5,94.693,211.5,211.5c0,116.813-94.687,211.5-211.5,211.5c-116.807,0-211.5-94.687-211.5-211.5
	C38.5,133.193,133.193,38.5,250,38.5z"/>
</g></g><g transform="translate(1518,759) scale(0.138,0.138)"><g transform="" style="fill: rgb(0, 0, 0);">
<path d="M38.5,211.5c0,42.907,0,123.188,0,171.55c0,23.857,0,39.95,0,39.95v17.5V470v30h423v-30v-29.5V423c0,0,0-16.216,0-39.95
	c0-51.332,0-137.84,0-171.55C461.5,94.699,366.8,0,250,0C133.191,0,38.5,94.699,38.5,211.5z"/>
</g></g><g transform="translate(1587,759) scale(0.138,0.138)"><g transform="" style="fill: rgb(0, 0, 0);">
<polygon points="38.5,250 38.5,500 461.5,500 461.5,250 461.5,0 38.5,0 "/>
</g></g><g transform="translate(1725,759) scale(0.138,0.138)"><g transform="" style="fill: rgb(0, 0, 0);">
<path d="M250,38.5c116.813,0,211.5,94.693,211.5,211.5c0,116.813-94.687,211.5-211.5,211.5c-116.807,0-211.5-94.687-211.5-211.5
	C38.5,133.193,133.193,38.5,250,38.5z"/>
</g></g><g transform="translate(1932,759) scale(0.138,0.138)"><g transform="" style="fill: rgb(0, 0, 0);">
<path d="M38.5,211.5c0,42.907,0,123.188,0,171.55c0,23.857,0,39.95,0,39.95v17.5V470v30h423v-30v-29.5V423c0,0,0-16.216,0-39.95
	c0-51.332,0-137.84,0-171.55C461.5,94.699,366.8,0,250,0C133.191,0,38.5,94.699,38.5,211.5z"/>
</g></g><g transform="translate(0,828) scale(0.138,0.138)"><g transform="" style="fill: rgb(0, 0, 0);">
<path d="M38.5,211.5c0,42.907,0,123.188,0,171.55c0,23.857,0,39.95,0,39.95v17.5V470v30h423v-30v-29.5V423c0,0,0-16.216,0-39.95
	c0-51.332,0-137.84,0-171.55C461.5,94.699,366.8,0,250,0C133.191,0,38.5,94.699,38.5,211.5z"/>
</g></g><g transform="translate(69,828) scale(0.138,0.138)"><g transform="" style="fill: rgb(0, 0, 0);">
<path d="M461.5,288.5c0-42.907,0-123.188,0-171.55c0-23.857,0-39.95,0-39.95V59.5V30V0h-423v30v29.5V77c0,0,0,16.216,0,39.95
	c0,51.332,0,137.84,0,171.55C38.5,405.301,133.2,500,250,500C366.809,500,461.5,405.301,461.5,288.5z"/>
</g></g><g transform="translate(138,828) scale(0.138,0.138)"><g transform="" style="fill: rgb(0, 0, 0);">
<path d="M250,38.5c116.813,0,211.5,94.693,211.5,211.5c0,116.813-94.687,211.5-211.5,211.5c-116.807,0-211.5-94.687-211.5-211.5
	C38.5,133.193,133.193,38.5,250,38.5z"/>
</g></g><g transform="translate(207,828) scale(0.138,0.138)"><g transform="" style="fill: rgb(0, 0, 0);">
<polygon points="38.5,250 38.5,500 461.5,500 461.5,250 461.5,0 38.5,0 "/>
</g></g><g transform="translate(276,828) scale(0.138,0.138)"><g transform="" style="fill: rgb(0, 0, 0);">
<path d="M461.5,288.5c0-42.907,0-123.188,0-171.55c0-23.857,0-39.95,0-39.95V59.5V30V0h-423v30v29.5V77c0,0,0,16.216,0,39.95
	c0,51.332,0,137.84,0,171.55C38.5,405.301,133.2,500,250,500C366.809,500,461.5,405.301,461.5,288.5z"/>
</g></g><g transform="translate(345,828) scale(0.138,0.138)"><g transform="" style="fill: rgb(0, 0, 0);">
<path d="M461.5,288.5c0-42.907,0-123.188,0-171.55c0-23.857,0-39.95,0-39.95V59.5V30V0h-423v30v29.5V77c0,0,0,16.216,0,39.95
	c0,51.332,0,137.84,0,171.55C38.5,405.301,133.2,500,250,500C366.809,500,461.5,405.301,461.5,288.5z"/>
</g></g><g transform="translate(414,828) scale(0.138,0.138)"><g transform="" style="fill: rgb(0, 0, 0);">
<path d="M250,38.5c116.813,0,211.5,94.693,211.5,211.5c0,116.813-94.687,211.5-211.5,211.5c-116.807,0-211.5-94.687-211.5-211.5
	C38.5,133.193,133.193,38.5,250,38.5z"/>
</g></g><g transform="translate(483,828) scale(0.138,0.138)"><g transform="" style="fill: rgb(0, 0, 0);">
<path d="M250,38.5c116.813,0,211.5,94.693,211.5,211.5c0,116.813-94.687,211.5-211.5,211.5c-116.807,0-211.5-94.687-211.5-211.5
	C38.5,133.193,133.193,38.5,250,38.5z"/>
</g></g><g transform="translate(552,828) scale(0.138,0.138)"><g transform="" style="fill: rgb(0, 0, 0);">
<path d="M461.5,288.5c0-42.907,0-123.188,0-171.55c0-23.857,0-39.95,0-39.95V59.5V30V0h-423v30v29.5V77c0,0,0,16.216,0,39.95
	c0,51.332,0,137.84,0,171.55C38.5,405.301,133.2,500,250,500C366.809,500,461.5,405.301,461.5,288.5z"/>
</g></g><g transform="translate(690,828) scale(0.138,0.138)"><g transform="" style="fill: rgb(0, 0, 0);">
<polygon points="38.5,250 38.5,500 461.5,500 461.5,250 461.5,0 38.5,0 "/>
</g></g><g transform="translate(897,828) scale(0.138,0.138)"><g transform="" style="fill: rgb(0, 0, 0);">
<polygon points="38.5,250 38.5,500 461.5,500 461.5,250 461.5,0 38.5,0 "/>
</g></g><g transform="translate(1035,828) scale(0.138,0.138)"><g transform="" style="fill: rgb(0, 0, 0);">
<path d="M250,38.5c116.813,0,211.5,94.693,211.5,211.5c0,116.813-94.687,211.5-211.5,211.5c-116.807,0-211.5-94.687-211.5-211.5
	C38.5,133.193,133.193,38.5,250,38.5z"/>
</g></g><g transform="translate(1104,828) scale(0.138,0.138)"><g transform="" style="fill: rgb(0, 0, 0);">
<polygon points="38.5,250 38.5,500 461.5,500 461.5,250 461.5,0 38.5,0 "/>
</g></g><g transform="translate(1311,828) scale(0.138,0.138)"><g transform="" style="fill: rgb(0, 0, 0);">
<path d="M250,38.5c116.813,0,211.5,94.693,211.5,211.5c0,116.813-94.687,211.5-211.5,211.5c-116.807,0-211.5-94.687-211.5-211.5
	C38.5,133.193,133.193,38.5,250,38.5z"/>
</g></g><g transform="translate(1518,828) scale(0.138,0.138)"><g transform="" style="fill: rgb(0, 0, 0);">
<polygon points="38.5,250 38.5,500 461.5,500 461.5,250 461.5,0 38.5,0 "/>
</g></g><g transform="translate(1587,828) scale(0.138,0.138)"><g transform="" style="fill: rgb(0, 0, 0);">
<polygon points="38.5,250 38.5,500 461.5,500 461.5,250 461.5,0 38.5,0 "/>
</g></g><g transform="translate(1932,828) scale(0.138,0.138)"><g transform="" style="fill: rgb(0, 0, 0);">
<polygon points="38.5,250 38.5,500 461.5,500 461.5,250 461.5,0 38.5,0 "/>
</g></g><g transform="translate(0,897) scale(0.138,0.138)"><g transform="" style="fill: rgb(0, 0, 0);">
<polygon points="38.5,250 38.5,500 461.5,500 461.5,250 461.5,0 38.5,0 "/>
</g></g><g transform="translate(207,897) scale(0.138,0.138)"><g transform="" style="fill: rgb(0, 0, 0);">
<path d="M461.5,288.5c0-42.907,0-123.188,0-171.55c0-23.857,0-39.95,0-39.95V59.5V30V0h-423v30v29.5V77c0,0,0,16.216,0,39.95
	c0,51.332,0,137.84,0,171.55C38.5,405.301,133.2,500,250,500C366.809,500,461.5,405.301,461.5,288.5z"/>
</g></g><g transform="translate(621,897) scale(0.138,0.138)"><g transform="" style="fill: rgb(0, 0, 0);">
<path d="M38.5,211.5c0,42.907,0,123.188,0,171.55c0,23.857,0,39.95,0,39.95v17.5V470v30h423v-30v-29.5V423c0,0,0-16.216,0-39.95
	c0-51.332,0-137.84,0-171.55C461.5,94.699,366.8,0,250,0C133.191,0,38.5,94.699,38.5,211.5z"/>
</g></g><g transform="translate(690,897) scale(0.138,0.138)"><g transform="" style="fill: rgb(0, 0, 0);">
<path d="M461.5,288.5c0-42.907,0-123.188,0-171.55c0-23.857,0-39.95,0-39.95V59.5V30V0h-423v30v29.5V77c0,0,0,16.216,0,39.95
	c0,51.332,0,137.84,0,171.55C38.5,405.301,133.2,500,250,500C366.809,500,461.5,405.301,461.5,288.5z"/>
</g></g><g transform="translate(759,897) scale(0.138,0.138)"><g transform="" style="fill: rgb(0, 0, 0);">
<path d="M250,38.5c116.813,0,211.5,94.693,211.5,211.5c0,116.813-94.687,211.5-211.5,211.5c-116.807,0-211.5-94.687-211.5-211.5
	C38.5,133.193,133.193,38.5,250,38.5z"/>
</g></g><g transform="translate(897,897) scale(0.138,0.138)"><g transform="" style="fill: rgb(0, 0, 0);">
<polygon points="38.5,250 38.5,500 461.5,500 461.5,250 461.5,0 38.5,0 "/>
</g></g><g transform="translate(966,897) scale(0.138,0.138)"><g transform="" style="fill: rgb(0, 0, 0);">
<path d="M250,38.5c116.813,0,211.5,94.693,211.5,211.5c0,116.813-94.687,211.5-211.5,211.5c-116.807,0-211.5-94.687-211.5-211.5
	C38.5,133.193,133.193,38.5,250,38.5z"/>
</g></g><g transform="translate(1104,897) scale(0.138,0.138)"><g transform="" style="fill: rgb(0, 0, 0);">
<polygon points="38.5,250 38.5,500 461.5,500 461.5,250 461.5,0 38.5,0 "/>
</g></g><g transform="translate(1518,897) scale(0.138,0.138)"><g transform="" style="fill: rgb(0, 0, 0);">
<polygon points="38.5,250 38.5,500 461.5,500 461.5,250 461.5,0 38.5,0 "/>
</g></g><g transform="translate(1587,897) scale(0.138,0.138)"><g transform="" style="fill: rgb(0, 0, 0);">
<path d="M461.5,288.5c0-42.907,0-123.188,0-171.55c0-23.857,0-39.95,0-39.95V59.5V30V0h-423v30v29.5V77c0,0,0,16.216,0,39.95
	c0,51.332,0,137.84,0,171.55C38.5,405.301,133.2,500,250,500C366.809,500,461.5,405.301,461.5,288.5z"/>
</g></g><g transform="translate(1656,897) scale(0.138,0.138)"><g transform="" style="fill: rgb(0, 0, 0);">
<path d="M38.5,211.5c0,42.907,0,123.188,0,171.55c0,23.857,0,39.95,0,39.95v17.5V470v30h423v-30v-29.5V423c0,0,0-16.216,0-39.95
	c0-51.332,0-137.84,0-171.55C461.5,94.699,366.8,0,250,0C133.191,0,38.5,94.699,38.5,211.5z"/>
</g></g><g transform="translate(1725,897) scale(0.138,0.138)"><g transform="" style="fill: rgb(0, 0, 0);">
<path d="M250,38.5c116.813,0,211.5,94.693,211.5,211.5c0,116.813-94.687,211.5-211.5,211.5c-116.807,0-211.5-94.687-211.5-211.5
	C38.5,133.193,133.193,38.5,250,38.5z"/>
</g></g><g transform="translate(1794,897) scale(0.138,0.138)"><g transform="" style="fill: rgb(0, 0, 0);">
<path d="M38.5,211.5c0,42.907,0,123.188,0,171.55c0,23.857,0,39.95,0,39.95v17.5V470v30h423v-30v-29.5V423c0,0,0-16.216,0-39.95
	c0-51.332,0-137.84,0-171.55C461.5,94.699,366.8,0,250,0C133.191,0,38.5,94.699,38.5,211.5z"/>
</g></g><g transform="translate(1863,897) scale(0.138,0.138)"><g transform="" style="fill: rgb(0, 0, 0);">
<path d="M250,38.5c116.813,0,211.5,94.693,211.5,211.5c0,116.813-94.687,211.5-211.5,211.5c-116.807,0-211.5-94.687-211.5-211.5
	C38.5,133.193,133.193,38.5,250,38.5z"/>
</g></g><g transform="translate(1932,897) scale(0.138,0.138)"><g transform="" style="fill: rgb(0, 0, 0);">
<polygon points="38.5,250 38.5,500 461.5,500 461.5,250 461.5,0 38.5,0 "/>
</g></g><g transform="translate(0,966) scale(0.138,0.138)"><g transform="" style="fill: rgb(0, 0, 0);">
<polygon points="38.5,250 38.5,500 461.5,500 461.5,250 461.5,0 38.5,0 "/>
</g></g><g transform="translate(69,966) scale(0.138,0.138)"><g transform="" style="fill: rgb(0, 0, 0);">
<path d="M250,38.5c116.813,0,211.5,94.693,211.5,211.5c0,116.813-94.687,211.5-211.5,211.5c-116.807,0-211.5-94.687-211.5-211.5
	C38.5,133.193,133.193,38.5,250,38.5z"/>
</g></g><g transform="translate(345,966) scale(0.138,0.138)"><g transform="" style="fill: rgb(0, 0, 0);">
<path d="M250,38.5c116.813,0,211.5,94.693,211.5,211.5c0,116.813-94.687,211.5-211.5,211.5c-116.807,0-211.5-94.687-211.5-211.5
	C38.5,133.193,133.193,38.5,250,38.5z"/>
</g></g><g transform="translate(414,966) scale(0.138,0.138)"><g transform="" style="fill: rgb(0, 0, 0);">
<path d="M250,38.5c116.813,0,211.5,94.693,211.5,211.5c0,116.813-94.687,211.5-211.5,211.5c-116.807,0-211.5-94.687-211.5-211.5
	C38.5,133.193,133.193,38.5,250,38.5z"/>
</g></g><g transform="translate(483,966) scale(0.138,0.138)"><g transform="" style="fill: rgb(0, 0, 0);">
<path d="M38.5,211.5c0,42.907,0,123.188,0,171.55c0,23.857,0,39.95,0,39.95v17.5V470v30h423v-30v-29.5V423c0,0,0-16.216,0-39.95
	c0-51.332,0-137.84,0-171.55C461.5,94.699,366.8,0,250,0C133.191,0,38.5,94.699,38.5,211.5z"/>
</g></g><g transform="translate(552,966) scale(0.138,0.138)"><g transform="" style="fill: rgb(0, 0, 0);">
<path d="M38.5,211.5c0,42.907,0,123.188,0,171.55c0,23.857,0,39.95,0,39.95v17.5V470v30h423v-30v-29.5V423c0,0,0-16.216,0-39.95
	c0-51.332,0-137.84,0-171.55C461.5,94.699,366.8,0,250,0C133.191,0,38.5,94.699,38.5,211.5z"/>
</g></g><g transform="translate(621,966) scale(0.138,0.138)"><g transform="" style="fill: rgb(0, 0, 0);">
<polygon points="38.5,250 38.5,500 461.5,500 461.5,250 461.5,0 38.5,0 "/>
</g></g><g transform="translate(897,966) scale(0.138,0.138)"><g transform="" style="fill: rgb(0, 0, 0);">
<path d="M461.5,288.5c0-42.907,0-123.188,0-171.55c0-23.857,0-39.95,0-39.95V59.5V30V0h-423v30v29.5V77c0,0,0,16.216,0,39.95
	c0,51.332,0,137.84,0,171.55C38.5,405.301,133.2,500,250,500C366.809,500,461.5,405.301,461.5,288.5z"/>
</g></g><g transform="translate(1104,966) scale(0.138,0.138)"><g transform="" style="fill: rgb(0, 0, 0);">
<path d="M461.5,288.5c0-42.907,0-123.188,0-171.55c0-23.857,0-39.95,0-39.95V59.5V30V0h-423v30v29.5V77c0,0,0,16.216,0,39.95
	c0,51.332,0,137.84,0,171.55C38.5,405.301,133.2,500,250,500C366.809,500,461.5,405.301,461.5,288.5z"/>
</g></g><g transform="translate(1173,966) scale(0.138,0.138)"><g transform="" style="fill: rgb(0, 0, 0);">
<path d="M250,38.5c116.813,0,211.5,94.693,211.5,211.5c0,116.813-94.687,211.5-211.5,211.5c-116.807,0-211.5-94.687-211.5-211.5
	C38.5,133.193,133.193,38.5,250,38.5z"/>
</g></g><g transform="translate(1242,966) scale(0.138,0.138)"><g transform="" style="fill: rgb(0, 0, 0);">
<path d="M250,38.5c116.813,0,211.5,94.693,211.5,211.5c0,116.813-94.687,211.5-211.5,211.5c-116.807,0-211.5-94.687-211.5-211.5
	C38.5,133.193,133.193,38.5,250,38.5z"/>
</g></g><g transform="translate(1311,966) scale(0.138,0.138)"><g transform="" style="fill: rgb(0, 0, 0);">
<path d="M38.5,211.5c0,42.907,0,123.188,0,171.55c0,23.857,0,39.95,0,39.95v17.5V470v30h423v-30v-29.5V423c0,0,0-16.216,0-39.95
	c0-51.332,0-137.84,0-171.55C461.5,94.699,366.8,0,250,0C133.191,0,38.5,94.699,38.5,211.5z"/>
</g></g><g transform="translate(1380,966) scale(0.138,0.138)"><g transform="" style="fill: rgb(0, 0, 0);">
<path d="M250,38.5c116.813,0,211.5,94.693,211.5,211.5c0,116.813-94.687,211.5-211.5,211.5c-116.807,0-211.5-94.687-211.5-211.5
	C38.5,133.193,133.193,38.5,250,38.5z"/>
</g></g><g transform="translate(1449,966) scale(0.138,0.138)"><g transform="" style="fill: rgb(0, 0, 0);">
<path d="M250,38.5c116.813,0,211.5,94.693,211.5,211.5c0,116.813-94.687,211.5-211.5,211.5c-116.807,0-211.5-94.687-211.5-211.5
	C38.5,133.193,133.193,38.5,250,38.5z"/>
</g></g><g transform="translate(1518,966) scale(0.138,0.138)"><g transform="" style="fill: rgb(0, 0, 0);">
<path d="M461.5,288.5c0-42.907,0-123.188,0-171.55c0-23.857,0-39.95,0-39.95V59.5V30V0h-423v30v29.5V77c0,0,0,16.216,0,39.95
	c0,51.332,0,137.84,0,171.55C38.5,405.301,133.2,500,250,500C366.809,500,461.5,405.301,461.5,288.5z"/>
</g></g><g transform="translate(1656,966) scale(0.138,0.138)"><g transform="" style="fill: rgb(0, 0, 0);">
<polygon points="38.5,250 38.5,500 461.5,500 461.5,250 461.5,0 38.5,0 "/>
</g></g><g transform="translate(1794,966) scale(0.138,0.138)"><g transform="" style="fill: rgb(0, 0, 0);">
<polygon points="38.5,250 38.5,500 461.5,500 461.5,250 461.5,0 38.5,0 "/>
</g></g><g transform="translate(1932,966) scale(0.138,0.138)"><g transform="" style="fill: rgb(0, 0, 0);">
<polygon points="38.5,250 38.5,500 461.5,500 461.5,250 461.5,0 38.5,0 "/>
</g></g><g transform="translate(0,1035) scale(0.138,0.138)"><g transform="" style="fill: rgb(0, 0, 0);">
<path d="M461.5,288.5c0-42.907,0-123.188,0-171.55c0-23.857,0-39.95,0-39.95V59.5V30V0h-423v30v29.5V77c0,0,0,16.216,0,39.95
	c0,51.332,0,137.84,0,171.55C38.5,405.301,133.2,500,250,500C366.809,500,461.5,405.301,461.5,288.5z"/>
</g></g><g transform="translate(483,1035) scale(0.138,0.138)"><g transform="" style="fill: rgb(0, 0, 0);">
<path d="M461.5,288.5c0-42.907,0-123.188,0-171.55c0-23.857,0-39.95,0-39.95V59.5V30V0h-423v30v29.5V77c0,0,0,16.216,0,39.95
	c0,51.332,0,137.84,0,171.55C38.5,405.301,133.2,500,250,500C366.809,500,461.5,405.301,461.5,288.5z"/>
</g></g><g transform="translate(552,1035) scale(0.138,0.138)"><g transform="" style="fill: rgb(0, 0, 0);">
<path d="M461.5,288.5c0-42.907,0-123.188,0-171.55c0-23.857,0-39.95,0-39.95V59.5V30V0h-423v30v29.5V77c0,0,0,16.216,0,39.95
	c0,51.332,0,137.84,0,171.55C38.5,405.301,133.2,500,250,500C366.809,500,461.5,405.301,461.5,288.5z"/>
</g></g><g transform="translate(621,1035) scale(0.138,0.138)"><g transform="" style="fill: rgb(0, 0, 0);">
<path d="M461.5,288.5c0-42.907,0-123.188,0-171.55c0-23.857,0-39.95,0-39.95V59.5V30V0h-423v30v29.5V77c0,0,0,16.216,0,39.95
	c0,51.332,0,137.84,0,171.55C38.5,405.301,133.2,500,250,500C366.809,500,461.5,405.301,461.5,288.5z"/>
</g></g><g transform="translate(690,1035) scale(0.138,0.138)"><g transform="" style="fill: rgb(0, 0, 0);">
<path d="M250,38.5c116.813,0,211.5,94.693,211.5,211.5c0,116.813-94.687,211.5-211.5,211.5c-116.807,0-211.5-94.687-211.5-211.5
	C38.5,133.193,133.193,38.5,250,38.5z"/>
</g></g><g transform="translate(1035,1035) scale(0.138,0.138)"><g transform="" style="fill: rgb(0, 0, 0);">
<path d="M250,38.5c116.813,0,211.5,94.693,211.5,211.5c0,116.813-94.687,211.5-211.5,211.5c-116.807,0-211.5-94.687-211.5-211.5
	C38.5,133.193,133.193,38.5,250,38.5z"/>
</g></g><g transform="translate(1311,1035) scale(0.138,0.138)"><g transform="" style="fill: rgb(0, 0, 0);">
<polygon points="38.5,250 38.5,500 461.5,500 461.5,250 461.5,0 38.5,0 "/>
</g></g><g transform="translate(1587,1035) scale(0.138,0.138)"><g transform="" style="fill: rgb(0, 0, 0);">
<path d="M250,38.5c116.813,0,211.5,94.693,211.5,211.5c0,116.813-94.687,211.5-211.5,211.5c-116.807,0-211.5-94.687-211.5-211.5
	C38.5,133.193,133.193,38.5,250,38.5z"/>
</g></g><g transform="translate(1656,1035) scale(0.138,0.138)"><g transform="" style="fill: rgb(0, 0, 0);">
<path d="M461.5,288.5c0-42.907,0-123.188,0-171.55c0-23.857,0-39.95,0-39.95V59.5V30V0h-423v30v29.5V77c0,0,0,16.216,0,39.95
	c0,51.332,0,137.84,0,171.55C38.5,405.301,133.2,500,250,500C366.809,500,461.5,405.301,461.5,288.5z"/>
</g></g><g transform="translate(1794,1035) scale(0.138,0.138)"><g transform="" style="fill: rgb(0, 0, 0);">
<path d="M461.5,288.5c0-42.907,0-123.188,0-171.55c0-23.857,0-39.95,0-39.95V59.5V30V0h-423v30v29.5V77c0,0,0,16.216,0,39.95
	c0,51.332,0,137.84,0,171.55C38.5,405.301,133.2,500,250,500C366.809,500,461.5,405.301,461.5,288.5z"/>
</g></g><g transform="translate(1932,1035) scale(0.138,0.138)"><g transform="" style="fill: rgb(0, 0, 0);">
<path d="M461.5,288.5c0-42.907,0-123.188,0-171.55c0-23.857,0-39.95,0-39.95V59.5V30V0h-423v30v29.5V77c0,0,0,16.216,0,39.95
	c0,51.332,0,137.84,0,171.55C38.5,405.301,133.2,500,250,500C366.809,500,461.5,405.301,461.5,288.5z"/>
</g></g><g transform="translate(276,1104) scale(0.138,0.138)"><g transform="" style="fill: rgb(0, 0, 0);">
<path d="M38.5,211.5c0,42.907,0,123.188,0,171.55c0,23.857,0,39.95,0,39.95v17.5V470v30h423v-30v-29.5V423c0,0,0-16.216,0-39.95
	c0-51.332,0-137.84,0-171.55C461.5,94.699,366.8,0,250,0C133.191,0,38.5,94.699,38.5,211.5z"/>
</g></g><g transform="translate(414,1104) scale(0.138,0.138)"><g transform="" style="fill: rgb(0, 0, 0);">
<path d="M250,38.5c116.813,0,211.5,94.693,211.5,211.5c0,116.813-94.687,211.5-211.5,211.5c-116.807,0-211.5-94.687-211.5-211.5
	C38.5,133.193,133.193,38.5,250,38.5z"/>
</g></g><g transform="translate(759,1104) scale(0.138,0.138)"><g transform="" style="fill: rgb(0, 0, 0);">
<path d="M250,38.5c116.813,0,211.5,94.693,211.5,211.5c0,116.813-94.687,211.5-211.5,211.5c-116.807,0-211.5-94.687-211.5-211.5
	C38.5,133.193,133.193,38.5,250,38.5z"/>
</g></g><g transform="translate(828,1104) scale(0.138,0.138)"><g transform="" style="fill: rgb(0, 0, 0);">
<path d="M38.5,211.5c0,42.907,0,123.188,0,171.55c0,23.857,0,39.95,0,39.95v17.5V470v30h423v-30v-29.5V423c0,0,0-16.216,0-39.95
	c0-51.332,0-137.84,0-171.55C461.5,94.699,366.8,0,250,0C133.191,0,38.5,94.699,38.5,211.5z"/>
</g></g><g transform="translate(966,1104) scale(0.138,0.138)"><g transform="" style="fill: rgb(0, 0, 0);">
<path d="M38.5,211.5c0,42.907,0,123.188,0,171.55c0,23.857,0,39.95,0,39.95v17.5V470v30h423v-30v-29.5V423c0,0,0-16.216,0-39.95
	c0-51.332,0-137.84,0-171.55C461.5,94.699,366.8,0,250,0C133.191,0,38.5,94.699,38.5,211.5z"/>
</g></g><g transform="translate(1242,1104) scale(0.138,0.138)"><g transform="" style="fill: rgb(0, 0, 0);">
<path d="M38.5,211.5c0,42.907,0,123.188,0,171.55c0,23.857,0,39.95,0,39.95v17.5V470v30h423v-30v-29.5V423c0,0,0-16.216,0-39.95
	c0-51.332,0-137.84,0-171.55C461.5,94.699,366.8,0,250,0C133.191,0,38.5,94.699,38.5,211.5z"/>
</g></g><g transform="translate(1311,1104) scale(0.138,0.138)"><g transform="" style="fill: rgb(0, 0, 0);">
<polygon points="38.5,250 38.5,500 461.5,500 461.5,250 461.5,0 38.5,0 "/>
</g></g><g transform="translate(1380,1104) scale(0.138,0.138)"><g transform="" style="fill: rgb(0, 0, 0);">
<path d="M250,38.5c116.813,0,211.5,94.693,211.5,211.5c0,116.813-94.687,211.5-211.5,211.5c-116.807,0-211.5-94.687-211.5-211.5
	C38.5,133.193,133.193,38.5,250,38.5z"/>
</g></g><g transform="translate(1449,1104) scale(0.138,0.138)"><g transform="" style="fill: rgb(0, 0, 0);">
<path d="M250,38.5c116.813,0,211.5,94.693,211.5,211.5c0,116.813-94.687,211.5-211.5,211.5c-116.807,0-211.5-94.687-211.5-211.5
	C38.5,133.193,133.193,38.5,250,38.5z"/>
</g></g><g transform="translate(1725,1104) scale(0.138,0.138)"><g transform="" style="fill: rgb(0, 0, 0);">
<path d="M250,38.5c116.813,0,211.5,94.693,211.5,211.5c0,116.813-94.687,211.5-211.5,211.5c-116.807,0-211.5-94.687-211.5-211.5
	C38.5,133.193,133.193,38.5,250,38.5z"/>
</g></g><g transform="translate(0,1173) scale(0.138,0.138)"><g transform="" style="fill: rgb(0, 0, 0);">
<path d="M38.5,211.5c0,42.907,0,123.188,0,171.55c0,23.857,0,39.95,0,39.95v17.5V470v30h423v-30v-29.5V423c0,0,0-16.216,0-39.95
	c0-51.332,0-137.84,0-171.55C461.5,94.699,366.8,0,250,0C133.191,0,38.5,94.699,38.5,211.5z"/>
</g></g><g transform="translate(69,1173) scale(0.138,0.138)"><g transform="" style="fill: rgb(0, 0, 0);">
<path d="M38.5,211.5c0,42.907,0,123.188,0,171.55c0,23.857,0,39.95,0,39.95v17.5V470v30h423v-30v-29.5V423c0,0,0-16.216,0-39.95
	c0-51.332,0-137.84,0-171.55C461.5,94.699,366.8,0,250,0C133.191,0,38.5,94.699,38.5,211.5z"/>
</g></g><g transform="translate(207,1173) scale(0.138,0.138)"><g transform="" style="fill: rgb(0, 0, 0);">
<path d="M250,38.5c116.813,0,211.5,94.693,211.5,211.5c0,116.813-94.687,211.5-211.5,211.5c-116.807,0-211.5-94.687-211.5-211.5
	C38.5,133.193,133.193,38.5,250,38.5z"/>
</g></g><g transform="translate(276,1173) scale(0.138,0.138)"><g transform="" style="fill: rgb(0, 0, 0);">
<polygon points="38.5,250 38.5,500 461.5,500 461.5,250 461.5,0 38.5,0 "/>
</g></g><g transform="translate(483,1173) scale(0.138,0.138)"><g transform="" style="fill: rgb(0, 0, 0);">
<path d="M250,38.5c116.813,0,211.5,94.693,211.5,211.5c0,116.813-94.687,211.5-211.5,211.5c-116.807,0-211.5-94.687-211.5-211.5
	C38.5,133.193,133.193,38.5,250,38.5z"/>
</g></g><g transform="translate(552,1173) scale(0.138,0.138)"><g transform="" style="fill: rgb(0, 0, 0);">
<path d="M38.5,211.5c0,42.907,0,123.188,0,171.55c0,23.857,0,39.95,0,39.95v17.5V470v30h423v-30v-29.5V423c0,0,0-16.216,0-39.95
	c0-51.332,0-137.84,0-171.55C461.5,94.699,366.8,0,250,0C133.191,0,38.5,94.699,38.5,211.5z"/>
</g></g><g transform="translate(621,1173) scale(0.138,0.138)"><g transform="" style="fill: rgb(0, 0, 0);">
<path d="M38.5,211.5c0,42.907,0,123.188,0,171.55c0,23.857,0,39.95,0,39.95v17.5V470v30h423v-30v-29.5V423c0,0,0-16.216,0-39.95
	c0-51.332,0-137.84,0-171.55C461.5,94.699,366.8,0,250,0C133.191,0,38.5,94.699,38.5,211.5z"/>
</g></g><g transform="translate(828,1173) scale(0.138,0.138)"><g transform="" style="fill: rgb(0, 0, 0);">
<path d="M461.5,288.5c0-42.907,0-123.188,0-171.55c0-23.857,0-39.95,0-39.95V59.5V30V0h-423v30v29.5V77c0,0,0,16.216,0,39.95
	c0,51.332,0,137.84,0,171.55C38.5,405.301,133.2,500,250,500C366.809,500,461.5,405.301,461.5,288.5z"/>
</g></g><g transform="translate(897,1173) scale(0.138,0.138)"><g transform="" style="fill: rgb(0, 0, 0);">
<path d="M250,38.5c116.813,0,211.5,94.693,211.5,211.5c0,116.813-94.687,211.5-211.5,211.5c-116.807,0-211.5-94.687-211.5-211.5
	C38.5,133.193,133.193,38.5,250,38.5z"/>
</g></g><g transform="translate(966,1173) scale(0.138,0.138)"><g transform="" style="fill: rgb(0, 0, 0);">
<path d="M461.5,288.5c0-42.907,0-123.188,0-171.55c0-23.857,0-39.95,0-39.95V59.5V30V0h-423v30v29.5V77c0,0,0,16.216,0,39.95
	c0,51.332,0,137.84,0,171.55C38.5,405.301,133.2,500,250,500C366.809,500,461.5,405.301,461.5,288.5z"/>
</g></g><g transform="translate(1104,1173) scale(0.138,0.138)"><g transform="" style="fill: rgb(0, 0, 0);">
<path d="M250,38.5c116.813,0,211.5,94.693,211.5,211.5c0,116.813-94.687,211.5-211.5,211.5c-116.807,0-211.5-94.687-211.5-211.5
	C38.5,133.193,133.193,38.5,250,38.5z"/>
</g></g><g transform="translate(1242,1173) scale(0.138,0.138)"><g transform="" style="fill: rgb(0, 0, 0);">
<path d="M461.5,288.5c0-42.907,0-123.188,0-171.55c0-23.857,0-39.95,0-39.95V59.5V30V0h-423v30v29.5V77c0,0,0,16.216,0,39.95
	c0,51.332,0,137.84,0,171.55C38.5,405.301,133.2,500,250,500C366.809,500,461.5,405.301,461.5,288.5z"/>
</g></g><g transform="translate(1311,1173) scale(0.138,0.138)"><g transform="" style="fill: rgb(0, 0, 0);">
<polygon points="38.5,250 38.5,500 461.5,500 461.5,250 461.5,0 38.5,0 "/>
</g></g><g transform="translate(1656,1173) scale(0.138,0.138)"><g transform="" style="fill: rgb(0, 0, 0);">
<path d="M38.5,211.5c0,42.907,0,123.188,0,171.55c0,23.857,0,39.95,0,39.95v17.5V470v30h423v-30v-29.5V423c0,0,0-16.216,0-39.95
	c0-51.332,0-137.84,0-171.55C461.5,94.699,366.8,0,250,0C133.191,0,38.5,94.699,38.5,211.5z"/>
</g></g><g transform="translate(1794,1173) scale(0.138,0.138)"><g transform="" style="fill: rgb(0, 0, 0);">
<path d="M250,38.5c116.813,0,211.5,94.693,211.5,211.5c0,116.813-94.687,211.5-211.5,211.5c-116.807,0-211.5-94.687-211.5-211.5
	C38.5,133.193,133.193,38.5,250,38.5z"/>
</g></g><g transform="translate(1863,1173) scale(0.138,0.138)"><g transform="" style="fill: rgb(0, 0, 0);">
<path d="M250,38.5c116.813,0,211.5,94.693,211.5,211.5c0,116.813-94.687,211.5-211.5,211.5c-116.807,0-211.5-94.687-211.5-211.5
	C38.5,133.193,133.193,38.5,250,38.5z"/>
</g></g><g transform="translate(0,1242) scale(0.138,0.138)"><g transform="" style="fill: rgb(0, 0, 0);">
<polygon points="38.5,250 38.5,500 461.5,500 461.5,250 461.5,0 38.5,0 "/>
</g></g><g transform="translate(69,1242) scale(0.138,0.138)"><g transform="" style="fill: rgb(0, 0, 0);">
<polygon points="38.5,250 38.5,500 461.5,500 461.5,250 461.5,0 38.5,0 "/>
</g></g><g transform="translate(276,1242) scale(0.138,0.138)"><g transform="" style="fill: rgb(0, 0, 0);">
<polygon points="38.5,250 38.5,500 461.5,500 461.5,250 461.5,0 38.5,0 "/>
</g></g><g transform="translate(345,1242) scale(0.138,0.138)"><g transform="" style="fill: rgb(0, 0, 0);">
<path d="M250,38.5c116.813,0,211.5,94.693,211.5,211.5c0,116.813-94.687,211.5-211.5,211.5c-116.807,0-211.5-94.687-211.5-211.5
	C38.5,133.193,133.193,38.5,250,38.5z"/>
</g></g><g transform="translate(414,1242) scale(0.138,0.138)"><g transform="" style="fill: rgb(0, 0, 0);">
<path d="M250,38.5c116.813,0,211.5,94.693,211.5,211.5c0,116.813-94.687,211.5-211.5,211.5c-116.807,0-211.5-94.687-211.5-211.5
	C38.5,133.193,133.193,38.5,250,38.5z"/>
</g></g><g transform="translate(552,1242) scale(0.138,0.138)"><g transform="" style="fill: rgb(0, 0, 0);">
<polygon points="38.5,250 38.5,500 461.5,500 461.5,250 461.5,0 38.5,0 "/>
</g></g><g transform="translate(621,1242) scale(0.138,0.138)"><g transform="" style="fill: rgb(0, 0, 0);">
<path d="M461.5,288.5c0-42.907,0-123.188,0-171.55c0-23.857,0-39.95,0-39.95V59.5V30V0h-423v30v29.5V77c0,0,0,16.216,0,39.95
	c0,51.332,0,137.84,0,171.55C38.5,405.301,133.2,500,250,500C366.809,500,461.5,405.301,461.5,288.5z"/>
</g></g><g transform="translate(690,1242) scale(0.138,0.138)"><g transform="" style="fill: rgb(0, 0, 0);">
<path d="M250,38.5c116.813,0,211.5,94.693,211.5,211.5c0,116.813-94.687,211.5-211.5,211.5c-116.807,0-211.5-94.687-211.5-211.5
	C38.5,133.193,133.193,38.5,250,38.5z"/>
</g></g><g transform="translate(1035,1242) scale(0.138,0.138)"><g transform="" style="fill: rgb(0, 0, 0);">
<path d="M250,38.5c116.813,0,211.5,94.693,211.5,211.5c0,116.813-94.687,211.5-211.5,211.5c-116.807,0-211.5-94.687-211.5-211.5
	C38.5,133.193,133.193,38.5,250,38.5z"/>
</g></g><g transform="translate(1311,1242) scale(0.138,0.138)"><g transform="" style="fill: rgb(0, 0, 0);">
<polygon points="38.5,250 38.5,500 461.5,500 461.5,250 461.5,0 38.5,0 "/>
</g></g><g transform="translate(1656,1242) scale(0.138,0.138)"><g transform="" style="fill: rgb(0, 0, 0);">
<path d="M461.5,288.5c0-42.907,0-123.188,0-171.55c0-23.857,0-39.95,0-39.95V59.5V30V0h-423v30v29.5V77c0,0,0,16.216,0,39.95
	c0,51.332,0,137.84,0,171.55C38.5,405.301,133.2,500,250,500C366.809,500,461.5,405.301,461.5,288.5z"/>
</g></g><g transform="translate(1725,1242) scale(0.138,0.138)"><g transform="" style="fill: rgb(0, 0, 0);">
<path d="M38.5,211.5c0,42.907,0,123.188,0,171.55c0,23.857,0,39.95,0,39.95v17.5V470v30h423v-30v-29.5V423c0,0,0-16.216,0-39.95
	c0-51.332,0-137.84,0-171.55C461.5,94.699,366.8,0,250,0C133.191,0,38.5,94.699,38.5,211.5z"/>
</g></g><g transform="translate(1932,1242) scale(0.138,0.138)"><g transform="" style="fill: rgb(0, 0, 0);">
<path d="M250,38.5c116.813,0,211.5,94.693,211.5,211.5c0,116.813-94.687,211.5-211.5,211.5c-116.807,0-211.5-94.687-211.5-211.5
	C38.5,133.193,133.193,38.5,250,38.5z"/>
</g></g><g transform="translate(0,1311) scale(0.138,0.138)"><g transform="" style="fill: rgb(0, 0, 0);">
<polygon points="38.5,250 38.5,500 461.5,500 461.5,250 461.5,0 38.5,0 "/>
</g></g><g transform="translate(69,1311) scale(0.138,0.138)"><g transform="" style="fill: rgb(0, 0, 0);">
<polygon points="38.5,250 38.5,500 461.5,500 461.5,250 461.5,0 38.5,0 "/>
</g></g><g transform="translate(276,1311) scale(0.138,0.138)"><g transform="" style="fill: rgb(0, 0, 0);">
<path d="M461.5,288.5c0-42.907,0-123.188,0-171.55c0-23.857,0-39.95,0-39.95V59.5V30V0h-423v30v29.5V77c0,0,0,16.216,0,39.95
	c0,51.332,0,137.84,0,171.55C38.5,405.301,133.2,500,250,500C366.809,500,461.5,405.301,461.5,288.5z"/>
</g></g><g transform="translate(552,1311) scale(0.138,0.138)"><g transform="" style="fill: rgb(0, 0, 0);">
<path d="M461.5,288.5c0-42.907,0-123.188,0-171.55c0-23.857,0-39.95,0-39.95V59.5V30V0h-423v30v29.5V77c0,0,0,16.216,0,39.95
	c0,51.332,0,137.84,0,171.55C38.5,405.301,133.2,500,250,500C366.809,500,461.5,405.301,461.5,288.5z"/>
</g></g><g transform="translate(966,1311) scale(0.138,0.138)"><g transform="" style="fill: rgb(0, 0, 0);">
<path d="M38.5,211.5c0,42.907,0,123.188,0,171.55c0,23.857,0,39.95,0,39.95v17.5V470v30h423v-30v-29.5V423c0,0,0-16.216,0-39.95
	c0-51.332,0-137.84,0-171.55C461.5,94.699,366.8,0,250,0C133.191,0,38.5,94.699,38.5,211.5z"/>
</g></g><g transform="translate(1311,1311) scale(0.138,0.138)"><g transform="" style="fill: rgb(0, 0, 0);">
<path d="M461.5,288.5c0-42.907,0-123.188,0-171.55c0-23.857,0-39.95,0-39.95V59.5V30V0h-423v30v29.5V77c0,0,0,16.216,0,39.95
	c0,51.332,0,137.84,0,171.55C38.5,405.301,133.2,500,250,500C366.809,500,461.5,405.301,461.5,288.5z"/>
</g></g><g transform="translate(1518,1311) scale(0.138,0.138)"><g transform="" style="fill: rgb(0, 0, 0);">
<path d="M38.5,211.5c0,42.907,0,123.188,0,171.55c0,23.857,0,39.95,0,39.95v17.5V470v30h423v-30v-29.5V423c0,0,0-16.216,0-39.95
	c0-51.332,0-137.84,0-171.55C461.5,94.699,366.8,0,250,0C133.191,0,38.5,94.699,38.5,211.5z"/>
</g></g><g transform="translate(1725,1311) scale(0.138,0.138)"><g transform="" style="fill: rgb(0, 0, 0);">
<polygon points="38.5,250 38.5,500 461.5,500 461.5,250 461.5,0 38.5,0 "/>
</g></g><g transform="translate(1794,1311) scale(0.138,0.138)"><g transform="" style="fill: rgb(0, 0, 0);">
<path d="M38.5,211.5c0,42.907,0,123.188,0,171.55c0,23.857,0,39.95,0,39.95v17.5V470v30h423v-30v-29.5V423c0,0,0-16.216,0-39.95
	c0-51.332,0-137.84,0-171.55C461.5,94.699,366.8,0,250,0C133.191,0,38.5,94.699,38.5,211.5z"/>
</g></g><g transform="translate(0,1380) scale(0.138,0.138)"><g transform="" style="fill: rgb(0, 0, 0);">
<path d="M461.5,288.5c0-42.907,0-123.188,0-171.55c0-23.857,0-39.95,0-39.95V59.5V30V0h-423v30v29.5V77c0,0,0,16.216,0,39.95
	c0,51.332,0,137.84,0,171.55C38.5,405.301,133.2,500,250,500C366.809,500,461.5,405.301,461.5,288.5z"/>
</g></g><g transform="translate(69,1380) scale(0.138,0.138)"><g transform="" style="fill: rgb(0, 0, 0);">
<path d="M461.5,288.5c0-42.907,0-123.188,0-171.55c0-23.857,0-39.95,0-39.95V59.5V30V0h-423v30v29.5V77c0,0,0,16.216,0,39.95
	c0,51.332,0,137.84,0,171.55C38.5,405.301,133.2,500,250,500C366.809,500,461.5,405.301,461.5,288.5z"/>
</g></g><g transform="translate(138,1380) scale(0.138,0.138)"><g transform="" style="fill: rgb(0, 0, 0);">
<path d="M250,38.5c116.813,0,211.5,94.693,211.5,211.5c0,116.813-94.687,211.5-211.5,211.5c-116.807,0-211.5-94.687-211.5-211.5
	C38.5,133.193,133.193,38.5,250,38.5z"/>
</g></g><g transform="translate(345,1380) scale(0.138,0.138)"><g transform="" style="fill: rgb(0, 0, 0);">
<path d="M250,38.5c116.813,0,211.5,94.693,211.5,211.5c0,116.813-94.687,211.5-211.5,211.5c-116.807,0-211.5-94.687-211.5-211.5
	C38.5,133.193,133.193,38.5,250,38.5z"/>
</g></g><g transform="translate(414,1380) scale(0.138,0.138)"><g transform="" style="fill: rgb(0, 0, 0);">
<path d="M250,38.5c116.813,0,211.5,94.693,211.5,211.5c0,116.813-94.687,211.5-211.5,211.5c-116.807,0-211.5-94.687-211.5-211.5
	C38.5,133.193,133.193,38.5,250,38.5z"/>
</g></g><g transform="translate(621,1380) scale(0.138,0.138)"><g transform="" style="fill: rgb(0, 0, 0);">
<path d="M250,38.5c116.813,0,211.5,94.693,211.5,211.5c0,116.813-94.687,211.5-211.5,211.5c-116.807,0-211.5-94.687-211.5-211.5
	C38.5,133.193,133.193,38.5,250,38.5z"/>
</g></g><g transform="translate(828,1380) scale(0.138,0.138)"><g transform="" style="fill: rgb(0, 0, 0);">
<path d="M38.5,211.5c0,42.907,0,123.188,0,171.55c0,23.857,0,39.95,0,39.95v17.5V470v30h423v-30v-29.5V423c0,0,0-16.216,0-39.95
	c0-51.332,0-137.84,0-171.55C461.5,94.699,366.8,0,250,0C133.191,0,38.5,94.699,38.5,211.5z"/>
</g></g><g transform="translate(897,1380) scale(0.138,0.138)"><g transform="" style="fill: rgb(0, 0, 0);">
<path d="M250,38.5c116.813,0,211.5,94.693,211.5,211.5c0,116.813-94.687,211.5-211.5,211.5c-116.807,0-211.5-94.687-211.5-211.5
	C38.5,133.193,133.193,38.5,250,38.5z"/>
</g></g><g transform="translate(966,1380) scale(0.138,0.138)"><g transform="" style="fill: rgb(0, 0, 0);">
<polygon points="38.5,250 38.5,500 461.5,500 461.5,250 461.5,0 38.5,0 "/>
</g></g><g transform="translate(1173,1380) scale(0.138,0.138)"><g transform="" style="fill: rgb(0, 0, 0);">
<path d="M38.5,211.5c0,42.907,0,123.188,0,171.55c0,23.857,0,39.95,0,39.95v17.5V470v30h423v-30v-29.5V423c0,0,0-16.216,0-39.95
	c0-51.332,0-137.84,0-171.55C461.5,94.699,366.8,0,250,0C133.191,0,38.5,94.699,38.5,211.5z"/>
</g></g><g transform="translate(1380,1380) scale(0.138,0.138)"><g transform="" style="fill: rgb(0, 0, 0);">
<path d="M38.5,211.5c0,42.907,0,123.188,0,171.55c0,23.857,0,39.95,0,39.95v17.5V470v30h423v-30v-29.5V423c0,0,0-16.216,0-39.95
	c0-51.332,0-137.84,0-171.55C461.5,94.699,366.8,0,250,0C133.191,0,38.5,94.699,38.5,211.5z"/>
</g></g><g transform="translate(1449,1380) scale(0.138,0.138)"><g transform="" style="fill: rgb(0, 0, 0);">
<path d="M250,38.5c116.813,0,211.5,94.693,211.5,211.5c0,116.813-94.687,211.5-211.5,211.5c-116.807,0-211.5-94.687-211.5-211.5
	C38.5,133.193,133.193,38.5,250,38.5z"/>
</g></g><g transform="translate(1518,1380) scale(0.138,0.138)"><g transform="" style="fill: rgb(0, 0, 0);">
<path d="M461.5,288.5c0-42.907,0-123.188,0-171.55c0-23.857,0-39.95,0-39.95V59.5V30V0h-423v30v29.5V77c0,0,0,16.216,0,39.95
	c0,51.332,0,137.84,0,171.55C38.5,405.301,133.2,500,250,500C366.809,500,461.5,405.301,461.5,288.5z"/>
</g></g><g transform="translate(1587,1380) scale(0.138,0.138)"><g transform="" style="fill: rgb(0, 0, 0);">
<path d="M250,38.5c116.813,0,211.5,94.693,211.5,211.5c0,116.813-94.687,211.5-211.5,211.5c-116.807,0-211.5-94.687-211.5-211.5
	C38.5,133.193,133.193,38.5,250,38.5z"/>
</g></g><g transform="translate(1656,1380) scale(0.138,0.138)"><g transform="" style="fill: rgb(0, 0, 0);">
<path d="M38.5,211.5c0,42.907,0,123.188,0,171.55c0,23.857,0,39.95,0,39.95v17.5V470v30h423v-30v-29.5V423c0,0,0-16.216,0-39.95
	c0-51.332,0-137.84,0-171.55C461.5,94.699,366.8,0,250,0C133.191,0,38.5,94.699,38.5,211.5z"/>
</g></g><g transform="translate(1725,1380) scale(0.138,0.138)"><g transform="" style="fill: rgb(0, 0, 0);">
<polygon points="38.5,250 38.5,500 461.5,500 461.5,250 461.5,0 38.5,0 "/>
</g></g><g transform="translate(1794,1380) scale(0.138,0.138)"><g transform="" style="fill: rgb(0, 0, 0);">
<path d="M461.5,288.5c0-42.907,0-123.188,0-171.55c0-23.857,0-39.95,0-39.95V59.5V30V0h-423v30v29.5V77c0,0,0,16.216,0,39.95
	c0,51.332,0,137.84,0,171.55C38.5,405.301,133.2,500,250,500C366.809,500,461.5,405.301,461.5,288.5z"/>
</g></g><g transform="translate(1863,1380) scale(0.138,0.138)"><g transform="" style="fill: rgb(0, 0, 0);">
<path d="M250,38.5c116.813,0,211.5,94.693,211.5,211.5c0,116.813-94.687,211.5-211.5,211.5c-116.807,0-211.5-94.687-211.5-211.5
	C38.5,133.193,133.193,38.5,250,38.5z"/>
</g></g><g transform="translate(552,1449) scale(0.138,0.138)"><g transform="" style="fill: rgb(0, 0, 0);">
<path d="M38.5,211.5c0,42.907,0,123.188,0,171.55c0,23.857,0,39.95,0,39.95v17.5V470v30h423v-30v-29.5V423c0,0,0-16.216,0-39.95
	c0-51.332,0-137.84,0-171.55C461.5,94.699,366.8,0,250,0C133.191,0,38.5,94.699,38.5,211.5z"/>
</g></g><g transform="translate(759,1449) scale(0.138,0.138)"><g transform="" style="fill: rgb(0, 0, 0);">
<path d="M250,38.5c116.813,0,211.5,94.693,211.5,211.5c0,116.813-94.687,211.5-211.5,211.5c-116.807,0-211.5-94.687-211.5-211.5
	C38.5,133.193,133.193,38.5,250,38.5z"/>
</g></g><g transform="translate(828,1449) scale(0.138,0.138)"><g transform="" style="fill: rgb(0, 0, 0);">
<path d="M461.5,288.5c0-42.907,0-123.188,0-171.55c0-23.857,0-39.95,0-39.95V59.5V30V0h-423v30v29.5V77c0,0,0,16.216,0,39.95
	c0,51.332,0,137.84,0,171.55C38.5,405.301,133.2,500,250,500C366.809,500,461.5,405.301,461.5,288.5z"/>
</g></g><g transform="translate(966,1449) scale(0.138,0.138)"><g transform="" style="fill: rgb(0, 0, 0);">
<polygon points="38.5,250 38.5,500 461.5,500 461.5,250 461.5,0 38.5,0 "/>
</g></g><g transform="translate(1035,1449) scale(0.138,0.138)"><g transform="" style="fill: rgb(0, 0, 0);">
<path d="M38.5,211.5c0,42.907,0,123.188,0,171.55c0,23.857,0,39.95,0,39.95v17.5V470v30h423v-30v-29.5V423c0,0,0-16.216,0-39.95
	c0-51.332,0-137.84,0-171.55C461.5,94.699,366.8,0,250,0C133.191,0,38.5,94.699,38.5,211.5z"/>
</g></g><g transform="translate(1173,1449) scale(0.138,0.138)"><g transform="" style="fill: rgb(0, 0, 0);">
<polygon points="38.5,250 38.5,500 461.5,500 461.5,250 461.5,0 38.5,0 "/>
</g></g><g transform="translate(1242,1449) scale(0.138,0.138)"><g transform="" style="fill: rgb(0, 0, 0);">
<path d="M38.5,211.5c0,42.907,0,123.188,0,171.55c0,23.857,0,39.95,0,39.95v17.5V470v30h423v-30v-29.5V423c0,0,0-16.216,0-39.95
	c0-51.332,0-137.84,0-171.55C461.5,94.699,366.8,0,250,0C133.191,0,38.5,94.699,38.5,211.5z"/>
</g></g><g transform="translate(1380,1449) scale(0.138,0.138)"><g transform="" style="fill: rgb(0, 0, 0);">
<polygon points="38.5,250 38.5,500 461.5,500 461.5,250 461.5,0 38.5,0 "/>
</g></g><g transform="translate(1656,1449) scale(0.138,0.138)"><g transform="" style="fill: rgb(0, 0, 0);">
<polygon points="38.5,250 38.5,500 461.5,500 461.5,250 461.5,0 38.5,0 "/>
</g></g><g transform="translate(1725,1449) scale(0.138,0.138)"><g transform="" style="fill: rgb(0, 0, 0);">
<polygon points="38.5,250 38.5,500 461.5,500 461.5,250 461.5,0 38.5,0 "/>
</g></g><g transform="translate(552,1518) scale(0.138,0.138)"><g transform="" style="fill: rgb(0, 0, 0);">
<polygon points="38.5,250 38.5,500 461.5,500 461.5,250 461.5,0 38.5,0 "/>
</g></g><g transform="translate(621,1518) scale(0.138,0.138)"><g transform="" style="fill: rgb(0, 0, 0);">
<path d="M38.5,211.5c0,42.907,0,123.188,0,171.55c0,23.857,0,39.95,0,39.95v17.5V470v30h423v-30v-29.5V423c0,0,0-16.216,0-39.95
	c0-51.332,0-137.84,0-171.55C461.5,94.699,366.8,0,250,0C133.191,0,38.5,94.699,38.5,211.5z"/>
</g></g><g transform="translate(966,1518) scale(0.138,0.138)"><g transform="" style="fill: rgb(0, 0, 0);">
<polygon points="38.5,250 38.5,500 461.5,500 461.5,250 461.5,0 38.5,0 "/>
</g></g><g transform="translate(1035,1518) scale(0.138,0.138)"><g transform="" style="fill: rgb(0, 0, 0);">
<path d="M461.5,288.5c0-42.907,0-123.188,0-171.55c0-23.857,0-39.95,0-39.95V59.5V30V0h-423v30v29.5V77c0,0,0,16.216,0,39.95
	c0,51.332,0,137.84,0,171.55C38.5,405.301,133.2,500,250,500C366.809,500,461.5,405.301,461.5,288.5z"/>
</g></g><g transform="translate(1173,1518) scale(0.138,0.138)"><g transform="" style="fill: rgb(0, 0, 0);">
<polygon points="38.5,250 38.5,500 461.5,500 461.5,250 461.5,0 38.5,0 "/>
</g></g><g transform="translate(1242,1518) scale(0.138,0.138)"><g transform="" style="fill: rgb(0, 0, 0);">
<polygon points="38.5,250 38.5,500 461.5,500 461.5,250 461.5,0 38.5,0 "/>
</g></g><g transform="translate(1311,1518) scale(0.138,0.138)"><g transform="" style="fill: rgb(0, 0, 0);">
<path d="M38.5,211.5c0,42.907,0,123.188,0,171.55c0,23.857,0,39.95,0,39.95v17.5V470v30h423v-30v-29.5V423c0,0,0-16.216,0-39.95
	c0-51.332,0-137.84,0-171.55C461.5,94.699,366.8,0,250,0C133.191,0,38.5,94.699,38.5,211.5z"/>
</g></g><g transform="translate(1380,1518) scale(0.138,0.138)"><g transform="" style="fill: rgb(0, 0, 0);">
<polygon points="38.5,250 38.5,500 461.5,500 461.5,250 461.5,0 38.5,0 "/>
</g></g><g transform="translate(1518,1518) scale(0.138,0.138)"><g transform="" style="fill: rgb(0, 0, 0);">
<path d="M250,38.5c116.813,0,211.5,94.693,211.5,211.5c0,116.813-94.687,211.5-211.5,211.5c-116.807,0-211.5-94.687-211.5-211.5
	C38.5,133.193,133.193,38.5,250,38.5z"/>
</g></g><g transform="translate(1656,1518) scale(0.138,0.138)"><g transform="" style="fill: rgb(0, 0, 0);">
<polygon points="38.5,250 38.5,500 461.5,500 461.5,250 461.5,0 38.5,0 "/>
</g></g><g transform="translate(1725,1518) scale(0.138,0.138)"><g transform="" style="fill: rgb(0, 0, 0);">
<path d="M461.5,288.5c0-42.907,0-123.188,0-171.55c0-23.857,0-39.95,0-39.95V59.5V30V0h-423v30v29.5V77c0,0,0,16.216,0,39.95
	c0,51.332,0,137.84,0,171.55C38.5,405.301,133.2,500,250,500C366.809,500,461.5,405.301,461.5,288.5z"/>
</g></g><g transform="translate(552,1587) scale(0.138,0.138)"><g transform="" style="fill: rgb(0, 0, 0);">
<polygon points="38.5,250 38.5,500 461.5,500 461.5,250 461.5,0 38.5,0 "/>
</g></g><g transform="translate(621,1587) scale(0.138,0.138)"><g transform="" style="fill: rgb(0, 0, 0);">
<polygon points="38.5,250 38.5,500 461.5,500 461.5,250 461.5,0 38.5,0 "/>
</g></g><g transform="translate(966,1587) scale(0.138,0.138)"><g transform="" style="fill: rgb(0, 0, 0);">
<polygon points="38.5,250 38.5,500 461.5,500 461.5,250 461.5,0 38.5,0 "/>
</g></g><g transform="translate(1104,1587) scale(0.138,0.138)"><g transform="" style="fill: rgb(0, 0, 0);">
<path d="M250,38.5c116.813,0,211.5,94.693,211.5,211.5c0,116.813-94.687,211.5-211.5,211.5c-116.807,0-211.5-94.687-211.5-211.5
	C38.5,133.193,133.193,38.5,250,38.5z"/>
</g></g><g transform="translate(1173,1587) scale(0.138,0.138)"><g transform="" style="fill: rgb(0, 0, 0);">
<path d="M461.5,288.5c0-42.907,0-123.188,0-171.55c0-23.857,0-39.95,0-39.95V59.5V30V0h-423v30v29.5V77c0,0,0,16.216,0,39.95
	c0,51.332,0,137.84,0,171.55C38.5,405.301,133.2,500,250,500C366.809,500,461.5,405.301,461.5,288.5z"/>
</g></g><g transform="translate(1242,1587) scale(0.138,0.138)"><g transform="" style="fill: rgb(0, 0, 0);">
<path d="M461.5,288.5c0-42.907,0-123.188,0-171.55c0-23.857,0-39.95,0-39.95V59.5V30V0h-423v30v29.5V77c0,0,0,16.216,0,39.95
	c0,51.332,0,137.84,0,171.55C38.5,405.301,133.2,500,250,500C366.809,500,461.5,405.301,461.5,288.5z"/>
</g></g><g transform="translate(1311,1587) scale(0.138,0.138)"><g transform="" style="fill: rgb(0, 0, 0);">
<polygon points="38.5,250 38.5,500 461.5,500 461.5,250 461.5,0 38.5,0 "/>
</g></g><g transform="translate(1380,1587) scale(0.138,0.138)"><g transform="" style="fill: rgb(0, 0, 0);">
<polygon points="38.5,250 38.5,500 461.5,500 461.5,250 461.5,0 38.5,0 "/>
</g></g><g transform="translate(1656,1587) scale(0.138,0.138)"><g transform="" style="fill: rgb(0, 0, 0);">
<polygon points="38.5,250 38.5,500 461.5,500 461.5,250 461.5,0 38.5,0 "/>
</g></g><g transform="translate(1932,1587) scale(0.138,0.138)"><g transform="" style="fill: rgb(0, 0, 0);">
<path d="M38.5,211.5c0,42.907,0,123.188,0,171.55c0,23.857,0,39.95,0,39.95v17.5V470v30h423v-30v-29.5V423c0,0,0-16.216,0-39.95
	c0-51.332,0-137.84,0-171.55C461.5,94.699,366.8,0,250,0C133.191,0,38.5,94.699,38.5,211.5z"/>
</g></g><g transform="translate(552,1656) scale(0.138,0.138)"><g transform="" style="fill: rgb(0, 0, 0);">
<polygon points="38.5,250 38.5,500 461.5,500 461.5,250 461.5,0 38.5,0 "/>
</g></g><g transform="translate(621,1656) scale(0.138,0.138)"><g transform="" style="fill: rgb(0, 0, 0);">
<polygon points="38.5,250 38.5,500 461.5,500 461.5,250 461.5,0 38.5,0 "/>
</g></g><g transform="translate(690,1656) scale(0.138,0.138)"><g transform="" style="fill: rgb(0, 0, 0);">
<path d="M38.5,211.5c0,42.907,0,123.188,0,171.55c0,23.857,0,39.95,0,39.95v17.5V470v30h423v-30v-29.5V423c0,0,0-16.216,0-39.95
	c0-51.332,0-137.84,0-171.55C461.5,94.699,366.8,0,250,0C133.191,0,38.5,94.699,38.5,211.5z"/>
</g></g><g transform="translate(897,1656) scale(0.138,0.138)"><g transform="" style="fill: rgb(0, 0, 0);">
<path d="M250,38.5c116.813,0,211.5,94.693,211.5,211.5c0,116.813-94.687,211.5-211.5,211.5c-116.807,0-211.5-94.687-211.5-211.5
	C38.5,133.193,133.193,38.5,250,38.5z"/>
</g></g><g transform="translate(966,1656) scale(0.138,0.138)"><g transform="" style="fill: rgb(0, 0, 0);">
<path d="M461.5,288.5c0-42.907,0-123.188,0-171.55c0-23.857,0-39.95,0-39.95V59.5V30V0h-423v30v29.5V77c0,0,0,16.216,0,39.95
	c0,51.332,0,137.84,0,171.55C38.5,405.301,133.2,500,250,500C366.809,500,461.5,405.301,461.5,288.5z"/>
</g></g><g transform="translate(1035,1656) scale(0.138,0.138)"><g transform="" style="fill: rgb(0, 0, 0);">
<path d="M38.5,211.5c0,42.907,0,123.188,0,171.55c0,23.857,0,39.95,0,39.95v17.5V470v30h423v-30v-29.5V423c0,0,0-16.216,0-39.95
	c0-51.332,0-137.84,0-171.55C461.5,94.699,366.8,0,250,0C133.191,0,38.5,94.699,38.5,211.5z"/>
</g></g><g transform="translate(1311,1656) scale(0.138,0.138)"><g transform="" style="fill: rgb(0, 0, 0);">
<path d="M461.5,288.5c0-42.907,0-123.188,0-171.55c0-23.857,0-39.95,0-39.95V59.5V30V0h-423v30v29.5V77c0,0,0,16.216,0,39.95
	c0,51.332,0,137.84,0,171.55C38.5,405.301,133.2,500,250,500C366.809,500,461.5,405.301,461.5,288.5z"/>
</g></g><g transform="translate(1380,1656) scale(0.138,0.138)"><g transform="" style="fill: rgb(0, 0, 0);">
<path d="M461.5,288.5c0-42.907,0-123.188,0-171.55c0-23.857,0-39.95,0-39.95V59.5V30V0h-423v30v29.5V77c0,0,0,16.216,0,39.95
	c0,51.332,0,137.84,0,171.55C38.5,405.301,133.2,500,250,500C366.809,500,461.5,405.301,461.5,288.5z"/>
</g></g><g transform="translate(1449,1656) scale(0.138,0.138)"><g transform="" style="fill: rgb(0, 0, 0);">
<path d="M38.5,211.5c0,42.907,0,123.188,0,171.55c0,23.857,0,39.95,0,39.95v17.5V470v30h423v-30v-29.5V423c0,0,0-16.216,0-39.95
	c0-51.332,0-137.84,0-171.55C461.5,94.699,366.8,0,250,0C133.191,0,38.5,94.699,38.5,211.5z"/>
</g></g><g transform="translate(1518,1656) scale(0.138,0.138)"><g transform="" style="fill: rgb(0, 0, 0);">
<path d="M250,38.5c116.813,0,211.5,94.693,211.5,211.5c0,116.813-94.687,211.5-211.5,211.5c-116.807,0-211.5-94.687-211.5-211.5
	C38.5,133.193,133.193,38.5,250,38.5z"/>
</g></g><g transform="translate(1587,1656) scale(0.138,0.138)"><g transform="" style="fill: rgb(0, 0, 0);">
<path d="M250,38.5c116.813,0,211.5,94.693,211.5,211.5c0,116.813-94.687,211.5-211.5,211.5c-116.807,0-211.5-94.687-211.5-211.5
	C38.5,133.193,133.193,38.5,250,38.5z"/>
</g></g><g transform="translate(1656,1656) scale(0.138,0.138)"><g transform="" style="fill: rgb(0, 0, 0);">
<path d="M461.5,288.5c0-42.907,0-123.188,0-171.55c0-23.857,0-39.95,0-39.95V59.5V30V0h-423v30v29.5V77c0,0,0,16.216,0,39.95
	c0,51.332,0,137.84,0,171.55C38.5,405.301,133.2,500,250,500C366.809,500,461.5,405.301,461.5,288.5z"/>
</g></g><g transform="translate(1725,1656) scale(0.138,0.138)"><g transform="" style="fill: rgb(0, 0, 0);">
<path d="M250,38.5c116.813,0,211.5,94.693,211.5,211.5c0,116.813-94.687,211.5-211.5,211.5c-116.807,0-211.5-94.687-211.5-211.5
	C38.5,133.193,133.193,38.5,250,38.5z"/>
</g></g><g transform="translate(1863,1656) scale(0.138,0.138)"><g transform="" style="fill: rgb(0, 0, 0);">
<path d="M250,38.5c116.813,0,211.5,94.693,211.5,211.5c0,116.813-94.687,211.5-211.5,211.5c-116.807,0-211.5-94.687-211.5-211.5
	C38.5,133.193,133.193,38.5,250,38.5z"/>
</g></g><g transform="translate(1932,1656) scale(0.138,0.138)"><g transform="" style="fill: rgb(0, 0, 0);">
<polygon points="38.5,250 38.5,500 461.5,500 461.5,250 461.5,0 38.5,0 "/>
</g></g><g transform="translate(552,1725) scale(0.138,0.138)"><g transform="" style="fill: rgb(0, 0, 0);">
<path d="M461.5,288.5c0-42.907,0-123.188,0-171.55c0-23.857,0-39.95,0-39.95V59.5V30V0h-423v30v29.5V77c0,0,0,16.216,0,39.95
	c0,51.332,0,137.84,0,171.55C38.5,405.301,133.2,500,250,500C366.809,500,461.5,405.301,461.5,288.5z"/>
</g></g><g transform="translate(621,1725) scale(0.138,0.138)"><g transform="" style="fill: rgb(0, 0, 0);">
<path d="M461.5,288.5c0-42.907,0-123.188,0-171.55c0-23.857,0-39.95,0-39.95V59.5V30V0h-423v30v29.5V77c0,0,0,16.216,0,39.95
	c0,51.332,0,137.84,0,171.55C38.5,405.301,133.2,500,250,500C366.809,500,461.5,405.301,461.5,288.5z"/>
</g></g><g transform="translate(690,1725) scale(0.138,0.138)"><g transform="" style="fill: rgb(0, 0, 0);">
<path d="M461.5,288.5c0-42.907,0-123.188,0-171.55c0-23.857,0-39.95,0-39.95V59.5V30V0h-423v30v29.5V77c0,0,0,16.216,0,39.95
	c0,51.332,0,137.84,0,171.55C38.5,405.301,133.2,500,250,500C366.809,500,461.5,405.301,461.5,288.5z"/>
</g></g><g transform="translate(759,1725) scale(0.138,0.138)"><g transform="" style="fill: rgb(0, 0, 0);">
<path d="M38.5,211.5c0,42.907,0,123.188,0,171.55c0,23.857,0,39.95,0,39.95v17.5V470v30h423v-30v-29.5V423c0,0,0-16.216,0-39.95
	c0-51.332,0-137.84,0-171.55C461.5,94.699,366.8,0,250,0C133.191,0,38.5,94.699,38.5,211.5z"/>
</g></g><g transform="translate(1035,1725) scale(0.138,0.138)"><g transform="" style="fill: rgb(0, 0, 0);">
<polygon points="38.5,250 38.5,500 461.5,500 461.5,250 461.5,0 38.5,0 "/>
</g></g><g transform="translate(1104,1725) scale(0.138,0.138)"><g transform="" style="fill: rgb(0, 0, 0);">
<path d="M38.5,211.5c0,42.907,0,123.188,0,171.55c0,23.857,0,39.95,0,39.95v17.5V470v30h423v-30v-29.5V423c0,0,0-16.216,0-39.95
	c0-51.332,0-137.84,0-171.55C461.5,94.699,366.8,0,250,0C133.191,0,38.5,94.699,38.5,211.5z"/>
</g></g><g transform="translate(1242,1725) scale(0.138,0.138)"><g transform="" style="fill: rgb(0, 0, 0);">
<path d="M38.5,211.5c0,42.907,0,123.188,0,171.55c0,23.857,0,39.95,0,39.95v17.5V470v30h423v-30v-29.5V423c0,0,0-16.216,0-39.95
	c0-51.332,0-137.84,0-171.55C461.5,94.699,366.8,0,250,0C133.191,0,38.5,94.699,38.5,211.5z"/>
</g></g><g transform="translate(1449,1725) scale(0.138,0.138)"><g transform="" style="fill: rgb(0, 0, 0);">
<polygon points="38.5,250 38.5,500 461.5,500 461.5,250 461.5,0 38.5,0 "/>
</g></g><g transform="translate(1932,1725) scale(0.138,0.138)"><g transform="" style="fill: rgb(0, 0, 0);">
<polygon points="38.5,250 38.5,500 461.5,500 461.5,250 461.5,0 38.5,0 "/>
</g></g><g transform="translate(759,1794) scale(0.138,0.138)"><g transform="" style="fill: rgb(0, 0, 0);">
<polygon points="38.5,250 38.5,500 461.5,500 461.5,250 461.5,0 38.5,0 "/>
</g></g><g transform="translate(966,1794) scale(0.138,0.138)"><g transform="" style="fill: rgb(0, 0, 0);">
<path d="M38.5,211.5c0,42.907,0,123.188,0,171.55c0,23.857,0,39.95,0,39.95v17.5V470v30h423v-30v-29.5V423c0,0,0-16.216,0-39.95
	c0-51.332,0-137.84,0-171.55C461.5,94.699,366.8,0,250,0C133.191,0,38.5,94.699,38.5,211.5z"/>
</g></g><g transform="translate(1035,1794) scale(0.138,0.138)"><g transform="" style="fill: rgb(0, 0, 0);">
<polygon points="38.5,250 38.5,500 461.5,500 461.5,250 461.5,0 38.5,0 "/>
</g></g><g transform="translate(1104,1794) scale(0.138,0.138)"><g transform="" style="fill: rgb(0, 0, 0);">
<polygon points="38.5,250 38.5,500 461.5,500 461.5,250 461.5,0 38.5,0 "/>
</g></g><g transform="translate(1242,1794) scale(0.138,0.138)"><g transform="" style="fill: rgb(0, 0, 0);">
<path d="M461.5,288.5c0-42.907,0-123.188,0-171.55c0-23.857,0-39.95,0-39.95V59.5V30V0h-423v30v29.5V77c0,0,0,16.216,0,39.95
	c0,51.332,0,137.84,0,171.55C38.5,405.301,133.2,500,250,500C366.809,500,461.5,405.301,461.5,288.5z"/>
</g></g><g transform="translate(1380,1794) scale(0.138,0.138)"><g transform="" style="fill: rgb(0, 0, 0);">
<path d="M250,38.5c116.813,0,211.5,94.693,211.5,211.5c0,116.813-94.687,211.5-211.5,211.5c-116.807,0-211.5-94.687-211.5-211.5
	C38.5,133.193,133.193,38.5,250,38.5z"/>
</g></g><g transform="translate(1449,1794) scale(0.138,0.138)"><g transform="" style="fill: rgb(0, 0, 0);">
<path d="M461.5,288.5c0-42.907,0-123.188,0-171.55c0-23.857,0-39.95,0-39.95V59.5V30V0h-423v30v29.5V77c0,0,0,16.216,0,39.95
	c0,51.332,0,137.84,0,171.55C38.5,405.301,133.2,500,250,500C366.809,500,461.5,405.301,461.5,288.5z"/>
</g></g><g transform="translate(1587,1794) scale(0.138,0.138)"><g transform="" style="fill: rgb(0, 0, 0);">
<path d="M38.5,211.5c0,42.907,0,123.188,0,171.55c0,23.857,0,39.95,0,39.95v17.5V470v30h423v-30v-29.5V423c0,0,0-16.216,0-39.95
	c0-51.332,0-137.84,0-171.55C461.5,94.699,366.8,0,250,0C133.191,0,38.5,94.699,38.5,211.5z"/>
</g></g><g transform="translate(1656,1794) scale(0.138,0.138)"><g transform="" style="fill: rgb(0, 0, 0);">
<path d="M250,38.5c116.813,0,211.5,94.693,211.5,211.5c0,116.813-94.687,211.5-211.5,211.5c-116.807,0-211.5-94.687-211.5-211.5
	C38.5,133.193,133.193,38.5,250,38.5z"/>
</g></g><g transform="translate(1794,1794) scale(0.138,0.138)"><g transform="" style="fill: rgb(0, 0, 0);">
<path d="M38.5,211.5c0,42.907,0,123.188,0,171.55c0,23.857,0,39.95,0,39.95v17.5V470v30h423v-30v-29.5V423c0,0,0-16.216,0-39.95
	c0-51.332,0-137.84,0-171.55C461.5,94.699,366.8,0,250,0C133.191,0,38.5,94.699,38.5,211.5z"/>
</g></g><g transform="translate(1863,1794) scale(0.138,0.138)"><g transform="" style="fill: rgb(0, 0, 0);">
<path d="M250,38.5c116.813,0,211.5,94.693,211.5,211.5c0,116.813-94.687,211.5-211.5,211.5c-116.807,0-211.5-94.687-211.5-211.5
	C38.5,133.193,133.193,38.5,250,38.5z"/>
</g></g><g transform="translate(1932,1794) scale(0.138,0.138)"><g transform="" style="fill: rgb(0, 0, 0);">
<polygon points="38.5,250 38.5,500 461.5,500 461.5,250 461.5,0 38.5,0 "/>
</g></g><g transform="translate(621,1863) scale(0.138,0.138)"><g transform="" style="fill: rgb(0, 0, 0);">
<path d="M250,38.5c116.813,0,211.5,94.693,211.5,211.5c0,116.813-94.687,211.5-211.5,211.5c-116.807,0-211.5-94.687-211.5-211.5
	C38.5,133.193,133.193,38.5,250,38.5z"/>
</g></g><g transform="translate(690,1863) scale(0.138,0.138)"><g transform="" style="fill: rgb(0, 0, 0);">
<path d="M250,38.5c116.813,0,211.5,94.693,211.5,211.5c0,116.813-94.687,211.5-211.5,211.5c-116.807,0-211.5-94.687-211.5-211.5
	C38.5,133.193,133.193,38.5,250,38.5z"/>
</g></g><g transform="translate(759,1863) scale(0.138,0.138)"><g transform="" style="fill: rgb(0, 0, 0);">
<polygon points="38.5,250 38.5,500 461.5,500 461.5,250 461.5,0 38.5,0 "/>
</g></g><g transform="translate(897,1863) scale(0.138,0.138)"><g transform="" style="fill: rgb(0, 0, 0);">
<path d="M250,38.5c116.813,0,211.5,94.693,211.5,211.5c0,116.813-94.687,211.5-211.5,211.5c-116.807,0-211.5-94.687-211.5-211.5
	C38.5,133.193,133.193,38.5,250,38.5z"/>
</g></g><g transform="translate(966,1863) scale(0.138,0.138)"><g transform="" style="fill: rgb(0, 0, 0);">
<path d="M461.5,288.5c0-42.907,0-123.188,0-171.55c0-23.857,0-39.95,0-39.95V59.5V30V0h-423v30v29.5V77c0,0,0,16.216,0,39.95
	c0,51.332,0,137.84,0,171.55C38.5,405.301,133.2,500,250,500C366.809,500,461.5,405.301,461.5,288.5z"/>
</g></g><g transform="translate(1035,1863) scale(0.138,0.138)"><g transform="" style="fill: rgb(0, 0, 0);">
<polygon points="38.5,250 38.5,500 461.5,500 461.5,250 461.5,0 38.5,0 "/>
</g></g><g transform="translate(1104,1863) scale(0.138,0.138)"><g transform="" style="fill: rgb(0, 0, 0);">
<polygon points="38.5,250 38.5,500 461.5,500 461.5,250 461.5,0 38.5,0 "/>
</g></g><g transform="translate(1518,1863) scale(0.138,0.138)"><g transform="" style="fill: rgb(0, 0, 0);">
<path d="M38.5,211.5c0,42.907,0,123.188,0,171.55c0,23.857,0,39.95,0,39.95v17.5V470v30h423v-30v-29.5V423c0,0,0-16.216,0-39.95
	c0-51.332,0-137.84,0-171.55C461.5,94.699,366.8,0,250,0C133.191,0,38.5,94.699,38.5,211.5z"/>
</g></g><g transform="translate(1587,1863) scale(0.138,0.138)"><g transform="" style="fill: rgb(0, 0, 0);">
<path d="M461.5,288.5c0-42.907,0-123.188,0-171.55c0-23.857,0-39.95,0-39.95V59.5V30V0h-423v30v29.5V77c0,0,0,16.216,0,39.95
	c0,51.332,0,137.84,0,171.55C38.5,405.301,133.2,500,250,500C366.809,500,461.5,405.301,461.5,288.5z"/>
</g></g><g transform="translate(1725,1863) scale(0.138,0.138)"><g transform="" style="fill: rgb(0, 0, 0);">
<path d="M250,38.5c116.813,0,211.5,94.693,211.5,211.5c0,116.813-94.687,211.5-211.5,211.5c-116.807,0-211.5-94.687-211.5-211.5
	C38.5,133.193,133.193,38.5,250,38.5z"/>
</g></g><g transform="translate(1794,1863) scale(0.138,0.138)"><g transform="" style="fill: rgb(0, 0, 0);">
<path d="M461.5,288.5c0-42.907,0-123.188,0-171.55c0-23.857,0-39.95,0-39.95V59.5V30V0h-423v30v29.5V77c0,0,0,16.216,0,39.95
	c0,51.332,0,137.84,0,171.55C38.5,405.301,133.2,500,250,500C366.809,500,461.5,405.301,461.5,288.5z"/>
</g></g><g transform="translate(1932,1863) scale(0.138,0.138)"><g transform="" style="fill: rgb(0, 0, 0);">
<path d="M461.5,288.5c0-42.907,0-123.188,0-171.55c0-23.857,0-39.95,0-39.95V59.5V30V0h-423v30v29.5V77c0,0,0,16.216,0,39.95
	c0,51.332,0,137.84,0,171.55C38.5,405.301,133.2,500,250,500C366.809,500,461.5,405.301,461.5,288.5z"/>
</g></g><g transform="translate(552,1932) scale(0.138,0.138)"><g transform="" style="fill: rgb(0, 0, 0);">
<path d="M250,38.5c116.813,0,211.5,94.693,211.5,211.5c0,116.813-94.687,211.5-211.5,211.5c-116.807,0-211.5-94.687-211.5-211.5
	C38.5,133.193,133.193,38.5,250,38.5z"/>
</g></g><g transform="translate(759,1932) scale(0.138,0.138)"><g transform="" style="fill: rgb(0, 0, 0);">
<path d="M461.5,288.5c0-42.907,0-123.188,0-171.55c0-23.857,0-39.95,0-39.95V59.5V30V0h-423v30v29.5V77c0,0,0,16.216,0,39.95
	c0,51.332,0,137.84,0,171.55C38.5,405.301,133.2,500,250,500C366.809,500,461.5,405.301,461.5,288.5z"/>
</g></g><g transform="translate(828,1932) scale(0.138,0.138)"><g transform="" style="fill: rgb(0, 0, 0);">
<path d="M250,38.5c116.813,0,211.5,94.693,211.5,211.5c0,116.813-94.687,211.5-211.5,211.5c-116.807,0-211.5-94.687-211.5-211.5
	C38.5,133.193,133.193,38.5,250,38.5z"/>
</g></g><g transform="translate(1035,1932) scale(0.138,0.138)"><g transform="" style="fill: rgb(0, 0, 0);">
<path d="M461.5,288.5c0-42.907,0-123.188,0-171.55c0-23.857,0-39.95,0-39.95V59.5V30V0h-423v30v29.5V77c0,0,0,16.216,0,39.95
	c0,51.332,0,137.84,0,171.55C38.5,405.301,133.2,500,250,500C366.809,500,461.5,405.301,461.5,288.5z"/>
</g></g><g transform="translate(1104,1932) scale(0.138,0.138)"><g transform="" style="fill: rgb(0, 0, 0);">
<path d="M461.5,288.5c0-42.907,0-123.188,0-171.55c0-23.857,0-39.95,0-39.95V59.5V30V0h-423v30v29.5V77c0,0,0,16.216,0,39.95
	c0,51.332,0,137.84,0,171.55C38.5,405.301,133.2,500,250,500C366.809,500,461.5,405.301,461.5,288.5z"/>
</g></g><g transform="translate(1311,1932) scale(0.138,0.138)"><g transform="" style="fill: rgb(0, 0, 0);">
<path d="M250,38.5c116.813,0,211.5,94.693,211.5,211.5c0,116.813-94.687,211.5-211.5,211.5c-116.807,0-211.5-94.687-211.5-211.5
	C38.5,133.193,133.193,38.5,250,38.5z"/>
</g></g><g transform="translate(1380,1932) scale(0.138,0.138)"><g transform="" style="fill: rgb(0, 0, 0);">
<path d="M250,38.5c116.813,0,211.5,94.693,211.5,211.5c0,116.813-94.687,211.5-211.5,211.5c-116.807,0-211.5-94.687-211.5-211.5
	C38.5,133.193,133.193,38.5,250,38.5z"/>
</g></g><g transform="translate(1518,1932) scale(0.138,0.138)"><g transform="" style="fill: rgb(0, 0, 0);">
<path d="M461.5,288.5c0-42.907,0-123.188,0-171.55c0-23.857,0-39.95,0-39.95V59.5V30V0h-423v30v29.5V77c0,0,0,16.216,0,39.95
	c0,51.332,0,137.84,0,171.55C38.5,405.301,133.2,500,250,500C366.809,500,461.5,405.301,461.5,288.5z"/>
</g></g><g transform="translate(1656,1932) scale(0.138,0.138)"><g transform="" style="fill: rgb(0, 0, 0);">
<path d="M250,38.5c116.813,0,211.5,94.693,211.5,211.5c0,116.813-94.687,211.5-211.5,211.5c-116.807,0-211.5-94.687-211.5-211.5
	C38.5,133.193,133.193,38.5,250,38.5z"/>
</g></g><g transform="translate(0,0) scale(4.83, 4.83)"><g transform="" style="fill: rgb(0, 0, 0);">
<g>
	<rect x="15" y="15" style="fill:none;" width="70" height="70"/>
	<path d="M85,0H15H0v15v70v15h15h70h15V85V15V0H85z M85,85H15V15h70V85z"/>
</g>
</g></g><g transform="translate(1518,0) scale(4.83, 4.83)"><g transform="" style="fill: rgb(0, 0, 0);">
<g>
	<rect x="15" y="15" style="fill:none;" width="70" height="70"/>
	<path d="M85,0H15H0v15v70v15h15h70h15V85V15V0H85z M85,85H15V15h70V85z"/>
</g>
</g></g><g transform="translate(0,1518) scale(4.83, 4.83)"><g transform="" style="fill: rgb(0, 0, 0);">
<g>
	<rect x="15" y="15" style="fill:none;" width="70" height="70"/>
	<path d="M85,0H15H0v15v70v15h15h70h15V85V15V0H85z M85,85H15V15h70V85z"/>
</g>
</g></g><g transform="translate(138,138) scale(2.07, 2.07)"><g transform="" style="fill: rgb(0, 0, 0);">
<rect width="100" height="100"/>
</g></g><g transform="translate(1656,138) scale(2.07, 2.07)"><g transform="" style="fill: rgb(0, 0, 0);">
<rect width="100" height="100"/>
</g></g><g transform="translate(138,1656) scale(2.07, 2.07)"><g transform="" style="fill: rgb(0, 0, 0);">
<rect width="100" height="100"/>
</g></g></g></svg>