<?xml version="1.0" encoding="UTF-8" standalone="no"?>
<!-- Created with Inkscape (http://www.inkscape.org/) -->

<svg
   width="1357.6196mm"
   height="315.9577mm"
   viewBox="0 0 1357.6196 315.9577"
   version="1.1"
   id="svg5"
   sodipodi:docname="harpy.svg"
   xml:space="preserve"
   inkscape:version="1.3 (0e150ed6c4, 2023-07-21)"
   inkscape:export-filename="harpy.png"
   inkscape:export-xdpi="96"
   inkscape:export-ydpi="96"
   xmlns:inkscape="http://www.inkscape.org/namespaces/inkscape"
   xmlns:sodipodi="http://sodipodi.sourceforge.net/DTD/sodipodi-0.dtd"
   xmlns:xlink="http://www.w3.org/1999/xlink"
   xmlns="http://www.w3.org/2000/svg"
   xmlns:svg="http://www.w3.org/2000/svg"><sodipodi:namedview
     id="namedview7"
     pagecolor="#ffffff"
     bordercolor="#000000"
     borderopacity="0.25"
     inkscape:showpageshadow="2"
     inkscape:pageopacity="0.0"
     inkscape:pagecheckerboard="0"
     inkscape:deskcolor="#d1d1d1"
     inkscape:document-units="mm"
     showgrid="false"
     inkscape:zoom="0.20239149"
     inkscape:cx="2717.5056"
     inkscape:cy="701.61053"
     inkscape:window-width="1920"
     inkscape:window-height="1030"
     inkscape:window-x="0"
     inkscape:window-y="0"
     inkscape:window-maximized="1"
     inkscape:current-layer="g826" /><defs
     id="defs2"><linearGradient
   id="linearGradient2800"><stop
     style="stop-color:#88a6c1;stop-opacity:1"
     offset="0"
     id="stop2796" /><stop
     style="stop-color:#b8e2c4;stop-opacity:1;"
     offset="1"
     id="stop2798" /></linearGradient><linearGradient
   id="linearGradient2794"><stop
     style="stop-color:#88a6c1;stop-opacity:1"
     offset="0"
     id="stop2790" /><stop
     style="stop-color:#b8e2c4;stop-opacity:1;"
     offset="1"
     id="stop2792" /></linearGradient><linearGradient
   id="linearGradient2788"><stop
     style="stop-color:#88a6c1;stop-opacity:1"
     offset="0"
     id="stop2784" /><stop
     style="stop-color:#b8e2c4;stop-opacity:1;"
     offset="1"
     id="stop2786" /></linearGradient><linearGradient
   id="linearGradient2782"><stop
     style="stop-color:#88a6c1;stop-opacity:1"
     offset="0"
     id="stop2778" /><stop
     style="stop-color:#b8e2c4;stop-opacity:1;"
     offset="1"
     id="stop2780" /></linearGradient><linearGradient
   inkscape:collect="always"
   id="linearGradient2753"><stop
     style="stop-color:#000000;stop-opacity:1;"
     offset="0"
     id="stop2749" /><stop
     style="stop-color:#000000;stop-opacity:0;"
     offset="1"
     id="stop2751" /></linearGradient><linearGradient
   id="linearGradient29924"><stop
     style="stop-color:#88c19c;stop-opacity:1"
     offset="0"
     id="stop29920" /><stop
     style="stop-color:#ceb8e2;stop-opacity:1;"
     offset="1"
     id="stop29922" /></linearGradient><linearGradient
   id="linearGradient25008"><stop
     style="stop-color:#88c19c;stop-opacity:1"
     offset="0"
     id="stop28056" /><stop
     style="stop-color:#e2bcb8;stop-opacity:1;"
     offset="1"
     id="stop28058" /></linearGradient><linearGradient
   id="linearGradient25008-1"><stop
     style="stop-color:#88c19c;stop-opacity:1"
     offset="0"
     id="stop25004" /><stop
     style="stop-color:#e2bcb8;stop-opacity:1;"
     offset="1"
     id="stop25006" /></linearGradient><filter
   style="color-interpolation-filters:sRGB"
   inkscape:label="Drop Shadow"
   id="filter14936"
   x="-0.090197295"
   y="-0.056936212"
   width="1.199856"
   height="1.1207836"><feFlood
     flood-opacity="0.498039"
     flood-color="rgb(0,0,0)"
     result="flood"
     id="feFlood14926" /><feComposite
     in="flood"
     in2="SourceGraphic"
     operator="in"
     result="composite1"
     id="feComposite14928" /><feGaussianBlur
     in="composite1"
     stdDeviation="0.8"
     result="blur"
     id="feGaussianBlur14930" /><feOffset
     dx="1.8"
     dy="0.9"
     result="offset"
     id="feOffset14932" /><feComposite
     in="SourceGraphic"
     in2="offset"
     operator="over"
     result="composite2"
     id="feComposite14934" /></filter><filter
   style="color-interpolation-filters:sRGB"
   inkscape:label="Drop Shadow"
   id="filter17275"
   x="-0.30822697"
   y="-0.095508769"
   width="1.6905766"
   height="1.2025017"><feFlood
     flood-opacity="0.278431"
     flood-color="rgb(0,0,0)"
     result="flood"
     id="feFlood17265" /><feComposite
     in="flood"
     in2="SourceGraphic"
     operator="in"
     result="composite1"
     id="feComposite17267" /><feGaussianBlur
     in="composite1"
     stdDeviation="0.8"
     result="blur"
     id="feGaussianBlur17269" /><feOffset
     dx="1.8"
     dy="0.9"
     result="offset"
     id="feOffset17271" /><feComposite
     in="SourceGraphic"
     in2="offset"
     operator="over"
     result="composite2"
     id="feComposite17273" /></filter><filter
   style="color-interpolation-filters:sRGB"
   inkscape:label="Drop Shadow"
   id="filter17287"
   x="-0.39714545"
   y="-0.12618054"
   width="1.8897969"
   height="1.2675331"><feFlood
     flood-opacity="0.278431"
     flood-color="rgb(0,0,0)"
     result="flood"
     id="feFlood17277" /><feComposite
     in="flood"
     in2="SourceGraphic"
     operator="in"
     result="composite1"
     id="feComposite17279" /><feGaussianBlur
     in="composite1"
     stdDeviation="0.8"
     result="blur"
     id="feGaussianBlur17281" /><feOffset
     dx="1.8"
     dy="0.9"
     result="offset"
     id="feOffset17283" /><feComposite
     in="SourceGraphic"
     in2="offset"
     operator="over"
     result="composite2"
     id="feComposite17285" /></filter><filter
   style="color-interpolation-filters:sRGB"
   inkscape:label="Drop Shadow"
   id="filter17299"
   x="-0.45131415"
   y="-0.14985438"
   width="2.0111609"
   height="1.3177273"><feFlood
     flood-opacity="0.278431"
     flood-color="rgb(0,0,0)"
     result="flood"
     id="feFlood17289" /><feComposite
     in="flood"
     in2="SourceGraphic"
     operator="in"
     result="composite1"
     id="feComposite17291" /><feGaussianBlur
     in="composite1"
     stdDeviation="0.8"
     result="blur"
     id="feGaussianBlur17293" /><feOffset
     dx="1.8"
     dy="0.9"
     result="offset"
     id="feOffset17295" /><feComposite
     in="SourceGraphic"
     in2="offset"
     operator="over"
     result="composite2"
     id="feComposite17297" /></filter><filter
   style="color-interpolation-filters:sRGB"
   inkscape:label="Drop Shadow"
   id="filter17311"
   x="-0.58773506"
   y="-0.20372258"
   width="2.3168092"
   height="1.4319409"><feFlood
     flood-opacity="0.278431"
     flood-color="rgb(0,0,0)"
     result="flood"
     id="feFlood17301" /><feComposite
     in="flood"
     in2="SourceGraphic"
     operator="in"
     result="composite1"
     id="feComposite17303" /><feGaussianBlur
     in="composite1"
     stdDeviation="0.8"
     result="blur"
     id="feGaussianBlur17305" /><feOffset
     dx="1.8"
     dy="0.9"
     result="offset"
     id="feOffset17307" /><feComposite
     in="SourceGraphic"
     in2="offset"
     operator="over"
     result="composite2"
     id="feComposite17309" /></filter><linearGradient
   inkscape:collect="always"
   xlink:href="#linearGradient29924"
   id="linearGradient1669"
   gradientUnits="userSpaceOnUse"
   x1="-389.92007"
   y1="594.86487"
   x2="-387.76804"
   y2="869.51105"
   gradientTransform="translate(10.568256,280.67768)" />&#10;	&#10;	&#10;	&#10;	&#10;	&#10;	&#10;	&#10;	&#10;	&#10;	&#10;	&#10;	&#10;&#10;	&#10;	&#10;	&#10;	&#10;	&#10;	&#10;	&#10;	&#10;	&#10;	&#10;	&#10;	&#10;<linearGradient
   inkscape:collect="always"
   xlink:href="#linearGradient2800"
   id="linearGradient2597"
   gradientUnits="userSpaceOnUse"
   gradientTransform="translate(10.568256,280.67768)"
   x1="-387.76804"
   y1="634.13422"
   x2="-387.76804"
   y2="869.51105" /><linearGradient
   inkscape:collect="always"
   xlink:href="#linearGradient29924"
   id="linearGradient2747"
   x1="-484.07852"
   y1="876.73389"
   x2="-485.38596"
   y2="1108.9297"
   gradientUnits="userSpaceOnUse" /><radialGradient
   inkscape:collect="always"
   xlink:href="#linearGradient2753"
   id="radialGradient2755"
   cx="-237.02899"
   cy="995.75592"
   fx="-237.02899"
   fy="995.75592"
   r="675.79712"
   gradientTransform="matrix(1,0,0,0.22930872,0,767.42039)"
   gradientUnits="userSpaceOnUse" /><linearGradient
   inkscape:collect="always"
   xlink:href="#linearGradient2794"
   id="linearGradient828"
   gradientUnits="userSpaceOnUse"
   gradientTransform="translate(10.568256,280.67768)"
   x1="-387.76804"
   y1="634.13422"
   x2="-387.76804"
   y2="869.51105" /><linearGradient
   inkscape:collect="always"
   xlink:href="#linearGradient2782"
   id="linearGradient830"
   gradientUnits="userSpaceOnUse"
   gradientTransform="translate(10.568256,280.67768)"
   x1="-387.76804"
   y1="634.13422"
   x2="-387.76804"
   y2="869.51105" /><linearGradient
   inkscape:collect="always"
   xlink:href="#linearGradient2788"
   id="linearGradient832"
   gradientUnits="userSpaceOnUse"
   gradientTransform="translate(10.568256,280.67768)"
   x1="-387.76804"
   y1="634.13422"
   x2="-387.76804"
   y2="869.51105" /><linearGradient
   inkscape:collect="always"
   xlink:href="#linearGradient24"
   id="linearGradient25"
   x1="633.53033"
   y1="1002.7985"
   x2="633.53033"
   y2="752.82629"
   gradientUnits="userSpaceOnUse" /><linearGradient
   id="linearGradient24"
   inkscape:collect="always"><stop
     style="stop-color:#afd7c3;stop-opacity:1;"
     offset="0"
     id="stop24" /><stop
     style="stop-color:#88a6c1;stop-opacity:1;"
     offset="1"
     id="stop25" /></linearGradient><linearGradient
   inkscape:collect="always"
   xlink:href="#linearGradient24"
   id="linearGradient36"
   gradientUnits="userSpaceOnUse"
   x1="633.53033"
   y1="1002.7985"
   x2="633.53033"
   y2="752.82629" /><linearGradient
   inkscape:collect="always"
   xlink:href="#linearGradient24"
   id="linearGradient37"
   gradientUnits="userSpaceOnUse"
   x1="633.53033"
   y1="1002.7985"
   x2="633.53033"
   y2="752.82629" /><linearGradient
   inkscape:collect="always"
   xlink:href="#linearGradient24"
   id="linearGradient38"
   gradientUnits="userSpaceOnUse"
   x1="633.53033"
   y1="1002.7985"
   x2="633.53033"
   y2="752.82629" /><linearGradient
   inkscape:collect="always"
   xlink:href="#linearGradient24"
   id="linearGradient39"
   gradientUnits="userSpaceOnUse"
   x1="633.53033"
   y1="1002.7985"
   x2="633.53033"
   y2="752.82629" /><linearGradient
   inkscape:collect="always"
   xlink:href="#linearGradient24"
   id="linearGradient40"
   gradientUnits="userSpaceOnUse"
   x1="633.53033"
   y1="1002.7985"
   x2="633.53033"
   y2="752.82629" /><linearGradient
   inkscape:collect="always"
   xlink:href="#linearGradient24"
   id="linearGradient41"
   gradientUnits="userSpaceOnUse"
   x1="633.53033"
   y1="1002.7985"
   x2="633.53033"
   y2="752.82629" /><linearGradient
   inkscape:collect="always"
   xlink:href="#linearGradient24"
   id="linearGradient42"
   gradientUnits="userSpaceOnUse"
   x1="633.53033"
   y1="1002.7985"
   x2="633.53033"
   y2="752.82629" /><linearGradient
   inkscape:collect="always"
   xlink:href="#linearGradient24"
   id="linearGradient43"
   gradientUnits="userSpaceOnUse"
   x1="633.53033"
   y1="1002.7985"
   x2="633.53033"
   y2="752.82629" /><linearGradient
   inkscape:collect="always"
   xlink:href="#linearGradient24"
   id="linearGradient44"
   gradientUnits="userSpaceOnUse"
   x1="633.53033"
   y1="1002.7985"
   x2="633.53033"
   y2="752.82629" /><linearGradient
   inkscape:collect="always"
   xlink:href="#linearGradient24"
   id="linearGradient45"
   gradientUnits="userSpaceOnUse"
   x1="633.53033"
   y1="1002.7985"
   x2="633.53033"
   y2="752.82629" /><linearGradient
   inkscape:collect="always"
   xlink:href="#linearGradient24"
   id="linearGradient46"
   gradientUnits="userSpaceOnUse"
   x1="633.53033"
   y1="1002.7985"
   x2="633.53033"
   y2="752.82629" /></defs><g
     inkscape:label="Layer 1"
     inkscape:groupmode="layer"
     id="layer1"
     transform="translate(915.83879,-837.77705)"><rect
       style="fill:#ffffff;fill-opacity:1;stroke:url(#radialGradient2755);stroke-width:6.02536;stroke-linecap:round;stroke-linejoin:round;stop-color:#000000"
       id="rect1770"
       width="1351.5942"
       height="309.93234"
       x="-912.82611"
       y="840.78973"
       ry="31.080046" /><g
       id="g826"
       transform="translate(10.083098,6.9856402)"
       inkscape:export-filename="logo.png"
       inkscape:export-xdpi="96"
       inkscape:export-ydpi="96"><g
         id="g2570"
         style="fill:#89a7c1;fill-opacity:1;stroke:url(#linearGradient2747);stroke-width:1.7;stroke-dasharray:none"
         inkscape:export-filename="./logo.png"
         inkscape:export-xdpi="96"
         inkscape:export-ydpi="96"
         transform="matrix(1,0,0,1.3135289,0,-328.59726)"><path
           class="st1"
           d="m -557.33414,1023.7683 c 0,0.404 0.008,0.8036 -0.008,1.2076 -0.008,0.1405 0.0537,0.2371 0.26066,0.3337 1.07331,0.4962 1.07331,1.3744 0,1.8575 -0.22232,0.097 -0.25299,0.1976 -0.25299,0.3337 0,1.4183 0,2.8366 0,4.255 0,0.7596 -0.008,1.5193 0.008,2.2834 0,0.101 0.10733,0.2283 0.23766,0.2942 1.10397,0.5533 1.08863,1.3612 -0.0383,1.8969 -0.10733,0.053 -0.19166,0.1581 -0.19166,0.2372 -0.0153,0.8387 -0.008,1.6774 -0.008,2.5205 0,0.2151 0.0383,0.4347 0,0.6499 -0.0383,0.1844 -0.44466,0.3425 -0.76665,0.3337 -0.32966,-0.013 -0.76664,-0.2152 -0.77431,-0.3952 -0.023,-0.3996 -0.0153,-0.7992 -0.023,-1.1988 -0.0153,-0.3645 -0.046,-0.7289 -0.0537,-1.0934 -0.008,-0.2415 0.0153,-0.483 -0.0153,-0.7245 -0.008,-0.083 -0.12266,-0.1932 -0.24532,-0.2328 -0.68998,-0.2327 -1.11931,-0.5488 -1.12697,-1.0231 0,-0.4918 0.36799,-0.8606 1.1423,-1.0758 0.23766,-0.066 0.23766,-0.1713 0.23766,-0.2898 0,-1.1198 0,-2.2395 0,-3.3592 0,-0.9968 -0.008,-1.9892 0.008,-2.986 0,-0.1625 -0.0613,-0.2635 -0.33733,-0.3425 -0.98897,-0.281 -1.52562,-1.0934 -0.56732,-1.7828 0.161,-0.1142 0.41399,-0.1932 0.64399,-0.2679 0.22999,-0.07 0.26832,-0.1712 0.26066,-0.3074 -0.008,-0.7245 0,-1.449 0,-2.1736 0,-0.1097 0,-0.2195 0.0307,-0.3293 0.069,-0.2459 0.42166,-0.404 0.83564,-0.3864 0.42933,0.018 0.74365,0.1932 0.75132,0.4435 0.008,0.4435 -0.008,0.8826 -0.008,1.3217 0,0 0,0 0,0 z"
           id="path1621"
           style="fill:#89a7c1;fill-opacity:1;stroke:none;stroke-width:1.7;stroke-dasharray:none" /><path
           class="st1"
           d="m -483.66722,1028.1287 c 0,1.8355 0,3.671 -0.008,5.5065 0,0.1756 0.0767,0.2898 0.35266,0.3908 1.31096,0.4918 1.2803,1.5018 -0.069,2.0067 -0.22999,0.088 -0.29132,0.1757 -0.29132,0.3162 0.008,1.0319 0.0153,2.0638 0.008,3.0957 0,0.2943 -0.34499,0.5138 -0.78964,0.5182 -0.50599,0 -0.84331,-0.2064 -0.85098,-0.5269 -0.008,-1.0407 -0.008,-2.077 0,-3.1177 0,-0.1625 -0.0767,-0.2635 -0.32199,-0.3601 -1.12697,-0.4611 -1.10397,-1.4579 0.0307,-1.8926 0.22232,-0.088 0.29132,-0.1756 0.29132,-0.3205 -0.008,-2.4283 0,-4.8566 0,-7.2849 0,-1.3174 0,-2.6347 0.008,-3.952 0,-0.3689 0.52898,-0.5928 1.0963,-0.4787 0.39099,0.079 0.53665,0.2547 0.53665,0.4787 0,0.8782 0,1.7564 0,2.6346 0,0.9968 0,1.9892 0.008,2.986 0,0 0,0 0,0 z"
           id="path1623"
           style="fill:#89a7c1;fill-opacity:1;stroke:none;stroke-width:1.7;stroke-dasharray:none" /><path
           class="st2"
           d="m -553.66958,1033.4508 c 0,-1.493 0,-2.9816 -0.008,-4.4746 0,-0.075 -0.115,-0.1756 -0.22233,-0.2239 -1.35696,-0.5445 -1.36463,-1.4667 -0.023,-2.0244 0.12266,-0.053 0.22999,-0.1756 0.22999,-0.2634 0.0153,-0.7992 0.008,-1.594 0.0153,-2.3932 0,-0.3513 0.31432,-0.5664 0.82031,-0.5664 0.48298,0 0.80497,0.2283 0.80497,0.5796 0,0.7684 0.008,1.5369 -0.008,2.3053 0,0.1845 0.0843,0.2986 0.36799,0.4084 1.0963,0.4215 1.1653,1.3788 0.11499,1.8311 -0.38332,0.1625 -0.48298,0.3249 -0.48298,0.5796 0.0153,2.2834 0.008,4.5624 0.008,6.8458 0,0.6235 0.0153,1.2427 0.008,1.8662 0,0.3425 -0.35266,0.5621 -0.85097,0.5577 -0.55199,-0.01 -0.83565,-0.2415 -0.82032,-0.6104 0.023,-1.089 0.023,-2.178 0.0307,-3.267 0,-0.382 0,-0.7596 0,-1.1417 0,-0.01 0.008,-0.01 0.0153,-0.01 z"
           id="path1625"
           style="fill:#89a7c1;fill-opacity:1;stroke:none;stroke-width:1.7;stroke-dasharray:none" /><path
           class="st3"
           d="m -490.58236,1032.9897 c 0,-1.6247 0,-3.2494 0.008,-4.8742 0,-0.1756 -0.092,-0.2898 -0.33733,-0.4039 -1.01963,-0.4875 -1.10397,-1.1505 -0.18399,-1.7038 0.52132,-0.3118 0.63631,-0.6192 0.54432,-1.0275 -0.0843,-0.3601 -0.0383,-0.729 -0.008,-1.0934 0.023,-0.224 0.44465,-0.3952 0.85098,-0.3864 0.39098,0.01 0.75131,0.1888 0.75897,0.4171 0.0153,0.4743 0.0153,0.9485 -0.0153,1.4227 -0.008,0.1933 0,0.3294 0.35266,0.4435 0.82797,0.2723 1.21896,0.808 0.88931,1.3174 -0.15333,0.2415 -0.54432,0.4479 -0.88931,0.6323 -0.207,0.1098 -0.34499,0.18 -0.34499,0.3645 0.0153,3.2758 0.0153,6.5559 0.008,9.8317 0,0.3118 -0.31432,0.5094 -0.78197,0.5138 -0.53665,0 -0.85865,-0.1888 -0.85865,-0.5182 0,-1.6423 0,-3.2889 0.008,-4.9356 -0.008,0 0,0 0,0 z"
           id="path1627"
           style="fill:#89a7c1;fill-opacity:1;stroke:none;stroke-width:1.7;stroke-dasharray:none" /><path
           class="st2"
           d="m -494.17792,1028.4888 c 0,0.483 0.0153,0.966 -0.008,1.4491 -0.008,0.1317 0.0537,0.2063 0.24533,0.259 1.43362,0.3952 1.36462,1.6247 0,2.0463 -0.13033,0.04 -0.22233,0.1888 -0.22233,0.2854 -0.0153,0.7816 -0.008,1.5633 -0.0153,2.3493 0,0.3425 -0.23766,0.505 -0.73598,0.5401 -0.55199,0.04 -0.91998,-0.1537 -0.93531,-0.5138 -0.0153,-0.461 -0.008,-0.9221 -0.008,-1.3788 0,-0.3601 0.0153,-0.7157 -0.0153,-1.0758 -0.008,-0.101 -0.115,-0.2327 -0.25299,-0.2854 -1.07331,-0.4084 -1.20364,-1.4403 0,-1.919 0.22232,-0.088 0.26832,-0.1932 0.26832,-0.3337 -0.008,-0.9221 0,-1.8399 0,-2.762 0,-0.4216 0.28366,-0.6411 0.81265,-0.6411 0.58265,0 0.86631,0.2064 0.86631,0.6323 0,0.4567 0,0.9046 0,1.3481 0,0 0,0 0,0 z"
           id="path1629"
           style="fill:#89a7c1;fill-opacity:1;stroke:none;stroke-width:1.7;stroke-dasharray:none" /><path
           class="st2"
           d="m -546.81577,1029.0069 c 0,0.6587 0.008,1.3174 -0.008,1.976 0,0.145 0.069,0.2459 0.29133,0.325 0.99664,0.3557 1.2573,1.3788 0.092,1.8662 -0.28366,0.1186 -0.35266,0.2591 -0.34499,0.4479 0.023,0.4303 0.008,0.8607 0.008,1.291 0,0.3249 -0.34499,0.5357 -0.84331,0.5313 -0.50598,0 -0.84331,-0.2064 -0.84331,-0.5357 -0.008,-0.4479 0,-0.8914 0.023,-1.3393 0.008,-0.1493 -0.0613,-0.2503 -0.29899,-0.3205 -1.33396,-0.3952 -1.36463,-1.5808 0.0613,-2.0156 0.23,-0.07 0.23766,-0.1712 0.23766,-0.2898 0,-1.0978 0,-2.1955 0,-3.2933 0,-0.2064 0,-0.4084 0.0153,-0.6148 0.0153,-0.3074 0.37565,-0.5225 0.8433,-0.5137 0.45999,0.01 0.76665,0.2239 0.76665,0.5269 0,0.6587 0,1.3085 0,1.9584 0,0 0,0 0,0 z"
           id="path1631"
           style="fill:#89a7c1;fill-opacity:1;stroke:none;stroke-width:1.7;stroke-dasharray:none" /><path
           class="st3"
           d="m -520.47385,1028.2692 c 0,1.9629 0.008,3.9213 -0.008,5.8841 0,0.202 0.092,0.3294 0.38332,0.4567 1.01197,0.4391 0.98897,1.3876 -0.0383,1.8311 -0.253,0.1098 -0.34499,0.224 -0.34499,0.3996 0.0153,0.7904 0.008,1.5808 0.008,2.3668 0,0.2284 -0.16099,0.3952 -0.52898,0.4918 -0.31433,0.083 -0.65165,0.053 -0.84331,-0.088 -0.16866,-0.1273 -0.28366,-0.3118 -0.29133,-0.4742 -0.0307,-0.7377 -0.023,-1.4754 -0.008,-2.2132 0,-0.1844 -0.0767,-0.3029 -0.36033,-0.4127 -1.41829,-0.5445 -1.1653,-1.6116 0.0767,-2.0024 0.24532,-0.075 0.28366,-0.1844 0.28366,-0.3293 0,-2.1341 0,-4.2726 0,-6.4067 0,-1.7828 0,-3.57 0,-5.3528 0,-0.097 0.008,-0.1932 0.0383,-0.2854 0.0843,-0.2371 0.36799,-0.3644 0.78198,-0.3601 0.45998,0 0.73598,0.123 0.82031,0.3689 0.0307,0.101 0.0307,0.202 0.0307,0.3074 0,1.9409 0,3.8817 0,5.8182 0,0 0,0 0,0 z"
           id="path1633"
           style="fill:#89a7c1;fill-opacity:1;stroke:none;stroke-width:1.7;stroke-dasharray:none" /><path
           class="st1"
           d="m -527.39665,1032.9458 c 0,-1.7916 0,-3.5832 0.008,-5.3748 0,-0.2239 -0.0843,-0.382 -0.42932,-0.5357 -1.0043,-0.4567 -0.95064,-1.392 0.0843,-1.8311 0.276,-0.1141 0.35266,-0.2327 0.34499,-0.4171 -0.023,-0.5841 -0.0153,-1.1681 -0.008,-1.7565 0.008,-0.3205 0.32199,-0.505 0.84331,-0.5006 0.47532,0 0.78964,0.1932 0.79731,0.505 0.008,0.584 0.0153,1.1724 0,1.7565 0,0.158 0.0767,0.2502 0.32199,0.3337 1.31863,0.4567 1.32629,1.5588 0.0153,2.0067 -0.29899,0.1054 -0.34499,0.2284 -0.34499,0.3908 0.008,1.2735 0.008,2.5469 0.008,3.8159 0,2.2658 0.008,4.5317 0.008,6.8019 0,0.1185 -0.008,0.2327 -0.0153,0.3513 -0.023,0.3205 -0.32199,0.4918 -0.86631,0.483 -0.45232,0 -0.76664,-0.2064 -0.76664,-0.4962 0,-1.8487 0,-3.6929 0,-5.5328 0,0 0,0 0,0 z"
           id="path1635"
           style="fill:#89a7c1;fill-opacity:1;stroke:none;stroke-width:1.7;stroke-dasharray:none" /><path
           class="st3"
           d="m -515.24533,1025.9244 c 1.57162,0.4698 1.41829,1.6247 0.23766,2.0506 -0.13033,0.048 -0.22233,0.1932 -0.22233,0.2898 -0.0153,2.2659 -0.008,4.5361 -0.008,6.8019 0,1.1417 0,2.2834 0,3.4207 0,0.2415 -0.26833,0.4435 -0.62865,0.4918 -0.35266,0.048 -0.78965,-0.075 -0.95064,-0.2767 -0.046,-0.066 -0.069,-0.1405 -0.069,-0.2107 0,-2.7489 0.008,-5.5021 0.008,-8.251 0,-0.6674 0,-1.3305 -0.023,-1.9979 0,-0.075 -0.0997,-0.1801 -0.21466,-0.2196 -1.4413,-0.4698 -1.47963,-1.572 -0.046,-2.0682 0.20699,-0.07 0.27599,-0.1449 0.27599,-0.2766 -0.008,-0.8695 -0.008,-1.7389 -0.008,-2.6084 0,-0.3469 0.253,-0.5225 0.77432,-0.5445 0.52898,-0.022 0.87397,0.1625 0.8663,0.4743 -0.008,0.3776 -0.0537,0.7596 -0.046,1.1373 0,0.4523 0.0307,0.9002 0.046,1.3524 0.008,0.1493 0.008,0.2942 0.008,0.4348 z"
           id="path1637"
           style="fill:#89a7c1;fill-opacity:1;stroke:none;stroke-width:1.7;stroke-dasharray:none" /><path
           class="st3"
           d="m -530.98455,1027.6501 c 0,0.606 0.008,1.2163 0,1.8223 0,0.1449 0.069,0.2415 0.27599,0.3337 1.0963,0.4743 1.12697,1.3788 0.046,1.875 -0.25299,0.1142 -0.32966,0.2328 -0.32966,0.4084 0,1.0802 -0.0153,2.1648 -0.023,3.2451 0,0.1449 0.0383,0.2942 0.023,0.4391 -0.0307,0.2942 -0.42165,0.5137 -0.88164,0.5093 -0.45999,0 -0.80498,-0.2327 -0.80498,-0.5401 0,-1.2163 0,-2.4283 0.008,-3.6446 0,-0.1493 -0.046,-0.2503 -0.29899,-0.3381 -1.3493,-0.4743 -1.37996,-1.5062 -0.046,-2.0024 0.28366,-0.1054 0.35266,-0.2195 0.35266,-0.3908 -0.008,-0.6894 -0.008,-1.3744 -0.008,-2.0638 0,-0.5094 0,-1.0188 0,-1.5325 0,-0.3206 0.35266,-0.5533 0.82031,-0.5489 0.47532,0 0.85098,0.2239 0.85864,0.5401 0.0153,0.6323 0.008,1.2602 0.008,1.8882 z"
           id="path1639"
           style="fill:#89a7c1;fill-opacity:1;stroke:none;stroke-width:1.7;stroke-dasharray:none" /><path
           class="st2"
           d="m -510.03214,1026.4864 c 0,0.4567 -0.008,0.9134 0,1.3701 0.0153,0.5401 0.0307,1.0802 0.069,1.6203 0.008,0.075 0.10733,0.1625 0.20699,0.2152 1.0043,0.5445 0.99664,1.2866 -0.0153,1.8267 -0.12267,0.066 -0.19166,0.202 -0.19933,0.3073 -0.0153,1.1988 -0.008,2.3976 -0.008,3.5964 0,0.303 -0.19933,0.4698 -0.62098,0.5357 -0.42166,0.066 -0.84331,-0.053 -0.96597,-0.2942 -0.0613,-0.123 -0.092,-0.2591 -0.092,-0.3864 -0.008,-1.0978 -0.008,-2.1912 0,-3.289 0,-0.1669 -0.0843,-0.2635 -0.35266,-0.3425 -0.69764,-0.2064 -1.10397,-0.5401 -1.10397,-1.0012 0,-0.4786 0.32199,-0.8694 1.11164,-1.089 0.25299,-0.07 0.34499,-0.1624 0.34499,-0.3249 -0.008,-0.6587 0,-1.3174 0.008,-1.976 0,-0.3908 -0.008,-0.7816 0,-1.1725 0,-0.3512 0.31432,-0.5313 0.90464,-0.5357 0.45998,0 0.75898,0.1976 0.76664,0.5182 0,0.1405 0,0.2766 0,0.4171 -0.008,0 -0.0307,0 -0.0537,0 z"
           id="path1641"
           style="fill:#89a7c1;fill-opacity:1;stroke:none;stroke-width:1.7;stroke-dasharray:none" /><path
           class="st1"
           d="m -409.84659,1028.1287 c 0,1.8355 0,3.671 -0.008,5.5065 0,0.1756 0.0767,0.2898 0.35266,0.3908 1.31096,0.4918 1.2803,1.5018 -0.069,2.0067 -0.22999,0.088 -0.29132,0.1757 -0.29132,0.3162 0.008,1.0319 0.0153,2.0638 0.008,3.0957 0,0.2943 -0.34499,0.5138 -0.78964,0.5182 -0.50599,0 -0.84331,-0.2064 -0.85098,-0.5269 -0.008,-1.0407 -0.008,-2.077 0,-3.1177 0,-0.1625 -0.0767,-0.2635 -0.32199,-0.3601 -1.12697,-0.4611 -1.10397,-1.4579 0.0307,-1.8926 0.22232,-0.088 0.29132,-0.1756 0.29132,-0.3205 -0.008,-2.4283 0,-4.8566 0,-7.2849 0,-1.3174 0,-2.6347 0.008,-3.952 0,-0.3689 0.52898,-0.5928 1.0963,-0.4787 0.39099,0.079 0.53665,0.2547 0.53665,0.4787 0,0.8782 0,1.7564 0,2.6346 0,0.9968 0,1.9892 0.008,2.986 0,0 0,0 0,0 z"
           id="path1623-6"
           style="clip-rule:evenodd;fill:#89a7c1;fill-opacity:1;fill-rule:evenodd;stroke:none;stroke-width:1.7;stroke-dasharray:none" /><path
           class="st2"
           d="m -479.84895,1033.4508 c 0,-1.493 0,-2.9816 -0.008,-4.4746 0,-0.075 -0.115,-0.1756 -0.22233,-0.2239 -1.35696,-0.5445 -1.36463,-1.4667 -0.023,-2.0244 0.12266,-0.053 0.22999,-0.1756 0.22999,-0.2634 0.0153,-0.7992 0.008,-1.594 0.0153,-2.3932 0,-0.3513 0.31432,-0.5664 0.82031,-0.5664 0.48298,0 0.80497,0.2283 0.80497,0.5796 0,0.7684 0.008,1.5369 -0.008,2.3053 0,0.1845 0.0843,0.2986 0.36799,0.4084 1.0963,0.4215 1.1653,1.3788 0.11499,1.8311 -0.38332,0.1625 -0.48298,0.3249 -0.48298,0.5796 0.0153,2.2834 0.008,4.5624 0.008,6.8458 0,0.6235 0.0153,1.2427 0.008,1.8662 0,0.3425 -0.35266,0.5621 -0.85097,0.5577 -0.55199,-0.01 -0.83565,-0.2415 -0.82032,-0.6104 0.023,-1.089 0.023,-2.178 0.0307,-3.267 0,-0.382 0,-0.7596 0,-1.1417 0,-0.01 0.008,-0.01 0.0153,-0.01 z"
           id="path1625-0"
           style="clip-rule:evenodd;fill:#89a7c1;fill-opacity:1;fill-rule:evenodd;stroke:none;stroke-width:1.7;stroke-dasharray:none" /><path
           class="st3"
           d="m -416.76173,1032.9897 c 0,-1.6247 0,-3.2494 0.008,-4.8742 0,-0.1756 -0.092,-0.2898 -0.33733,-0.4039 -1.01963,-0.4875 -1.10397,-1.1505 -0.18399,-1.7038 0.52132,-0.3118 0.63631,-0.6192 0.54432,-1.0275 -0.0843,-0.3601 -0.0383,-0.729 -0.008,-1.0934 0.023,-0.224 0.44465,-0.3952 0.85098,-0.3864 0.39098,0.01 0.75131,0.1888 0.75897,0.4171 0.0153,0.4743 0.0153,0.9485 -0.0153,1.4227 -0.008,0.1933 0,0.3294 0.35266,0.4435 0.82797,0.2723 1.21896,0.808 0.88931,1.3174 -0.15333,0.2415 -0.54432,0.4479 -0.88931,0.6323 -0.207,0.1098 -0.34499,0.18 -0.34499,0.3645 0.0153,3.2758 0.0153,6.5559 0.008,9.8317 0,0.3118 -0.31432,0.5094 -0.78197,0.5138 -0.53665,0 -0.85865,-0.1888 -0.85865,-0.5182 0,-1.6423 0,-3.2889 0.008,-4.9356 -0.008,0 0,0 0,0 z"
           id="path1627-6"
           style="clip-rule:evenodd;fill:#89a7c1;fill-opacity:1;fill-rule:evenodd;stroke:none;stroke-width:1.7;stroke-dasharray:none" /><path
           class="st2"
           d="m -420.35729,1028.4888 c 0,0.483 0.0153,0.966 -0.008,1.4491 -0.008,0.1317 0.0537,0.2063 0.24533,0.259 1.43362,0.3952 1.36462,1.6247 0,2.0463 -0.13033,0.04 -0.22233,0.1888 -0.22233,0.2854 -0.0153,0.7816 -0.008,1.5633 -0.0153,2.3493 0,0.3425 -0.23766,0.505 -0.73598,0.5401 -0.55199,0.04 -0.91998,-0.1537 -0.93531,-0.5138 -0.0153,-0.461 -0.008,-0.9221 -0.008,-1.3788 0,-0.3601 0.0153,-0.7157 -0.0153,-1.0758 -0.008,-0.101 -0.115,-0.2327 -0.25299,-0.2854 -1.07331,-0.4084 -1.20364,-1.4403 0,-1.919 0.22232,-0.088 0.26832,-0.1932 0.26832,-0.3337 -0.008,-0.9221 0,-1.8399 0,-2.762 0,-0.4216 0.28366,-0.6411 0.81265,-0.6411 0.58265,0 0.86631,0.2064 0.86631,0.6323 0,0.4567 0,0.9046 0,1.3481 0,0 0,0 0,0 z"
           id="path1629-2"
           style="clip-rule:evenodd;fill:#89a7c1;fill-opacity:1;fill-rule:evenodd;stroke:none;stroke-width:1.7;stroke-dasharray:none" /><path
           class="st2"
           d="m -472.99514,1029.0069 c 0,0.6587 0.008,1.3174 -0.008,1.976 0,0.145 0.069,0.2459 0.29133,0.325 0.99664,0.3557 1.2573,1.3788 0.092,1.8662 -0.28366,0.1186 -0.35266,0.2591 -0.34499,0.4479 0.023,0.4303 0.008,0.8607 0.008,1.291 0,0.3249 -0.34499,0.5357 -0.84331,0.5313 -0.50598,0 -0.84331,-0.2064 -0.84331,-0.5357 -0.008,-0.4479 0,-0.8914 0.023,-1.3393 0.008,-0.1493 -0.0613,-0.2503 -0.29899,-0.3205 -1.33396,-0.3952 -1.36463,-1.5808 0.0613,-2.0156 0.23,-0.07 0.23766,-0.1712 0.23766,-0.2898 0,-1.0978 0,-2.1955 0,-3.2933 0,-0.2064 0,-0.4084 0.0153,-0.6148 0.0153,-0.3074 0.37565,-0.5225 0.8433,-0.5137 0.45999,0.01 0.76665,0.2239 0.76665,0.5269 0,0.6587 0,1.3085 0,1.9584 0,0 0,0 0,0 z"
           id="path1631-6"
           style="clip-rule:evenodd;fill:#89a7c1;fill-opacity:1;fill-rule:evenodd;stroke:none;stroke-width:1.7;stroke-dasharray:none" /><path
           class="st3"
           d="m -446.65322,1028.2692 c 0,1.9629 0.008,3.9213 -0.008,5.8841 0,0.202 0.092,0.3294 0.38332,0.4567 1.01197,0.4391 0.98897,1.3876 -0.0383,1.8311 -0.253,0.1098 -0.34499,0.224 -0.34499,0.3996 0.0153,0.7904 0.008,1.5808 0.008,2.3668 0,0.2284 -0.16099,0.3952 -0.52898,0.4918 -0.31433,0.083 -0.65165,0.053 -0.84331,-0.088 -0.16866,-0.1273 -0.28366,-0.3118 -0.29133,-0.4742 -0.0307,-0.7377 -0.023,-1.4754 -0.008,-2.2132 0,-0.1844 -0.0767,-0.3029 -0.36033,-0.4127 -1.41829,-0.5445 -1.1653,-1.6116 0.0767,-2.0024 0.24532,-0.075 0.28366,-0.1844 0.28366,-0.3293 0,-2.1341 0,-4.2726 0,-6.4067 0,-1.7828 0,-3.57 0,-5.3528 0,-0.097 0.008,-0.1932 0.0383,-0.2854 0.0843,-0.2371 0.36799,-0.3644 0.78198,-0.3601 0.45998,0 0.73598,0.123 0.82031,0.3689 0.0307,0.101 0.0307,0.202 0.0307,0.3074 0,1.9409 0,3.8817 0,5.8182 0,0 0,0 0,0 z"
           id="path1633-1"
           style="clip-rule:evenodd;fill:#89a7c1;fill-opacity:1;fill-rule:evenodd;stroke:none;stroke-width:1.7;stroke-dasharray:none" /><path
           class="st1"
           d="m -453.57602,1032.9458 c 0,-1.7916 0,-3.5832 0.008,-5.3748 0,-0.2239 -0.0843,-0.382 -0.42932,-0.5357 -1.0043,-0.4567 -0.95064,-1.392 0.0843,-1.8311 0.276,-0.1141 0.35266,-0.2327 0.34499,-0.4171 -0.023,-0.5841 -0.0153,-1.1681 -0.008,-1.7565 0.008,-0.3205 0.32199,-0.505 0.84331,-0.5006 0.47532,0 0.78964,0.1932 0.79731,0.505 0.008,0.584 0.0153,1.1724 0,1.7565 0,0.158 0.0767,0.2502 0.32199,0.3337 1.31863,0.4567 1.32629,1.5588 0.0153,2.0067 -0.29899,0.1054 -0.34499,0.2284 -0.34499,0.3908 0.008,1.2735 0.008,2.5469 0.008,3.8159 0,2.2658 0.008,4.5317 0.008,6.8019 0,0.1185 -0.008,0.2327 -0.0153,0.3513 -0.023,0.3205 -0.32199,0.4918 -0.86631,0.483 -0.45232,0 -0.76664,-0.2064 -0.76664,-0.4962 0,-1.8487 0,-3.6929 0,-5.5328 0,0 0,0 0,0 z"
           id="path1635-8"
           style="clip-rule:evenodd;fill:#89a7c1;fill-opacity:1;fill-rule:evenodd;stroke:none;stroke-width:1.7;stroke-dasharray:none" /><path
           class="st3"
           d="m -441.4247,1025.9244 c 1.57162,0.4698 1.41829,1.6247 0.23766,2.0506 -0.13033,0.048 -0.22233,0.1932 -0.22233,0.2898 -0.0153,2.2659 -0.008,4.5361 -0.008,6.8019 0,1.1417 0,2.2834 0,3.4207 0,0.2415 -0.26833,0.4435 -0.62865,0.4918 -0.35266,0.048 -0.78965,-0.075 -0.95064,-0.2767 -0.046,-0.066 -0.069,-0.1405 -0.069,-0.2107 0,-2.7489 0.008,-5.5021 0.008,-8.251 0,-0.6674 0,-1.3305 -0.023,-1.9979 0,-0.075 -0.0997,-0.1801 -0.21466,-0.2196 -1.4413,-0.4698 -1.47963,-1.572 -0.046,-2.0682 0.20699,-0.07 0.27599,-0.1449 0.27599,-0.2766 -0.008,-0.8695 -0.008,-1.7389 -0.008,-2.6084 0,-0.3469 0.253,-0.5225 0.77432,-0.5445 0.52898,-0.022 0.87397,0.1625 0.8663,0.4743 -0.008,0.3776 -0.0537,0.7596 -0.046,1.1373 0,0.4523 0.0307,0.9002 0.046,1.3524 0.008,0.1493 0.008,0.2942 0.008,0.4348 z"
           id="path1637-7"
           style="clip-rule:evenodd;fill:#89a7c1;fill-opacity:1;fill-rule:evenodd;stroke:none;stroke-width:1.7;stroke-dasharray:none" /><path
           class="st3"
           d="m -457.16392,1027.6501 c 0,0.606 0.008,1.2163 0,1.8223 0,0.1449 0.069,0.2415 0.27599,0.3337 1.0963,0.4743 1.12697,1.3788 0.046,1.875 -0.25299,0.1142 -0.32966,0.2328 -0.32966,0.4084 0,1.0802 -0.0153,2.1648 -0.023,3.2451 0,0.1449 0.0383,0.2942 0.023,0.4391 -0.0307,0.2942 -0.42165,0.5137 -0.88164,0.5093 -0.45999,0 -0.80498,-0.2327 -0.80498,-0.5401 0,-1.2163 0,-2.4283 0.008,-3.6446 0,-0.1493 -0.046,-0.2503 -0.29899,-0.3381 -1.3493,-0.4743 -1.37996,-1.5062 -0.046,-2.0024 0.28366,-0.1054 0.35266,-0.2195 0.35266,-0.3908 -0.008,-0.6894 -0.008,-1.3744 -0.008,-2.0638 0,-0.5094 0,-1.0188 0,-1.5325 0,-0.3206 0.35266,-0.5533 0.82031,-0.5489 0.47532,0 0.85098,0.2239 0.85864,0.5401 0.0153,0.6323 0.008,1.2602 0.008,1.8882 z"
           id="path1639-9"
           style="clip-rule:evenodd;fill:#89a7c1;fill-opacity:1;fill-rule:evenodd;stroke:none;stroke-width:1.7;stroke-dasharray:none" /><path
           class="st2"
           d="m -436.21151,1026.4864 c 0,0.4567 -0.008,0.9134 0,1.3701 0.0153,0.5401 0.0307,1.0802 0.069,1.6203 0.008,0.075 0.10733,0.1625 0.20699,0.2152 1.0043,0.5445 0.99664,1.2866 -0.0153,1.8267 -0.12267,0.066 -0.19166,0.202 -0.19933,0.3073 -0.0153,1.1988 -0.008,2.3976 -0.008,3.5964 0,0.303 -0.19933,0.4698 -0.62098,0.5357 -0.42166,0.066 -0.84331,-0.053 -0.96597,-0.2942 -0.0613,-0.123 -0.092,-0.2591 -0.092,-0.3864 -0.008,-1.0978 -0.008,-2.1912 0,-3.289 0,-0.1669 -0.0843,-0.2635 -0.35266,-0.3425 -0.69764,-0.2064 -1.10397,-0.5401 -1.10397,-1.0012 0,-0.4786 0.32199,-0.8694 1.11164,-1.089 0.25299,-0.07 0.34499,-0.1624 0.34499,-0.3249 -0.008,-0.6587 0,-1.3174 0.008,-1.976 0,-0.3908 -0.008,-0.7816 0,-1.1725 0,-0.3512 0.31432,-0.5313 0.90464,-0.5357 0.45998,0 0.75898,0.1976 0.76664,0.5182 0,0.1405 0,0.2766 0,0.4171 -0.008,0 -0.0307,0 -0.0537,0 z"
           id="path1641-2"
           style="clip-rule:evenodd;fill:#89a7c1;fill-opacity:1;fill-rule:evenodd;stroke:none;stroke-width:1.7;stroke-dasharray:none" /></g><g
         aria-label="HARP"
         id="text28948-7"
         style="font-size:330.552px;font-family:'Montserrat Alternates';-inkscape-font-specification:'Montserrat Alternates, Normal';fill:url(#linearGradient1669);stroke-width:9.20001;stroke-linecap:round;stroke-linejoin:round"><path
           d="M -678.26604,981.374 V 878.24177 h 24.1303 v 231.38643 h -24.1303 v -106.7683 h -144.78177 v 106.7683 h -24.46085 V 878.24177 h 24.46085 V 981.374 Z"
           style="fill:url(#linearGradient828);stroke-width:9.2"
           id="path2580" /><path
           id="path2582"
           style="fill:url(#linearGradient2597);stroke-width:9.2"
           d="m -484.23208,876.25825 c -29.74965,0 -53.32926,8.81496 -70.73832,26.44438 -17.18869,17.40906 -25.78292,42.64099 -25.78292,75.69616 V 1109.628 h 23.79958 v -68.0935 l -5e-5,-21.1553 v -44.29397 c 0,-25.78303 6.39062,-45.17563 19.17196,-58.17732 12.78133,-13.22207 30.63145,-19.8329 53.5497,-19.8329 22.91825,0 40.76786,6.61083 53.54919,19.8329 12.78133,13.00169 19.17247,32.39429 19.17247,58.17732 v 44.29397 l -3e-5,21.1553 v 68.0935 h 24.12979 V 978.39879 c 0,-33.05517 -8.70408,-58.2871 -26.11313,-75.69616 -17.18869,-17.62942 -40.7683,-26.44438 -70.73832,-26.44438 z"
           sodipodi:nodetypes="ccsccccscscsccccsccc" /><path
           d="m -129.21911,1109.6282 h -26.77471 l -52.88832,-74.3742 q -8.9249,0.9916 -18.51091,0.9916 h -62.14378 v 73.3826 h -24.46084 V 878.24177 h 86.60462 q 44.29397,0 69.41592,21.15533 25.12195,21.15533 25.12195,58.17715 0,27.10527 -13.88318,45.94675 -13.55263,18.5109 -39.00514,26.7747 z m -98.83504,-94.2073 q 34.3774,0 52.55776,-15.2054 18.18036,-15.20543 18.18036,-42.64125 0,-28.09692 -18.18036,-42.97176 -18.18036,-15.20539 -52.55776,-15.20539 h -61.48268 v 116.0238 z"
           style="fill:url(#linearGradient830);stroke-width:9.2"
           id="path2584" /><path
           d="m 11.595963,878.24177 q 44.293969,0 69.415921,21.15533 25.121956,21.15533 25.121956,58.17715 0,37.02183 -25.121956,58.17715 -25.121952,20.8248 -69.415921,20.8248 h -62.143776 v 73.052 H -75.008661 V 878.24177 Z m -0.661104,136.84853 q 34.377409,0 52.557769,-14.8748 18.18036,-15.20543 18.18036,-42.64125 0,-28.09692 -18.18036,-42.97176 Q 45.312268,899.3971 10.934859,899.3971 h -61.482672 v 115.6932 z"
           style="fill:url(#linearGradient832);stroke-width:9.2"
           id="path2586" /></g><g
         id="g24"
         style="fill:url(#linearGradient25)"
         transform="matrix(0.94477251,0,0,0.94477251,-285.3007,164.5137)"><path
           id="path29756-1-0-7-0"
           style="font-variation-settings:normal;fill:url(#linearGradient36);fill-opacity:1;stroke:none;stroke-width:4.83324;stroke-linecap:round;stroke-linejoin:round;stroke-miterlimit:4;stroke-dasharray:none;stroke-dashoffset:0;stroke-opacity:1;stop-color:#000000"
           d="m 465.06204,791.47058 c -2.33396,13.18188 -6.71728,29.39412 -1.15244,41.19993 l -5.51462,0.814 c 5.81788,12.1313 16.07831,22.35072 21.70902,25.13397 -1.05559,1.39714 -3.70984,2.78593 -4.76543,4.18306 14.54258,12.58657 31.23663,14.08226 51.3725,12.44974 0,0 -5.48301,-16.59273 -12.92196,-21.21587 -18.79344,-6.20474 -35.49404,-20.29093 -42.3108,-39.17999 -3.45122,-9.28586 -4.96835,-13.4299 -6.41627,-23.38484 z"
           sodipodi:nodetypes="ccccsccsc" /><path
           id="path29787-6-9-9"
           style="font-variation-settings:normal;fill:url(#linearGradient37);fill-opacity:1;stroke:none;stroke-width:4.83324;stroke-linecap:round;stroke-linejoin:round;stroke-miterlimit:4;stroke-dasharray:none;stroke-dashoffset:0;stroke-opacity:1;stop-color:#000000"
           d="m 460.07115,762.11786 c -16.46013,26.69818 -22.09424,47.49 -14.83746,77.13543 l -12.70208,-4.37256 c 5.80646,13.80263 16.9113,33.81753 28.4705,40.61361 -2.24769,1.3653 -11.29733,1.45523 -13.54501,2.82053 17.78131,10.01309 88.29564,19.69292 79.78606,-0.88011 -22.71004,2.99116 -41.14085,-1.26588 -56.04172,-14.12903 1.9057,-1.72746 2.78957,-2.5628 4.69527,-4.29025 -10.85958,-7.39872 -21.07573,-25.33089 -20.88263,-27.68941 l 4.59658,-0.68451 c -2.51949,-10.5838 0.34928,-31.75258 4.13772,-43.71917 -1.76237,-8.17959 -2.67898,-16.5067 -3.67723,-24.80453 z"
           sodipodi:nodetypes="cccccccccccc" /><path
           id="path403-7-3-3"
           style="fill:url(#linearGradient38);fill-opacity:1;stroke:none;stroke-width:12.7571;stroke-linecap:round;stroke-linejoin:round;stop-color:#000000"
           d="m 557.59621,980.52642 -19.00504,-19.0051 c 4.79198,16.5797 10.56992,32.3075 12.59768,42.34058 1.19406,-6.06328 3.69498,-14.38818 6.40736,-23.33548 z" /><path
           id="path19"
           style="fill:url(#linearGradient39);fill-opacity:1;stroke:none;stroke-width:12.7571;stroke-linecap:round;stroke-linejoin:round;stop-color:#000000"
           d="m 559.07623,975.59702 -27.12652,-57.9743 c -0.37058,3.2316 -0.53239,6.4779 -0.29921,9.7762 0.64631,9.1421 2.8097,19.1303 5.48339,28.9874 l 21.31136,21.3113 c 0.21446,-0.708 0.41433,-1.3828 0.63098,-2.1006 z" /><path
           id="path17"
           style="fill:url(#linearGradient40);fill-opacity:1;stroke:none;stroke-width:12.7571;stroke-linecap:round;stroke-linejoin:round;stop-color:#000000"
           d="m 566.05151,950.47242 -33.40985,-37.7042 c -0.008,0.049 -0.0142,0.098 -0.0222,0.1463 l 27.5792,58.9447 c 2.07392,-6.9603 4.11171,-14.1116 5.85287,-21.3868 z" /><path
           id="path15"
           style="fill:url(#linearGradient41);fill-opacity:1;stroke:none;stroke-width:12.7571;stroke-linecap:round;stroke-linejoin:round;stop-color:#000000"
           d="m 579.14839,848.71998 c -6.62692,-0.0491 -18.59614,12.76666 -28.14247,12.76666 -8.63427,0 -22.9904,-14.76219 -29.49071,-12.39459 -6.50031,2.3676 14.30444,21.50642 14.4415,38.963 0.0586,7.46857 -1.4585,14.49527 -2.73265,21.45087 l 33.55556,37.8675 c 1.54306,-6.8459 2.74137,-13.6135 3.2794,-19.9745 1.10826,-13.1031 -3.5218,-26.4879 -2.8851,-39.34387 1.32382,-26.72977 19.67636,-35.68086 13.85135,-38.87877 -0.5626,-0.30886 -1.19134,-0.45122 -1.87688,-0.4563 z" /><path
           style="fill:url(#linearGradient42);fill-opacity:1;stroke:none;stroke-width:12.7571;stroke-linecap:round;stroke-linejoin:round;stop-color:#000000"
           d="m 528.84555,847.29461 c 5.35127,-6.3527 10.50368,-10.61173 16.06338,-13.55953 1.00265,-0.5314 1.16278,-1.9347 1.15016,-3.0084 -0.0127,-1.0723 -0.39156,-2.29566 -1.21942,-2.97762 -6.28347,-5.1762 -10.66535,-8.85029 -11.14542,-16.44954 -0.35833,-5.67219 4.65997,-19.14846 17.18815,-5.72209 11.66432,-14.17528 17.82139,-0.73059 17.50012,5.72209 -0.36685,7.36816 -3.95191,9.74698 -11.50696,16.64136 -0.70636,0.64459 -0.92452,1.78478 -0.8918,2.7469 0.0301,0.88492 0.30876,1.9817 0.99,2.4649 5.49709,3.8997 13.28721,9.18043 16.56985,14.29203 l -7.88498,4.14981 c -0.24239,-4.88551 -4.92039,-10.30854 -15.01998,-10.30854 -10.09957,0 -13.14076,5.94282 -13.86477,10.54734 z"
           id="path1379-2-2-6"
           sodipodi:nodetypes="csasscssascczcc" /><path
           id="path1381-9-2-9-6"
           style="fill:url(#linearGradient43);fill-opacity:1;stroke:none;stroke-width:12.7571;stroke-linecap:round;stroke-linejoin:round;stop-color:#000000"
           d="m 545.02771,770.86204 c -1.96855,2.07952 -5.20842,-3.72103 -9.90353,-5.34066 2.83806,4.88995 2.85803,20.57592 -3.54777,18.72401 -2.6208,-2.12218 -0.31131,-10.13336 -1.03988,-9.01072 -2.76462,4.25996 -8.89944,17.47032 -4.18411,26.70384 0.65741,1.28733 -1.7525,2.5653 -4.87914,-2.47038 4.77705,18.83836 12.71215,22.60163 10.41909,30.59187 6.65262,-6.89714 -4.07946,-16.05198 -1.535,-24.18027 0.61269,-5.52834 11.66765,-17.88063 20.46874,-4.54751 7.73454,-13.5203 19.06246,-2.51967 20.66547,4.69785 2.24802,10.12174 -6.51965,13.83813 2.04602,23.92369 -2.91997,-6.82882 0.11987,-11.7289 10.18412,-30.71515 -6.79186,7.70667 -7.23705,0.52795 -6.88002,-1.81699 1.35853,-8.92282 -0.28465,-15.64061 -3.04927,-19.90057 -0.35659,1.74694 -0.29789,4.6022 -2.91869,6.72438 -6.4058,1.85191 -2.45899,-12.91724 -9.76071,-21.80615 -0.55289,7.2126 -3.34538,9.70758 -4.8096,8.91552 -3.92728,-2.12446 -3.44921,-11.61795 -8.63387,-17.89141 0.49482,6.44328 1.13997,13.40366 -2.64184,17.39865 z"
           sodipodi:nodetypes="sccscccccsccscccscss" /><path
           id="path29756-1-0-7-78-6"
           style="font-variation-settings:normal;fill:url(#linearGradient44);fill-opacity:1;stroke:none;stroke-width:4.83324;stroke-linecap:round;stroke-linejoin:round;stroke-miterlimit:4;stroke-dasharray:none;stroke-dashoffset:0;stroke-opacity:1;stop-color:#000000"
           d="m 636.71025,791.47058 c 2.33396,13.18188 6.71728,29.39412 1.15244,41.19993 l 5.51462,0.814 c -5.81788,12.1313 -16.07831,22.35072 -21.70902,25.13397 1.05559,1.39714 3.70984,2.78593 4.76543,4.18306 -14.54258,12.58657 -31.23663,14.08226 -51.3725,12.44974 0,0 5.48301,-16.59273 12.92196,-21.21587 18.79344,-6.20474 35.49404,-20.29093 42.3108,-39.17999 3.45122,-9.28586 4.96835,-13.4299 6.41627,-23.38484 z"
           sodipodi:nodetypes="ccccsccsc" /><path
           id="path29787-6-9-6-1"
           style="font-variation-settings:normal;fill:url(#linearGradient45);fill-opacity:1;stroke:none;stroke-width:4.83324;stroke-linecap:round;stroke-linejoin:round;stroke-miterlimit:4;stroke-dasharray:none;stroke-dashoffset:0;stroke-opacity:1;stop-color:#000000"
           d="m 641.70114,762.11786 c 16.46013,26.69818 22.09424,47.49 14.83746,77.13543 l 12.70208,-4.37256 c -5.80646,13.80263 -16.9113,33.81753 -28.4705,40.61361 2.24769,1.3653 11.29733,1.45523 13.54501,2.82053 -17.78131,10.01309 -88.29564,19.69292 -79.78606,-0.88011 22.71004,2.99116 41.14085,-1.26588 56.04172,-14.12903 -1.9057,-1.72746 -2.78957,-2.5628 -4.69527,-4.29025 10.85958,-7.39872 21.07573,-25.33089 20.88263,-27.68941 l -4.59658,-0.68451 c 2.51949,-10.5838 -0.34928,-31.75258 -4.13772,-43.71917 1.76237,-8.17959 2.67898,-16.5067 3.67723,-24.80453 z"
           sodipodi:nodetypes="cccccccccccc" /><path
           id="path1"
           style="fill:url(#linearGradient46);fill-opacity:1;stroke-width:0.464512;stroke-linecap:round;stroke-linejoin:round;paint-order:fill markers stroke"
           d="m 561.50045,851.51213 c 0,4.20117 -6.08353,7.60689 -10.37068,7.60689 -4.28713,0 -10.37066,-3.40573 -10.37066,-7.60689 0,-4.20117 4.43618,-7.6069 10.37066,-7.6069 5.72194,0 10.37068,3.40573 10.37068,7.6069 z"
           sodipodi:nodetypes="sasss" /></g></g><g
       id="g2025"
       transform="matrix(0.99747034,0,0,1.2021802,-1.1999095,-215.34684)"><path
         style="fill:none;stroke:#a4cac3;stroke-width:4.152;stroke-linecap:round;stroke-linejoin:round;stroke-dasharray:none;stroke-opacity:1;stop-color:#000000"
         d="m -552.28402,1049.236 c 20.15363,1.7807 23.33424,-22.612 40.7787,-22.612 17.44445,0 20.25881,21.9226 37.24113,21.9226 16.98231,0 17.68182,-21.3541 36.60632,-21.4418 18.9245,-0.088 18.39688,21.7528 41.271,22.1119"
         id="path514"
         sodipodi:nodetypes="czzzc" /><path
         style="fill:none;stroke:#a0c3c2;stroke-width:4.152;stroke-linecap:round;stroke-linejoin:round;stroke-dasharray:none;stroke-opacity:1;stop-color:#000000"
         d="m -552.28402,1026.714 c 20.15363,-1.7807 23.33424,22.612 40.7787,22.612 17.44445,0 20.25881,-21.9226 37.24113,-21.9226 16.98231,0 17.68182,21.3541 36.60632,21.4418 18.9245,0.088 18.39688,-21.7528 41.271,-22.1119"
         id="path514-3"
         sodipodi:nodetypes="czzzc" /></g></g><style
     type="text/css"
     id="style1617">&#10;	.st0{fill-rule:evenodd;clip-rule:evenodd;fill:#3B454E;}&#10;	.st1{fill-rule:evenodd;clip-rule:evenodd;fill:#539EA1;}&#10;	.st2{fill-rule:evenodd;clip-rule:evenodd;fill:#3C9BD6;}&#10;	.st3{fill-rule:evenodd;clip-rule:evenodd;fill:#E94E3E;}&#10;</style></svg>
