<?xml version="1.0" encoding="UTF-8" standalone="no"?>
<!-- Created with Inkscape (http://www.inkscape.org/) -->

<svg
   width="233.49899mm"
   height="67.933998mm"
   viewBox="0 0 233.499 67.933998"
   version="1.1"
   id="svg1"
   inkscape:version="1.4.4 (dcaf3e7d9e, 2026-05-05)"
   sodipodi:docname="linked_depth.svg"
   xmlns:inkscape="http://www.inkscape.org/namespaces/inkscape"
   xmlns:sodipodi="http://sodipodi.sourceforge.net/DTD/sodipodi-0.dtd"
   xmlns="http://www.w3.org/2000/svg"
   xmlns:svg="http://www.w3.org/2000/svg">
  <sodipodi:namedview
     id="namedview1"
     pagecolor="#ffffff"
     bordercolor="#000000"
     borderopacity="0.25"
     inkscape:showpageshadow="2"
     inkscape:pageopacity="0.0"
     inkscape:pagecheckerboard="0"
     inkscape:deskcolor="#d1d1d1"
     inkscape:document-units="mm"
     inkscape:zoom="0.9971492"
     inkscape:cx="377.07497"
     inkscape:cy="12.034307"
     inkscape:window-width="1536"
     inkscape:window-height="847"
     inkscape:window-x="0"
     inkscape:window-y="0"
     inkscape:window-maximized="1"
     inkscape:current-layer="layer1" />
  <defs
     id="defs1">
    <rect
       x="229.73856"
       y="741.47845"
       width="148.07793"
       height="38.108292"
       id="rect10" />
  </defs>
  <g
     inkscape:label="Layer 1"
     inkscape:groupmode="layer"
     id="layer1"
     transform="translate(53.448331,-310.49288)">
    <text
       xml:space="preserve"
       transform="scale(0.26458333)"
       id="text10"
       style="font-size:37.8932px;font-family:'Montserrat Alternates';-inkscape-font-specification:'Montserrat Alternates, Normal';text-align:center;writing-mode:lr-tb;direction:ltr;white-space:pre;shape-inside:url(#rect10);display:inline;fill:none;stroke:#000000;stroke-width:14.9594;stroke-linecap:square;stroke-linejoin:bevel;stroke-opacity:1;paint-order:fill markers stroke"><tspan
         x="229.73828"
         y="814.41333"
         id="tspan4"><tspan
           dx="0 16.862463 25.653696 13.982643 22.887497 15.763512 19.969734 25.691566 11.709 9.9279938"
           id="tspan3">Interval 1</tspan></tspan></text>
    <path
       style="fill:none;stroke:#679bbd;stroke-width:3.95801;stroke-linecap:round;stroke-linejoin:round;stroke-opacity:1;paint-order:fill markers stroke"
       d="M 20.54675,327.16374 H 157.25223"
       id="path12-5"
       sodipodi:nodetypes="cc" />
    <path
       style="fill:none;stroke:#717171;stroke-width:3.958;stroke-linecap:round;stroke-linejoin:round;stroke-dasharray:none;stroke-opacity:1;paint-order:fill markers stroke"
       d="M 8.3844908,339.91529 H 175.01413"
       id="path4-1" />
    <path
       style="font-variation-settings:'wght' 600;fill:none;stroke:#d6d6d6;stroke-width:0.455;paint-order:markers fill stroke;stroke-dasharray:0.45500001, 1.36500004;stroke-dashoffset:0;stroke-linecap:round;stroke-opacity:1"
       d="M 20.287723,315.07426 H 157.62816"
       id="path1" />
    <path
       style="fill:none;stroke:#a77cc8;stroke-width:3.95801;stroke-linecap:round;stroke-linejoin:round;stroke-opacity:1;paint-order:fill markers stroke"
       d="M 20.54675,315.07426 H 30.75221"
       id="path5"
       sodipodi:nodetypes="cc" />
    <path
       style="fill:none;stroke:#a77cc8;stroke-width:3.95801;stroke-linecap:round;stroke-linejoin:round;stroke-opacity:1;paint-order:fill markers stroke"
       d="m 147.61637,315.07426 h 9.63586"
       id="path6"
       sodipodi:nodetypes="cc" />
    <path
       style="fill:none;stroke:#a77cc8;stroke-width:3.95801;stroke-linecap:round;stroke-linejoin:round;stroke-opacity:1;paint-order:fill markers stroke"
       d="m 56.168855,315.07426 h 9.676296"
       id="path7"
       sodipodi:nodetypes="cc" />
    <path
       d="m 12.994429,352.32501 h 0.378767 v -2.79981 h -0.378767 z m 0,-3.13763 h 0.378767 v -0.64492 h -0.378767 z m 1.0237,3.13763 h 0.378767 v -1.54066 c 0,-0.31223 0.04095,-0.47602 0.148436,-0.63469 0.148436,-0.21498 0.409479,-0.34294 0.706351,-0.34294 0.276398,0 0.527203,0.11261 0.680757,0.30199 0.133081,0.17403 0.184266,0.37877 0.184266,0.7473 v 1.469 h 0.378767 v -1.469 c 0,-0.4709 -0.06654,-0.72171 -0.245687,-0.96228 -0.220094,-0.28151 -0.557914,-0.43507 -0.952037,-0.43507 -0.368531,0 -0.665403,0.1382 -0.900853,0.42996 v -0.36342 h -0.378767 z m 3.465214,0 h 0.378768 v -2.45687 h 0.629573 v -0.34294 h -0.629573 v -0.98274 h -0.378768 v 0.98274 h -0.603981 v 0.34294 h 0.603981 z m 4.074313,-1.2745 c 0,-0.38389 -0.05119,-0.61934 -0.189384,-0.86502 -0.250805,-0.45043 -0.737061,-0.72683 -1.274502,-0.72683 -0.813838,0 -1.448529,0.63981 -1.448529,1.45365 0,0.8292 0.650047,1.47924 1.47924,1.47924 0.6091,0 1.156777,-0.39412 1.361516,-0.98786 h -0.394123 c -0.158673,0.38388 -0.552796,0.63981 -0.97763,0.63981 -0.578388,0 -1.059525,-0.44019 -1.090236,-0.99299 z m -2.523411,-0.34294 c 0.10237,-0.53744 0.527204,-0.90085 1.059525,-0.90085 0.542559,0 0.952038,0.33782 1.085118,0.90085 z m 3.045494,1.61744 h 0.378767 v -1.63279 c -0.0051,-0.50673 0.276398,-0.81896 0.793365,-0.85991 v -0.37365 c -0.40436,0.0205 -0.644929,0.15868 -0.793365,0.46578 v -0.39924 h -0.378767 z m 2.600189,0 h 0.399242 l 1.17725,-2.79981 h -0.383886 l -1.003222,2.3545 -0.982748,-2.3545 h -0.383886 z m 4.678298,-2.79981 h -0.378767 v 0.4965 c -0.281517,-0.38901 -0.619336,-0.56304 -1.105592,-0.56304 -0.839431,0 -1.474122,0.63469 -1.474122,1.47413 0,0.83943 0.63981,1.45876 1.504833,1.45876 0.476019,0 0.77289,-0.15355 1.074881,-0.55791 v 0.49137 h 0.378767 z m -1.474122,0.28152 c 0.619336,0 1.095355,0.48114 1.095355,1.10559 0,0.63981 -0.4709,1.13119 -1.074881,1.13119 -0.634692,0 -1.120947,-0.4965 -1.120947,-1.13631 0,-0.6091 0.491374,-1.10047 1.100473,-1.10047 z m 2.119055,2.51829 h 0.378767 v -3.78255 h -0.378767 z m 3.557349,0 h 0.373649 v -3.78255 H 32.91558 v 0.34293 h 0.644928 z"
       id="text11-0"
       style="font-size:5.11848px;font-family:'URW Gothic';-inkscape-font-specification:'URW Gothic, Normal';text-align:center;text-anchor:middle;fill:#979797;stroke-width:2.02066;stroke-linecap:square;stroke-linejoin:bevel;paint-order:fill markers stroke"
       aria-label="interval 1" />
    <path
       d="m -8.0264725,361.68549 h -0.3787676 v 1.42806 c -0.2763979,-0.3327 -0.6602839,-0.51185 -1.1004732,-0.51185 -0.8496677,0 -1.4894777,0.63469 -1.4894777,1.47412 0,0.8292 0.660284,1.45877 1.5253071,1.45877 0.4709001,0 0.778009,-0.16891 1.0646438,-0.57327 v 0.50673 h 0.3787676 z m -1.4894778,1.26427 c 0.6244546,0 1.1260657,0.49649 1.1260657,1.11071 0,0.61933 -0.4913741,1.12606 -1.0902363,1.12606 -0.6449281,0 -1.1311841,-0.48625 -1.1311841,-1.13118 0,-0.61422 0.486256,-1.10559 1.0953547,-1.10559 z m 4.9393307,1.24379 c 0,-0.38389 -0.051185,-0.61934 -0.1893838,-0.86503 -0.2508055,-0.45042 -0.7370611,-0.72682 -1.2745015,-0.72682 -0.8138384,0 -1.4485299,0.63981 -1.4485299,1.45365 0,0.82919 0.650047,1.47924 1.4792407,1.47924 0.6090992,0 1.1567766,-0.39412 1.3615158,-0.98787 h -0.394123 c -0.1586729,0.38389 -0.5527959,0.63981 -0.9776297,0.63981 -0.5783883,0 -1.0595254,-0.44019 -1.0902363,-0.99298 z m -2.5234107,-0.34294 c 0.1023696,-0.53744 0.5272034,-0.90085 1.0595254,-0.90085 0.5425589,0 0.9520373,0.33782 1.0851178,0.90085 z m 3.0454935,-1.18237 v 3.78256 h 0.3787675 v -1.46389 c 0.2456871,0.35829 0.6244546,0.54768 1.0902363,0.54768 0.8394307,0 1.4843592,-0.63981 1.4843592,-1.45877 0,-0.83943 -0.63981,-1.47412 -1.4741223,-1.47412 -0.4811371,0 -0.8599046,0.18938 -1.1004732,0.54768 v -0.48114 z m 1.4638853,0.28152 c 0.6346916,0 1.1055917,0.48113 1.1055917,1.12606 0,0.62957 -0.4760186,1.11071 -1.1004732,1.11071 -0.63981,0 -1.1158287,-0.48114 -1.1158287,-1.13118 0,-0.61934 0.4862556,-1.10559 1.1107102,-1.10559 z m 2.26748057,2.51829 h 0.37876754 v -2.45687 h 0.62957306 v -0.34294 H 0.05559661 v -0.98275 h -0.37876754 v 0.98275 h -0.60398066 v 0.34294 h 0.60398066 z m 1.41270283,0 h 0.3787675 v -1.53555 c 0,-0.30199 0.040948,-0.48113 0.1535544,-0.63469 0.1535544,-0.22009 0.4145969,-0.34805 0.7012318,-0.34805 0.2712795,0 0.5272035,0.1126 0.6756394,0.30199 0.1330805,0.16891 0.1893838,0.38388 0.1893838,0.71146 v 1.50484 h 0.3787675 v -1.50484 c 0,-0.41971 -0.076777,-0.71146 -0.2405686,-0.93156 -0.2098577,-0.27128 -0.5630328,-0.42995 -0.9725112,-0.42995 -0.3787675,0 -0.6961133,0.15355 -0.8854971,0.42995 v -1.34616 H 1.0895319 Z"
       id="text11-49-6"
       style="font-size:5.11848px;font-family:'URW Gothic';-inkscape-font-specification:'URW Gothic, Normal';text-align:center;text-anchor:middle;fill:#a77cc8;stroke-width:2.02066;stroke-linecap:square;stroke-linejoin:bevel;paint-order:fill markers stroke"
       aria-label="depth" />
    <path
       d="m 46.722933,352.35828 h 0.378768 v -2.79981 h -0.378768 z m 0,-3.13763 h 0.378768 v -0.64493 h -0.378768 z m 1.0237,3.13763 h 0.378768 v -1.54067 c 0,-0.31222 0.04095,-0.47601 0.148435,-0.63469 0.148436,-0.21497 0.409479,-0.34294 0.706351,-0.34294 0.276398,0 0.527203,0.11261 0.680758,0.30199 0.13308,0.17403 0.184265,0.37877 0.184265,0.7473 v 1.46901 h 0.378767 v -1.46901 c 0,-0.4709 -0.06654,-0.7217 -0.245687,-0.96227 -0.220094,-0.28152 -0.557914,-0.43507 -0.952037,-0.43507 -0.36853,0 -0.665402,0.1382 -0.900852,0.42995 v -0.36341 h -0.378768 z m 3.465214,0 h 0.378768 v -2.45687 h 0.629573 v -0.34294 h -0.629573 v -0.98275 h -0.378768 v 0.98275 h -0.60398 v 0.34294 h 0.60398 z m 4.074313,-1.27451 c 0,-0.38388 -0.05119,-0.61933 -0.189384,-0.86502 -0.250805,-0.45042 -0.737061,-0.72682 -1.274501,-0.72682 -0.813839,0 -1.44853,0.63981 -1.44853,1.45365 0,0.82919 0.650047,1.47924 1.479241,1.47924 0.609099,0 1.156776,-0.39413 1.361515,-0.98787 h -0.394123 c -0.158673,0.38389 -0.552796,0.63981 -0.977629,0.63981 -0.578389,0 -1.059526,-0.44019 -1.090237,-0.99299 z m -2.523411,-0.34293 c 0.10237,-0.53744 0.527204,-0.90086 1.059526,-0.90086 0.542559,0 0.952037,0.33782 1.085117,0.90086 z m 3.045494,1.61744 h 0.378768 v -1.6328 c -0.0051,-0.50673 0.276397,-0.81896 0.793364,-0.8599 v -0.37365 c -0.40436,0.0205 -0.644929,0.15867 -0.793364,0.46578 v -0.39924 h -0.378768 z m 2.600189,0 h 0.399242 l 1.17725,-2.79981 h -0.383886 l -1.003222,2.3545 -0.982748,-2.3545 h -0.383886 z m 4.678299,-2.79981 h -0.378768 v 0.49649 c -0.281516,-0.389 -0.619336,-0.56303 -1.105592,-0.56303 -0.83943,0 -1.474122,0.63469 -1.474122,1.47412 0,0.83943 0.63981,1.45877 1.504833,1.45877 0.476019,0 0.772891,-0.15356 1.074881,-0.55792 v 0.49138 h 0.378768 z m -1.474123,0.28151 c 0.619336,0 1.095355,0.48114 1.095355,1.1056 0,0.63981 -0.4709,1.13118 -1.074881,1.13118 -0.634691,0 -1.120947,-0.49649 -1.120947,-1.1363 0,-0.6091 0.491374,-1.10048 1.100473,-1.10048 z m 2.119055,2.5183 h 0.378768 v -3.78256 h -0.378768 z m 2.287966,0 h 2.400567 v -0.34294 h -1.888719 l 1.21308,-1.1619 c 0.532322,-0.50673 0.696113,-0.78824 0.696113,-1.1926 0,-0.67052 -0.501611,-1.15166 -1.192605,-1.15166 -0.527204,0 -0.941801,0.2764 -1.115829,0.73706 -0.06654,0.17915 -0.0819,0.28664 -0.0819,0.5528 h 0.373649 c 0,-0.23545 0.03071,-0.38389 0.09725,-0.52209 0.133081,-0.26616 0.399242,-0.42483 0.721706,-0.42483 0.476019,0 0.818957,0.32758 0.818957,0.78824 0,0.22522 -0.0819,0.41972 -0.266161,0.63469 -0.112607,0.13309 -0.143318,0.1638 -0.450426,0.46067 l -1.325687,1.27962 z"
       id="text11-6-5"
       style="font-size:5.11848px;font-family:'URW Gothic';-inkscape-font-specification:'URW Gothic, Normal';text-align:center;text-anchor:middle;fill:#979797;stroke-width:2.02066;stroke-linecap:square;stroke-linejoin:bevel;paint-order:fill markers stroke"
       aria-label="interval 2" />
    <path
       d="m 80.845556,352.35828 h 0.378768 v -2.79981 h -0.378768 z m 0,-3.13763 h 0.378768 v -0.64493 h -0.378768 z m 1.0237,3.13763 h 0.378768 v -1.54067 c 0,-0.31222 0.04095,-0.47601 0.148436,-0.63469 0.148436,-0.21497 0.409478,-0.34294 0.70635,-0.34294 0.276398,0 0.527204,0.11261 0.680758,0.30199 0.133081,0.17403 0.184265,0.37877 0.184265,0.7473 v 1.46901 h 0.378768 v -1.46901 c 0,-0.4709 -0.06654,-0.7217 -0.245687,-0.96227 -0.220095,-0.28152 -0.557914,-0.43507 -0.952037,-0.43507 -0.368531,0 -0.665403,0.1382 -0.900853,0.42995 v -0.36341 h -0.378768 z m 3.465215,0 h 0.378767 v -2.45687 h 0.629573 v -0.34294 h -0.629573 v -0.98275 h -0.378767 v 0.98275 H 84.73049 v 0.34294 h 0.603981 z m 4.074312,-1.27451 c 0,-0.38388 -0.05118,-0.61933 -0.189383,-0.86502 -0.250806,-0.45042 -0.737061,-0.72682 -1.274502,-0.72682 -0.813838,0 -1.44853,0.63981 -1.44853,1.45365 0,0.82919 0.650047,1.47924 1.479241,1.47924 0.609099,0 1.156777,-0.39413 1.361516,-0.98787 h -0.394123 c -0.158673,0.38389 -0.552796,0.63981 -0.97763,0.63981 -0.578388,0 -1.059525,-0.44019 -1.090236,-0.99299 z m -2.52341,-0.34293 c 0.102369,-0.53744 0.527203,-0.90086 1.059525,-0.90086 0.542559,0 0.952037,0.33782 1.085118,0.90086 z m 3.045493,1.61744 h 0.378768 v -1.6328 c -0.0051,-0.50673 0.276398,-0.81896 0.793364,-0.8599 v -0.37365 c -0.40436,0.0205 -0.644928,0.15867 -0.793364,0.46578 v -0.39924 h -0.378768 z m 2.60019,0 h 0.399241 l 1.177251,-2.79981 h -0.383886 l -1.003222,2.3545 -0.982749,-2.3545 h -0.383886 z m 4.678298,-2.79981 h -0.378768 v 0.49649 c -0.281516,-0.389 -0.619336,-0.56303 -1.105591,-0.56303 -0.839431,0 -1.474123,0.63469 -1.474123,1.47412 0,0.83943 0.63981,1.45877 1.504834,1.45877 0.476018,0 0.77289,-0.15356 1.07488,-0.55792 v 0.49138 h 0.378768 z m -1.474122,0.28151 c 0.619336,0 1.095354,0.48114 1.095354,1.1056 0,0.63981 -0.4709,1.13118 -1.07488,1.13118 -0.634692,0 -1.120948,-0.49649 -1.120948,-1.1363 0,-0.6091 0.491375,-1.10048 1.100474,-1.10048 z m 2.119054,2.5183 h 0.378768 v -3.78256 h -0.378768 z m 2.912424,-2.84076 c 0.005,-0.42483 0.21497,-0.6654 0.5835,-0.6654 0.33782,0 0.57327,0.24568 0.57327,0.59374 0,0.36853 -0.2508,0.59886 -0.64492,0.59886 -0.0307,0 -0.0358,0 -0.18427,-0.0102 v 0.33782 c 0.25081,0.005 0.33782,0.0102 0.44019,0.0307 0.37877,0.0921 0.63981,0.42995 0.63981,0.82919 0,0.48114 -0.35318,0.84967 -0.81896,0.84967 -0.28663,0 -0.53232,-0.13308 -0.69099,-0.36853 -0.0921,-0.1382 -0.12796,-0.27128 -0.14844,-0.53744 h -0.37365 c 0.0102,0.2764 0.0563,0.46578 0.16379,0.65516 0.20986,0.36853 0.6091,0.59375 1.06465,0.59375 0.66028,0 1.18237,-0.53233 1.18237,-1.21308 0,-0.45555 -0.21498,-0.8036 -0.63981,-1.01858 0.26616,-0.18427 0.389,-0.4146 0.389,-0.72682 0,-0.56304 -0.389,-0.95716 -0.95204,-0.95716 -0.56815,0 -0.93668,0.389 -0.95715,1.00834 z"
       id="text11-4-8"
       style="font-size:5.11848px;font-family:'URW Gothic';-inkscape-font-specification:'URW Gothic, Normal';text-align:center;text-anchor:middle;fill:#979797;stroke-width:2.02066;stroke-linecap:square;stroke-linejoin:bevel;paint-order:fill markers stroke"
       aria-label="interval 3" />
    <path
       d="m 114.9042,352.32501 h 0.37876 v -2.79981 h -0.37876 z m 0,-3.13763 h 0.37876 v -0.64492 h -0.37876 z m 1.0237,3.13763 h 0.37876 v -1.54066 c 0,-0.31223 0.041,-0.47602 0.14844,-0.63469 0.14844,-0.21498 0.40948,-0.34294 0.70635,-0.34294 0.2764,0 0.5272,0.11261 0.68076,0.30199 0.13308,0.17403 0.18426,0.37877 0.18426,0.7473 v 1.469 h 0.37877 v -1.469 c 0,-0.4709 -0.0665,-0.72171 -0.24569,-0.96228 -0.22009,-0.28151 -0.55791,-0.43507 -0.95203,-0.43507 -0.36853,0 -0.66541,0.1382 -0.90086,0.42996 v -0.36342 h -0.37876 z m 3.46521,0 h 0.37877 v -2.45687 h 0.62957 v -0.34294 h -0.62957 v -0.98274 h -0.37877 v 0.98274 h -0.60398 v 0.34294 h 0.60398 z m 4.07431,-1.2745 c 0,-0.38389 -0.0512,-0.61934 -0.18938,-0.86502 -0.25081,-0.45043 -0.73706,-0.72683 -1.2745,-0.72683 -0.81384,0 -1.44853,0.63981 -1.44853,1.45365 0,0.8292 0.65004,1.47924 1.47924,1.47924 0.6091,0 1.15678,-0.39412 1.36151,-0.98786 h -0.39412 c -0.15867,0.38388 -0.55279,0.63981 -0.97763,0.63981 -0.57839,0 -1.05952,-0.44019 -1.09023,-0.99299 z m -2.52341,-0.34294 c 0.10237,-0.53744 0.52721,-0.90085 1.05953,-0.90085 0.54256,0 0.95203,0.33782 1.08512,0.90085 z m 3.0455,1.61744 h 0.37876 v -1.63279 c -0.005,-0.50673 0.2764,-0.81896 0.79337,-0.85991 v -0.37365 c -0.40436,0.0205 -0.64493,0.15868 -0.79337,0.46578 v -0.39924 h -0.37876 z m 2.60019,0 h 0.39924 l 1.17725,-2.79981 h -0.38389 l -1.00322,2.3545 -0.98275,-2.3545 h -0.38389 z m 4.67829,-2.79981 h -0.37876 v 0.4965 c -0.28152,-0.38901 -0.61934,-0.56304 -1.1056,-0.56304 -0.83943,0 -1.47412,0.63469 -1.47412,1.47413 0,0.83943 0.63981,1.45876 1.50484,1.45876 0.47601,0 0.77289,-0.15355 1.07488,-0.55791 v 0.49137 h 0.37876 z m -1.47412,0.28152 c 0.61934,0 1.09536,0.48114 1.09536,1.10559 0,0.63981 -0.4709,1.13119 -1.07488,1.13119 -0.6347,0 -1.12095,-0.4965 -1.12095,-1.13631 0,-0.6091 0.49137,-1.10047 1.10047,-1.10047 z m 2.11906,2.51829 h 0.37876 v -3.78255 h -0.37876 z m 4.09479,0 h 0.37364 v -0.69099 h 0.34806 v -0.34294 h -0.34806 v -2.74862 h -0.4453 l -1.84266,2.74862 v 0.34294 h 1.91432 z m 0,-1.03393 h -1.47925 l 1.47925,-2.22654 z"
       id="text11-60-4"
       style="font-size:5.11848px;font-family:'URW Gothic';-inkscape-font-specification:'URW Gothic, Normal';text-align:center;text-anchor:middle;fill:#979797;stroke-width:2.02066;stroke-linecap:square;stroke-linejoin:bevel;paint-order:fill markers stroke"
       aria-label="interval 4" />
    <path
       d="m 149.01912,352.32501 h 0.37877 v -2.79981 h -0.37877 z m 0,-3.13763 h 0.37877 v -0.64492 h -0.37877 z m 1.0237,3.13763 h 0.37877 v -1.54066 c 0,-0.31223 0.0409,-0.47602 0.14843,-0.63469 0.14844,-0.21498 0.40948,-0.34294 0.70635,-0.34294 0.2764,0 0.5272,0.11261 0.68076,0.30199 0.13308,0.17403 0.18426,0.37877 0.18426,0.7473 v 1.469 h 0.37877 v -1.469 c 0,-0.4709 -0.0665,-0.72171 -0.24569,-0.96228 -0.22009,-0.28151 -0.55791,-0.43507 -0.95203,-0.43507 -0.36853,0 -0.6654,0.1382 -0.90085,0.42996 v -0.36342 h -0.37877 z m 3.46521,0 h 0.37877 v -2.45687 h 0.62957 v -0.34294 h -0.62957 v -0.98274 h -0.37877 v 0.98274 h -0.60398 v 0.34294 h 0.60398 z m 4.07431,-1.2745 c 0,-0.38389 -0.0512,-0.61934 -0.18938,-0.86502 -0.2508,-0.45043 -0.73706,-0.72683 -1.2745,-0.72683 -0.81384,0 -1.44853,0.63981 -1.44853,1.45365 0,0.8292 0.65005,1.47924 1.47924,1.47924 0.6091,0 1.15678,-0.39412 1.36152,-0.98786 h -0.39413 c -0.15867,0.38388 -0.55279,0.63981 -0.97763,0.63981 -0.57839,0 -1.05952,-0.44019 -1.09023,-0.99299 z m -2.52341,-0.34294 c 0.10237,-0.53744 0.52721,-0.90085 1.05953,-0.90085 0.54256,0 0.95204,0.33782 1.08512,0.90085 z m 3.0455,1.61744 h 0.37877 v -1.63279 c -0.005,-0.50673 0.27639,-0.81896 0.79336,-0.85991 v -0.37365 c -0.40436,0.0205 -0.64493,0.15868 -0.79336,0.46578 v -0.39924 h -0.37877 z m 2.60019,0 h 0.39924 l 1.17725,-2.79981 h -0.38389 l -1.00322,2.3545 -0.98275,-2.3545 h -0.38388 z m 4.6783,-2.79981 h -0.37877 v 0.4965 c -0.28152,-0.38901 -0.61934,-0.56304 -1.10559,-0.56304 -0.83943,0 -1.47413,0.63469 -1.47413,1.47413 0,0.83943 0.63981,1.45876 1.50484,1.45876 0.47602,0 0.77289,-0.15355 1.07488,-0.55791 v 0.49137 h 0.37877 z m -1.47413,0.28152 c 0.61934,0 1.09536,0.48114 1.09536,1.10559 0,0.63981 -0.4709,1.13119 -1.07488,1.13119 -0.63469,0 -1.12095,-0.4965 -1.12095,-1.13631 0,-0.6091 0.49137,-1.10047 1.10047,-1.10047 z m 2.11906,2.51829 h 0.37877 v -3.78255 h -0.37877 z m 2.46199,-1.91943 0.29176,0.11261 c 0.23545,-0.28664 0.48625,-0.42484 0.78312,-0.42484 0.51697,0 0.90597,0.41972 0.90597,0.97252 0,0.55279 -0.39412,0.98274 -0.90597,0.98274 -0.48113,0 -0.84966,-0.36853 -0.9162,-0.91109 h -0.36854 c 0.0358,0.25081 0.0614,0.35318 0.12797,0.50162 0.22009,0.46578 0.6654,0.75241 1.17213,0.75241 0.71147,0 1.26938,-0.57839 1.26938,-1.32568 0,-0.74218 -0.54768,-1.31545 -1.25403,-1.31545 -0.22521,0 -0.41459,0.0512 -0.65004,0.17914 l 0.18426,-1.04417 h 1.40247 v -0.34293 h -1.70446 z"
       id="text11-41-1"
       style="font-size:5.11848px;font-family:'URW Gothic';-inkscape-font-specification:'URW Gothic, Normal';text-align:center;text-anchor:middle;fill:#979797;stroke-width:2.02066;stroke-linecap:square;stroke-linejoin:bevel;paint-order:fill markers stroke"
       aria-label="interval 5" />
    <path
       d="m -26.739648,374.20447 h 0.378768 v -3.78256 h -0.378768 z m 1.0237,0 h 0.378768 v -2.79981 h -0.378768 z m 0,-3.13763 h 0.378768 v -0.64493 h -0.378768 z m 1.0237,3.13763 h 0.378768 v -1.54066 c 0,-0.31223 0.04095,-0.47602 0.148436,-0.6347 0.148436,-0.21497 0.409478,-0.34293 0.70635,-0.34293 0.276398,0 0.527204,0.1126 0.680758,0.30199 0.13308,0.17402 0.184265,0.37876 0.184265,0.74729 v 1.46901 h 0.378768 v -1.46901 c 0,-0.4709 -0.06654,-0.7217 -0.245687,-0.96227 -0.220095,-0.28152 -0.557915,-0.43507 -0.952038,-0.43507 -0.36853,0 -0.665402,0.1382 -0.900852,0.42995 v -0.36341 h -0.378768 z m 3.122276,0 h 0.378768 v -0.57839 l 0.440189,-0.54256 0.931563,1.12095 h 0.470901 l -1.161895,-1.39223 1.090236,-1.40758 h -0.465782 l -1.305212,1.69933 v -2.68208 h -0.378768 z m 5.236207,-1.2745 c 0,-0.38389 -0.05118,-0.61934 -0.189383,-0.86503 -0.250806,-0.45042 -0.737061,-0.72682 -1.274502,-0.72682 -0.813838,0 -1.44853,0.63981 -1.44853,1.45365 0,0.82919 0.650047,1.47924 1.479241,1.47924 0.609099,0 1.156776,-0.39412 1.361516,-0.98787 h -0.394123 c -0.158673,0.38389 -0.552796,0.63981 -0.97763,0.63981 -0.578388,0 -1.059525,-0.44019 -1.090236,-0.99298 z m -2.52341,-0.34294 c 0.102369,-0.53744 0.527203,-0.90085 1.059525,-0.90085 0.542559,0 0.952037,0.33782 1.085118,0.90085 z m 5.906724,-2.16512 h -0.378768 v 1.42806 c -0.276398,-0.3327 -0.660284,-0.51185 -1.100473,-0.51185 -0.849668,0 -1.489478,0.63469 -1.489478,1.47412 0,0.82919 0.660284,1.45877 1.525307,1.45877 0.470901,0 0.778009,-0.16891 1.064644,-0.57327 v 0.50673 h 0.378768 z m -1.489478,1.26427 c 0.624455,0 1.126066,0.49649 1.126066,1.11071 0,0.61933 -0.491374,1.12606 -1.090237,1.12606 -0.644928,0 -1.131184,-0.48625 -1.131184,-1.13118 0,-0.61422 0.486256,-1.10559 1.095355,-1.10559 z m 6.4134557,-1.26427 h -0.3787675 v 1.42806 c -0.2763979,-0.3327 -0.660284,-0.51185 -1.1004733,-0.51185 -0.8496679,0 -1.4894779,0.63469 -1.4894779,1.47412 0,0.82919 0.660284,1.45877 1.5253073,1.45877 0.4709002,0 0.778009,-0.16891 1.0646439,-0.57327 v 0.50673 h 0.3787675 z m -1.4894777,1.26427 c 0.6244546,0 1.1260656,0.49649 1.1260656,1.11071 0,0.61933 -0.4913741,1.12606 -1.0902363,1.12606 -0.6449283,0 -1.1311843,-0.48625 -1.1311843,-1.13118 0,-0.61422 0.486256,-1.10559 1.095355,-1.10559 z m 4.9393314,1.24379 c 0,-0.38389 -0.051185,-0.61934 -0.1893838,-0.86503 -0.2508055,-0.45042 -0.7370612,-0.72682 -1.2745016,-0.72682 -0.8138383,0 -1.4485299,0.63981 -1.4485299,1.45365 0,0.82919 0.650047,1.47924 1.4792408,1.47924 0.6090991,0 1.1567765,-0.39412 1.3615157,-0.98787 h -0.3941229 c -0.1586729,0.38389 -0.5527959,0.63981 -0.9776298,0.63981 -0.5783882,0 -1.0595254,-0.44019 -1.0902362,-0.99298 z m -2.5234108,-0.34294 c 0.1023696,-0.53744 0.5272035,-0.90085 1.0595254,-0.90085 0.5425589,0 0.9520373,0.33782 1.0851178,0.90085 z m 3.0454928,-1.18237 v 3.78256 h 0.3787675 v -1.46389 c 0.2456871,0.35829 0.6244546,0.54768 1.0902363,0.54768 0.8394308,0 1.4843593,-0.63981 1.4843593,-1.45877 0,-0.83943 -0.63981,-1.47412 -1.4741223,-1.47412 -0.4811372,0 -0.8599047,0.18938 -1.1004733,0.54768 v -0.48114 z m 1.4638853,0.28152 c 0.6346916,0 1.1055918,0.48113 1.1055918,1.12606 0,0.62957 -0.4760187,1.11071 -1.1004733,1.11071 -0.63981,0 -1.1158287,-0.48114 -1.1158287,-1.13118 0,-0.61934 0.4862557,-1.10559 1.1107102,-1.10559 z m 2.26748061,2.51829 h 0.37876754 v -2.45687 h 0.62957306 v -0.34294 H 0.05559585 v -0.98275 h -0.37876754 v 0.98275 h -0.60398066 v 0.34294 h 0.60398066 z m 1.41270189,0 h 0.3787675 v -1.53555 c 0,-0.30199 0.040948,-0.48113 0.1535544,-0.63469 0.1535544,-0.22009 0.4145969,-0.34805 0.7012318,-0.34805 0.2712795,0 0.5272035,0.1126 0.6756394,0.30199 0.1330805,0.16891 0.1893838,0.38388 0.1893838,0.71146 v 1.50484 h 0.3787675 v -1.50484 c 0,-0.41971 -0.076777,-0.71146 -0.2405686,-0.93156 -0.2098577,-0.27128 -0.5630328,-0.42995 -0.9725112,-0.42995 -0.3787676,0 -0.6961133,0.15355 -0.8854971,0.42995 v -1.34616 H 1.0895302 Z"
       id="text12-5"
       style="font-size:5.11848px;font-family:'URW Gothic';-inkscape-font-specification:'URW Gothic, Normal';text-align:center;text-anchor:middle;fill:#679bbd;stroke-width:2.02066;stroke-linecap:square;stroke-linejoin:bevel;paint-order:fill markers stroke"
       aria-label="linked depth" />
    <path
       d="m 22.434138,365.95941 h 0.373649 v -3.78256 h -1.018578 v 0.34294 h 0.644929 z"
       id="text13-3"
       style="font-size:5.11848px;font-family:'URW Gothic';-inkscape-font-specification:'URW Gothic, Normal';text-align:center;text-anchor:middle;fill:#a77cc8;stroke-width:2.02066;stroke-linecap:square;stroke-linejoin:bevel;paint-order:fill markers stroke"
       aria-label="1" />
    <path
       d="m 57.674879,365.95941 h 0.373649 v -3.78256 h -1.018577 v 0.34294 h 0.644928 z"
       id="text14-1"
       style="font-size:5.11848px;font-family:'URW Gothic';-inkscape-font-specification:'URW Gothic, Normal';text-align:center;text-anchor:middle;fill:#a77cc8;stroke-width:2.02066;stroke-linecap:square;stroke-linejoin:bevel;paint-order:fill markers stroke"
       aria-label="1" />
    <path
       d="m 158.91558,365.95941 h 0.37365 v -3.78256 h -1.01858 v 0.34294 h 0.64493 z"
       id="text15-0"
       style="font-size:5.11848px;font-family:'URW Gothic';-inkscape-font-specification:'URW Gothic, Normal';text-align:center;text-anchor:middle;fill:#a77cc8;stroke-width:2.02066;stroke-linecap:square;stroke-linejoin:bevel;paint-order:fill markers stroke"
       aria-label="1" />
    <path
       d="m 22.434138,374.69583 h 0.373649 v -3.78256 h -1.018578 v 0.34294 h 0.644929 z"
       id="text16-3"
       style="font-size:5.11848px;font-family:'URW Gothic';-inkscape-font-specification:'URW Gothic, Normal';text-align:center;text-anchor:middle;fill:#679bbd;stroke-width:2.02066;stroke-linecap:square;stroke-linejoin:bevel;paint-order:fill markers stroke"
       aria-label="1" />
    <path
       d="m 57.674879,374.69583 h 0.373649 v -3.78256 h -1.018577 v 0.34294 h 0.644928 z"
       id="text17-6"
       style="font-size:5.11848px;font-family:'URW Gothic';-inkscape-font-specification:'URW Gothic, Normal';text-align:center;text-anchor:middle;fill:#679bbd;stroke-width:2.02066;stroke-linecap:square;stroke-linejoin:bevel;paint-order:fill markers stroke"
       aria-label="1" />
    <path
       d="m 158.91558,374.69583 h 0.37365 v -3.78256 h -1.01858 v 0.34294 h 0.64493 z"
       id="text18-9"
       style="font-size:5.11848px;font-family:'URW Gothic';-inkscape-font-specification:'URW Gothic, Normal';text-align:center;text-anchor:middle;fill:#679bbd;stroke-width:2.02066;stroke-linecap:square;stroke-linejoin:bevel;paint-order:fill markers stroke"
       aria-label="1" />
    <path
       d="m 90.878588,374.69583 h 0.373649 v -3.78256 h -1.018578 v 0.34294 h 0.644929 z"
       id="text19-0"
       style="font-size:5.11848px;font-family:'URW Gothic';-inkscape-font-specification:'URW Gothic, Normal';text-align:center;text-anchor:middle;fill:#679bbd;stroke-width:2.02066;stroke-linecap:square;stroke-linejoin:bevel;paint-order:fill markers stroke"
       aria-label="1" />
    <path
       d="m 126.93413,374.69583 h 0.37365 v -3.78256 h -1.01858 v 0.34294 h 0.64493 z"
       id="text20-6"
       style="font-size:5.11848px;font-family:'URW Gothic';-inkscape-font-specification:'URW Gothic, Normal';text-align:center;text-anchor:middle;fill:#679bbd;stroke-width:2.02066;stroke-linecap:square;stroke-linejoin:bevel;paint-order:fill markers stroke"
       aria-label="1" />
    <path
       d="m 89.593849,364.58254 c 0,0.37877 0.06142,0.6654 0.184266,0.87526 0.220094,0.37365 0.60398,0.56815 1.11071,0.56815 0.455545,0 0.798483,-0.15867 1.013459,-0.4709 0.148436,-0.21497 0.225213,-0.55279 0.225213,-0.97251 v -1.07488 c 0,-0.42995 -0.0563,-0.66028 -0.220095,-0.89062 -0.225213,-0.32758 -0.598862,-0.50673 -1.049288,-0.50673 -0.424834,0 -0.772891,0.14844 -0.992985,0.42484 -0.189384,0.23545 -0.27128,0.5272 -0.27128,0.97251 z m 2.159999,-0.0614 c 0,0.3327 -0.04095,0.59886 -0.122844,0.75242 -0.13308,0.26104 -0.404359,0.40947 -0.757535,0.40947 -0.322464,0 -0.578388,-0.12284 -0.737061,-0.35829 -0.117725,-0.16379 -0.16891,-0.4146 -0.16891,-0.8036 v -0.92645 c 0,-0.35317 0.04095,-0.58862 0.133081,-0.74218 0.148436,-0.2508 0.429952,-0.39924 0.762653,-0.39924 0.301991,0 0.557915,0.12285 0.716588,0.33782 0.127962,0.17403 0.174028,0.38901 0.174028,0.8036 z"
       id="text21-7"
       style="font-size:5.11848px;font-family:'URW Gothic';-inkscape-font-specification:'URW Gothic, Normal';text-align:center;text-anchor:middle;fill:#a77cc8;stroke-width:2.02066;stroke-linecap:square;stroke-linejoin:bevel;paint-order:fill markers stroke"
       aria-label="0" />
    <path
       d="m 125.64939,364.58254 c 0,0.37877 0.0614,0.6654 0.18427,0.87526 0.22009,0.37365 0.60398,0.56815 1.11071,0.56815 0.45554,0 0.79848,-0.15867 1.01346,-0.4709 0.14843,-0.21497 0.22521,-0.55279 0.22521,-0.97251 v -1.07488 c 0,-0.42995 -0.0563,-0.66028 -0.2201,-0.89062 -0.22521,-0.32758 -0.59886,-0.50673 -1.04928,-0.50673 -0.42484,0 -0.77289,0.14844 -0.99299,0.42484 -0.18938,0.23545 -0.27128,0.5272 -0.27128,0.97251 z m 2.16,-0.0614 c 0,0.3327 -0.0409,0.59886 -0.12284,0.75242 -0.13308,0.26104 -0.40436,0.40947 -0.75754,0.40947 -0.32246,0 -0.57839,-0.12284 -0.73706,-0.35829 -0.11772,-0.16379 -0.16891,-0.4146 -0.16891,-0.8036 v -0.92645 c 0,-0.35317 0.041,-0.58862 0.13308,-0.74218 0.14844,-0.2508 0.42995,-0.39924 0.76265,-0.39924 0.30199,0 0.55792,0.12285 0.71659,0.33782 0.12796,0.17403 0.17403,0.38901 0.17403,0.8036 z"
       id="text22-1"
       style="font-size:5.11848px;font-family:'URW Gothic';-inkscape-font-specification:'URW Gothic, Normal';text-align:center;text-anchor:middle;fill:#a77cc8;stroke-width:2.02066;stroke-linecap:square;stroke-linejoin:bevel;paint-order:fill markers stroke"
       aria-label="0" />
    <path
       style="font-size:6.55505px;font-family:'URW Gothic';-inkscape-font-specification:'URW Gothic, Normal';text-align:center;text-anchor:middle;fill:#a77cc8;stroke-width:3.958;stroke-linecap:round;stroke-linejoin:round;paint-order:fill markers stroke"
       d="m -33.692041,317.45377 h 0.485074 v -4.84419 h -0.485074 z m 1.311015,0 h 0.485074 v -3.58562 h -0.485074 z m 0,-4.01825 h 0.485074 v -0.82594 h -0.485074 z m 1.311015,4.01825 h 0.485074 v -1.97307 c 0,-0.39986 0.05244,-0.60962 0.190096,-0.81283 0.190096,-0.27531 0.524404,-0.43919 0.904597,-0.43919 0.353973,0 0.67517,0.14421 0.871822,0.38675 0.170431,0.22287 0.235981,0.48507 0.235981,0.95704 v 1.8813 h 0.485074 v -1.8813 c 0,-0.60307 -0.08522,-0.92427 -0.314642,-1.23235 -0.281868,-0.36053 -0.714501,-0.55718 -1.21924,-0.55718 -0.471963,0 -0.852156,0.17698 -1.153688,0.55062 v -0.46541 h -0.485074 z m 3.998584,0 h 0.485074 v -0.74072 l 0.563734,-0.69484 1.193019,1.43556 h 0.603065 l -1.487996,-1.78298 1.396225,-1.80264 h -0.596509 l -1.671538,2.17628 v -3.43485 h -0.485074 z m 6.705819,-1.63221 c 0,-0.49163 -0.06555,-0.79316 -0.242536,-1.1078 -0.321198,-0.57685 -0.943928,-0.93082 -1.632208,-0.93082 -1.042253,0 -1.855079,0.81938 -1.855079,1.86163 0,1.06192 0.832491,1.89441 1.894409,1.89441 0.780051,0 1.481442,-0.50474 1.743644,-1.26512 h -0.504739 c -0.203207,0.49163 -0.707945,0.81938 -1.252015,0.81938 -0.74072,0 -1.356895,-0.56374 -1.396225,-1.27168 z m -3.231639,-0.43919 c 0.131101,-0.68828 0.67517,-1.15369 1.356895,-1.15369 0.694835,0 1.219239,0.43263 1.389671,1.15369 z m 7.564524,-2.77279 h -0.485073 v 1.82886 c -0.353973,-0.42608 -0.845602,-0.6555 -1.409336,-0.6555 -1.088138,0 -1.90752,0.81282 -1.90752,1.88785 0,1.06192 0.845602,1.86819 1.953405,1.86819 0.603065,0 0.996368,-0.21632 1.363451,-0.73416 v 0.64895 h 0.485073 z m -1.907519,1.6191 c 0.799716,0 1.442111,0.63584 1.442111,1.42245 0,0.79316 -0.629285,1.44211 -1.396226,1.44211 -0.825936,0 -1.448666,-0.62273 -1.448666,-1.44867 0,-0.7866 0.62273,-1.41589 1.402781,-1.41589 z m 4.549203,3.22509 h 0.485074 v -2.09107 c -0.0066,-0.64894 0.353973,-1.0488 1.016033,-1.10124 v -0.47852 c -0.517849,0.0262 -0.825937,0.2032 -1.016033,0.59651 v -0.5113 h -0.485074 z m 5.3620346,-1.63221 c 0,-0.49163 -0.065551,-0.79316 -0.2425368,-1.1078 -0.3211975,-0.57685 -0.9439272,-0.93082 -1.6322075,-0.93082 -1.0422533,0 -1.8550793,0.81938 -1.8550793,1.86163 0,1.06192 0.832492,1.89441 1.8944096,1.89441 0.780051,0 1.4814413,-0.50474 1.7436433,-1.26512 h -0.5047388 c -0.2032066,0.49163 -0.7079454,0.81938 -1.2520146,0.81938 -0.7407205,0 -1.3568955,-0.56374 -1.3962255,-1.27168 z m -3.2316396,-0.43919 c 0.131101,-0.68828 0.67517,-1.15369 1.3568953,-1.15369 0.6948353,0 1.2192393,0.43263 1.3896706,1.15369 z m 7.5579671,-1.51422 h -0.4850736 v 0.63584 c -0.3605278,-0.49818 -0.7931611,-0.72105 -1.4158908,-0.72105 -1.0750282,0 -1.8878544,0.81282 -1.8878544,1.88785 0,1.07503 0.8193812,1.86819 1.9271847,1.86819 0.6096196,0 0.9898125,-0.19665 1.3765605,-0.7145 v 0.62929 h 0.4850736 z m -1.8878543,0.36053 c 0.793161,0 1.4027807,0.61618 1.4027807,1.41589 0,0.81938 -0.6030646,1.44867 -1.3765605,1.44867 -0.8128262,0 -1.435556,-0.63584 -1.435556,-1.45522 0,-0.78005 0.6292848,-1.40934 1.4093358,-1.40934 z m 6.37806672,-1.6191 H 0.30246183 v 1.82886 c -0.35397269,-0.42608 -0.84560144,-0.6555 -1.40933573,-0.6555 -1.0881383,0 -1.9075195,0.81282 -1.9075195,1.88785 0,1.06192 0.8456014,1.86819 1.9534049,1.86819 0.60306454,0 0.99636754,-0.21632 1.36345033,-0.73416 v 0.64895 h 0.48507369 z m -1.90751952,1.6191 c 0.79971609,0 1.44211098,0.63584 1.44211098,1.42245 0,0.79316 -0.62928479,1.44211 -1.39622558,1.44211 -0.8259363,0 -1.4486661,-0.62273 -1.4486661,-1.44867 0,-0.7866 0.6227298,-1.41589 1.4027807,-1.41589 z m 2.4384771,2.16972 c 0.00656,0.69484 0.4588535,1.14058 1.1536887,1.14058 0.64895,0 1.0946934,-0.45885 1.0946934,-1.11436 0,-0.43919 -0.2032066,-0.74072 -0.6227298,-0.9177 -0.5506242,-0.22943 -0.5768444,-0.23599 -0.6751701,-0.28843 -0.2228717,-0.11143 -0.3277525,-0.2622 -0.3277525,-0.47196 0,-0.28842 0.2294267,-0.51785 0.5178489,-0.51785 0.3146424,0 0.4981838,0.18354 0.524404,0.52441 h 0.4916288 c -0.019665,-0.57685 -0.4326333,-0.97015 -1.0094777,-0.97015 -0.5833995,0 -1.0160327,0.42608 -1.0160327,1.00948 0,0.2622 0.091771,0.47851 0.268757,0.64239 0.1507661,0.13766 0.1573212,0.14421 0.66206,0.34742 0.5571793,0.22942 0.6948353,0.36053 0.6948353,0.68828 0,0.36053 -0.2490919,0.62273 -0.6030646,0.62273 -0.4064131,0 -0.6489499,-0.24909 -0.6751701,-0.69484 z"
       id="text23-0"
       aria-label="linked reads" />
    <path
       style="font-size:6.55505px;font-family:'URW Gothic';-inkscape-font-specification:'URW Gothic, Normal';text-align:center;text-anchor:middle;fill:#679bbd;stroke-width:3.958;stroke-linecap:round;stroke-linejoin:round;paint-order:fill markers stroke"
       d="m -51.331662,329.54324 h 0.485073 v -3.58561 h -0.485073 z m 0,-4.01824 h 0.485073 v -0.82594 h -0.485073 z m 1.311015,4.01824 h 0.485073 v -1.97307 c 0,-0.39985 0.05244,-0.60962 0.190097,-0.81282 0.190096,-0.27531 0.524404,-0.43919 0.904597,-0.43919 0.353972,0 0.67517,0.14421 0.871821,0.38675 0.170432,0.22287 0.235982,0.48507 0.235982,0.95703 v 1.8813 h 0.485074 v -1.8813 c 0,-0.60306 -0.08522,-0.92426 -0.314643,-1.23235 -0.281867,-0.36052 -0.7145,-0.55717 -1.219239,-0.55717 -0.471963,0 -0.852156,0.17698 -1.153689,0.55062 v -0.46541 h -0.485073 z m 4.247676,0 h 0.485074 v -3.14642 h 0.891486 v -0.43919 h -0.891486 c -0.0066,-0.60306 0.229426,-0.81283 0.891486,-0.81938 v -0.43919 c -0.924262,0 -1.38967,0.42608 -1.37656,1.25857 h -0.557179 v 0.43919 h 0.557179 z m 5.244033,-1.6322 c 0,-0.49163 -0.06555,-0.79317 -0.242536,-1.10781 -0.321198,-0.57684 -0.943928,-0.93081 -1.632208,-0.93081 -1.042253,0 -1.855079,0.81938 -1.855079,1.86163 0,1.06192 0.832491,1.89441 1.894409,1.89441 0.780051,0 1.481442,-0.50474 1.743644,-1.26513 h -0.504739 c -0.203207,0.49163 -0.707945,0.81939 -1.252015,0.81939 -0.74072,0 -1.356895,-0.56374 -1.396225,-1.27168 z m -3.231639,-0.43919 c 0.131101,-0.68828 0.67517,-1.15369 1.356895,-1.15369 0.694835,0 1.219239,0.43263 1.389671,1.15369 z m 3.900252,2.07139 h 0.485074 v -2.09106 c -0.0066,-0.64895 0.353972,-1.04881 1.016032,-1.10125 v -0.47851 c -0.517849,0.0262 -0.825936,0.2032 -1.016032,0.59651 v -0.5113 h -0.485074 z m 2.005843,0 h 0.485074 v -2.09106 c -0.0066,-0.64895 0.353973,-1.04881 1.016033,-1.10125 v -0.47851 c -0.517849,0.0262 -0.825937,0.2032 -1.016033,0.59651 v -0.5113 h -0.485074 z m 5.362034,-1.6322 c 0,-0.49163 -0.06555,-0.79317 -0.242536,-1.10781 -0.321198,-0.57684 -0.943928,-0.93081 -1.632208,-0.93081 -1.042253,0 -1.855079,0.81938 -1.855079,1.86163 0,1.06192 0.832491,1.89441 1.894409,1.89441 0.780051,0 1.481442,-0.50474 1.743644,-1.26513 h -0.504739 c -0.203207,0.49163 -0.707946,0.81939 -1.252015,0.81939 -0.74072,0 -1.356895,-0.56374 -1.396225,-1.27168 z m -3.231639,-0.43919 c 0.131101,-0.68828 0.67517,-1.15369 1.356895,-1.15369 0.694835,0 1.219239,0.43263 1.389671,1.15369 z m 7.564525,-2.77279 h -0.485073 v 1.82886 c -0.353973,-0.42608 -0.845602,-0.6555 -1.409336,-0.6555 -1.088138,0 -1.90752,0.81282 -1.90752,1.88785 0,1.06192 0.845602,1.86819 1.953405,1.86819 0.603065,0 0.996368,-0.21632 1.363451,-0.73417 v 0.64895 h 0.485073 z m -1.907519,1.6191 c 0.799716,0 1.442111,0.63584 1.442111,1.42244 0,0.79317 -0.629285,1.44212 -1.396226,1.44212 -0.825936,0 -1.448666,-0.62273 -1.448666,-1.44867 0,-0.78661 0.62273,-1.41589 1.402781,-1.41589 z m 4.549204,3.22508 h 0.485074 v -2.09106 c 0,-0.7145 0.360528,-1.13402 0.963592,-1.13402 0.294977,0 0.57029,0.11799 0.747276,0.32775 0.157321,0.18354 0.222872,0.43263 0.222872,0.80627 v 2.09106 h 0.485073 v -2.07795 c 0,-0.34742 0.05244,-0.56373 0.170432,-0.74072 0.170431,-0.25564 0.471963,-0.40641 0.812826,-0.40641 0.314642,0 0.589954,0.12454 0.753831,0.34086 0.131101,0.17699 0.196651,0.44574 0.196651,0.80627 v 2.07795 h 0.485074 v -2.13039 c 0,-0.47196 -0.08522,-0.77349 -0.288422,-1.0357 -0.249092,-0.32119 -0.655505,-0.50473 -1.120914,-0.50473 -0.557179,0 -0.943927,0.20976 -1.245459,0.68828 -0.281868,-0.48508 -0.629285,-0.68828 -1.173354,-0.68828 -0.452299,0 -0.727611,0.13765 -1.009478,0.49818 v -0.41297 h -0.485074 z m 7.892277,-3.67082 c -1.068473,0 -1.881299,0.80627 -1.881299,1.85507 0,1.10781 0.806271,1.90097 1.92063,1.90097 1.048808,0 1.822304,-0.79316 1.822304,-1.86819 0,-1.09469 -0.780051,-1.88785 -1.861635,-1.88785 z m 0,0.44574 c 0.793161,0 1.370006,0.60962 1.370006,1.44866 0,0.82594 -0.563734,1.4159 -1.343785,1.4159 -0.825937,0 -1.415891,-0.59651 -1.415891,-1.44212 0,-0.81282 0.596509,-1.42244 1.38967,-1.42244 z m 2.549919,3.22508 h 0.485074 v -4.84418 h -0.485074 z m 4.903184,-1.6322 c 0,-0.49163 -0.06555,-0.79317 -0.242537,-1.10781 -0.321198,-0.57684 -0.943927,-0.93081 -1.632208,-0.93081 -1.042253,0 -1.855079,0.81938 -1.855079,1.86163 0,1.06192 0.832491,1.89441 1.89441,1.89441 0.78005,0 1.481441,-0.50474 1.743643,-1.26513 h -0.504739 c -0.203207,0.49163 -0.707945,0.81939 -1.252015,0.81939 -0.74072,0 -1.356895,-0.56374 -1.396225,-1.27168 z m -3.23164,-0.43919 c 0.131101,-0.68828 0.67517,-1.15369 1.356895,-1.15369 0.694836,0 1.21924,0.43263 1.389671,1.15369 z m 6.9221305,1.01603 c -0.3736378,0.49818 -0.7145004,0.69484 -1.2323494,0.69484 -0.799716,0 -1.4355559,-0.62929 -1.4355559,-1.42901 0,-0.80627 0.6227298,-1.43555 1.4224458,-1.43555 0.5309591,0 0.9701474,0.25565 1.2454595,0.72761 h 0.5440692 c -0.2884222,-0.72106 -0.9767025,-1.17335 -1.7829736,-1.17335 -1.0750282,0 -1.9206296,0.82593 -1.9206296,1.86818 0,1.06848 0.8521565,1.88786 1.9534048,1.88786 0.4457434,0 0.8587116,-0.13766 1.1930191,-0.40641 0.2294268,-0.18355 0.3670828,-0.36053 0.5637343,-0.73417 z m 4.3197659,-2.53025 h -0.4850737 v 1.84197 c 0,0.43919 -0.065551,0.7145 -0.2163166,0.93737 -0.2032066,0.28842 -0.524404,0.44575 -0.9045969,0.44575 -0.3998581,0 -0.7341656,-0.16388 -0.8980419,-0.4523 -0.1114358,-0.18354 -0.1704313,-0.47197 -0.1704313,-0.83905 v -1.93374 h -0.4850736 v 1.93374 c 0,0.53751 0.085216,0.89804 0.2818671,1.1668 0.268757,0.37364 0.7013903,0.57029 1.2389044,0.57029 0.5571793,0 0.911152,-0.19665 1.1536888,-0.6424 v 0.55718 h 0.4850737 z m 0.8259358,3.58561 h 0.48507367 v -4.84418 H -1.3363048 Z m 4.9031834,-1.6322 c 0,-0.49163 -0.065551,-0.79317 -0.2425368,-1.10781 -0.3211975,-0.57684 -0.9439272,-0.93081 -1.6322075,-0.93081 -1.0422529,0 -1.85507909,0.81938 -1.85507909,1.86163 0,1.06192 0.83249134,1.89441 1.89440939,1.89441 0.780051,0 1.4814413,-0.50474 1.7436433,-1.26513 H 2.9703691 c -0.2032066,0.49163 -0.7079454,0.81939 -1.2520146,0.81939 -0.74072061,0 -1.3568953,-0.56374 -1.3962256,-1.27168 z M 0.335239,327.47185 c 0.131101,-0.68828 0.6751701,-1.15369 1.3568953,-1.15369 0.6948353,0 1.2192393,0.43263 1.3896706,1.15369 z"
       id="text25-1"
       aria-label="inferred molecule" />
    <path
       style="font-size:6.55505px;font-family:'URW Gothic';-inkscape-font-specification:'URW Gothic, Normal';text-align:center;text-anchor:middle;fill:#717171;stroke-width:3.958;stroke-linecap:round;stroke-linejoin:round;paint-order:fill markers stroke"
       d="m -13.082965,340.57736 c -0.373638,0.49818 -0.714501,0.69483 -1.23235,0.69483 -0.799716,0 -1.435556,-0.62928 -1.435556,-1.429 0,-0.80627 0.62273,-1.43555 1.422446,-1.43555 0.530959,0 0.970148,0.25564 1.24546,0.72761 h 0.544069 c -0.288422,-0.72106 -0.976702,-1.17336 -1.782974,-1.17336 -1.075028,0 -1.920629,0.82594 -1.920629,1.86819 0,1.06848 0.852156,1.88786 1.953405,1.88786 0.445743,0 0.858711,-0.13766 1.193019,-0.40642 0.229426,-0.18354 0.367082,-0.36052 0.563734,-0.73416 z m 2.910441,-2.61547 c -1.068473,0 -1.881299,0.80627 -1.881299,1.85508 0,1.10781 0.806271,1.90097 1.92063,1.90097 1.0488077,0 1.8223036,-0.79316 1.8223036,-1.86819 0,-1.0947 -0.7800509,-1.88786 -1.8616346,-1.88786 z m 0,0.44575 c 0.7931615,0 1.3700059,0.60962 1.3700059,1.44866 0,0.82594 -0.5637343,1.41589 -1.3437849,1.41589 -0.825937,0 -1.415891,-0.59651 -1.415891,-1.44211 0,-0.81282 0.596509,-1.42244 1.38967,-1.42244 z m 2.5499196,3.22508 h 0.4850737 v -1.97307 c 0,-0.39986 0.05244,-0.60962 0.1900964,-0.81283 0.1900965,-0.27531 0.524404,-0.43918 0.9045969,-0.43918 0.3539727,0 0.6751701,0.14421 0.8718216,0.38674 0.1704313,0.22288 0.2359818,0.48508 0.2359818,0.95704 v 1.8813 h 0.4850737 v -1.8813 c 0,-0.60306 -0.085216,-0.92426 -0.3146424,-1.23235 -0.2818671,-0.36053 -0.7145004,-0.55718 -1.2192393,-0.55718 -0.4719636,0 -0.8521564,0.17699 -1.1536887,0.55063 v -0.46541 h -0.4850737 z m 4.4377731,0 h 0.4850736 v -3.14642 h 0.8062712 v -0.43919 h -0.8062712 v -1.25857 h -0.4850736 v 1.25857 h -0.7734959 v 0.43919 h 0.7734959 z m 1.8091961,0 h 0.48507368 v -3.58561 H -1.3756352 Z m 0,-4.01824 h 0.48507368 v -0.82594 H -1.3756352 Z m 4.9425115,0.43263 H 3.0818027 v 0.63584 c -0.3605278,-0.49819 -0.7997161,-0.72106 -1.4093358,-0.72106 -1.04880796,0 -1.8288589,0.81283 -1.8288589,1.89441 0,1.04881 0.81282619,1.86164 1.8681892,1.86164 0.64895,0 1.0881383,-0.26221 1.3700055,-0.81283 v 0.24254 c 0,0.35397 -0.03933,0.57684 -0.1442111,0.79971 -0.1900965,0.41297 -0.6161747,0.64895 -1.173354,0.64895 -0.399858,0 -0.7079454,-0.11799 -0.96359231,-0.36052 -0.12454595,-0.11144 -0.20320655,-0.22288 -0.3539727,-0.49163 H -0.025291 c 0.262202,0.83904 0.89804184,1.2979 1.8026387,1.2979 0.6227298,0 1.1471338,-0.23599 1.4552211,-0.6424 0.2425368,-0.32775 0.3343075,-0.70794 0.3343075,-1.40933 z m -1.8616341,0.36053 c 0.7734959,0 1.3765605,0.60962 1.3765605,1.38967 0,0.83904 -0.5899545,1.47488 -1.3700055,1.47488 -0.78660597,0 -1.37656046,-0.62273 -1.37656046,-1.45522 0,-0.81938 0.57684439,-1.40933 1.37000546,-1.40933 z"
       id="text28-6"
       aria-label="contig" />
    <rect
       style="fill:none;fill-opacity:1;stroke:#c5c5c5;stroke-width:0.37;stroke-linecap:round;stroke-linejoin:round;stroke-dasharray:none;stroke-opacity:1;paint-order:stroke markers fill"
       id="rect29-0"
       width="34.117599"
       height="8.7812653"
       x="6.4054914"
       y="346.07639"
       ry="2.1919999"
       rx="2.1919999" />
    <rect
       style="fill:none;fill-opacity:1;stroke:#c5c5c5;stroke-width:0.37;stroke-linecap:round;stroke-linejoin:round;stroke-dasharray:none;stroke-opacity:1;paint-order:stroke markers fill"
       id="rect30-4"
       width="34.117599"
       height="8.7812653"
       x="142.87549"
       y="346.07639"
       ry="2.1919999"
       rx="2.1917522" />
    <rect
       style="fill:none;fill-opacity:1;stroke:#c5c5c5;stroke-width:0.37;stroke-linecap:round;stroke-linejoin:round;stroke-dasharray:none;stroke-opacity:1;paint-order:stroke markers fill"
       id="rect31-2"
       width="34.117599"
       height="8.7812653"
       x="108.75801"
       y="346.07639"
       ry="2.1919999"
       rx="2.1919999" />
    <rect
       style="fill:none;fill-opacity:1;stroke:#c5c5c5;stroke-width:0.37;stroke-linecap:round;stroke-linejoin:round;stroke-dasharray:none;stroke-opacity:1;paint-order:stroke markers fill"
       id="rect32-7"
       width="34.117599"
       height="8.7812653"
       x="74.640511"
       y="346.07639"
       ry="2.1919999"
       rx="2.1919999" />
    <rect
       style="fill:none;fill-opacity:1;stroke:#c5c5c5;stroke-width:0.37;stroke-linecap:round;stroke-linejoin:round;stroke-dasharray:none;stroke-opacity:1;paint-order:stroke markers fill"
       id="rect33-4"
       width="34.117599"
       height="8.7812653"
       x="40.522999"
       y="346.07639"
       ry="2.1919999"
       rx="2.1919999" />
    <path
       style="fill:none;fill-opacity:1;stroke:#dddddd;stroke-width:0.370001;stroke-linecap:round;stroke-linejoin:round;stroke-dasharray:none;stroke-opacity:1;paint-order:stroke markers fill"
       d="M -26.842499,368.43633 H 177.98278"
       id="path33-0" />
    <path
       style="fill:none;fill-opacity:1;stroke:#dddddd;stroke-width:0.370001;stroke-linecap:round;stroke-linejoin:round;stroke-dasharray:none;stroke-opacity:1;paint-order:stroke markers fill"
       d="m 39.848145,360.51411 v 15.84443"
       id="path34-3" />
    <path
       style="fill:none;fill-opacity:1;stroke:#dddddd;stroke-width:0.370001;stroke-linecap:round;stroke-linejoin:round;stroke-dasharray:none;stroke-opacity:1;paint-order:stroke markers fill"
       d="m 74.532921,360.51411 v 15.84443"
       id="path34-6-2" />
    <path
       style="fill:none;fill-opacity:1;stroke:#dddddd;stroke-width:0.370001;stroke-linecap:round;stroke-linejoin:round;stroke-dasharray:none;stroke-opacity:1;paint-order:stroke markers fill"
       d="m 108.92875,360.51411 v 15.84443"
       id="path34-4-8" />
    <path
       style="fill:none;fill-opacity:1;stroke:#dddddd;stroke-width:0.370001;stroke-linecap:round;stroke-linejoin:round;stroke-dasharray:none;stroke-opacity:1;paint-order:stroke markers fill"
       d="m 143.3246,360.51411 v 15.84443"
       id="path34-2-0" />
    <path
       style="fill:none;fill-opacity:1;stroke:#dddddd;stroke-width:0.370001;stroke-linecap:round;stroke-linejoin:round;stroke-dasharray:none;stroke-opacity:1;paint-order:stroke markers fill"
       d="m 7.0641678,360.51411 v 15.84443"
       id="path34-0-3" />
  </g>
</svg>
